<svg xmlns="http://www.w3.org/2000/svg" xmlns:xlink="http://www.w3.org/1999/xlink" version="1.1" x="0px" y="0px" width="500px" height="421px" viewBox="0 0 500 421" enable-background="new 0 0 500 421" xml:space="preserve">
<g id="BACKGROUND">
</g>
<g id="DESIGNED_BY_FREEPIK">
	<g opacity="0.3">
		<path fill="#FFBE55" d="M355.139,307.515c-32.682-4.281-54.783,13.569-77.832,22.91c-27.135,10.996-49.699-7.422-70.736-17.825    c-37.812-18.698-65,18.682-106.846-1.168c-40.051-18.997-39.203-76.687-3.4-98.145c35.801-21.457,37.916-30.786,38.893-53.948    c0.977-23.16,3.471-66.296,46.471-56.172c36.959,8.703,60.684,6.531,81.625-3.893c20.939-10.425,93.311-34.311,99.098,39.9    c2.764,35.461,6.998,49.008,33.562,66.578c26.562,17.572,39.742,46.291,32.479,71.54    C421.574,301.202,398.791,313.231,355.139,307.515z"/>
	</g>
	<g>
		<g>
			<g>
				<path fill="#EEA886" d="M160.402,235.958c0,0,0.767,0.77,1.019,1.479c0.2,0.559,0.899,1.312,1.227,1.74      c0.329,0.428,1.544,2.422,1.71,2.971c0.069,0.227-0.069,1.764,0.12,2.207s0.683,1.295,0.288,1.441s-1.051-0.498-1.051-0.498      s0.147,0.414-0.158,0.646c-0.596,0.457-1.022,0.256-1.022,0.256s-0.131,0.518-0.427,0.645c-0.654,0.283-1.063,0.078-1.063,0.078      s-0.236,0.322-0.715,0.414c-0.611,0.117-1.003-0.355-1.003-0.355s-0.732,0.318-1.049,0.004      c-0.315-0.312-0.376-0.705-0.552-1.012c-0.177-0.309-0.863-3.273-0.409-5.611c0.456-2.336-1.33-4.143-1.33-4.143      L160.402,235.958z"/>
			</g>
		</g>
	</g>
	<g>
		<path fill="#0B4870" d="M165.843,253.05l-10.134-0.268c-1.029-0.025-1.845-0.885-1.817-1.914l0.167-6.391    c0.027-1.029,0.887-1.844,1.917-1.816l10.132,0.266c1.028,0.025,1.844,0.885,1.817,1.916l-0.168,6.389    C167.73,252.259,166.871,253.075,165.843,253.05z M155.941,243.913c-0.339-0.01-0.621,0.26-0.63,0.6l-0.168,6.389    c-0.008,0.338,0.26,0.621,0.599,0.629l10.133,0.268c0.339,0.008,0.621-0.262,0.631-0.6l0.167-6.389    c0.008-0.34-0.261-0.623-0.599-0.631L155.941,243.913z"/>
	</g>
	<g>
		
			<rect x="146.931" y="250.168" transform="matrix(0.9997 0.0262 -0.0262 0.9997 6.9702 -4.1165)" fill="#0B4870" width="27.121" height="27.248"/>
	</g>
	<g>
		
			<rect x="147.08" y="250.17" transform="matrix(0.9997 0.0262 -0.0262 0.9997 6.8197 -4.122)" fill="#0B4870" width="27.123" height="15.795"/>
	</g>
	<g>
		<g>
			<path fill="#DB9C7C" d="M163.752,244.997c0,0-0.61-2.662-1.45-3.08s-0.674,0.557-0.674,0.557s-0.147-0.965-0.94-0.932     c-0.794,0.031-0.537,1.162-0.537,1.162s-0.312-0.703-1.07-0.385c-0.762,0.318-0.332,1.207-0.332,1.207s-0.996-0.75-1.267,0.23     c-0.456,1.654,0.796,3.229,0.796,3.229s0.339,0.352,1.049-0.004c0,0,0.771,0.92,1.718-0.059c0,0,1.329,0.395,1.49-0.723     C162.534,246.2,163.973,246.54,163.752,244.997z"/>
		</g>
	</g>
	<path fill="#122333" d="M154.029,242.661l-3.113,18.764l-1.512-2.021C149.404,259.403,153.826,243.429,154.029,242.661z"/>
	<g>
		<path fill="#DB9C7C" d="M141.533,313.815c-0.848-1.207-0.085-5.729,1.969-7.619c2.054-1.893,3.938-0.094,3.938-0.094    s1.194,2.889,2.135,3.686c0.939,0.797,5.11,6.223,6.55,6.496s4.31,0.461,4.427,1.072c0.116,0.611,0.187,3.578-3.905,3.674    c-4.091,0.098-5.168,0.021-6.163-0.979c-0.997-1-4.902-3.875-5.977-3.85L141.533,313.815z"/>
		<path opacity="0.9" fill="#FFBE55" d="M156.125,316.284c0,0-4.54,0.619-6.469-0.869c-1.928-1.49-4.348-5.193-8.198-5.268    c0,0-1.38,1.766,0.879,5.801c0,0,1.251,4.625,1.218,5.393l1.074-0.025l-0.122-5.113c0,0,3.855,1.699,6.521,4.654    c0,0,7.844,1.248,9.322-1.193c0,0,0.815-1.221,0.455-2.414C160.444,316.054,156.125,316.284,156.125,316.284z"/>
		<path fill="#DB9C7C" d="M138.822,231.364c0,0-4.799,5.826,1.216,16.221c0,0,0.514,5.312,0.617,7.307    c0.103,1.994,1.389,9.451,0.697,13.072c-0.69,3.621-2.946,9.055-2.103,14.248s4.693,20.188,3.952,24.031l4.269-0.102    c0,0,1.521-31.758,1.994-32.879s2.355-3.551,2.128-8.48c-0.228-4.932,4.828-25.133,4.807-30.732    C156.377,228.448,138.822,231.364,138.822,231.364z"/>
		<path fill="#EEA886" d="M138.643,313.771c-0.817-1.229,0.052-5.73,2.149-7.572c2.097-1.842,3.938,0,3.938,0    s1.127,2.916,2.047,3.734c0.921,0.82,4.963,6.344,6.395,6.65c1.434,0.307,4.298,0.564,4.4,1.178s0.103,3.58-3.99,3.58    s-5.168-0.102-6.14-1.125s-4.809-3.99-5.884-3.99L138.643,313.771z"/>
		<path opacity="0.9" fill="#FFBE55" d="M153.172,316.583c0,0-4.553,0.512-6.445-1.023s-4.225-5.293-8.072-5.461    c0,0-1.421,1.734,0.741,5.824c0,0,1.142,4.65,1.089,5.418h1.074v-5.115c0,0,3.814,1.789,6.41,4.809c0,0,7.812,1.432,9.348-0.971    c0,0,0.844-1.203,0.512-2.406C157.495,316.456,153.172,316.583,153.172,316.583z"/>
		<path fill="#EEA886" d="M137.885,231.276c0,0-4.935,5.711,0.832,16.246c0,0,0.388,5.322,0.443,7.318s1.164,9.482,0.389,13.086    c-0.776,3.604-3.161,8.982-2.439,14.193c0.721,5.213,4.214,20.65,3.382,24.477l4.27-0.357c0,0,2.273-31.715,2.771-32.824    c0.499-1.107,2.44-3.492,2.329-8.428c-0.11-4.936,6.819-23.842,6.931-29.441S137.885,231.276,137.885,231.276z"/>
		<path fill="#0E538C" d="M156.792,237.044c0,0-5.493,31.604-4.274,36.15c0,0-9.277-0.85-16.599-3.695c0,0,3.655-12.371,2.42-18.928    c-1.234-6.557-4.021-10.146-2.184-16.771C137.991,227.175,156.792,237.044,156.792,237.044z"/>
	</g>
	<path fill="#0E538C" d="M287.636,165.3c0,0,5.115-3.195,7.73,0.951c1.925,3.053,2.507,14.904,2.507,14.904l0.581,11.463   c0,0-0.811,1.883-5.409,1.758S287.636,165.3,287.636,165.3z"/>
	<path opacity="0.9" fill="#FFBE55" d="M292.118,305.173c0,0-2.907,4.318-4.079,5.359c0,0-4.498,2.76-4.666,4.594   c-0.109,1.197,1.799,1.307,4.879,1.395c3.081,0.086,5.059-0.988,5.621-2.855c0.564-1.865,1.631-2.699,1.631-2.699v3.904h0.692   c0,0,0.174-3.775,0.218-4.469c0.043-0.693,0.498-3.363-0.967-4.545C293.982,304.673,292.118,305.173,292.118,305.173z"/>
	<path fill="#DBA585" d="M287.539,310.753c0,0,2.532,1.301,4.832-0.418s3.076-4.479,3.076-4.479l-3.329-0.684L287.539,310.753z"/>
	<g>
		<path opacity="0.9" fill="#FFBE55" d="M272.398,301.724c0,0-0.505,1.189-1.455,2.432c-0.697,0.906-2.861,4.641-3.818,4.9    c-0.955,0.262-4.164,2.432-4.425,4.08s-0.13,1.172,2.777,1.301c2.906,0.131,4.815,0.303,6.204-1.734    c1.389-2.039,3.602-3.514,3.602-3.514v5.318h1.128c0,0,0.521-5.537,0.825-5.928c0.303-0.391,1.083-4.643-1.606-6.855    C272.939,299.511,272.398,301.724,272.398,301.724z"/>
		<path fill="#DBA585" d="M267.125,309.056c0,0,2.604,0.652,3.603,0c0.997-0.65,4.39-6.385,5.515-6.729c0,0-1.09-2.209-3.844-0.604    C272.398,301.724,267.863,308.101,267.125,309.056z"/>
	</g>
	<g>
		<g>
			<g>
				<path fill="#DBA585" d="M264.342,238.542c0,0-0.674,0.645-0.904,1.244c-0.186,0.475-0.8,1.105-1.091,1.463      c-0.291,0.361-1.378,2.041-1.533,2.508c-0.062,0.191,0.021,1.514-0.15,1.887c-0.171,0.377-0.614,1.096-0.279,1.23      s0.91-0.404,0.91-0.404s-0.135,0.352,0.121,0.559c0.5,0.404,0.872,0.242,0.872,0.242s0.1,0.445,0.351,0.561      c0.554,0.258,0.908,0.092,0.908,0.092s0.196,0.283,0.604,0.371c0.521,0.113,0.867-0.283,0.867-0.283s0.619,0.289,0.897,0.027      s0.338-0.594,0.497-0.855c0.157-0.258,0.812-2.785,0.475-4.797s1.234-3.52,1.234-3.52L264.342,238.542z"/>
			</g>
		</g>
	</g>
	<g>
		<path fill="#0B4870" d="M257.189,252.411v-5.477c0-0.883,0.717-1.6,1.6-1.6h8.687c0.882,0,1.6,0.717,1.6,1.6v5.477    c0,0.883-0.718,1.6-1.6,1.6h-8.687C257.906,254.011,257.189,253.294,257.189,252.411z M258.789,246.407    c-0.291,0-0.526,0.236-0.526,0.527v5.477c0,0.291,0.235,0.527,0.526,0.527h8.687c0.29,0,0.527-0.236,0.527-0.527v-5.477    c0-0.291-0.237-0.527-0.527-0.527H258.789z"/>
	</g>
	<g>
		<rect x="246.837" y="251.659" fill="#0E538C" width="32.591" height="23.352"/>
	</g>
	<g>
		<path fill="#DBA585" d="M276.975,189.177c0,0,1.67,0.025,2.382,5.016c0.712,4.992-0.638,7.078-0.798,9.154    c-0.16,2.078-2.598,15.494-2.663,16.088c-0.066,0.592-0.394,7.732-1.344,9.627s-7.935,12.633-8.028,13.168    c-0.094,0.537-3.393-1.869-3.393-1.869s5.489-11.488,5.807-12.797c0.318-1.311,2.527-8.004,2.178-10.047    c-0.35-2.041,0.979-13.311,0.85-14.564S273.777,189.94,276.975,189.177z"/>
	</g>
	<g>
		<path fill="#0E538C" d="M276.975,189.177c0,0,1.67,0.025,2.382,5.016c0.712,4.992,0.068,6.789-0.362,8.953    c-0.406,2.043-1.791,14.543-1.857,15.135c-0.066,0.596-1.724,8.129-2.585,10.781c-0.655,2.016-6.884,12.568-6.978,13.105    c-0.094,0.535-4.841-2.467-4.841-2.467s6.09-11.881,6.406-13.191c0.319-1.311,1.351-5.846,1.384-7.92    c0.039-2.434,1.57-14.383,1.441-15.637S272.316,190.884,276.975,189.177z"/>
	</g>
	<path fill="#0B4870" d="M292.895,222.265c0,0,3.67,4.773,4.666,10.436c0.994,5.662-0.589,24.664-0.544,27.465   c0.042,2.799,2.646,9.762,2.124,15.033c-0.521,5.273-2.14,31.078-2.14,31.078l-6.06-0.684c0,0,0.325-26.748,0-28.963   c-0.326-2.211-0.979-10.279-1.109-11.189s-8.264-24.838-8.264-28.92S284.043,215.604,292.895,222.265z"/>
	<path fill="#0B4870" d="M274.453,224.132c0,0-6.031,23.016-6.746,26.205c-0.717,3.189-1.755,5.82-1.755,7.174   c0,3.141,1.168,8.186,1.168,8.186l4.101,36.447h5.181c0,0,0.091-21.283,0.417-25.576c0.324-4.297-2.344-10.936-1.692-12.758   c0.65-1.822,10.479-22.844,10.479-22.844S293.046,217.448,274.453,224.132z"/>
	<g>
		<path fill="#F7F7F7" d="M281.873,187.378c0,0-3.221,1.521-4.338,1.746c-1.119,0.223-5.459,5.859-6.219,7.916    c-0.761,2.059,0,5.146,1.565,8.77s0.089,4.832,0.806,8.455c0.715,3.623,1.342,11.295,1.207,13.309    c-0.134,2.012,18.095,2.393,22.255-1.275c0,0-4.182-6.262-4.719-7.158c-0.536-0.895-0.09-5.77,0.403-7.023    c0.491-1.252,3.768-11.904,3.768-11.904s2.679-8.18,0.259-10.061c-2.103-1.633-7.833-2.215-8.862-2.572    C286.97,187.22,283.977,187.065,281.873,187.378z"/>
	</g>
	<g>
		<path fill="#CFC3BC" d="M280.846,194.558l-1.959-2.291l1.701-6.033C280.588,186.233,281.158,189.593,280.846,194.558z"/>
	</g>
	<g>
		<path fill="#DBA585" d="M280.336,183.663c0,0,0.645,5.908,0.51,7.83c0,0,3.345,3.355,7.152-3.914c0,0-1.603-2.996-0.396-7.078    S280.336,183.663,280.336,183.663z"/>
	</g>
	<g>
		<polygon fill="#DBA585" points="280.846,191.493 280.846,194.558 284.696,191.681   "/>
	</g>
	<g>
		<polygon fill="#CFC3BC" points="280.846,194.558 282.443,192.579 287.83,187.21 289.574,188.888   "/>
	</g>
	<g>
		<path fill="#0E538C" d="M288.579,187.724c0,0-4.521,6.861-4.737,9.881c-0.215,3.018,1.68,25.607,3.198,32.867    s12.49-0.818,12.49-0.818s-7.373-11.934-4.542-21.488c2.829-9.557,3.858-13.373,3.858-13.373s-0.974-5.322-4.425-6.07    C291.396,188.065,288.579,187.724,288.579,187.724z"/>
	</g>
	<g>
		<path fill="#0E538C" d="M271.018,197.956c0,0-0.814,2.887,2.362,9.266c0,0-0.051,8.16-0.141,10.709    c-0.089,2.551-0.692,12.191-0.692,12.191l3.141,1.842c0.633,0.369,1.416-0.145,1.329-0.873    c-0.891-7.338-3.784-35.172,2.467-42.654l-2.509,0.74C276.975,189.177,272.518,192.825,271.018,197.956z"/>
	</g>
	<g>
		<path fill="#DBA585" d="M285.952,174.548c0.278-0.705,1.207-0.902,1.743-0.5c0.537,0.402,0.852,1.609,0,3.176    C286.847,178.79,283.85,179.882,285.952,174.548z"/>
	</g>
	<g>
		<polygon fill="#D3D3D3" points="278.887,192.267 276.422,192.948 280.588,186.233   "/>
	</g>
	<g>
		<polygon fill="#D3D3D3" points="282.443,192.579 284.696,195.532 289.322,187.821 287.83,187.21   "/>
	</g>
	<g>
		<path fill="#997761" d="M280.469,184.962l0.111,1.186c0,0,2.659,0.498,6.14-3.75C286.72,182.397,284.253,185.409,280.469,184.962z    "/>
	</g>
	<g>
		<g>
			<path fill="#EBB18F" d="M261.271,246.212c0,0,0.582-2.268,1.312-2.605c0.729-0.338,0.564,0.49,0.564,0.49     s0.148-0.822,0.827-0.777c0.678,0.047,0.434,1.008,0.434,1.008s0.283-0.596,0.927-0.303c0.644,0.287,0.256,1.041,0.256,1.041     s0.871-0.621,1.08,0.225c0.354,1.428-0.718,2.773-0.718,2.773s-0.333,0.305-0.933-0.018c0,0-0.696,0.773-1.486-0.084     c0,0-1.158,0.307-1.271-0.656C262.263,247.306,260.929,247.517,261.271,246.212z"/>
		</g>
	</g>
	<path fill="#2F386C" d="M285.173,216.401l5.119-8.258c0,0-4.364,5.154-4.819,5.707c-0.454,0.553-0.493,0.594-0.493,0.594   S285.111,216.122,285.173,216.401z"/>
	<g>
		<path fill="#F2B793" d="M252.993,214.489c-0.343-0.301-0.706-0.645-1.161-0.66c-0.541-0.02-0.965,0.424-1.421,0.717    c-0.64,0.41-1.419,0.541-2.088,0.898c-0.787,0.42-1.402,1.176-1.604,2.045c-0.203,0.869,0.029,1.84,0.644,2.488    c0.309,0.326,0.706,0.574,0.952,0.949c0.22,0.334,0.302,0.742,0.503,1.09c0.2,0.348,0.608,0.641,0.983,0.5    c0.228-0.084,0.373-0.297,0.53-0.482c0.628-0.736,1.609-1.084,2.57-1.211c0.96-0.127,1.935-0.066,2.899-0.146    c0.499-0.043,1.066-0.174,1.295-0.619c0.25-0.488-0.049-1.068-0.343-1.535c-0.753-1.203,0.235-1.674-0.519-2.875    c-0.258,0.002-2.215-0.635-2.475-0.701C253.471,214.874,253.215,214.679,252.993,214.489z"/>
		<path fill="#F4A086" d="M246.735,217.421c0.284-0.641,0.674-1.059,0.999-1.422c0.336-0.377,0.722-0.525,1.171-0.758    c0.259-0.133,0.542-0.242,0.833-0.223c0.346,0.023,0.546,0.064,0.835,0.258c0.287,0.195,0.718,0.391,1.064,0.412    c0.347,0.023,0.893-0.145,0.913-0.492c0.012-0.217-0.401-0.424-0.543-0.588c-0.589-0.686-1.452-1.207-2.291-1.207    c-0.375,0-0.885,0.223-1.346,0.359c-0.32,0.094-0.685,0.164-1.004,0.26c-0.844,0.248-1.711,0.59-2.408,1.125    c-0.464,0.355-1.604,1.719-0.83,2.248C244.875,217.903,246.393,218.19,246.735,217.421z"/>
		<path fill="#F4A086" d="M253.219,220.788c-0.764,1.164-1.598,1.555-2.951,1.885c-0.176,0.043-0.387,0.07-0.521-0.055    c-0.062-0.059-0.111-0.156-0.154-0.23c-0.035-0.057-0.057-0.119-0.056-0.184c0.002-0.064,0.051-0.156,0.101-0.197    c0.076-0.062,0.188-0.059,0.244-0.146c0.048-0.07,0.059-0.141,0.086-0.225c0.058-0.174,0.143-0.33,0.312-0.424    c0.207-0.111,0.44,0.021,0.611-0.234c0.063-0.096,0.158-0.236,0.266-0.277c0.331-0.131,0.482,0.072,0.681-0.068    c0.091-0.064,0.146-0.236,0.258-0.293c0.122-0.061,0.186-0.076,0.32-0.09C252.729,220.22,253.325,220.372,253.219,220.788z"/>
	</g>
	<path fill="#0E538C" d="M287.636,199.999c1.159-2.576,0.587-6.387,4.034-8.34c2.608-1.479,3.147-3.43,5.19-1.508   c2.042,1.924,2.451,6.453,1.95,8.996c-0.574,2.904-3.285,12.225-4.903,14.416c-1.642,2.225-2.502,3.512-5.318,4.627   c-2.272,0.9-5.657,0.982-8.337,1.252c-1.439,0.146-2.884,0.273-4.329,0.387c-1.31,0.102-11.029,0.596-12.467,0.779   c-0.275,0.035-4.625-0.088-4.884-0.174c-0.379-0.125-1.261-0.088-1.477-0.377c-0.598-0.799-0.694-1.463-0.694-1.463l-0.354-3.984   c0.15-0.039,7.033-0.42,7.264-0.424c0.731-0.016,4.243-0.098,9.688-0.789c0.76-0.098,7.497-0.873,8.175-1.125   c0.558-0.207,2.098-0.664,2.271-1.271c0,0,1.123-1.055,1.774-2.857C285.97,206.063,286.722,202.034,287.636,199.999z"/>
	<path fill="#0B4870" d="M193.096,310.938c0,0-1.182,2.209-1.956,3.082c-0.771,0.877-5.843,5.422-5.859,8.025   c-0.017,2.82,5.665,0.531,9.06-1.047c1.777-0.826,2.105-1.611,2.93-3.207c0.824-1.598,1.655-1.328,1.81-2.615   s-0.798-4.238-0.798-4.238H193.096z"/>
	<g>
		<path fill="#0B4870" d="M222.899,310.683c0,0,2.412,2.693,4.86,3.258c2.45,0.564,6.369,3.066,6.389,4.611    c0.018,1.547-9.256,0.781-12.059-0.777c-4.182-2.326-4.607-1.623-5.072-2.787c-0.463-1.162,0.558-4.271,0.527-4.639    C217.509,309.89,222.899,310.683,222.899,310.683z"/>
	</g>
	<g>
		<path fill="#807F7D" d="M222.627,309.394c0,0,0.32,1.262,0.272,1.289c-0.048,0.025-5.52,0.678-5.354-0.334    c0.135-0.822,0.325-1.715,0.325-1.715L222.627,309.394z"/>
	</g>
	<g>
		<path fill="#807F7D" d="M198.213,310.087c0,0,0.229,1.205,0.186,1.232c-0.045,0.029-5.549,1.012-5.519,0.014    c0.024-0.795,0.508-1.719,0.508-1.719L198.213,310.087z"/>
	</g>
	<g>
		<path fill="#0E538C" d="M217.652,233.856c0,0,1.99,19.324,3.026,25.941c1.208,7.736,1.619,14.127,1.956,18.129    c0.424,5.035,0.506,29.807,0.805,31.279c0.296,1.473-6.593,0.408-6.593,0.408s-3.388-32.367-4.653-37.73    c-1.176-4.994-5.546-26.492-6.619-25.129c-1.074,1.365-2.405,25.09-3.202,29.027c-0.795,3.939-3.214,34.771-3.214,34.771    s-5.482,1.092-6.941-0.143c0,0-0.663-26.57-0.157-33.955c0.194-2.814-3.297-33.74,1.179-46.189    C195.604,223.687,217.652,233.856,217.652,233.856z"/>
	</g>
	<g>
		<path fill="#F7F7F7" d="M199.79,229.573c0,0,1.328-2.008,2.732-2.266c1.407-0.258-19.368-10.301-19.312-13.889    c0.042-2.91,7.274-8.277,7.274-8.277s-0.002-0.008,0,0c0.002,0.004,0-0.051,0-0.049c0,0.004,0-0.004,0,0    c0.158,0.576,2.52,9.172,2.594,13.002c0.08,3.975-0.237,17.652-0.237,17.652l5.325,1.426l17.008,0.158l3.883-1.584    c0,0-0.425-4.396-0.582-7.486c-0.099-1.963-0.479-5.479-0.381-8.902c0,0-0.063-3.609,0.295-5.164    c0.038-6.859,0.454-13.652,0.454-13.652c0.23-3.111,0.391-6.02,0.482-8.732c-0.751-0.396-1.651-0.861-2.376-1.203    c-2.232-1.064-5.346-2.498-7.344-3.416c-1.17-0.535-2.314-0.928-2.314-0.928s-7.983-0.766-8.632-0.725    c-0.204,0.014-1.201,0.359-2.511,0.859c-2.831,1.074-8.287,3.262-9.158,3.887c-1.275,0.91-9.619,22.988-9.74,24.506    C177.031,217.524,199.79,229.573,199.79,229.573z"/>
	</g>
	<path fill="#0E538C" d="M218.544,234.296c0,0-11.684,0.994-21.915,0v3.357c0,0,15.238,1.455,22.428-0.641L218.544,234.296z"/>
	<g>
		<path fill="#0B4870" d="M208.579,186.751c0,0,1.9,4.465,3.326,14.443c0.548,3.832,1.564,10.285,2.302,16.871l0,0    c0.582,5.191,1.909,10.52,2.332,14.492c0.438,4.117,1.754,16.246,1.754,16.246l3.195-2.016c0.458-0.422,1.097-0.969,0.911-1.562    c-0.878-2.838-2.562-12.217-3.554-20.393c0-0.006-0.003-0.012-0.003-0.018c-0.047-0.395-0.093-0.785-0.138-1.172    c-0.003-0.02-0.004-0.041-0.007-0.062c-0.188-1.635-0.343-3.201-0.454-4.637c-0.085-1.098-0.009-2.174,0.143-3.225    c0.444-7.34,0.666-15.074,0.666-15.074c0.235-3.17,0.369-6.129,0.459-8.885C219.512,191.761,209.487,187.022,208.579,186.751z"/>
	</g>
	<g>
		<path fill="#0B4870" d="M185.596,212.405c-1.388,3.037,12.715,8.455,12.397,9.203c-0.764,1.797-3.876,5.461-3.876,5.461    s-18.565-9.186-18.356-11.266c0.15-1.516,8.848-24.434,10.122-25.348c0.736-0.527,6.188-2.461,8.864-3.518    c0.49-0.193,2.159-0.818,2.597-0.986c0.568,0.633,4.48,4.949,5.862,21.262c0.232,2.75-0.503,8.57-0.994,13.322    c-0.523,5.07-1.104,9.027-1.529,13.268c-0.837,8.352-1.423,15-1.423,15l-8.314-3.703c-1.344-0.672-3.672-2.43-3.165-3.846    c1.922-5.383,4.806-15.584,4.808-20.307c0,0-1.358-13.035-2.094-15.576C190.494,205.372,187.145,209.007,185.596,212.405z"/>
	</g>
	<g>
		<path fill="#DBA686" d="M199.396,186.388c0,0-0.055-2.742-1.109-8.285c-0.283-1.486,8.616,3.904,8.616,3.904    s-0.028,0.521-0.046,1.223c-0.01,0.371-0.016,0.793-0.013,1.213c0.001,0.15,0.003,0.297,0.006,0.443    c0.008,0.393,0.026,0.768,0.06,1.088c0.033,0.33,0.229,0.908,0.296,1.068C207.574,187.89,202.395,188.532,199.396,186.388z"/>
	</g>
	<path opacity="0.9" fill="#FFBE55" d="M204.952,189.259l1.475,1.982c0,0-0.864,1.156-2.399,0.303L204.952,189.259z"/>
	<path opacity="0.9" fill="#FFBE55" d="M206.032,191.321c0,0,5.595,21.541,4.441,38.309l-1.882,3.316l-1.762-3.475   c0,0-1.336-29.992-2.869-38.203L206.032,191.321z"/>
	<path fill="#DBA686" d="M206.531,187.411l-1.579,1.848c0,0-2.535-0.492-3.279-1.814   C200.928,186.12,206.531,187.411,206.531,187.411z"/>
	<path fill="#D3D3D3" d="M206.894,185.794c0,0-0.184,1.408-1.941,3.465l1.919,2.58l1.039-5.35L206.894,185.794z"/>
	<path fill="#D3D3D3" d="M199.228,184.226c0,0,3.16,4.02,5.725,5.033l-1.192,2.947l-5.446-6.584L199.228,184.226z"/>
	<g>
		<path fill="#0B4870" d="M245.917,218.903c0,0-14.378-2.014-17.569-2.799c-1.476-0.361-3.417-2.398-5.265-4.793    c-0.608-0.789-1.206-1.615-1.773-2.436c-0.001,0-0.001-0.004-0.001-0.004c-2.265-3.27-4.04-6.404-4.04-6.404    s-6.695-7.846-1.322-11.344c0,0,2.303-0.051,3.565,0.637c1.299,0.703,4.069,6.486,4.538,7.51    c0.471,1.023,5.559,10.531,5.898,10.746c0.341,0.213,5.419,1.316,7.683,1.789c3.279,0.684,9.438,1.963,9.438,1.963    L245.917,218.903z"/>
	</g>
	<path fill="#DCA787" d="M200.801,229.819c0,0-0.68-0.027-0.971-0.184c0,0-0.508-0.326-0.883-0.535   c-0.12-0.066-0.226-0.121-0.297-0.15c-0.3-0.117-0.994-0.291-1.635-0.779c-0.639-0.486-2.725-2.438-2.725-2.438l1.348-2.072   l0.621-2.053c0,0,4.863,0.482,5.513,0.869c0.062,0.039,0.124,0.078,0.178,0.119c0.519,0.379,0.744,0.881,0.992,1.109   c0.092,0.086,0.937,0.992,0.892,1.359c-0.066,0.512-0.317,0.838-0.635,0.994c0,0-0.171,0.992-0.685,1.438   c0,0-0.13,0.92-0.926,1.293C201.589,228.79,201.354,229.71,200.801,229.819z"/>
	<path fill="#0B4870" d="M194.117,227.069c0,0,2.705-2.221,4.17-5.461l-8.299-4.545l-3.08,6.271L194.117,227.069z"/>
	<g>
		<path fill="#DBA585" d="M211.59,168.362c0,0,1.954,3.627,0.984,4.189c-0.8,0.465,0.938,4.023,1.166,4.604    c0.228,0.582-1.45,1.004-1.807,1.379c-0.356,0.373-1.412,4.977-2.795,5.113c-1.381,0.141-7.608-2.025-9.304-3.789    c-1.694-1.762-3.085-9.725-1.954-13.082C199.012,163.417,208.138,162.03,211.59,168.362z"/>
	</g>
	<g>
		<path fill="#0B4870" d="M211.979,169.149c0,0,0.549-2.014,0.549-5.938c0-1.768-12.486,1.311-13.24,1.506s-5.027,0.488-2.87,7.994    c1.854,6.443,2.113,6.713,2.113,6.713s1.383-3.73,2.167-4.301c1.225-0.889,3.907-0.676,3.907-0.676s-1.279-3.395,0.721-3.875    C207.322,170.093,209.957,168.397,211.979,169.149z"/>
	</g>
	<g>
		<path fill="#DBA585" d="M202.865,173.517c-0.177-0.467-0.748-2.469-2.464-1.293c-1.718,1.176,1.069,4.949,1.368,4.998    C202.07,177.269,204.349,177.435,202.865,173.517z"/>
	</g>
	<path fill="#997761" d="M206.845,184.442c0.001,0.15,0.003,0.297,0.006,0.443c-5.091-1.709-6.077-4.279-6.077-4.279   c1.588,1.123,6.084,2.623,6.084,2.623C206.848,183.601,206.842,184.022,206.845,184.442z"/>
	<g>
		<path fill="#D3D3D3" d="M147.165,186.581c0,0,3.318,1.984,4.119,5.098c0.803,3.111-0.083,7.027-0.177,8.402    c-0.096,1.375,0.733,15.021,0.977,15.451c0.24,0.43,3.562,6.963,4.975,11.357c1.41,4.395,4.971,10.6,4.971,10.6l-5.301,2.283    c0,0-10.387-16.369-11.057-20.926c-0.717-4.865-3.727-19.297-3.727-19.297S139.341,187.194,147.165,186.581z"/>
	</g>
	<path fill="#EEA886" d="M151.778,163.599c2.565-0.053,8.211,1.396,8.896,8.211c0,0-0.257,1.824-0.741,3.25s0.685,5.703,0.343,5.902   c-0.343,0.199-1.74,0.428-1.74,0.428s-1.625,4.59-3.25,4.504c-1.625-0.084-7.746-1.529-10.482-7.375   C142.064,172.673,141.42,163.808,151.778,163.599z"/>
	<path fill="#DEA787" d="M282.859,164.718c-2.392-0.051-7.658,1.303-8.296,7.658c0,0,0.239,1.701,0.691,3.031   c0.452,1.328-0.638,5.316-0.319,5.504c0.319,0.186,1.623,0.398,1.623,0.398s1.516,4.281,3.031,4.201s7.224-1.428,9.776-6.879   C291.92,173.181,292.521,164.913,282.859,164.718z"/>
	<path fill="#0E538C" d="M160.674,171.81c0,0-4.239,2.719-8.383,3.174c-4.143,0.457-6.9,4.643-6.9,4.643s-6.062-8.064-0.816-14.297   C149.82,159.093,161.795,163.921,160.674,171.81z"/>
	<path fill="#0E538C" d="M147.333,167.718c-1.774,2.496-4.739,3.434-6.62,2.094c-1.884-1.338-1.969-4.447-0.195-6.941   c1.777-2.494,4.741-3.434,6.623-2.096C149.021,162.114,149.108,165.224,147.333,167.718z"/>
	<path fill="#EEA886" d="M146.135,185.894c0.398-2.111,0-5.162,0-5.162s7.717,3.566,6.38,4.533   c-0.347,0.252-0.589,0.736-0.753,1.316c-0.472,1.645-0.339,4.057-0.339,4.057l2.56,3.049   C156.242,196.788,145.942,186.921,146.135,185.894z"/>
	<path fill="#EEA886" d="M150.582,174.747c0-0.801-0.856-2.023-2.196-0.971c-1.341,1.057,0.312,4.904,1.396,4.562   C150.865,177.997,150.582,175.573,150.582,174.747z"/>
	<path fill="#A77860" d="M152.515,185.265c-0.347,0.252-0.589,0.736-0.753,1.316c-2.993-1.793-4.465-4.484-4.51-4.568   C148.885,184.026,152.515,185.265,152.515,185.265z"/>
	<g>
		<path opacity="0.9" fill="#FFBE55" d="M270.202,161.876h-20.556c-3.111,0-5.656-2.545-5.656-5.656v-9.426    c0-3.111,2.545-5.658,5.656-5.658h20.556c3.11,0,5.657,2.547,5.657,5.658v9.426C275.859,159.331,273.312,161.876,270.202,161.876z    "/>
		<g>
			<path fill="#FFFFFF" d="M250.046,148.019h19.798H250.046z"/>
			<path fill="#FFFFFF" d="M269.844,148.784h-19.798c-0.422,0-0.764-0.342-0.764-0.766c0-0.42,0.342-0.764,0.764-0.764h19.798     c0.422,0,0.765,0.344,0.765,0.764C270.608,148.442,270.266,148.784,269.844,148.784z"/>
		</g>
		<g>
			<path fill="#FFFFFF" d="M250.046,151.767h19.798H250.046z"/>
			<path fill="#FFFFFF" d="M269.844,152.532h-19.798c-0.422,0-0.764-0.342-0.764-0.766c0-0.422,0.342-0.764,0.764-0.764h19.798     c0.422,0,0.765,0.342,0.765,0.764C270.608,152.19,270.266,152.532,269.844,152.532z"/>
		</g>
		<g>
			<path fill="#FFFFFF" d="M250.046,155.517h19.798H250.046z"/>
			<path fill="#FFFFFF" d="M269.844,156.28h-19.798c-0.422,0-0.764-0.342-0.764-0.764c0-0.424,0.342-0.764,0.764-0.764h19.798     c0.422,0,0.765,0.34,0.765,0.764C270.608,155.938,270.266,156.28,269.844,156.28z"/>
		</g>
		<polygon opacity="0.9" fill="#FFBE55" points="260.66,170.974 251.859,161.319 259.411,161.319   "/>
	</g>
	<g>
		<path opacity="0.9" fill="#FFBE55" d="M207.264,148.062h20.556c3.111,0,5.657-2.545,5.657-5.658v-9.426    c0-3.109-2.546-5.656-5.657-5.656h-20.556c-3.11,0-5.657,2.547-5.657,5.656v9.426    C201.606,145.517,204.153,148.062,207.264,148.062z"/>
		<g>
			<path fill="#FFFFFF" d="M227.419,134.204h-19.798H227.419z"/>
			<path fill="#FFFFFF" d="M207.621,134.97h19.798c0.423,0,0.764-0.342,0.764-0.766c0-0.42-0.341-0.766-0.764-0.766h-19.798     c-0.422,0-0.764,0.346-0.764,0.766C206.857,134.628,207.199,134.97,207.621,134.97z"/>
		</g>
		<g>
			<path fill="#FFFFFF" d="M227.419,137.952h-19.798H227.419z"/>
			<path fill="#FFFFFF" d="M207.621,138.718h19.798c0.423,0,0.764-0.344,0.764-0.766s-0.341-0.764-0.764-0.764h-19.798     c-0.422,0-0.764,0.342-0.764,0.764S207.199,138.718,207.621,138.718z"/>
		</g>
		<g>
			<path fill="#FFFFFF" d="M227.419,141.702h-19.798H227.419z"/>
			<path fill="#FFFFFF" d="M207.621,142.466h19.798c0.423,0,0.764-0.344,0.764-0.764c0-0.424-0.341-0.766-0.764-0.766h-19.798     c-0.422,0-0.764,0.342-0.764,0.766C206.857,142.122,207.199,142.466,207.621,142.466z"/>
		</g>
		<polygon opacity="0.9" fill="#FFBE55" points="216.806,157.159 225.605,147.503 218.055,147.503   "/>
	</g>
	<g>
		<g>
			<path fill="#EEA886" d="M162.973,215.985c0,0,0.566-2.588,0.449-3.186c-0.115-0.596,0.713-1.02,0.817,0.449     c0.105,1.471,0.155,2.406,0.155,2.406L162.973,215.985z"/>
		</g>
	</g>
	<polygon opacity="0.9" fill="#FFBE55" points="169.867,221.856 164.469,221.856 163.626,209.901 170.628,209.901  "/>
	<g>
		<g>
			<path fill="#EEA886" d="M162.757,216.595c0,0-0.044-0.916,1.739-1.68c2.368-1.012,5.515-2.012,6.033-1.699     c0.744,0.449,0.328,1.014-1.161,1.438c-1.487,0.424-1.979,0.559-1.979,0.559s2.885-0.156,3.515,0.215     c0.63,0.369,0.633,1.164,0.158,1.275c-0.477,0.111-1.591,0.146-1.591,0.146s1.217,0.094,1.318,0.59     c0.075,0.363,0.099,0.885-1.063,1.053c0,0,0.748,0.898-0.448,1.408c-1.196,0.508-3.339,0.928-4.414,1.061     c-2.231,0.273-6.44-0.455-6.44-0.455l1.408-3.143c0,0,1.196,0.355,2.004,0.037C162.883,216.991,162.757,216.595,162.757,216.595z     "/>
		</g>
	</g>
	<path fill="#F7F7F7" d="M146.589,185.896c0,0,4.562,4.334,6.273,6.271c1.71,1.939,7.299,8.953,7.812,11.062   c0.514,2.109-1.521,5.156-2.908,6.615c-1.274,1.34-0.229,4.447-0.398,6.215c-0.171,1.768-0.808,19.506-1.436,21.275   c-0.627,1.768-16.562,3.557-22.093-2.432c0,0,5.964-12.855,7.675-14.852s-1.311-14.77-2.338-17.793   C138.149,199.237,140.089,185.782,146.589,185.896z"/>
	<path fill="#D3D3D3" d="M147.008,188.442c-1.15-0.373-4.523,0.074-5.096,3.535c-0.569,3.459-0.798,7.299-1.329,9.16   c-0.532,1.863-3.06,12.371-1.92,13.055s3.474,1.42,6.156,2.828c2.568,1.35,15.054,6.592,15.054,6.592l0.972-6.545   c0,0-2.394-0.57-4.562-1.635c-2.167-1.064-6.615-3.916-10.605-6.387c0,0,1.71-6.881,2.242-8.324   C148.451,199.276,152.178,190.114,147.008,188.442z"/>
	<rect x="163.395" y="209.188" fill="#0B4870" width="7.465" height="1.426"/>
	<g>
		<path fill="#2A94F4" d="M317.99,308.241c0,0-1.636,1.166-2.542,1.984c-0.906,0.816-2.138,1.707-2.893,3.793    c-0.764,2.111-2.274,5.252-0.231,5.379c2.045,0.123,7.894-3.045,8.198-4.916c0.303-1.854,2.704-1.635,3.017-2.953    c0.312-1.32-0.105-2.941-0.105-2.941L317.99,308.241z"/>
	</g>
	<g>
		<path fill="#81807E" d="M318.262,306.708l-0.271,1.533c0,0,0.842,1.559,5.443,0.346l-0.237-1.51L318.262,306.708z"/>
	</g>
	<path fill="#0B4870" d="M323.434,308.587c0,0-1.037,0.137-1.775,0.254c-0.738,0.113-2.201-0.83-3.668-0.6l0.451,1.863   C318.441,310.104,323.331,309.188,323.434,308.587z"/>
	<g>
		<path fill="#2A94F4" d="M347.386,307.935c0,0,1.636,1.168,2.541,1.984c0.907,0.816,2.139,1.709,2.894,3.793    c0.764,2.111,0.628,5.562-1.416,5.688c-2.045,0.125-6.246-3.352-6.551-5.223c-0.303-1.854-2.703-1.637-3.017-2.953    c-0.313-1.32,0.104-2.943,0.104-2.943L347.386,307.935z"/>
	</g>
	<g>
		<path fill="#81807E" d="M347.113,306.403l0.272,1.531c0,0-0.843,1.559-5.444,0.346l0.237-1.51L347.113,306.403z"/>
	</g>
	<g>
		<path fill="#D3D3D3" d="M349.316,271.53c0,3.371-0.482,35.15-0.482,35.15c-0.337,1.123-6.631,1.492-7.754,0.93    c-1.123-0.561-0.926-32.076-1.134-35.473c-0.207-3.396-2.937-28.387-3.921-28.273c-0.984,0.111-6.551,23.652-7.337,26.234    s-3.88,37.332-3.88,37.332c-3.841,1.336-7.767,0.162-7.767,0.162s1.468-35.193,1.469-39.373c0.001-1.553,0.458-2.725,0.898-10.971    c0.335-6.285,2.084-19.166,3.254-28.027c0.042-0.314,0.081-0.617,0.122-0.908c0.228-1.725,0.399-2.992,0.482-3.598    c0.036-0.264,0.057-0.404,0.057-0.404c0.313-0.146,0.645-0.279,0.988-0.404c8.223-2.953,24.085,0.174,24.085,0.174    s0.009,0.078,0.026,0.225c0.022,0.178,0.055,0.457,0.098,0.818c0.09,0.781,0.227,1.945,0.384,3.297    c0.002,0.01,0.002,0.02,0.003,0.029c0.004,0.039,0.009,0.082,0.014,0.123c0.554,4.805,0.828,7.445,1.263,12.574    C350.28,242.272,349.316,268.163,349.316,271.53z"/>
	</g>
	<path fill="#0B4870" d="M341.941,308.28c0,0,1.038,0.137,1.775,0.254c0.738,0.115,2.201-0.828,3.669-0.6l-0.452,1.865   C346.934,309.8,342.045,308.884,341.941,308.28z"/>
	<g>
		<path fill="#0E538C" d="M274.525,171.442c0,0-0.355-7.943,7.542-8.223c7.895-0.275,10.021,6.227,9.374,10.963    c-0.646,4.74-3.915,7.238-3.915,7.238s0.282-3.834-1.25-4.83s-7.673-2.98-10.35-7.598    C275.927,168.993,274.685,170.45,274.525,171.442z"/>
	</g>
	<g>
		<path fill="#CCE9FF" d="M342.129,223.751c0,0-1.327-2.008-2.732-2.266c-1.407-0.258,19.369-10.301,19.312-13.887    c-0.042-2.912-7.274-8.277-7.274-8.277s0.003-0.008,0,0c-0.001,0.002,0-0.053,0-0.051c0,0.006,0-0.004,0,0    c-0.157,0.576-2.519,9.172-2.593,13.002c-0.08,3.977,0.236,17.654,0.236,17.654l-5.324,1.426l-17.008,0.156l-3.883-1.582    c0,0,0.425-4.398,0.581-7.488c0.099-1.963,0.479-5.479,0.382-8.902c0,0,0.062-3.609-0.295-5.162    c-0.039-6.859-0.455-13.654-0.455-13.654c-0.23-3.109-0.391-6.018-0.482-8.73c0.752-0.396,1.652-0.861,2.376-1.205    c2.233-1.064,5.347-2.498,7.344-3.416c1.17-0.535,2.314-0.928,2.314-0.928s7.983-0.764,8.632-0.723    c0.204,0.014,1.201,0.359,2.511,0.857c2.831,1.074,8.288,3.262,9.159,3.887c1.274,0.912,9.619,22.99,9.74,24.508    C364.889,211.704,342.129,223.751,342.129,223.751z"/>
	</g>
	<g>
		<path fill="#0B4870" d="M322.408,185.522c0.09,2.758,0.224,5.717,0.458,8.885c0,0,0.222,7.736,0.667,15.076    c0.15,1.051,0.227,2.125,0.143,3.223c-0.111,1.436-0.267,3.002-0.454,4.639c-0.003,0.02-0.005,0.041-0.007,0.061    c-0.045,0.389-0.092,0.777-0.139,1.172c0,0.006-0.002,0.012-0.002,0.018c-0.993,8.176-2.676,17.557-3.555,20.393    c-0.186,0.594,0.454,1.141,0.911,1.564l3.196,2.014c0,0,1.316-12.129,1.753-16.246c0.423-3.973,1.751-9.299,2.333-14.49v-0.002    c0.736-6.586-0.104-12.463,0.445-16.295c1.426-9.98,5.183-15.018,5.183-15.018C332.433,180.784,322.408,185.522,322.408,185.522z"/>
	</g>
	<g>
		<path fill="#0B4870" d="M356.324,206.169c1.387,3.037-12.715,8.453-12.397,9.201c0.764,1.799,3.875,5.461,3.875,5.461    s18.565-9.184,18.357-11.266c-0.151-1.516-8.848-24.434-10.123-25.348c-0.736-0.527-6.188-2.461-8.864-3.518    c-0.49-0.191-2.158-0.818-2.597-0.984c-0.568,0.631-4.479,4.949-5.862,21.262c-0.232,2.748,0.504,8.57,0.995,13.322    c0.522,5.068,1.104,9.025,1.528,13.266c0.838,8.352,1.424,15,1.424,15l8.314-3.701c1.344-0.674,3.671-2.43,3.164-3.846    c-1.921-5.383-4.805-15.584-4.808-20.309c0,0,1.358-13.035,2.094-15.576C351.425,199.134,354.775,202.771,356.324,206.169z"/>
	</g>
	<g>
		<path fill="#FCD2B1" d="M342.522,180.149c0,0,0.055-2.742,1.11-8.285c0.283-1.484-8.617,3.904-8.617,3.904    s0.028,0.521,0.047,1.225c0.01,0.369,0.015,0.791,0.013,1.211c-0.001,0.15-0.003,0.299-0.006,0.443    c-0.009,0.393-0.026,0.77-0.061,1.088c-0.033,0.33-0.228,0.91-0.296,1.07C334.346,181.651,339.525,182.294,342.522,180.149z"/>
	</g>
	<path opacity="0.9" fill="#FFBE55" d="M336.967,183.021c0,0-6.675,23.604-5.521,40.371l1.882,3.318l1.763-3.477   c0,0,1.335-29.992,2.869-38.201L336.967,183.021z"/>
	<path fill="#FCD2B1" d="M335.389,181.175l1.578,1.846c0,0,2.535-0.49,3.28-1.814C340.991,179.882,335.389,181.175,335.389,181.175z   "/>
	<path fill="#0B4870" d="M335.025,179.558c0,0,0.184,1.408,1.941,3.463l-1.918,2.58l-1.039-5.35L335.025,179.558z"/>
	<path fill="#0B4870" d="M342.692,177.989c0,0-3.161,4.018-5.726,5.031l1.193,2.947l5.446-6.582L342.692,177.989z"/>
	<path fill="#0B4870" d="M347.802,220.831c0,0-2.704-2.219-4.169-5.461l8.299-4.543l3.08,6.27L347.802,220.831z"/>
	<g>
		<g>
			<path fill="#FCD2B1" d="M330.33,162.126c0,0-1.954,3.625-0.985,4.188c0.8,0.467-0.938,4.025-1.166,4.605s1.45,1.004,1.807,1.377     c0.356,0.375,1.413,4.977,2.796,5.115c1.381,0.139,7.607-2.027,9.303-3.789c1.695-1.764,3.086-9.725,1.954-13.084     C342.908,157.179,333.781,155.794,330.33,162.126z"/>
		</g>
		<g>
			<path fill="#0B4870" d="M329.94,162.911c0,0-3.973-4.02-0.548-5.936c9.774-5.469,12.486,1.311,13.24,1.504     c0.753,0.195,5.026,0.488,2.87,7.994c-1.854,6.445-2.114,6.715-2.114,6.715s-1.383-3.732-2.166-4.303     c-1.225-0.889-3.908-0.674-3.908-0.674s1.279-3.395-0.72-3.877C334.598,163.854,331.963,162.161,329.94,162.911z"/>
		</g>
		<g>
			<path fill="#FCD2B1" d="M339.054,167.278c0.178-0.467,0.748-2.467,2.464-1.291c1.718,1.176-1.068,4.947-1.368,4.996     S337.571,171.198,339.054,167.278z"/>
		</g>
	</g>
	<path fill="#997761" d="M335.075,178.204c-0.001,0.15-0.003,0.299-0.006,0.443c5.09-1.709,6.077-4.277,6.077-4.277   c-1.588,1.123-6.084,2.623-6.084,2.623C335.072,177.362,335.077,177.784,335.075,178.204z"/>
	<g>
		<polygon opacity="0.9" fill="#FFBE55" points="351.404,221.435 326.182,238.425 315.277,222.235 340.074,204.614   "/>
		<polygon fill="#F7F7F7" points="349.36,221.444 326.959,236.534 317.273,222.155 339.298,206.505   "/>
		<polygon fill="#0B4870" points="345.807,217.368 347.379,216.31 343.463,210.499 341.738,211.329   "/>
	</g>
	<path fill="#EEA886" d="M335.537,234.032c0,0-0.562-0.342-0.733-0.611c0,0-0.277-0.518-0.495-0.869   c-0.07-0.113-0.134-0.207-0.18-0.268c-0.197-0.24-0.703-0.713-1.016-1.428c-0.312-0.713-1.157-3.344-1.157-3.344l2.116-1.119   l1.655-0.902c0,0,3.72,2.158,4.086,2.791c0.036,0.062,0.068,0.125,0.095,0.186c0.26,0.562,0.216,1.092,0.316,1.404   c0.039,0.115,0.326,1.281,0.112,1.568c-0.294,0.4-0.661,0.561-1.002,0.539c0,0-0.612,0.76-1.256,0.896c0,0-0.545,0.717-1.391,0.656   C336.688,233.532,336.057,234.2,335.537,234.032z"/>
	<g>
		<path fill="#0B4870" d="M332.26,229.108c0,0-14.67-10.059-16.614-13.279c-0.901-1.49-0.122-5.439,0.323-8.875    c0.146-1.131,0.333-2.283,0.539-3.408c-0.002-0.002,0.001-0.004,0.001-0.004c0.817-4.482,1.922-8.459,1.922-8.459    s0.942-11.777,8.127-10.254c0,0,1.903,1.826,2.369,3.406c0.479,1.623-1.964,8.549-2.416,9.758    c-0.447,1.209-4.037,13.029-3.935,13.477c0.102,0.449,4.035,4.625,5.912,6.492c3.494,3.475,8.303,8.291,8.303,8.291    L332.26,229.108z"/>
	</g>
</g>
</svg>