<svg xmlns="http://www.w3.org/2000/svg" xmlns:xlink="http://www.w3.org/1999/xlink" version="1.1" x="0px" y="0px" viewBox="0 0 1192.5 1222.2" style="enable-background:new 0 0 1192.5 1222.2;" xml:space="preserve">
<style type="text/css">
	.st0{fill:#0A486F;}
	.st1{fill:#FFBE55;}
	.st2{fill:#CCE9FF;}
	.st3{fill:#2B94F3;}
	.st4{fill:#E3E3E3;}
	.st5{fill:#6E7166;}
	.st6{fill:#0E538D;}
	.st7{fill:#0B4770;}
	.st8{fill:#2995F4;}
	.st9{fill:#F2F2F2;}
	.st10{fill:#FCBF53;}
	.st11{fill:#FFFFFF;}
	.st12{opacity:0.34;fill:#52564A;}
	.st13{fill:#FCF059;}
	.st14{clip-path:url(#SVGID_2_);fill:#E3E3E3;}
</style>
<g id="Ñëîé_72">
</g>
<g id="Ñëîé_35">
</g>
<g id="Ñëîé_67">
</g>
<g id="Ñëîé_66">
</g>
<g id="Ñëîé_65">
</g>
<g id="Ñëîé_38">
	<path class="st0" d="M246.5,468.5c4.3-107.7,47.3-205.4,115.7-279.5l279.5,279.5H246.5z"/>
	<path class="st1" d="M671.4,463.4L418.5,210.4c66.5-61.4,155.3-98.9,252.9-98.9c97.6,0,186.5,37.6,252.9,98.9L671.4,463.4z"/>
	<path class="st2" d="M659.1,493.1V819c-176.9-7-318.9-149-325.9-325.9H659.1z"/>
	<path class="st3" d="M683.7,485.9l213.8-213.8c50.6,54.9,81.6,128.1,81.6,208.7c0,165.8-131.2,301-295.4,307.4V485.9z"/>
</g>
<g id="Ñëîé_26">
</g>
<g id="Ñëîé_30">
</g>
<g id="Ñëîé_27">
</g>
<g id="Ñëîé_40">
</g>
<g id="Ñëîé_28">
</g>
<g id="Ñëîé_71">
</g>
<g id="Ñëîé_70">
</g>
<g id="Ñëîé_69">
</g>
<g id="Ñëîé_68">
</g>
<g id="Ñëîé_62">
</g>
<g id="Ñëîé_61">
</g>
<g id="Ñëîé_60">
</g>
<g id="Ñëîé_63">
</g>
<g id="Ñëîé_44">
</g>
<g id="Ñëîé_43">
</g>
<g id="Ñëîé_64">
</g>
<g id="Ñëîé_42">
</g>
<g id="Ñëîé_41">
</g>
<g id="Ñëîé_34">
</g>
<g id="Ñëîé_36">
</g>
<g id="Ñëîé_39">
</g>
<g id="Ñëîé_37">
</g>
<g id="Ñëîé_38__x28_êîïèÿ_x29_">
</g>
<g id="Ñëîé_48">
</g>
<g id="Ñëîé_45">
</g>
<g id="Ñëîé_46">
</g>
<g id="Ñëîé_40__x28_êîïèÿ_x29_">
</g>
<g id="Ñëîé_47">
</g>
<g id="Ñëîé_55">
</g>
<g id="Ñëîé_54">
</g>
<g id="Ñëîé_53">
</g>
<g id="Ñëîé_51">
</g>
<g id="Ñëîé_56">
</g>
<g id="Ñëîé_57">
</g>
<g id="Ñëîé_52">
</g>
<g id="Ñëîé_49">
</g>
<g id="Ñëîé_59">
	<g>
		<path class="st4" d="M455.2,1118.8c46.2-27.3,49.7-30.5,96.2-57.3c-113.6-64.4-226.6-129.8-339.6-195.1    c-39.7,25-43.5,25-98.2,54.2C226.6,985.8,342.4,1053.4,455.2,1118.8z"/>
		<path class="st4" d="M673.6,1063.5c46.2-27.3,93-53.8,139.5-80.5c-113.6-64.4-226.6-129.8-339.6-195.1    c-46.7,25.9-92.3,53.7-138.8,80C447.8,933.1,560.8,998.1,673.6,1063.5z"/>
		<ellipse class="st4" cx="746.3" cy="1116.3" rx="59.4" ry="31.5"/>
		<ellipse class="st4" cx="626.2" cy="1082.2" rx="59.4" ry="31.5"/>
		<ellipse class="st4" cx="837.9" cy="1048.4" rx="59.4" ry="31.5"/>
		<ellipse class="st4" cx="949.8" cy="998.6" rx="59.4" ry="31.5"/>
		<ellipse class="st4" cx="1012.6" cy="1008.4" rx="59.4" ry="31.5"/>
		<g>
			<polygon class="st5" points="703.2,751.6 1042.7,900.6 903.2,981.2 564.4,785.6    "/>
			<polygon class="st5" points="703.2,635.6 1035.8,835.6 903.2,911.2 564.4,715.6    "/>
			<polygon class="st6" points="1042.7,830.7 1042.7,900.6 903.2,981.2 903.2,911.2    "/>
			<polygon class="st5" points="564.4,715.6 564.4,785.6 903.2,981.2 903.2,911.2    "/>
			<polygon class="st7" points="564.4,715.6 564.4,785.6 903.2,981.2 903.2,911.2    "/>
			<g>
				<g>
					<g>
						<path class="st8" d="M903.2,911.2c46.2-27.3,93-53.8,139.5-80.5c-113.6-64.4-226.6-129.8-339.6-195.1        c-46.7,25.9-92.3,53.7-138.8,80C677.4,780.8,790.4,845.8,903.2,911.2z"/>
						<path class="st9" d="M1023.2,829.3c-106.4-60.8-212.5-122.2-318.5-183.7c-39.6,22.7-78.9,46.1-118.4,69        c106.4,61.8,213,123.3,319.3,185.2C944.6,876,984,852.9,1023.2,829.3z"/>
						<g>
							<path class="st8" d="M767.4,797.7c28.4,16.5,69.5,17.2,91.9,2.1c22.4-15.2,16.1-39.3-11.8-55.6         c-27.9-16.2-66.7-18.4-89.5-3.5C735.1,755.5,739,781.1,767.4,797.7z"/>
						</g>
						<g>
							<path class="st8" d="M691.8,721.6c7.5,4.3,18.3,4.5,24.2,0.5c5.9-4,4.2-10.3-3.1-14.6c-7.3-4.3-17.5-4.8-23.5-0.9         C683.4,710.5,684.4,717.2,691.8,721.6z"/>
						</g>
						<g>
							<path class="st8" d="M898.1,836.3c7.5,4.3,18.3,4.5,24.2,0.5c5.9-4,4.2-10.3-3.1-14.6c-7.3-4.3-17.5-4.8-23.5-0.9         S890.6,832,898.1,836.3z"/>
						</g>
						<g>
							<path class="st8" d="M821.1,826.6c-24.8,0-49.3-7.4-68.3-18.2c-21-12-33.1-28.6-33.4-45.7c-0.2-13.4,7.1-25.3,20.7-33.5         c32.6-19.9,79.8-17.8,120.1,5.4c21.8,12.6,35.1,29.8,35.5,46.2c0.3,12-6.1,22.5-18.4,30.4C860,822.1,840.5,826.6,821.1,826.6         z M791.1,719.2c-16.8,0-33.7,3.7-49.1,13.1c-12.4,7.6-19.1,18.3-18.9,30.3c0.2,15.7,11.7,31.2,31.5,42.5l0,0         c32.8,18.8,82.9,26.9,120.6,2.8c11.2-7.2,17-16.6,16.8-27.2c-0.3-15-12.9-31.1-33.7-43.1         C840.5,727.5,816.1,719.2,791.1,719.2z"/>
						</g>
						<g>
							<g>
								<path class="st8" d="M728.4,650.2c0.1,2.4-1.3,4.7-4.6,6.6c-8.6,5-27.1,4.9-37-0.9c-3.7-2.2-5.8-4.8-6.3-7.5          c10.6-6.1,15.4-8.8,22.6-12.8C712.3,640.8,717.4,643.8,728.4,650.2z"/>
								<path class="st8" d="M609.2,701.4c10.2,6,9.2,17.9-2.8,24.9c-4.5,2.6-9.9,4.1-15.4,4.7c-11.8-6.8-17.2-9.9-26.6-15.3          c11.5-6.4,17.9-10.1,30.9-17.6C600.5,698.1,605.4,699.2,609.2,701.4z"/>
								<path class="st8" d="M1004.9,840.3c-10.8-6.2-11.7-17.7-3.2-23.3c3.2-2.1,7.3-3,11.7-3c12.5,7.1,18.4,10.5,29.3,16.6          c-7.6,4.4-12.7,7.3-23.8,13.7C1013.8,843.9,1008.9,842.6,1004.9,840.3z"/>
								<path class="st8" d="M880.6,898.1c0.8-3,3.1-6,7.1-8.6c10.8-7,30-8.1,39.4-2.6c3.5,2,5.1,4.7,5,7.5          c-12.6,7.3-18.7,10.9-28.9,16.9C895.6,906.8,891,904.1,880.6,898.1z"/>
								<path class="st4" d="M810.2,949.9c46.2-27.3,93-53.8,139.5-80.5C836.2,805,723.2,739.6,610.2,674.2          c-46.7,25.9-92.3,53.7-138.8,80C584.4,819.4,697.4,884.5,810.2,949.9z"/>
							</g>
						</g>
					</g>
				</g>
			</g>
			<polygon class="st10" points="891.7,744.4 750.9,823.7 750.4,892.9 710.6,869.9 711.8,800.9 849.4,720    "/>
			<polygon class="st11" points="718.7,874.8 719.8,805.5 858,725 884.1,740 743,819 742.5,888.6    "/>
			<polygon class="st12" points="750.9,823.7 711.8,800.9 710.6,869.9 750.4,892.9    "/>
		</g>
		<g>
			<polygon class="st5" points="715.6,702.9 1055.2,808.3 915.7,888.9 576.9,693.3    "/>
			<polygon class="st5" points="715.6,586.9 1048.3,786.9 915.7,862.6 576.9,667    "/>
			<polygon class="st6" points="1055.2,782 1055.2,808.3 915.7,888.9 915.7,862.6    "/>
			<polygon class="st5" points="576.9,667 576.9,693.3 915.7,888.9 915.7,862.6    "/>
			<polygon class="st7" points="576.9,667 576.9,693.3 915.7,888.9 915.7,862.6    "/>
			<g>
				<g>
					<g>
						<path class="st8" d="M915.7,862.6c46.2-27.3,93-53.8,139.5-80.5c-113.6-64.4-226.6-129.8-339.6-195.1        c-46.7,25.9-92.3,53.7-138.8,80C689.8,732.1,802.9,797.1,915.7,862.6z"/>
						<path class="st9" d="M1035.7,780.6C929.3,719.8,823.2,658.5,717.2,597c-39.6,22.7-78.9,46.1-118.4,69        c106.4,61.8,213,123.3,319.3,185.2C957.1,827.4,996.5,804.2,1035.7,780.6z"/>
						<g>
							<path class="st8" d="M779.8,749c28.4,16.5,69.5,17.2,91.9,2.1c22.4-15.2,16.1-39.3-11.8-55.6c-27.9-16.2-66.7-18.4-89.5-3.5         C747.6,706.8,751.5,732.5,779.8,749z"/>
						</g>
						<g>
							<path class="st8" d="M704.3,672.9c7.5,4.3,18.3,4.5,24.2,0.5c5.9-4,4.2-10.3-3.1-14.6s-17.5-4.8-23.5-0.9         C695.8,661.8,696.8,668.6,704.3,672.9z"/>
						</g>
						<g>
							<path class="st8" d="M910.6,787.7c7.5,4.3,18.3,4.5,24.2,0.5c5.9-4,4.2-10.3-3.1-14.6c-7.3-4.3-17.5-4.8-23.5-0.9         C902.1,776.6,903.1,783.3,910.6,787.7z"/>
						</g>
						<g>
							<path class="st8" d="M833.5,778c-24.8,0-49.3-7.4-68.3-18.2c-21-12-33.1-28.6-33.4-45.7c-0.2-13.4,7.1-25.3,20.7-33.5         c32.6-19.9,79.8-17.8,120.1,5.4c21.8,12.6,35.1,29.8,35.5,46.2c0.3,12-6.1,22.5-18.4,30.4C872.5,773.4,853,778,833.5,778z          M803.6,670.6c-16.8,0-33.7,3.7-49.1,13.1c-12.4,7.6-19.1,18.3-18.9,30.3c0.2,15.7,11.7,31.2,31.5,42.5l0,0         c32.8,18.8,82.9,26.9,120.6,2.8c11.2-7.2,17-16.6,16.8-27.2c-0.3-15-12.9-31.1-33.7-43.1C853,678.9,828.5,670.6,803.6,670.6z         "/>
						</g>
						<g>
							<g>
								<path class="st8" d="M740.9,601.5c0.1,2.4-1.3,4.7-4.6,6.6c-8.6,5-27.1,4.9-37-0.9c-3.7-2.2-5.8-4.8-6.3-7.5          c10.6-6.1,15.4-8.8,22.6-12.8C724.7,592.2,729.9,595.1,740.9,601.5z"/>
								<path class="st8" d="M621.6,652.8c10.2,6,9.2,17.9-2.8,24.9c-4.5,2.6-9.9,4.1-15.4,4.7c-11.8-6.8-17.2-9.9-26.6-15.3          c11.5-6.4,17.9-10.1,30.9-17.6C613,649.4,617.8,650.5,621.6,652.8z"/>
								<path class="st8" d="M1017.4,791.7c-10.8-6.2-11.7-17.7-3.2-23.3c3.2-2.1,7.3-3,11.7-3c12.5,7.1,18.4,10.5,29.3,16.6          c-7.6,4.4-12.7,7.3-23.8,13.7C1026.3,795.3,1021.4,794,1017.4,791.7z"/>
								<path class="st8" d="M893.1,849.5c0.8-3,3.1-6,7.1-8.6c10.8-7,30-8.1,39.4-2.6c3.5,2,5.1,4.7,5,7.5          c-12.6,7.3-18.7,10.9-28.9,16.9C908.1,858.1,903.4,855.5,893.1,849.5z"/>
							</g>
						</g>
					</g>
				</g>
			</g>
			<polygon class="st10" points="904.2,695.8 763.4,775.1 762.9,800.6 723.1,777.6 724.3,752.3 861.9,671.4    "/>
			<polygon class="st11" points="731.2,782.5 732.3,756.9 870.4,676.3 896.6,691.3 755.4,770.3 755,796.3    "/>
			<polygon class="st12" points="763.4,775.1 724.3,752.3 723,777.6 762.9,800.7    "/>
		</g>
		<ellipse class="st4" cx="932.1" cy="810.4" rx="59.4" ry="31.5"/>
		<g>
			<g>
				<g>
					<path class="st1" d="M1010.1,970.8c-9.4-10.8-30-18.3-54-18.3c-23.9,0-44.6,7.5-54,18.3h-5.4V984c0,17.4,26.6,31.5,59.4,31.5       c32.8,0,59.4-14.1,59.4-31.5v-13.1H1010.1z"/>
					<path class="st13" d="M956.1,1008.4c-32.8,0-59.4-14.1-59.4-31.5v3c0,17.4,26.6,31.5,59.4,31.5c32.8,0,59.4-14.1,59.4-31.5v-3       C1015.5,994.3,989,1008.4,956.1,1008.4z"/>
					<ellipse class="st13" cx="956.1" cy="970.8" rx="59.4" ry="31.5"/>
					<g>
						<path class="st1" d="M969.6,977.4c2,1.5,3,2.2,4.9,3.7c-1.9,1.2-2.8,1.8-4.6,3c-2-1.5-3-2.2-5-3.7c-3.7,1.8-8,2.9-12.1,3        c-0.9-2-1.4-3-2.3-5c4.5-0.1,9.7-1.4,12.2-3.1c1.9-1.2,2.5-2.5,1.3-3.4c-3.8-2.9-14.4,7-22.4,1.1c-3.6-2.7-3.3-6.3,0.6-9.7        c-1.8-1.4-2.7-2.1-4.5-3.5c1.9-1.2,2.8-1.8,4.8-3c1.8,1.4,2.6,2.1,4.5,3.5c3.2-1.6,6.9-2.7,10.3-3.2c0.8,2,1.2,3.1,2,5.1        c-4,0.7-8.4,2-10.5,3.3c-1.6,1-2.1,2-1,2.8c3.7,2.8,14.8-7.2,22.9-1C974.6,970.3,973.5,974.2,969.6,977.4z"/>
					</g>
					<polygon class="st1" points="959.3,958 959.3,962.1 953.2,962.1 956.1,958.6      "/>
					<g>
						<path class="st13" d="M969.6,973.3c2,1.5,3,2.2,4.9,3.7c-1.9,1.2-2.8,1.8-4.6,3c-2-1.5-3-2.2-5-3.7c-3.7,1.8-8,2.9-12.1,3        c-0.9-2-1.4-3-2.3-5c4.5-0.1,9.7-1.4,12.2-3.1c1.9-1.2,2.5-2.5,1.3-3.4c-3.8-2.9-14.4,7-22.4,1.1c-3.6-2.7-3.3-6.3,0.6-9.7        c-1.8-1.4-2.7-2.1-4.5-3.5c1.9-1.2,2.8-1.8,4.8-3c1.8,1.4,2.6,2.1,4.5,3.5c3.2-1.6,6.9-2.7,10.3-3.2c0.8,2,1.2,3.1,2,5.1        c-4,0.7-8.4,2-10.5,3.3c-1.6,1-2.1,2-1,2.8c3.7,2.8,14.8-7.2,22.9-1C974.6,966.1,973.5,970,969.6,973.3z"/>
					</g>
					<path class="st1" d="M956.1,950.3c24.5,0,44.7,10,46.7,22.7c0.1-0.7,0.2-1.4,0.2-2.1c0-13.7-21-24.8-46.9-24.8       c-25.9,0-46.9,11.1-46.9,24.8c0,0.7,0.1,1.4,0.2,2.1C911.5,960.3,931.6,950.3,956.1,950.3z"/>
				</g>
				<polygon class="st1" points="974.5,976.9 974.5,981.1 969.9,984.1 969.9,979.9     "/>
				<polygon class="st1" points="950.5,974.2 950.5,978.3 952.8,983.4 952.8,979.2     "/>
				<polygon class="st1" points="937.8,959.7 937.8,955.5 940.9,958     "/>
			</g>
			<g>
				<g>
					<path class="st1" d="M1018.6,950.1c-9.4-10.8-30-18.3-54-18.3c-23.9,0-44.6,7.5-54,18.3h-5.4v13.1c0,17.4,26.6,31.5,59.4,31.5       c32.8,0,59.4-14.1,59.4-31.5v-13.1H1018.6z"/>
					<path class="st13" d="M964.6,987.6c-32.8,0-59.4-14.1-59.4-31.5v3c0,17.4,26.6,31.5,59.4,31.5c32.8,0,59.4-14.1,59.4-31.5v-3       C1024.1,973.6,997.5,987.6,964.6,987.6z"/>
					<ellipse class="st13" cx="964.6" cy="950.1" rx="59.4" ry="31.5"/>
					<g>
						<path class="st1" d="M978.1,956.7c2,1.5,3,2.2,4.9,3.7c-1.9,1.2-2.8,1.8-4.6,3c-2-1.5-3-2.2-5-3.7c-3.7,1.8-8,2.9-12.1,3        c-0.9-2-1.4-3-2.3-5c4.5-0.1,9.7-1.4,12.2-3.1c1.9-1.2,2.5-2.5,1.3-3.4c-3.8-2.9-14.4,7-22.4,1.1c-3.6-2.7-3.3-6.3,0.6-9.7        c-1.8-1.4-2.7-2.1-4.5-3.5c1.9-1.2,2.8-1.8,4.8-3c1.8,1.4,2.6,2.1,4.5,3.5c3.2-1.6,6.9-2.7,10.3-3.2c0.8,2,1.2,3.1,2,5.1        c-4,0.7-8.4,2-10.5,3.3c-1.6,1-2.1,2-1,2.8c3.7,2.8,14.8-7.2,22.9-1C983.1,949.5,982,953.4,978.1,956.7z"/>
					</g>
					<polygon class="st1" points="967.8,937.2 967.8,941.4 961.7,941.4 964.6,937.9      "/>
					<g>
						<path class="st13" d="M978.1,952.5c2,1.5,3,2.2,4.9,3.7c-1.9,1.2-2.8,1.8-4.6,3c-2-1.5-3-2.2-5-3.7c-3.7,1.8-8,2.9-12.1,3        c-0.9-2-1.4-3-2.3-5c4.5-0.1,9.7-1.4,12.2-3.1c1.9-1.2,2.5-2.5,1.3-3.4c-3.8-2.9-14.4,7-22.4,1.1c-3.6-2.7-3.3-6.3,0.6-9.7        c-1.8-1.4-2.7-2.1-4.5-3.5c1.9-1.2,2.8-1.8,4.8-3c1.8,1.4,2.6,2.1,4.5,3.5c3.2-1.6,6.9-2.7,10.3-3.2c0.8,2,1.2,3.1,2,5.1        c-4,0.7-8.4,2-10.5,3.3c-1.6,1-2.1,2-1,2.8c3.7,2.8,14.8-7.2,22.9-1C983.1,945.4,982,949.3,978.1,952.5z"/>
					</g>
					<path class="st1" d="M964.6,929.5c24.5,0,44.7,10,46.7,22.7c0.1-0.7,0.2-1.4,0.2-2.1c0-13.7-21-24.8-46.9-24.8       c-25.9,0-46.9,11.1-46.9,24.8c0,0.7,0.1,1.4,0.2,2.1C920,939.5,940.1,929.5,964.6,929.5z"/>
				</g>
				<polygon class="st1" points="983,956.2 983,960.3 978.4,963.3 978.4,959.2     "/>
				<polygon class="st1" points="959,953.4 959,957.6 961.3,962.6 961.3,958.5     "/>
				<polygon class="st1" points="946.3,938.9 946.3,934.8 949.4,937.2     "/>
			</g>
			<g>
				<g>
					<path class="st1" d="M1007.1,925.2c-9.4-10.8-30-18.3-54-18.3c-23.9,0-44.6,7.5-54,18.3h-5.4v13.1c0,17.4,26.6,31.5,59.4,31.5       c32.8,0,59.4-14.1,59.4-31.5v-13.1H1007.1z"/>
					<path class="st13" d="M953.2,962.8c-32.8,0-59.4-14.1-59.4-31.5v3c0,17.4,26.6,31.5,59.4,31.5s59.4-14.1,59.4-31.5v-3       C1012.6,948.7,986,962.8,953.2,962.8z"/>
					<ellipse class="st13" cx="953.2" cy="925.2" rx="59.4" ry="31.5"/>
					<g>
						<path class="st1" d="M966.6,931.8c2,1.5,3,2.2,4.9,3.7c-1.9,1.2-2.8,1.8-4.6,3c-2-1.5-3-2.2-5-3.7c-3.7,1.8-8,2.9-12.1,3        c-0.9-2-1.4-3-2.3-5c4.5-0.1,9.7-1.4,12.2-3.1c1.9-1.2,2.5-2.5,1.3-3.4c-3.8-2.9-14.4,7-22.4,1.1c-3.6-2.7-3.3-6.3,0.6-9.7        c-1.8-1.4-2.7-2.1-4.5-3.5c1.9-1.2,2.8-1.8,4.8-3c1.8,1.4,2.6,2.1,4.5,3.5c3.2-1.6,6.9-2.7,10.3-3.2c0.8,2,1.2,3.1,2,5.1        c-4,0.7-8.4,2-10.5,3.3c-1.6,1-2.1,2-1,2.8c3.7,2.8,14.8-7.2,22.9-1C971.6,924.6,970.5,928.6,966.6,931.8z"/>
					</g>
					<polygon class="st1" points="956.3,912.3 956.3,916.5 950.2,916.5 953.2,913      "/>
					<g>
						<path class="st13" d="M966.6,927.6c2,1.5,3,2.2,4.9,3.7c-1.9,1.2-2.8,1.8-4.6,3c-2-1.5-3-2.2-5-3.7c-3.7,1.8-8,2.9-12.1,3        c-0.9-2-1.4-3-2.3-5c4.5-0.1,9.7-1.4,12.2-3.1c1.9-1.2,2.5-2.5,1.3-3.4c-3.8-2.9-14.4,7-22.4,1.1c-3.6-2.7-3.3-6.3,0.6-9.7        c-1.8-1.4-2.7-2.1-4.5-3.5c1.9-1.2,2.8-1.8,4.8-3c1.8,1.4,2.6,2.1,4.5,3.5c3.2-1.6,6.9-2.7,10.3-3.2c0.8,2,1.2,3.1,2,5.1        c-4,0.7-8.4,2-10.5,3.3c-1.6,1-2.1,2-1,2.8c3.7,2.8,14.8-7.2,22.9-1C971.6,920.5,970.5,924.4,966.6,927.6z"/>
					</g>
					<path class="st1" d="M953.2,904.6c24.5,0,44.7,10,46.7,22.7c0.1-0.7,0.2-1.4,0.2-2.1c0-13.7-21-24.8-46.9-24.8       c-25.9,0-46.9,11.1-46.9,24.8c0,0.7,0.1,1.4,0.2,2.1C908.5,914.6,928.6,904.6,953.2,904.6z"/>
				</g>
				<polygon class="st1" points="971.5,931.3 971.5,935.4 966.9,938.4 966.9,934.3     "/>
				<polygon class="st1" points="947.6,928.6 947.6,932.7 949.8,937.7 949.8,933.6     "/>
				<polygon class="st1" points="934.8,914.1 934.8,909.9 937.9,912.3     "/>
			</g>
		</g>
		<path class="st1" d="M992.3,792c-9.4-10.8-30-18.3-54-18.3c-23.9,0-44.6,7.5-54,18.3h-5.4v13.1c0,17.4,26.6,31.5,59.4,31.5    c32.8,0,59.4-14.1,59.4-31.5V792H992.3z"/>
		<path class="st13" d="M938.3,829.5c-32.8,0-59.4-14.1-59.4-31.5v3c0,17.4,26.6,31.5,59.4,31.5c32.8,0,59.4-14.1,59.4-31.5v-3    C997.7,815.4,971.1,829.5,938.3,829.5z"/>
		<ellipse class="st13" cx="938.3" cy="792" rx="59.4" ry="31.5"/>
		<g>
			<path class="st1" d="M951.7,798.6c2,1.5,3,2.2,4.9,3.7c-1.9,1.2-2.8,1.8-4.6,3c-2-1.5-3-2.2-5-3.7c-3.7,1.8-8,2.9-12.1,3     c-0.9-2-1.4-3-2.3-5c4.5-0.1,9.7-1.4,12.2-3.1c1.9-1.2,2.5-2.5,1.3-3.4c-3.8-2.9-14.4,7-22.4,1.1c-3.6-2.7-3.3-6.3,0.6-9.7     c-1.8-1.4-2.7-2.1-4.5-3.5c1.9-1.2,2.8-1.8,4.8-3c1.8,1.4,2.6,2.1,4.5,3.5c3.2-1.6,6.9-2.7,10.3-3.2c0.8,2,1.2,3.1,2,5.1     c-4,0.7-8.4,2-10.5,3.3c-1.6,1-2.1,2-1,2.8c3.7,2.8,14.8-7.2,22.9-1C956.8,791.4,955.7,795.3,951.7,798.6z"/>
		</g>
		<polygon class="st1" points="941.5,779.1 941.5,783.3 935.3,783.3 938.3,779.7   "/>
		<g>
			<path class="st13" d="M951.7,794.4c2,1.5,3,2.2,4.9,3.7c-1.9,1.2-2.8,1.8-4.6,3c-2-1.5-3-2.2-5-3.7c-3.7,1.8-8,2.9-12.1,3     c-0.9-2-1.4-3-2.3-5c4.5-0.1,9.7-1.4,12.2-3.1c1.9-1.2,2.5-2.5,1.3-3.4c-3.8-2.9-14.4,7-22.4,1.1c-3.6-2.7-3.3-6.3,0.6-9.7     c-1.8-1.4-2.7-2.1-4.5-3.5c1.9-1.2,2.8-1.8,4.8-3c1.8,1.4,2.6,2.1,4.5,3.5c3.2-1.6,6.9-2.7,10.3-3.2c0.8,2,1.2,3.1,2,5.1     c-4,0.7-8.4,2-10.5,3.3c-1.6,1-2.1,2-1,2.8c3.7,2.8,14.8-7.2,22.9-1C956.8,787.3,955.7,791.2,951.7,794.4z"/>
		</g>
		<path class="st1" d="M938.3,771.4c24.5,0,44.7,10,46.7,22.7c0.1-0.7,0.2-1.4,0.2-2.1c0-13.7-21-24.8-46.9-24.8    c-25.9,0-46.9,11.1-46.9,24.8c0,0.7,0.1,1.4,0.2,2.1C893.6,781.4,913.8,771.4,938.3,771.4z"/>
		<polygon class="st1" points="956.7,798.1 956.7,802.2 952,805.2 952,801   "/>
		<polygon class="st1" points="932.7,795.3 932.7,799.5 935,804.5 935,800.4   "/>
		<polygon class="st1" points="919.9,780.8 919.9,776.7 923.1,779.1   "/>
		<g>
			<polygon class="st5" points="499.9,818.3 839.5,967.3 700,1047.9 361.2,852.3    "/>
			<polygon class="st5" points="499.9,702.3 832.6,902.3 700,977.9 361.2,782.3    "/>
			<polygon class="st6" points="839.5,897.4 839.5,967.3 700,1047.9 700,977.9    "/>
			<polygon class="st5" points="361.2,782.3 361.2,852.3 700,1047.9 700,977.9    "/>
			<polygon class="st7" points="361.2,782.3 361.2,852.3 700,1047.9 700,977.9    "/>
			<g>
				<g>
					<g>
						<path class="st8" d="M700,977.9c46.2-27.3,93-53.8,139.5-80.5C725.9,833,612.9,767.6,499.9,702.3        c-46.7,25.9-92.3,53.7-138.8,80C474.1,847.5,587.2,912.5,700,977.9z"/>
						<path class="st9" d="M820,896c-106.4-60.8-212.5-122.2-318.5-183.7c-39.6,22.7-78.9,46.1-118.4,69        c106.4,61.8,213,123.3,319.3,185.2C741.4,942.8,780.8,919.6,820,896z"/>
						<g>
							<path class="st8" d="M564.1,864.4c28.4,16.5,69.5,17.2,91.9,2.1c22.4-15.2,16.1-39.3-11.8-55.6         c-27.9-16.2-66.7-18.4-89.5-3.5C531.9,822.2,535.7,847.8,564.1,864.4z"/>
						</g>
						<g>
							<path class="st8" d="M488.6,788.3c7.5,4.3,18.3,4.5,24.2,0.5c5.9-4,4.2-10.3-3.1-14.6c-7.3-4.3-17.5-4.8-23.5-0.9         C480.1,777.2,481.1,783.9,488.6,788.3z"/>
						</g>
						<g>
							<path class="st8" d="M694.9,903c7.5,4.3,18.3,4.5,24.2,0.5c5.9-4,4.2-10.3-3.1-14.6c-7.3-4.3-17.5-4.8-23.5-0.9         S687.4,898.7,694.9,903z"/>
						</g>
						<g>
							<path class="st8" d="M617.8,893.3c-24.8,0-49.3-7.4-68.3-18.2c-21-12-33.1-28.6-33.4-45.7c-0.2-13.4,7.1-25.3,20.7-33.5         c32.6-19.9,79.8-17.8,120.1,5.4c21.8,12.6,35.1,29.8,35.5,46.2c0.3,12-6.1,22.5-18.4,30.4         C656.8,888.8,637.2,893.3,617.8,893.3z M587.9,785.9c-16.8,0-33.7,3.7-49.1,13.1c-12.4,7.6-19.1,18.3-18.9,30.3         c0.2,15.7,11.7,31.2,31.5,42.5l0,0c32.8,18.8,82.9,26.9,120.6,2.8c11.2-7.2,17-16.6,16.8-27.2c-0.3-15-12.9-31.1-33.7-43.1         C637.3,794.2,612.8,785.9,587.9,785.9z"/>
						</g>
						<g>
							<g>
								<path class="st8" d="M525.2,716.9c0.1,2.4-1.3,4.7-4.6,6.6c-8.6,5-27.1,4.9-37-0.9c-3.7-2.2-5.8-4.8-6.3-7.5          c10.6-6.1,15.4-8.8,22.6-12.8C509,707.6,514.2,710.5,525.2,716.9z"/>
								<path class="st8" d="M405.9,768.1c10.2,6,9.2,17.9-2.8,24.9c-4.5,2.6-9.9,4.1-15.4,4.7c-11.8-6.8-17.2-9.9-26.6-15.3          c11.5-6.4,17.9-10.1,30.9-17.6C397.3,764.8,402.1,765.9,405.9,768.1z"/>
								<path class="st8" d="M801.7,907c-10.8-6.2-11.7-17.7-3.2-23.3c3.2-2.1,7.3-3,11.7-3c12.5,7.1,18.4,10.5,29.3,16.6          c-7.6,4.4-12.7,7.3-23.8,13.7C810.6,910.7,805.7,909.4,801.7,907z"/>
								<path class="st8" d="M677.4,964.8c0.8-3,3.1-6,7.1-8.6c10.8-7,30-8.1,39.4-2.6c3.5,2,5.1,4.7,5,7.5          c-12.6,7.3-18.7,10.9-28.9,16.9C692.3,973.5,687.7,970.8,677.4,964.8z"/>
							</g>
						</g>
					</g>
				</g>
			</g>
			<polygon class="st10" points="688.5,811.1 547.7,890.4 547.2,959.6 507.4,936.6 508.6,867.6 646.1,786.8    "/>
			<polygon class="st11" points="515.5,941.6 516.6,872.3 654.7,791.7 680.9,806.7 539.7,885.7 539.3,955.3    "/>
			<polygon class="st12" points="547.7,890.4 508.6,867.6 507.3,936.6 547.2,959.7    "/>
		</g>
		<path class="st4" d="M621.8,1007.2c46.2-27.3,93-53.8,139.5-80.5c-113.6-64.4-226.6-129.8-339.6-195.1    c-46.7,25.9-92.3,53.7-138.8,80C396,876.8,509,941.8,621.8,1007.2z"/>
		<g>
			<polygon class="st5" points="512.4,769.6 852,875.1 712.5,955.6 373.7,760    "/>
			<polygon class="st5" points="512.4,653.7 845.1,853.7 712.5,929.3 373.7,733.7    "/>
			<polygon class="st6" points="852,848.8 852,875.1 712.5,955.6 712.5,929.3    "/>
			<polygon class="st5" points="373.7,733.7 373.7,760 712.5,955.6 712.5,929.3    "/>
			<polygon class="st7" points="373.7,733.7 373.7,760 712.5,955.6 712.5,929.3    "/>
			<g>
				<g>
					<g>
						<path class="st8" d="M712.5,929.3c46.2-27.3,93-53.8,139.5-80.5C738.4,784.4,625.4,719,512.4,653.7        c-46.7,25.9-92.3,53.7-138.8,80C486.6,798.9,599.7,863.9,712.5,929.3z"/>
						<path class="st9" d="M832.4,847.4C726,786.6,619.9,725.2,513.9,663.7c-39.6,22.7-78.9,46.1-118.4,69        c106.4,61.8,213,123.3,319.3,185.2C753.9,894.1,793.3,871,832.4,847.4z"/>
						<g>
							<path class="st8" d="M576.6,815.7c28.4,16.5,69.5,17.2,91.9,2.1c22.4-15.2,16.1-39.3-11.8-55.6         c-27.9-16.2-66.7-18.4-89.5-3.5C544.3,773.6,548.2,799.2,576.6,815.7z"/>
						</g>
						<g>
							<path class="st8" d="M501.1,739.7c7.5,4.3,18.3,4.5,24.2,0.5c5.9-4,4.2-10.3-3.1-14.6c-7.3-4.3-17.5-4.8-23.5-0.9         C492.6,728.6,493.6,735.3,501.1,739.7z"/>
						</g>
						<g>
							<path class="st8" d="M707.4,854.4c7.5,4.3,18.3,4.5,24.2,0.5c5.9-4,4.2-10.3-3.1-14.6c-7.3-4.3-17.5-4.8-23.5-0.9         C698.9,843.3,699.9,850,707.4,854.4z"/>
						</g>
						<g>
							<path class="st8" d="M630.3,844.7c-24.8,0-49.3-7.4-68.3-18.2c-21-12-33.1-28.6-33.4-45.7c-0.2-13.4,7.1-25.3,20.7-33.5         c32.6-19.9,79.8-17.8,120.1,5.4c21.8,12.6,35.1,29.8,35.5,46.2c0.3,12-6.1,22.5-18.4,30.4         C669.3,840.2,649.7,844.7,630.3,844.7z M600.3,737.3c-16.8,0-33.7,3.7-49.1,13.1c-12.4,7.6-19.1,18.3-18.9,30.3         c0.2,15.7,11.7,31.2,31.5,42.5l0,0c32.8,18.8,82.9,26.9,120.6,2.8c11.2-7.2,17-16.6,16.8-27.2c-0.3-15-12.9-31.1-33.7-43.1         C649.8,745.6,625.3,737.3,600.3,737.3z"/>
						</g>
						<g>
							<g>
								<path class="st8" d="M537.7,668.3c0.1,2.4-1.3,4.7-4.6,6.6c-8.6,5-27.1,4.9-37-0.9c-3.7-2.2-5.8-4.8-6.3-7.5          c10.6-6.1,15.4-8.8,22.6-12.8C521.5,658.9,526.6,661.9,537.7,668.3z"/>
								<path class="st8" d="M418.4,719.5c10.2,6,9.2,17.9-2.8,24.9c-4.5,2.6-9.9,4.1-15.4,4.7c-11.8-6.8-17.2-9.9-26.6-15.3          c11.5-6.4,17.9-10.1,30.9-17.6C409.8,716.2,414.6,717.3,418.4,719.5z"/>
								<path class="st8" d="M814.1,858.4c-10.8-6.2-11.7-17.7-3.2-23.3c3.2-2.1,7.3-3,11.7-3c12.5,7.1,18.4,10.5,29.3,16.6          c-7.6,4.4-12.7,7.3-23.8,13.7C823.1,862,818.2,860.7,814.1,858.4z"/>
								<path class="st8" d="M689.8,916.2c0.8-3,3.1-6,7.1-8.6c10.8-7,30-8.1,39.4-2.6c3.5,2,5.1,4.7,5,7.5          c-12.6,7.3-18.7,10.9-28.9,16.9C704.8,924.9,700.2,922.2,689.8,916.2z"/>
							</g>
						</g>
					</g>
				</g>
			</g>
			<polygon class="st10" points="701,762.5 560.2,841.8 559.7,867.3 519.8,844.3 521.1,819 658.6,738.1    "/>
			<polygon class="st11" points="527.9,849.3 529,823.6 667.2,743.1 693.3,758.1 552.2,837.1 551.7,863    "/>
			<polygon class="st12" points="560.2,841.8 521.1,819 519.8,844.4 559.6,867.4    "/>
		</g>
		<path class="st4" d="M639.6,955.9c46.2-27.3,93-53.8,139.5-80.5c-113.6-64.4-215.8-119-328.8-184.3c-46.7,25.9-92.3,53.7-138.8,80    C424.6,836.3,526.8,890.5,639.6,955.9z"/>
		<g>
			<polygon class="st5" points="516.4,725 855.9,830.4 716.4,911 377.6,715.3    "/>
			<polygon class="st5" points="516.4,609 849,809 716.4,884.7 377.6,689    "/>
			<polygon class="st6" points="855.9,804.1 855.9,830.4 716.4,911 716.4,884.7    "/>
			<polygon class="st5" points="377.6,689 377.6,715.3 716.4,911 716.4,884.7    "/>
			<polygon class="st7" points="377.6,689 377.6,715.3 716.4,911 716.4,884.7    "/>
			<g>
				<g>
					<g>
						<path class="st8" d="M716.4,884.7c46.2-27.3,93-53.8,139.5-80.5C742.3,739.8,629.4,674.3,516.4,609        c-46.7,25.9-92.3,53.7-138.8,80C490.6,754.2,603.6,819.2,716.4,884.7z"/>
						<path class="st9" d="M836.4,802.7C730,741.9,623.9,680.6,517.9,619.1c-39.6,22.7-78.9,46.1-118.4,69        c106.4,61.8,213,123.3,319.3,185.2C757.8,849.5,797.2,826.3,836.4,802.7z"/>
						<g>
							<path class="st8" d="M580.6,771.1c28.4,16.5,69.5,17.2,91.9,2.1c22.4-15.2,16.1-39.3-11.8-55.6         c-27.9-16.2-66.7-18.4-89.5-3.5C548.3,728.9,552.2,754.6,580.6,771.1z"/>
						</g>
						<g>
							<path class="st8" d="M505,695c7.5,4.3,18.3,4.5,24.2,0.5c5.9-4,4.2-10.3-3.1-14.6s-17.5-4.8-23.5-0.9         C496.5,683.9,497.6,690.7,505,695z"/>
						</g>
						<g>
							<path class="st8" d="M711.3,809.7c7.5,4.3,18.3,4.5,24.2,0.5c5.9-4,4.2-10.3-3.1-14.6c-7.3-4.3-17.5-4.8-23.5-0.9         C702.8,798.7,703.8,805.4,711.3,809.7z"/>
						</g>
						<g>
							<path class="st8" d="M634.3,800c-24.8,0-49.3-7.4-68.3-18.2c-21-12-33.1-28.6-33.4-45.7c-0.2-13.4,7.1-25.3,20.7-33.5         c32.6-19.9,79.8-17.8,120.1,5.4c21.8,12.6,35.1,29.8,35.5,46.2c0.3,12-6.1,22.5-18.4,30.4C673.2,795.5,653.7,800,634.3,800z          M604.3,692.7c-16.8,0-33.7,3.7-49.1,13.1c-12.4,7.6-19.1,18.3-18.9,30.3c0.2,15.7,11.7,31.2,31.5,42.5l0,0         c32.8,18.8,82.9,26.9,120.6,2.8c11.2-7.2,17-16.6,16.8-27.2c-0.3-15-12.9-31.1-33.7-43.1C653.7,701,629.2,692.7,604.3,692.7z         "/>
						</g>
						<g>
							<g>
								<path class="st8" d="M541.6,623.6c0.1,2.4-1.3,4.7-4.6,6.6c-8.6,5-27.1,4.9-37-0.9c-3.7-2.2-5.8-4.8-6.3-7.5          c10.6-6.1,15.4-8.8,22.6-12.8C525.5,614.3,530.6,617.2,541.6,623.6z"/>
								<path class="st8" d="M422.4,674.9c10.2,6,9.2,17.9-2.8,24.9c-4.5,2.6-9.9,4.1-15.4,4.7c-11.8-6.8-17.2-9.9-26.6-15.3          c11.5-6.4,17.9-10.1,30.9-17.6C413.7,671.5,418.5,672.6,422.4,674.9z"/>
								<path class="st8" d="M818.1,813.7c-10.8-6.2-11.7-17.7-3.2-23.3c3.2-2.1,7.3-3,11.7-3c12.5,7.1,18.4,10.5,29.3,16.6          c-7.6,4.4-12.7,7.3-23.8,13.7C827,817.4,822.1,816.1,818.1,813.7z"/>
								<path class="st8" d="M693.8,871.6c0.8-3,3.1-6,7.1-8.6c10.8-7,30-8.1,39.4-2.6c3.5,2,5.1,4.7,5,7.5          c-12.6,7.3-18.7,10.9-28.9,16.9C708.8,880.2,704.2,877.5,693.8,871.6z"/>
							</g>
						</g>
					</g>
				</g>
			</g>
			<polygon class="st10" points="704.9,717.9 564.1,797.1 563.6,822.7 523.8,799.6 525,774.3 662.6,693.5    "/>
			<polygon class="st11" points="531.9,804.6 533,779 671.2,698.4 697.3,713.4 556.1,792.4 555.7,818.4    "/>
			<polygon class="st12" points="564.1,797.1 525,774.3 523.7,799.7 563.6,822.7    "/>
		</g>
		<path class="st4" d="M512.4,653.7c113,65.3,178,104.7,291.6,169c-46.5,26.8-91.8,52.4-138.1,79.7    c-112.8-65.4-179.3-103.5-292.3-168.7l18.5-10.4l-14.6-7.9V689l7-3.9l-25-14.4v-26.3L698.4,840v26.3l18-10v17.1"/>
		<g>
			<polygon class="st5" points="525.8,681.5 865.4,786.9 725.9,867.4 387.1,671.8    "/>
			<polygon class="st5" points="525.8,565.5 858.5,765.5 725.9,841.1 387.1,645.5    "/>
			<polygon class="st6" points="865.4,760.6 865.4,786.9 725.9,867.4 725.9,841.1    "/>
			<polygon class="st5" points="387.1,645.5 387.1,671.8 725.9,867.4 725.9,841.1    "/>
			<polygon class="st7" points="387.1,645.5 387.1,671.8 725.9,867.4 725.9,841.1    "/>
			<g>
				<g>
					<g>
						<path class="st8" d="M725.9,841.1c46.2-27.3,93-53.8,139.5-80.5c-113.6-64.4-226.6-129.8-339.6-195.1        c-46.7,25.9-92.3,53.7-138.8,80C500,710.7,613.1,775.7,725.9,841.1z"/>
						<path class="st9" d="M845.8,759.2C739.4,698.4,633.3,637,527.3,575.6c-39.6,22.7-78.9,46.1-118.4,69        c106.4,61.8,213,123.3,319.3,185.2C767.3,806,806.7,782.8,845.8,759.2z"/>
						<g>
							<path class="st8" d="M590,727.6c28.4,16.5,69.5,17.2,91.9,2.1c22.4-15.2,16.1-39.3-11.8-55.6c-27.9-16.2-66.7-18.4-89.5-3.5         C557.7,685.4,561.6,711,590,727.6z"/>
						</g>
						<g>
							<path class="st8" d="M514.5,651.5c7.5,4.3,18.3,4.5,24.2,0.5c5.9-4,4.2-10.3-3.1-14.6c-7.3-4.3-17.5-4.8-23.5-0.9         C506,640.4,507,647.1,514.5,651.5z"/>
						</g>
						<g>
							<path class="st8" d="M720.8,766.2c7.5,4.3,18.3,4.5,24.2,0.5c5.9-4,4.2-10.3-3.1-14.6c-7.3-4.3-17.5-4.8-23.5-0.9         C712.3,755.1,713.3,761.9,720.8,766.2z"/>
						</g>
						<g>
							<path class="st8" d="M643.7,756.5c-24.8,0-49.3-7.4-68.3-18.2c-21-12-33.1-28.6-33.4-45.7c-0.2-13.4,7.1-25.3,20.7-33.5         c32.6-19.9,79.8-17.8,120.1,5.4c21.8,12.6,35.1,29.8,35.5,46.2c0.3,12-6.1,22.5-18.4,30.4C682.7,752,663.1,756.5,643.7,756.5         z M613.7,649.1c-16.8,0-33.7,3.7-49.1,13.1c-12.4,7.6-19.1,18.3-18.9,30.3c0.2,15.7,11.7,31.2,31.5,42.5l0,0         c32.8,18.8,82.9,26.9,120.6,2.8c11.2-7.2,17-16.6,16.8-27.2c-0.3-15-12.9-31.1-33.7-43.1         C663.2,657.4,638.7,649.1,613.7,649.1z"/>
						</g>
						<g>
							<g>
								<path class="st8" d="M551.1,580.1c0.1,2.4-1.3,4.7-4.6,6.6c-8.6,5-27.1,4.9-37-0.9c-3.7-2.2-5.8-4.8-6.3-7.5          c10.6-6.1,15.4-8.8,22.6-12.8C534.9,570.8,540,573.7,551.1,580.1z"/>
								<path class="st8" d="M431.8,631.3c10.2,6,9.2,17.9-2.8,24.9c-4.5,2.6-9.9,4.1-15.4,4.7c-11.8-6.8-17.2-9.9-26.6-15.3          c11.5-6.4,17.9-10.1,30.9-17.6C423.2,628,428,629.1,431.8,631.3z"/>
								<path class="st8" d="M827.5,770.2c-10.8-6.2-11.7-17.7-3.2-23.3c3.2-2.1,7.3-3,11.7-3c12.5,7.1,18.4,10.5,29.3,16.6          c-7.6,4.4-12.7,7.3-23.8,13.7C836.5,773.9,831.6,772.6,827.5,770.2z"/>
								<path class="st8" d="M703.2,828c0.8-3,3.1-6,7.1-8.6c10.8-7,30-8.1,39.4-2.6c3.5,2,5.1,4.7,5,7.5          c-12.6,7.3-18.7,10.9-28.9,16.9C718.2,836.7,713.6,834,703.2,828z"/>
							</g>
						</g>
					</g>
				</g>
			</g>
			<polygon class="st10" points="714.4,674.3 573.6,753.6 573.1,779.2 533.2,756.1 534.5,730.8 672,650    "/>
			<polygon class="st11" points="541.3,761.1 542.4,735.5 680.6,654.9 706.7,669.9 565.6,748.9 565.1,774.9    "/>
			<polygon class="st12" points="573.6,753.6 534.5,730.8 533.2,756.2 573,779.2    "/>
		</g>
		<polygon class="st5" points="498.3,680.4 837.9,785.8 698.4,866.3 359.6,670.7   "/>
		<polygon class="st5" points="498.3,564.4 831,764.4 698.4,840 359.6,644.4   "/>
		<polygon class="st6" points="837.9,759.5 837.9,785.8 698.4,866.3 698.4,840   "/>
		<polygon class="st5" points="359.6,644.4 359.6,670.7 698.4,866.3 698.4,840   "/>
		<polygon class="st7" points="359.6,644.4 359.6,670.7 698.4,866.3 698.4,840   "/>
		<path class="st8" d="M698.4,840c46.2-27.3,93-53.8,139.5-80.5c-113.6-64.4-226.6-129.8-339.6-195.1c-46.7,25.9-92.3,53.7-138.8,80    C472.5,709.6,585.6,774.6,698.4,840z"/>
		<path class="st9" d="M818.4,758.1C712,697.3,605.9,635.9,499.9,574.4c-39.6,22.7-78.9,46.1-118.4,69    c106.4,61.8,213,123.3,319.3,185.2C739.8,804.8,779.2,781.7,818.4,758.1z"/>
		<g>
			<path class="st8" d="M562.5,726.5c28.4,16.5,69.5,17.2,91.9,2.1c22.4-15.2,16.1-39.3-11.8-55.6c-27.9-16.2-66.7-18.4-89.5-3.5     C530.3,684.3,534.2,709.9,562.5,726.5z"/>
		</g>
		<g>
			<path class="st8" d="M487,650.4c7.5,4.3,18.3,4.5,24.2,0.5c5.9-4,4.2-10.3-3.1-14.6c-7.3-4.3-17.5-4.8-23.5-0.9     C478.5,639.3,479.5,646,487,650.4z"/>
		</g>
		<g>
			<path class="st8" d="M693.3,765.1c7.5,4.3,18.3,4.5,24.2,0.5c5.9-4,4.2-10.3-3.1-14.6c-7.3-4.3-17.5-4.8-23.5-0.9     C684.8,754,685.8,760.8,693.3,765.1z"/>
		</g>
		<g>
			<path class="st8" d="M616.2,755.4c-24.8,0-49.3-7.4-68.3-18.2c-21-12-33.1-28.6-33.4-45.7c-0.2-13.4,7.1-25.3,20.7-33.5     c32.6-19.9,79.8-17.8,120.1,5.4c21.8,12.6,35.1,29.8,35.5,46.2c0.3,12-6.1,22.5-18.4,30.4C655.2,750.9,635.7,755.4,616.2,755.4z      M586.3,648c-16.8,0-33.7,3.7-49.1,13.1c-12.4,7.6-19.1,18.3-18.9,30.3c0.2,15.7,11.7,31.2,31.5,42.5l0,0     c32.8,18.8,82.9,26.9,120.6,2.8c11.2-7.2,17-16.6,16.8-27.2c-0.3-15-12.9-31.1-33.7-43.1C635.7,656.3,611.2,648,586.3,648z"/>
		</g>
		<g>
			<g>
				<path class="st8" d="M523.6,579c0.1,2.4-1.3,4.7-4.6,6.6c-8.6,5-27.1,4.9-37-0.9c-3.7-2.2-5.8-4.8-6.3-7.5      c10.6-6.1,15.4-8.8,22.6-12.8C507.4,569.6,512.6,572.6,523.6,579z"/>
				<path class="st8" d="M404.3,630.2c10.2,6,9.2,17.9-2.8,24.9c-4.5,2.6-9.9,4.1-15.4,4.7c-11.8-6.8-17.2-9.9-26.6-15.3      c11.5-6.4,17.9-10.1,30.9-17.6C395.7,626.9,400.5,628,404.3,630.2z"/>
				<path class="st8" d="M800.1,769.1c-10.8-6.2-11.7-17.7-3.2-23.3c3.2-2.1,7.3-3,11.7-3c12.5,7.1,18.4,10.5,29.3,16.6      c-7.6,4.4-12.7,7.3-23.8,13.7C809,772.7,804.1,771.4,800.1,769.1z"/>
				<path class="st8" d="M675.8,826.9c0.8-3,3.1-6,7.1-8.6c10.8-7,30-8.1,39.4-2.6c3.5,2,5.1,4.7,5,7.5      c-12.6,7.3-18.7,10.9-28.9,16.9C690.8,835.6,686.1,832.9,675.8,826.9z"/>
			</g>
		</g>
		<polygon class="st10" points="686.9,673.2 546.1,752.5 545.6,778 505.8,755 507,729.7 644.6,648.8   "/>
		<polygon class="st11" points="513.9,760 515,734.3 653.1,653.8 679.3,668.8 538.1,747.8 537.7,773.7   "/>
		<polygon class="st12" points="546.1,752.5 507,729.7 505.7,755.1 545.6,778.1   "/>
		<g>
			<g>
				<g>
					<path class="st1" d="M899.2,1025.1c-9.4-10.8-30-18.3-54-18.3c-23.9,0-44.6,7.5-54,18.3h-5.4v13.1c0,17.4,26.6,31.5,59.4,31.5       c32.8,0,59.4-14.1,59.4-31.5v-13.1H899.2z"/>
					<path class="st13" d="M845.2,1062.6c-32.8,0-59.4-14.1-59.4-31.5v3c0,17.4,26.6,31.5,59.4,31.5c32.8,0,59.4-14.1,59.4-31.5v-3       C904.6,1048.5,878,1062.6,845.2,1062.6z"/>
					<ellipse class="st13" cx="845.2" cy="1025.1" rx="59.4" ry="31.5"/>
					<g>
						<path class="st1" d="M858.6,1031.7c2,1.5,3,2.2,4.9,3.7c-1.9,1.2-2.8,1.8-4.6,3c-2-1.5-3-2.2-5-3.7c-3.7,1.8-8,2.9-12.1,3        c-0.9-2-1.4-3-2.3-5c4.5-0.1,9.7-1.4,12.2-3.1c1.9-1.2,2.5-2.5,1.3-3.4c-3.8-2.9-14.4,7-22.4,1.1c-3.6-2.7-3.3-6.3,0.6-9.7        c-1.8-1.4-2.7-2.1-4.5-3.5c1.9-1.2,2.8-1.8,4.8-3c1.8,1.4,2.6,2.1,4.5,3.5c3.2-1.6,6.9-2.7,10.3-3.2c0.8,2,1.2,3.1,2,5.1        c-4,0.7-8.4,2-10.5,3.3c-1.6,1-2.1,2-1,2.8c3.7,2.8,14.8-7.2,22.9-1C863.7,1024.5,862.5,1028.4,858.6,1031.7z"/>
					</g>
					<polygon class="st1" points="848.3,1012.2 848.3,1016.4 842.2,1016.4 845.2,1012.8      "/>
					<g>
						<path class="st13" d="M858.6,1027.5c2,1.5,3,2.2,4.9,3.7c-1.9,1.2-2.8,1.8-4.6,3c-2-1.5-3-2.2-5-3.7c-3.7,1.8-8,2.9-12.1,3        c-0.9-2-1.4-3-2.3-5c4.5-0.1,9.7-1.4,12.2-3.1c1.9-1.2,2.5-2.5,1.3-3.4c-3.8-2.9-14.4,7-22.4,1.1c-3.6-2.7-3.3-6.3,0.6-9.7        c-1.8-1.4-2.7-2.1-4.5-3.5c1.9-1.2,2.8-1.8,4.8-3c1.8,1.4,2.6,2.1,4.5,3.5c3.2-1.6,6.9-2.7,10.3-3.2c0.8,2,1.2,3.1,2,5.1        c-4,0.7-8.4,2-10.5,3.3c-1.6,1-2.1,2-1,2.8c3.7,2.8,14.8-7.2,22.9-1C863.7,1020.4,862.5,1024.3,858.6,1027.5z"/>
					</g>
					<path class="st1" d="M845.2,1004.5c24.5,0,44.7,10,46.7,22.7c0.1-0.7,0.2-1.4,0.2-2.1c0-13.7-21-24.8-46.9-24.8       c-25.9,0-46.9,11.1-46.9,24.8c0,0.7,0.1,1.4,0.2,2.1C800.5,1014.5,820.6,1004.5,845.2,1004.5z"/>
				</g>
				<polygon class="st1" points="863.6,1031.2 863.6,1035.3 858.9,1038.3 858.9,1034.1     "/>
				<polygon class="st1" points="839.6,1028.4 839.6,1032.6 841.9,1037.6 841.9,1033.5     "/>
				<polygon class="st1" points="826.8,1013.9 826.8,1009.8 829.9,1012.2     "/>
			</g>
			<g>
				<g>
					<path class="st1" d="M907.7,1004.3c-9.4-10.8-30-18.3-54-18.3s-44.6,7.5-54,18.3h-5.4v13.1c0,17.4,26.6,31.5,59.4,31.5       c32.8,0,59.4-14.1,59.4-31.5v-13.1H907.7z"/>
					<path class="st13" d="M853.7,1041.9c-32.8,0-59.4-14.1-59.4-31.5v3c0,17.4,26.6,31.5,59.4,31.5s59.4-14.1,59.4-31.5v-3       C913.1,1027.8,886.5,1041.9,853.7,1041.9z"/>
					<ellipse class="st13" cx="853.7" cy="1004.3" rx="59.4" ry="31.5"/>
					<g>
						<path class="st1" d="M867.1,1010.9c2,1.5,3,2.2,4.9,3.7c-1.9,1.2-2.8,1.8-4.6,3c-2-1.5-3-2.2-5-3.7c-3.7,1.8-8,2.9-12.1,3        c-0.9-2-1.4-3-2.3-5c4.5-0.1,9.7-1.4,12.2-3.1c1.9-1.2,2.5-2.5,1.3-3.4c-3.8-2.9-14.4,7-22.4,1.1c-3.6-2.7-3.3-6.3,0.6-9.7        c-1.8-1.4-2.7-2.1-4.5-3.5c1.9-1.2,2.8-1.8,4.8-3c1.8,1.4,2.6,2.1,4.5,3.5c3.2-1.6,6.9-2.7,10.3-3.2c0.8,2,1.2,3.1,2,5.1        c-4,0.7-8.4,2-10.5,3.3c-1.6,1-2.1,2-1,2.8c3.7,2.8,14.8-7.2,22.9-1C872.2,1003.8,871,1007.7,867.1,1010.9z"/>
					</g>
					<polygon class="st1" points="856.8,991.5 856.8,995.6 850.7,995.6 853.7,992.1      "/>
					<g>
						<path class="st13" d="M867.1,1006.8c2,1.5,3,2.2,4.9,3.7c-1.9,1.2-2.8,1.8-4.6,3c-2-1.5-3-2.2-5-3.7c-3.7,1.8-8,2.9-12.1,3        c-0.9-2-1.4-3-2.3-5c4.5-0.1,9.7-1.4,12.2-3.1c1.9-1.2,2.5-2.5,1.3-3.4c-3.8-2.9-14.4,7-22.4,1.1c-3.6-2.7-3.3-6.3,0.6-9.7        c-1.8-1.4-2.7-2.1-4.5-3.5c1.9-1.2,2.8-1.8,4.8-3c1.8,1.4,2.6,2.1,4.5,3.5c3.2-1.6,6.9-2.7,10.3-3.2c0.8,2,1.2,3.1,2,5.1        c-4,0.7-8.4,2-10.5,3.3c-1.6,1-2.1,2-1,2.8c3.7,2.8,14.8-7.2,22.9-1C872.2,999.6,871,1003.5,867.1,1006.8z"/>
					</g>
					<path class="st1" d="M853.7,983.8c24.5,0,44.7,10,46.7,22.7c0.1-0.7,0.2-1.4,0.2-2.1c0-13.7-21-24.8-46.9-24.8       c-25.9,0-46.9,11.1-46.9,24.8c0,0.7,0.1,1.4,0.2,2.1C809,993.7,829.2,983.8,853.7,983.8z"/>
				</g>
				<polygon class="st1" points="872.1,1010.4 872.1,1014.6 867.4,1017.5 867.4,1013.4     "/>
				<polygon class="st1" points="848.1,1007.7 848.1,1011.8 850.4,1016.9 850.4,1012.7     "/>
				<polygon class="st1" points="835.3,993.2 835.3,989 838.4,991.5     "/>
			</g>
			<g>
				<g>
					<path class="st1" d="M896.2,979.4c-9.4-10.8-30-18.3-54-18.3s-44.6,7.5-54,18.3h-5.4v13.1c0,17.4,26.6,31.5,59.4,31.5       c32.8,0,59.4-14.1,59.4-31.5v-13.1H896.2z"/>
					<path class="st13" d="M842.2,1017c-32.8,0-59.4-14.1-59.4-31.5v3c0,17.4,26.6,31.5,59.4,31.5s59.4-14.1,59.4-31.5v-3       C901.6,1002.9,875,1017,842.2,1017z"/>
					<ellipse class="st13" cx="842.2" cy="979.4" rx="59.4" ry="31.5"/>
					<g>
						<path class="st1" d="M855.7,986c2,1.5,3,2.2,4.9,3.7c-1.9,1.2-2.8,1.8-4.6,3c-2-1.5-3-2.2-5-3.7c-3.7,1.8-8,2.9-12.1,3        c-0.9-2-1.4-3-2.3-5c4.5-0.1,9.7-1.4,12.2-3.1c1.9-1.2,2.5-2.5,1.3-3.4c-3.8-2.9-14.4,7-22.4,1.1c-3.6-2.7-3.3-6.3,0.6-9.7        c-1.8-1.4-2.7-2.1-4.5-3.5c1.9-1.2,2.8-1.8,4.8-3c1.8,1.4,2.6,2.1,4.5,3.5c3.2-1.6,6.9-2.7,10.3-3.2c0.8,2,1.2,3.1,2,5.1        c-4,0.7-8.4,2-10.5,3.3c-1.6,1-2.1,2-1,2.8c3.7,2.8,14.8-7.2,22.9-1C860.7,978.9,859.6,982.8,855.7,986z"/>
					</g>
					<polygon class="st1" points="845.4,966.6 845.4,970.7 839.2,970.7 842.2,967.2      "/>
					<g>
						<path class="st13" d="M855.7,981.9c2,1.5,3,2.2,4.9,3.7c-1.9,1.2-2.8,1.8-4.6,3c-2-1.5-3-2.2-5-3.7c-3.7,1.8-8,2.9-12.1,3        c-0.9-2-1.4-3-2.3-5c4.5-0.1,9.7-1.4,12.2-3.1c1.9-1.2,2.5-2.5,1.3-3.4c-3.8-2.9-14.4,7-22.4,1.1c-3.6-2.7-3.3-6.3,0.6-9.7        c-1.8-1.4-2.7-2.1-4.5-3.5c1.9-1.2,2.8-1.8,4.8-3c1.8,1.4,2.6,2.1,4.5,3.5c3.2-1.6,6.9-2.7,10.3-3.2c0.8,2,1.2,3.1,2,5.1        c-4,0.7-8.4,2-10.5,3.3c-1.6,1-2.1,2-1,2.8c3.7,2.8,14.8-7.2,22.9-1C860.7,974.7,859.6,978.6,855.7,981.9z"/>
					</g>
					<path class="st1" d="M842.2,958.9c24.5,0,44.7,10,46.7,22.7c0.1-0.7,0.2-1.4,0.2-2.1c0-13.7-21-24.8-46.9-24.8       c-25.9,0-46.9,11.1-46.9,24.8c0,0.7,0.1,1.4,0.2,2.1C797.5,968.9,817.7,958.9,842.2,958.9z"/>
				</g>
				<polygon class="st1" points="860.6,985.5 860.6,989.7 855.9,992.7 855.9,988.5     "/>
				<polygon class="st1" points="836.6,982.8 836.6,986.9 838.9,992 838.9,987.8     "/>
				<polygon class="st1" points="823.8,968.3 823.8,964.1 827,966.6     "/>
			</g>
		</g>
		<g>
			<g>
				<g>
					<path class="st1" d="M899.2,962.6c-9.4-10.8-30-18.3-54-18.3c-23.9,0-44.6,7.5-54,18.3h-5.4v13.1c0,17.4,26.6,31.5,59.4,31.5       c32.8,0,59.4-14.1,59.4-31.5v-13.1H899.2z"/>
					<path class="st13" d="M845.2,1000.1c-32.8,0-59.4-14.1-59.4-31.5v3c0,17.4,26.6,31.5,59.4,31.5c32.8,0,59.4-14.1,59.4-31.5v-3       C904.6,986,878,1000.1,845.2,1000.1z"/>
					<ellipse class="st13" cx="845.2" cy="962.6" rx="59.4" ry="31.5"/>
					<g>
						<path class="st1" d="M858.6,969.2c2,1.5,3,2.2,4.9,3.7c-1.9,1.2-2.8,1.8-4.6,3c-2-1.5-3-2.2-5-3.7c-3.7,1.8-8,2.9-12.1,3        c-0.9-2-1.4-3-2.3-5c4.5-0.1,9.7-1.4,12.2-3.1c1.9-1.2,2.5-2.5,1.3-3.4c-3.8-2.9-14.4,7-22.4,1.1c-3.6-2.7-3.3-6.3,0.6-9.7        c-1.8-1.4-2.7-2.1-4.5-3.5c1.9-1.2,2.8-1.8,4.8-3c1.8,1.4,2.6,2.1,4.5,3.5c3.2-1.6,6.9-2.7,10.3-3.2c0.8,2,1.2,3.1,2,5.1        c-4,0.7-8.4,2-10.5,3.3c-1.6,1-2.1,2-1,2.8c3.7,2.8,14.8-7.2,22.9-1C863.7,962,862.5,965.9,858.6,969.2z"/>
					</g>
					<polygon class="st1" points="848.3,949.7 848.3,953.9 842.2,953.9 845.2,950.3      "/>
					<g>
						<path class="st13" d="M858.6,965c2,1.5,3,2.2,4.9,3.7c-1.9,1.2-2.8,1.8-4.6,3c-2-1.5-3-2.2-5-3.7c-3.7,1.8-8,2.9-12.1,3        c-0.9-2-1.4-3-2.3-5c4.5-0.1,9.7-1.4,12.2-3.1c1.9-1.2,2.5-2.5,1.3-3.4c-3.8-2.9-14.4,7-22.4,1.1c-3.6-2.7-3.3-6.3,0.6-9.7        c-1.8-1.4-2.7-2.1-4.5-3.5c1.9-1.2,2.8-1.8,4.8-3c1.8,1.4,2.6,2.1,4.5,3.5c3.2-1.6,6.9-2.7,10.3-3.2c0.8,2,1.2,3.1,2,5.1        c-4,0.7-8.4,2-10.5,3.3c-1.6,1-2.1,2-1,2.8c3.7,2.8,14.8-7.2,22.9-1C863.7,957.9,862.5,961.8,858.6,965z"/>
					</g>
					<path class="st1" d="M845.2,942c24.5,0,44.7,10,46.7,22.7c0.1-0.7,0.2-1.4,0.2-2.1c0-13.7-21-24.8-46.9-24.8       c-25.9,0-46.9,11.1-46.9,24.8c0,0.7,0.1,1.4,0.2,2.1C800.5,952,820.6,942,845.2,942z"/>
				</g>
				<polygon class="st1" points="863.6,968.7 863.6,972.8 858.9,975.8 858.9,971.6     "/>
				<polygon class="st1" points="839.6,965.9 839.6,970.1 841.9,975.1 841.9,971     "/>
				<polygon class="st1" points="826.8,951.4 826.8,947.3 829.9,949.7     "/>
			</g>
			<g>
				<g>
					<path class="st1" d="M907.7,941.8c-9.4-10.8-30-18.3-54-18.3s-44.6,7.5-54,18.3h-5.4V955c0,17.4,26.6,31.5,59.4,31.5       c32.8,0,59.4-14.1,59.4-31.5v-13.1H907.7z"/>
					<path class="st13" d="M853.7,979.4c-32.8,0-59.4-14.1-59.4-31.5v3c0,17.4,26.6,31.5,59.4,31.5s59.4-14.1,59.4-31.5v-3       C913.1,965.3,886.5,979.4,853.7,979.4z"/>
					<ellipse class="st13" cx="853.7" cy="941.8" rx="59.4" ry="31.5"/>
					<g>
						<path class="st1" d="M867.1,948.4c2,1.5,3,2.2,4.9,3.7c-1.9,1.2-2.8,1.8-4.6,3c-2-1.5-3-2.2-5-3.7c-3.7,1.8-8,2.9-12.1,3        c-0.9-2-1.4-3-2.3-5c4.5-0.1,9.7-1.4,12.2-3.1c1.9-1.2,2.5-2.5,1.3-3.4c-3.8-2.9-14.4,7-22.4,1.1c-3.6-2.7-3.3-6.3,0.6-9.7        c-1.8-1.4-2.7-2.1-4.5-3.5c1.9-1.2,2.8-1.8,4.8-3c1.8,1.4,2.6,2.1,4.5,3.5c3.2-1.6,6.9-2.7,10.3-3.2c0.8,2,1.2,3.1,2,5.1        c-4,0.7-8.4,2-10.5,3.3c-1.6,1-2.1,2-1,2.8c3.7,2.8,14.8-7.2,22.9-1C872.2,941.3,871,945.2,867.1,948.4z"/>
					</g>
					<polygon class="st1" points="856.8,929 856.8,933.1 850.7,933.1 853.7,929.6      "/>
					<g>
						<path class="st13" d="M867.1,944.3c2,1.5,3,2.2,4.9,3.7c-1.9,1.2-2.8,1.8-4.6,3c-2-1.5-3-2.2-5-3.7c-3.7,1.8-8,2.9-12.1,3        c-0.9-2-1.4-3-2.3-5c4.5-0.1,9.7-1.4,12.2-3.1c1.9-1.2,2.5-2.5,1.3-3.4c-3.8-2.9-14.4,7-22.4,1.1c-3.6-2.7-3.3-6.3,0.6-9.7        c-1.8-1.4-2.7-2.1-4.5-3.5c1.9-1.2,2.8-1.8,4.8-3c1.8,1.4,2.6,2.1,4.5,3.5c3.2-1.6,6.9-2.7,10.3-3.2c0.8,2,1.2,3.1,2,5.1        c-4,0.7-8.4,2-10.5,3.3c-1.6,1-2.1,2-1,2.8c3.7,2.8,14.8-7.2,22.9-1C872.2,937.1,871,941,867.1,944.3z"/>
					</g>
					<path class="st1" d="M853.7,921.3c24.5,0,44.7,10,46.7,22.7c0.1-0.7,0.2-1.4,0.2-2.1c0-13.7-21-24.8-46.9-24.8       c-25.9,0-46.9,11.1-46.9,24.8c0,0.7,0.1,1.4,0.2,2.1C809,931.2,829.2,921.3,853.7,921.3z"/>
				</g>
				<polygon class="st1" points="872.1,947.9 872.1,952.1 867.4,955.1 867.4,950.9     "/>
				<polygon class="st1" points="848.1,945.2 848.1,949.3 850.4,954.4 850.4,950.2     "/>
				<polygon class="st1" points="835.3,930.7 835.3,926.5 838.4,929     "/>
			</g>
			<g>
				<g>
					<path class="st1" d="M896.2,916.9c-9.4-10.8-30-18.3-54-18.3s-44.6,7.5-54,18.3h-5.4v13.1c0,17.4,26.6,31.5,59.4,31.5       c32.8,0,59.4-14.1,59.4-31.5v-13.1H896.2z"/>
					<path class="st13" d="M842.2,954.5c-32.8,0-59.4-14.1-59.4-31.5v3c0,17.4,26.6,31.5,59.4,31.5s59.4-14.1,59.4-31.5v-3       C901.6,940.4,875,954.5,842.2,954.5z"/>
					<ellipse class="st13" cx="842.2" cy="916.9" rx="59.4" ry="31.5"/>
					<g>
						<path class="st1" d="M855.7,923.5c2,1.5,3,2.2,4.9,3.7c-1.9,1.2-2.8,1.8-4.6,3c-2-1.5-3-2.2-5-3.7c-3.7,1.8-8,2.9-12.1,3        c-0.9-2-1.4-3-2.3-5c4.5-0.1,9.7-1.4,12.2-3.1c1.9-1.2,2.5-2.5,1.3-3.4c-3.8-2.9-14.4,7-22.4,1.1c-3.6-2.7-3.3-6.3,0.6-9.7        c-1.8-1.4-2.7-2.1-4.5-3.5c1.9-1.2,2.8-1.8,4.8-3c1.8,1.4,2.6,2.1,4.5,3.5c3.2-1.6,6.9-2.7,10.3-3.2c0.8,2,1.2,3.1,2,5.1        c-4,0.7-8.4,2-10.5,3.3c-1.6,1-2.1,2-1,2.8c3.7,2.8,14.8-7.2,22.9-1C860.7,916.4,859.6,920.3,855.7,923.5z"/>
					</g>
					<polygon class="st1" points="845.4,904.1 845.4,908.2 839.2,908.2 842.2,904.7      "/>
					<g>
						<path class="st13" d="M855.7,919.4c2,1.5,3,2.2,4.9,3.7c-1.9,1.2-2.8,1.8-4.6,3c-2-1.5-3-2.2-5-3.7c-3.7,1.8-8,2.9-12.1,3        c-0.9-2-1.4-3-2.3-5c4.5-0.1,9.7-1.4,12.2-3.1c1.9-1.2,2.5-2.5,1.3-3.4c-3.8-2.9-14.4,7-22.4,1.1c-3.6-2.7-3.3-6.3,0.6-9.7        c-1.8-1.4-2.7-2.1-4.5-3.5c1.9-1.2,2.8-1.8,4.8-3c1.8,1.4,2.6,2.1,4.5,3.5c3.2-1.6,6.9-2.7,10.3-3.2c0.8,2,1.2,3.1,2,5.1        c-4,0.7-8.4,2-10.5,3.3c-1.6,1-2.1,2-1,2.8c3.7,2.8,14.8-7.2,22.9-1C860.7,912.2,859.6,916.1,855.7,919.4z"/>
					</g>
					<path class="st1" d="M842.2,896.4c24.5,0,44.7,10,46.7,22.7c0.1-0.7,0.2-1.4,0.2-2.1c0-13.7-21-24.8-46.9-24.8       c-25.9,0-46.9,11.1-46.9,24.8c0,0.7,0.1,1.4,0.2,2.1C797.5,906.4,817.7,896.4,842.2,896.4z"/>
				</g>
				<polygon class="st1" points="860.6,923 860.6,927.2 855.9,930.2 855.9,926     "/>
				<polygon class="st1" points="836.6,920.3 836.6,924.4 838.9,929.5 838.9,925.3     "/>
				<polygon class="st1" points="823.8,905.8 823.8,901.6 827,904.1     "/>
			</g>
		</g>
		<g>
			<g>
				<path class="st1" d="M807.9,1093c-9.4-10.8-30-18.3-54-18.3c-23.9,0-44.6,7.5-54,18.3h-5.4v13.1c0,17.4,26.6,31.5,59.4,31.5      c32.8,0,59.4-14.1,59.4-31.5V1093H807.9z"/>
				<path class="st13" d="M753.9,1130.5c-32.8,0-59.4-14.1-59.4-31.5v3c0,17.4,26.6,31.5,59.4,31.5c32.8,0,59.4-14.1,59.4-31.5v-3      C813.3,1116.4,786.7,1130.5,753.9,1130.5z"/>
				<ellipse class="st13" cx="753.9" cy="1093" rx="59.4" ry="31.5"/>
				<g>
					<path class="st1" d="M767.4,1099.6c2,1.5,3,2.2,4.9,3.7c-1.9,1.2-2.8,1.8-4.6,3c-2-1.5-3-2.2-5-3.7c-3.7,1.8-8,2.9-12.1,3       c-0.9-2-1.4-3-2.3-5c4.5-0.1,9.7-1.4,12.2-3.1c1.9-1.2,2.5-2.5,1.3-3.4c-3.8-2.9-14.4,7-22.4,1.1c-3.6-2.7-3.3-6.3,0.6-9.7       c-1.8-1.4-2.7-2.1-4.5-3.5c1.9-1.2,2.8-1.8,4.8-3c1.8,1.4,2.6,2.1,4.5,3.5c3.2-1.6,6.9-2.7,10.3-3.2c0.8,2,1.2,3.1,2,5.1       c-4,0.7-8.4,2-10.5,3.3c-1.6,1-2.1,2-1,2.8c3.7,2.8,14.8-7.2,22.9-1C772.4,1092.4,771.3,1096.3,767.4,1099.6z"/>
				</g>
				<polygon class="st1" points="757.1,1080.1 757.1,1084.3 750.9,1084.3 753.9,1080.7     "/>
				<g>
					<path class="st13" d="M767.4,1095.4c2,1.5,3,2.2,4.9,3.7c-1.9,1.2-2.8,1.8-4.6,3c-2-1.5-3-2.2-5-3.7c-3.7,1.8-8,2.9-12.1,3       c-0.9-2-1.4-3-2.3-5c4.5-0.1,9.7-1.4,12.2-3.1c1.9-1.2,2.5-2.5,1.3-3.4c-3.8-2.9-14.4,7-22.4,1.1c-3.6-2.7-3.3-6.3,0.6-9.7       c-1.8-1.4-2.7-2.1-4.5-3.5c1.9-1.2,2.8-1.8,4.8-3c1.8,1.4,2.6,2.1,4.5,3.5c3.2-1.6,6.9-2.7,10.3-3.2c0.8,2,1.2,3.1,2,5.1       c-4,0.7-8.4,2-10.5,3.3c-1.6,1-2.1,2-1,2.8c3.7,2.8,14.8-7.2,22.9-1C772.4,1088.3,771.3,1092.2,767.4,1095.4z"/>
				</g>
				<path class="st1" d="M753.9,1072.4c24.5,0,44.7,10,46.7,22.7c0.1-0.7,0.2-1.4,0.2-2.1c0-13.7-21-24.8-46.9-24.8      c-25.9,0-46.9,11.1-46.9,24.8c0,0.7,0.1,1.4,0.2,2.1C709.2,1082.4,729.4,1072.4,753.9,1072.4z"/>
			</g>
			<polygon class="st1" points="772.3,1099.1 772.3,1103.2 767.6,1106.2 767.6,1102    "/>
			<polygon class="st1" points="748.3,1096.3 748.3,1100.5 750.6,1105.5 750.6,1101.4    "/>
			<polygon class="st1" points="735.5,1081.8 735.5,1077.7 738.7,1080.1    "/>
		</g>
		<g>
			<g>
				<path class="st1" d="M1077.2,1008.1c1.9-14.2-6.1-34.6-21.9-52.6c-15.8-18-35.1-28.5-49.4-28.4l-3.6-4.1l-9.9,8.7      c-13,11.5-6,40.8,15.6,65.4s49.8,35.3,62.9,23.8l9.9-8.7L1077.2,1008.1z"/>
				<path class="st13" d="M1013.3,992.4c-21.7-24.6-28.7-53.9-15.6-65.4l-2.2,2c-13,11.5-6,40.8,15.6,65.4      c21.7,24.6,49.8,35.3,62.9,23.8l2.2-2C1063.1,1027.7,1035,1017,1013.3,992.4z"/>
				
					<ellipse transform="matrix(0.7507 -0.6606 0.6606 0.7507 -379.5764 929.2606)" class="st13" cx="1041.5" cy="967.6" rx="31.5" ry="59.4"/>
				<g>
					<path class="st1" d="M1045.4,982c0.2,2.5,0.3,3.7,0.5,6.1c-2.1-0.6-3.2-0.9-5.3-1.5c-0.2-2.5-0.3-3.7-0.5-6.2       c-3.8-1.6-7.4-4.1-10.2-7.1c0.9-2,1.3-3,2.3-5c3,3.3,7.5,6.3,10.4,7.1c2.2,0.6,3.5,0.2,3.4-1.3c-0.4-4.8-14.8-6.2-15.6-16.1       c-0.3-4.5,2.6-6.6,7.7-6c-0.1-2.3-0.2-3.5-0.3-5.7c2.1,0.6,3.2,0.9,5.4,1.6c0.1,2.2,0.2,3.4,0.3,5.7c3.4,1.3,6.6,3.4,9.2,5.6       c-1,1.9-1.5,2.9-2.5,4.9c-3.2-2.6-7.1-5-9.4-5.7c-1.8-0.5-2.9-0.2-2.8,1.1c0.3,4.6,15.2,6.3,15.9,16.6       C1054.1,981.1,1050.5,982.8,1045.4,982z"/>
				</g>
				<polygon class="st1" points="1053.2,961.4 1050.1,964.2 1046.1,959.6 1050.7,959.5     "/>
				<g>
					<path class="st13" d="M1048.6,979.3c0.2,2.5,0.3,3.7,0.5,6.1c-2.1-0.6-3.2-0.9-5.3-1.5c-0.2-2.5-0.3-3.7-0.5-6.2       c-3.8-1.6-7.4-4.1-10.2-7.1c0.9-2,1.3-3,2.3-5c3,3.3,7.5,6.3,10.4,7.1c2.2,0.6,3.5,0.2,3.4-1.3c-0.4-4.8-14.8-6.2-15.6-16.1       c-0.3-4.5,2.6-6.6,7.7-6c-0.1-2.3-0.2-3.5-0.3-5.7c2.1,0.6,3.2,0.9,5.4,1.6c0.1,2.2,0.2,3.4,0.3,5.7c3.4,1.3,6.6,3.4,9.2,5.6       c-1,1.9-1.5,2.9-2.5,4.9c-3.2-2.6-7.1-5-9.4-5.7c-1.8-0.5-2.9-0.2-2.8,1.1c0.3,4.6,15.2,6.3,15.9,16.6       C1057.2,978.3,1053.6,980.1,1048.6,979.3z"/>
				</g>
				<path class="st1" d="M1056.9,954c16.2,18.4,22,40.1,13.8,50.1c0.6-0.4,1.2-0.8,1.7-1.3c10.3-9.1,4.8-32.2-12.3-51.6      c-17.1-19.5-39.3-27.9-49.6-18.8c-0.5,0.5-1,1-1.5,1.6C1019.9,927,1040.7,935.6,1056.9,954z"/>
			</g>
			<polygon class="st1" points="1049.1,985.4 1046,988.1 1040.6,986.6 1043.8,983.9    "/>
			<polygon class="st1" points="1035.3,965.6 1032.2,968.3 1029.9,973.4 1033,970.6    "/>
			<polygon class="st1" points="1037.7,946.4 1040.9,943.7 1041.1,947.6    "/>
		</g>
		<g>
			<polygon class="st5" points="303.9,903.9 643.4,1009.3 503.9,1089.8 165.1,894.2    "/>
			<polygon class="st5" points="303.9,787.9 636.5,987.9 503.9,1063.5 165.1,867.9    "/>
			<polygon class="st6" points="643.4,983 643.4,1009.3 503.9,1089.8 503.9,1063.5    "/>
			<polygon class="st5" points="165.1,867.9 165.1,894.2 503.9,1089.8 503.9,1063.5    "/>
			<polygon class="st7" points="165.1,867.9 165.1,894.2 503.9,1089.8 503.9,1063.5    "/>
			<g>
				<g>
					<g>
						<path class="st8" d="M503.9,1063.5c46.2-27.3,93-53.8,139.5-80.5c-113.6-64.4-226.6-129.8-339.6-195.1        c-46.7,25.9-92.3,53.7-138.8,80C278.1,933.1,391.1,998.1,503.9,1063.5z"/>
						<path class="st9" d="M623.9,981.6C517.5,920.8,411.4,859.5,305.4,798c-39.6,22.7-78.9,46.1-118.4,69        c106.4,61.8,213,123.3,319.3,185.2C545.3,1028.4,584.8,1005.2,623.9,981.6z"/>
						<g>
							<path class="st8" d="M368.1,950c28.4,16.5,69.5,17.2,91.9,2.1c22.4-15.2,16.1-39.3-11.8-55.6c-27.9-16.2-66.7-18.4-89.5-3.5         C335.8,907.8,339.7,933.4,368.1,950z"/>
						</g>
						<g>
							<path class="st8" d="M292.5,873.9c7.5,4.3,18.3,4.5,24.2,0.5c5.9-4,4.2-10.3-3.1-14.6c-7.3-4.3-17.5-4.8-23.5-0.9         C284.1,862.8,285.1,869.6,292.5,873.9z"/>
						</g>
						<g>
							<path class="st8" d="M498.8,988.6c7.5,4.3,18.3,4.5,24.2,0.5c5.9-4,4.2-10.3-3.1-14.6c-7.3-4.3-17.5-4.8-23.5-0.9         C490.3,977.6,491.4,984.3,498.8,988.6z"/>
						</g>
						<g>
							<path class="st8" d="M421.8,978.9c-24.8,0-49.3-7.4-68.3-18.2c-21-12-33.1-28.6-33.4-45.7c-0.2-13.4,7.1-25.3,20.7-33.5         c32.6-19.9,79.8-17.8,120.1,5.4c21.8,12.6,35.1,29.8,35.5,46.2c0.3,12-6.1,22.5-18.4,30.4         C460.7,974.4,441.2,978.9,421.8,978.9z M391.8,871.5c-16.8,0-33.7,3.7-49.1,13.1c-12.4,7.6-19.1,18.3-18.9,30.3         c0.2,15.7,11.7,31.2,31.5,42.5l0,0c32.8,18.8,82.9,26.9,120.6,2.8c11.2-7.2,17-16.6,16.8-27.2c-0.3-15-12.9-31.1-33.7-43.1         C441.2,879.8,416.8,871.5,391.8,871.5z"/>
						</g>
						<g>
							<g>
								<path class="st8" d="M329.2,802.5c0.1,2.4-1.3,4.7-4.6,6.6c-8.6,5-27.1,4.9-37-0.9c-3.7-2.2-5.8-4.8-6.3-7.5          c10.6-6.1,15.4-8.8,22.6-12.8C313,793.2,318.1,796.1,329.2,802.5z"/>
								<path class="st8" d="M209.9,853.7c10.2,6,9.2,17.9-2.8,24.9c-4.5,2.6-9.9,4.1-15.4,4.7c-11.8-6.8-17.2-9.9-26.6-15.3          c11.5-6.4,17.9-10.1,30.9-17.6C201.3,850.4,206.1,851.5,209.9,853.7z"/>
								<path class="st8" d="M605.6,992.6c-10.8-6.2-11.7-17.7-3.2-23.3c3.2-2.1,7.3-3,11.7-3c12.5,7.1,18.4,10.5,29.3,16.6          c-7.6,4.4-12.7,7.3-23.8,13.7C614.5,996.3,609.6,995,605.6,992.6z"/>
								<path class="st8" d="M481.3,1050.4c0.8-3,3.1-6,7.1-8.6c10.8-7,30-8.1,39.4-2.6c3.5,2,5.1,4.7,5,7.5          c-12.6,7.3-18.7,10.9-28.9,16.9C496.3,1059.1,491.7,1056.4,481.3,1050.4z"/>
							</g>
						</g>
					</g>
				</g>
			</g>
			<polygon class="st10" points="492.4,896.7 351.6,976 351.1,1001.6 311.3,978.5 312.6,953.2 450.1,872.4    "/>
			<polygon class="st11" points="319.4,983.5 320.5,957.9 458.7,877.3 484.8,892.3 343.7,971.3 343.2,997.3    "/>
			<polygon class="st12" points="351.6,976 312.6,953.2 311.3,978.6 351.1,1001.6    "/>
		</g>
		<g>
			<polygon class="st5" points="310.9,860.9 650.5,966.3 510.9,1046.9 172.1,851.3    "/>
			<polygon class="st5" points="310.9,745 643.6,945 510.9,1020.6 172.1,825    "/>
			<polygon class="st6" points="650.5,940.1 650.5,966.3 510.9,1046.9 510.9,1020.6    "/>
			<polygon class="st5" points="172.1,825 172.1,851.3 510.9,1046.9 510.9,1020.6    "/>
			<polygon class="st7" points="172.1,825 172.1,851.3 510.9,1046.9 510.9,1020.6    "/>
			<g>
				<g>
					<g>
						<path class="st8" d="M510.9,1020.6c46.2-27.3,93-53.8,139.5-80.5C536.9,875.7,423.9,810.3,310.9,745        c-46.7,25.9-92.3,53.7-138.8,80C285.1,890.2,398.1,955.2,510.9,1020.6z"/>
						<path class="st9" d="M630.9,938.7C524.5,877.8,418.4,816.5,312.4,755c-39.6,22.7-78.9,46.1-118.4,69        c106.4,61.8,213,123.3,319.3,185.2C552.3,985.4,591.8,962.3,630.9,938.7z"/>
						<g>
							<path class="st8" d="M375.1,907c28.4,16.5,69.5,17.2,91.9,2.1s16.1-39.3-11.8-55.6c-27.9-16.2-66.7-18.4-89.5-3.5         C342.8,864.9,346.7,890.5,375.1,907z"/>
						</g>
						<g>
							<path class="st8" d="M299.6,831c7.5,4.3,18.3,4.5,24.2,0.5c5.9-4,4.2-10.3-3.1-14.6c-7.3-4.3-17.5-4.8-23.5-0.9         C291.1,819.9,292.1,826.6,299.6,831z"/>
						</g>
						<g>
							<path class="st8" d="M505.8,945.7c7.5,4.3,18.3,4.5,24.2,0.5c5.9-4,4.2-10.3-3.1-14.6s-17.5-4.8-23.5-0.9         C497.4,934.6,498.4,941.3,505.8,945.7z"/>
						</g>
						<g>
							<path class="st8" d="M428.8,936c-24.8,0-49.3-7.4-68.3-18.2c-21-12-33.1-28.6-33.4-45.7c-0.2-13.4,7.1-25.3,20.7-33.5         c32.6-19.9,79.8-17.8,120.1,5.4c21.8,12.6,35.1,29.8,35.5,46.2c0.3,12-6.1,22.5-18.4,30.4C467.8,931.5,448.2,936,428.8,936z          M398.8,828.6c-16.8,0-33.7,3.7-49.1,13.1c-12.4,7.6-19.1,18.3-18.9,30.3c0.2,15.7,11.7,31.2,31.5,42.5l0,0         c32.8,18.8,82.9,26.9,120.6,2.8c11.2-7.2,17-16.6,16.8-27.2c-0.3-15-12.9-31.1-33.7-43.1         C448.2,836.9,423.8,828.6,398.8,828.6z"/>
						</g>
						<g>
							<g>
								<path class="st8" d="M336.2,759.6c0.1,2.4-1.3,4.7-4.6,6.6c-8.6,5-27.1,4.9-37-0.9c-3.7-2.2-5.8-4.8-6.3-7.5          c10.6-6.1,15.4-8.8,22.6-12.8C320,750.2,325.1,753.2,336.2,759.6z"/>
								<path class="st8" d="M216.9,810.8c10.2,6,9.2,17.9-2.8,24.9c-4.5,2.6-9.9,4.1-15.4,4.7c-11.8-6.8-17.2-9.9-26.6-15.3          c11.5-6.4,17.9-10.1,30.9-17.6C208.3,807.5,213.1,808.6,216.9,810.8z"/>
								<path class="st8" d="M612.6,949.7c-10.8-6.2-11.7-17.7-3.2-23.3c3.2-2.1,7.3-3,11.7-3c12.5,7.1,18.4,10.5,29.3,16.6          c-7.6,4.4-12.7,7.3-23.8,13.7C621.5,953.3,616.7,952,612.6,949.7z"/>
								<path class="st8" d="M488.3,1007.5c0.8-3,3.1-6,7.1-8.6c10.8-7,30-8.1,39.4-2.6c3.5,2,5.1,4.7,5,7.5          c-12.6,7.3-18.7,10.9-28.9,16.9C503.3,1016.2,498.7,1013.5,488.3,1007.5z"/>
							</g>
						</g>
					</g>
				</g>
			</g>
			<polygon class="st10" points="499.5,853.8 358.7,933.1 358.1,958.6 318.3,935.6 319.6,910.3 457.1,829.4    "/>
			<polygon class="st11" points="326.4,940.6 327.5,914.9 465.7,834.4 491.8,849.4 350.7,928.4 350.2,954.3    "/>
			<polygon class="st12" points="358.7,933.1 319.6,910.3 318.3,935.7 358.1,958.7    "/>
		</g>
		<g>
			<polygon class="st5" points="303,820 642.6,925.4 503.1,1006 164.3,810.4    "/>
			<polygon class="st5" points="303,704 635.7,904.1 503.1,979.7 164.3,784.1    "/>
			<polygon class="st6" points="642.6,899.1 642.6,925.4 503.1,1006 503.1,979.7    "/>
			<polygon class="st5" points="164.3,784.1 164.3,810.4 503.1,1006 503.1,979.7    "/>
			<polygon class="st7" points="164.3,784.1 164.3,810.4 503.1,1006 503.1,979.7    "/>
			<g>
				<g>
					<g>
						<path class="st8" d="M503.1,979.7c46.2-27.3,93-53.8,139.5-80.5C529,834.8,416.1,769.4,303,704c-46.7,25.9-92.3,53.7-138.8,80        C277.3,849.2,390.3,914.3,503.1,979.7z"/>
						<path class="st9" d="M623.1,897.8c-106.4-60.8-212.5-122.2-318.5-183.7c-39.6,22.7-78.9,46.1-118.4,69        c106.4,61.8,213,123.3,319.3,185.2C544.5,944.5,583.9,921.4,623.1,897.8z"/>
						<g>
							<path class="st8" d="M367.2,866.1c28.4,16.5,69.5,17.2,91.9,2.1c22.4-15.2,16.1-39.3-11.8-55.6         c-27.9-16.2-66.7-18.4-89.5-3.5C335,824,338.9,849.6,367.2,866.1z"/>
						</g>
						<g>
							<path class="st8" d="M291.7,790c7.5,4.3,18.3,4.5,24.2,0.5c5.9-4,4.2-10.3-3.1-14.6c-7.3-4.3-17.5-4.8-23.5-0.9         C283.2,779,284.3,785.7,291.7,790z"/>
						</g>
						<g>
							<path class="st8" d="M498,904.8c7.5,4.3,18.3,4.5,24.2,0.5c5.9-4,4.2-10.3-3.1-14.6c-7.3-4.3-17.5-4.8-23.5-0.9         C489.5,893.7,490.5,900.4,498,904.8z"/>
						</g>
						<g>
							<path class="st8" d="M420.9,895.1c-24.8,0-49.3-7.4-68.3-18.2c-21-12-33.1-28.6-33.4-45.7c-0.2-13.4,7.1-25.3,20.7-33.5         c32.6-19.9,79.8-17.8,120.1,5.4c21.8,12.6,35.1,29.8,35.5,46.2c0.3,12-6.1,22.5-18.4,30.4         C459.9,890.5,440.4,895.1,420.9,895.1z M391,787.7c-16.8,0-33.7,3.7-49.1,13.1c-12.4,7.6-19.1,18.3-18.9,30.3         c0.2,15.7,11.7,31.2,31.5,42.5l0,0c32.8,18.8,82.9,26.9,120.6,2.8c11.2-7.2,17-16.6,16.8-27.2c-0.3-15-12.9-31.1-33.7-43.1         C440.4,796,415.9,787.7,391,787.7z"/>
						</g>
						<g>
							<g>
								<path class="st8" d="M328.3,718.7c0.1,2.4-1.3,4.7-4.6,6.6c-8.6,5-27.1,4.9-37-0.9c-3.7-2.2-5.8-4.8-6.3-7.5          c10.6-6.1,15.4-8.8,22.6-12.8C312.2,709.3,317.3,712.3,328.3,718.7z"/>
								<path class="st8" d="M209,769.9c10.2,6,9.2,17.9-2.8,24.9c-4.5,2.6-9.9,4.1-15.4,4.7c-11.8-6.8-17.2-9.9-26.6-15.3          c11.5-6.4,17.9-10.1,30.9-17.6C200.4,766.6,205.2,767.7,209,769.9z"/>
								<path class="st8" d="M604.8,908.8c-10.8-6.2-11.7-17.7-3.2-23.3c3.2-2.1,7.3-3,11.7-3c12.5,7.1,18.4,10.5,29.3,16.6          c-7.6,4.4-12.7,7.3-23.8,13.7C613.7,912.4,608.8,911.1,604.8,908.8z"/>
								<path class="st8" d="M480.5,966.6c0.8-3,3.1-6,7.1-8.6c10.8-7,30-8.1,39.4-2.6c3.5,2,5.1,4.7,5,7.5          c-12.6,7.3-18.7,10.9-28.9,16.9C495.5,975.3,490.8,972.6,480.5,966.6z"/>
							</g>
						</g>
					</g>
				</g>
			</g>
			<polygon class="st10" points="491.6,812.9 350.8,892.2 350.3,917.7 310.5,894.7 311.7,869.4 449.3,788.5    "/>
			<polygon class="st11" points="318.6,899.7 319.7,874 457.9,793.5 484,808.5 342.8,887.5 342.4,913.4    "/>
			<polygon class="st12" points="350.8,892.2 311.7,869.4 310.4,894.7 350.3,917.8    "/>
		</g>
		<g>
			<g>
				<path class="st1" d="M687.3,1059c-9.4-10.8-30-18.3-54-18.3c-23.9,0-44.6,7.5-54,18.3H574v13.1c0,17.4,26.6,31.5,59.4,31.5      c32.8,0,59.4-14.1,59.4-31.5V1059H687.3z"/>
				<path class="st13" d="M633.4,1096.6c-32.8,0-59.4-14.1-59.4-31.5v3c0,17.4,26.6,31.5,59.4,31.5c32.8,0,59.4-14.1,59.4-31.5v-3      C692.8,1082.5,666.2,1096.6,633.4,1096.6z"/>
				<ellipse class="st13" cx="633.4" cy="1059" rx="59.4" ry="31.5"/>
				<g>
					<path class="st1" d="M646.8,1065.6c2,1.5,3,2.2,4.9,3.7c-1.9,1.2-2.8,1.8-4.6,3c-2-1.5-3-2.2-5-3.7c-3.7,1.8-8,2.9-12.1,3       c-0.9-2-1.4-3-2.3-5c4.5-0.1,9.7-1.4,12.2-3.1c1.9-1.2,2.5-2.5,1.3-3.4c-3.8-2.9-14.4,7-22.4,1.1c-3.6-2.7-3.3-6.3,0.6-9.7       c-1.8-1.4-2.7-2.1-4.5-3.5c1.9-1.2,2.8-1.8,4.8-3c1.8,1.4,2.6,2.1,4.5,3.5c3.2-1.6,6.9-2.7,10.3-3.2c0.8,2,1.2,3.1,2,5.1       c-4,0.7-8.4,2-10.5,3.3c-1.6,1-2.1,2-1,2.8c3.7,2.8,14.8-7.2,22.9-1C651.8,1058.4,650.7,1062.4,646.8,1065.6z"/>
				</g>
				<polygon class="st1" points="636.5,1046.2 636.5,1050.3 630.4,1050.3 633.4,1046.8     "/>
				<g>
					<path class="st13" d="M646.8,1061.4c2,1.5,3,2.2,4.9,3.7c-1.9,1.2-2.8,1.8-4.6,3c-2-1.5-3-2.2-5-3.7c-3.7,1.8-8,2.9-12.1,3       c-0.9-2-1.4-3-2.3-5c4.5-0.1,9.7-1.4,12.2-3.1c1.9-1.2,2.5-2.5,1.3-3.4c-3.8-2.9-14.4,7-22.4,1.1c-3.6-2.7-3.3-6.3,0.6-9.7       c-1.8-1.4-2.7-2.1-4.5-3.5c1.9-1.2,2.8-1.8,4.8-3c1.8,1.4,2.6,2.1,4.5,3.5c3.2-1.6,6.9-2.7,10.3-3.2c0.8,2,1.2,3.1,2,5.1       c-4,0.7-8.4,2-10.5,3.3c-1.6,1-2.1,2-1,2.8c3.7,2.8,14.8-7.2,22.9-1C651.8,1054.3,650.7,1058.2,646.8,1061.4z"/>
				</g>
				<path class="st1" d="M633.4,1038.4c24.5,0,44.7,10,46.7,22.7c0.1-0.7,0.2-1.4,0.2-2.1c0-13.7-21-24.8-46.9-24.8      c-25.9,0-46.9,11.1-46.9,24.8c0,0.7,0.1,1.4,0.2,2.1C588.7,1048.4,608.8,1038.4,633.4,1038.4z"/>
			</g>
			<polygon class="st1" points="651.7,1065.1 651.7,1069.3 647.1,1072.2 647.1,1068.1    "/>
			<polygon class="st1" points="627.8,1062.4 627.8,1066.5 630.1,1071.5 630.1,1067.4    "/>
			<polygon class="st1" points="615,1047.9 615,1043.7 618.1,1046.2    "/>
		</g>
		<g>
			<g>
				<path class="st1" d="M680.8,1041.7c-9.4-10.8-30-18.3-54-18.3s-44.6,7.5-54,18.3h-5.4v13.1c0,17.4,26.6,31.5,59.4,31.5      c32.8,0,59.4-14.1,59.4-31.5v-13.1H680.8z"/>
				<path class="st13" d="M626.8,1079.2c-32.8,0-59.4-14.1-59.4-31.5v3c0,17.4,26.6,31.5,59.4,31.5s59.4-14.1,59.4-31.5v-3      C686.2,1065.1,659.6,1079.2,626.8,1079.2z"/>
				<ellipse class="st13" cx="626.8" cy="1041.7" rx="59.4" ry="31.5"/>
				<g>
					<path class="st1" d="M640.2,1048.2c2,1.5,3,2.2,4.9,3.7c-1.9,1.2-2.8,1.8-4.6,3c-2-1.5-3-2.2-5-3.7c-3.7,1.8-8,2.9-12.1,3       c-0.9-2-1.4-3-2.3-5c4.5-0.1,9.7-1.4,12.2-3.1c1.9-1.2,2.5-2.5,1.3-3.4c-3.8-2.9-14.4,7-22.4,1.1c-3.6-2.7-3.3-6.3,0.6-9.7       c-1.8-1.4-2.7-2.1-4.5-3.5c1.9-1.2,2.8-1.8,4.8-3c1.8,1.4,2.6,2.1,4.5,3.5c3.2-1.6,6.9-2.7,10.3-3.2c0.8,2,1.2,3.1,2,5.1       c-4,0.7-8.4,2-10.5,3.3c-1.6,1-2.1,2-1,2.8c3.7,2.8,14.8-7.2,22.9-1C645.2,1041.1,644.1,1045,640.2,1048.2z"/>
				</g>
				<polygon class="st1" points="629.9,1028.8 629.9,1032.9 623.8,1032.9 626.8,1029.4     "/>
				<g>
					<path class="st13" d="M640.2,1044.1c2,1.5,3,2.2,4.9,3.7c-1.9,1.2-2.8,1.8-4.6,3c-2-1.5-3-2.2-5-3.7c-3.7,1.8-8,2.9-12.1,3       c-0.9-2-1.4-3-2.3-5c4.5-0.1,9.7-1.4,12.2-3.1c1.9-1.2,2.5-2.5,1.3-3.4c-3.8-2.9-14.4,7-22.4,1.1c-3.6-2.7-3.3-6.3,0.6-9.7       c-1.8-1.4-2.7-2.1-4.5-3.5c1.9-1.2,2.8-1.8,4.8-3c1.8,1.4,2.6,2.1,4.5,3.5c3.2-1.6,6.9-2.7,10.3-3.2c0.8,2,1.2,3.1,2,5.1       c-4,0.7-8.4,2-10.5,3.3c-1.6,1-2.1,2-1,2.8c3.7,2.8,14.8-7.2,22.9-1C645.2,1036.9,644.1,1040.9,640.2,1044.1z"/>
				</g>
				<path class="st1" d="M626.8,1021.1c24.5,0,44.7,10,46.7,22.7c0.1-0.7,0.2-1.4,0.2-2.1c0-13.7-21-24.8-46.9-24.8      c-25.9,0-46.9,11.1-46.9,24.8c0,0.7,0.1,1.4,0.2,2.1C582.1,1031.1,602.2,1021.1,626.8,1021.1z"/>
			</g>
			<polygon class="st1" points="645.2,1047.7 645.2,1051.9 640.5,1054.9 640.5,1050.7    "/>
			<polygon class="st1" points="621.2,1045 621.2,1049.2 623.5,1054.2 623.5,1050    "/>
			<polygon class="st1" points="608.4,1030.5 608.4,1026.4 611.5,1028.8    "/>
		</g>
		<g>
			<g>
				<path class="st1" d="M687.3,1022.5c-9.4-10.8-30-18.3-54-18.3c-23.9,0-44.6,7.5-54,18.3H574v13.1c0,17.4,26.6,31.5,59.4,31.5      c32.8,0,59.4-14.1,59.4-31.5v-13.1H687.3z"/>
				<path class="st13" d="M633.4,1060.1c-32.8,0-59.4-14.1-59.4-31.5v3c0,17.4,26.6,31.5,59.4,31.5c32.8,0,59.4-14.1,59.4-31.5v-3      C692.8,1046,666.2,1060.1,633.4,1060.1z"/>
				<ellipse class="st13" cx="633.4" cy="1022.6" rx="59.4" ry="31.5"/>
				<g>
					<path class="st1" d="M646.8,1029.1c2,1.5,3,2.2,4.9,3.7c-1.9,1.2-2.8,1.8-4.6,3c-2-1.5-3-2.2-5-3.7c-3.7,1.8-8,2.9-12.1,3       c-0.9-2-1.4-3-2.3-5c4.5-0.1,9.7-1.4,12.2-3.1c1.9-1.2,2.5-2.5,1.3-3.4c-3.8-2.9-14.4,7-22.4,1.1c-3.6-2.7-3.3-6.3,0.6-9.7       c-1.8-1.4-2.7-2.1-4.5-3.5c1.9-1.2,2.8-1.8,4.8-3c1.8,1.4,2.6,2.1,4.5,3.5c3.2-1.6,6.9-2.7,10.3-3.2c0.8,2,1.2,3.1,2,5.1       c-4,0.7-8.4,2-10.5,3.3c-1.6,1-2.1,2-1,2.8c3.7,2.8,14.8-7.2,22.9-1C651.8,1022,650.7,1025.9,646.8,1029.1z"/>
				</g>
				<polygon class="st1" points="636.5,1009.7 636.5,1013.8 630.4,1013.8 633.4,1010.3     "/>
				<g>
					<path class="st13" d="M646.8,1025c2,1.5,3,2.2,4.9,3.7c-1.9,1.2-2.8,1.8-4.6,3c-2-1.5-3-2.2-5-3.7c-3.7,1.8-8,2.9-12.1,3       c-0.9-2-1.4-3-2.3-5c4.5-0.1,9.7-1.4,12.2-3.1c1.9-1.2,2.5-2.5,1.3-3.4c-3.8-2.9-14.4,7-22.4,1.1c-3.6-2.7-3.3-6.3,0.6-9.7       c-1.8-1.4-2.7-2.1-4.5-3.5c1.9-1.2,2.8-1.8,4.8-3c1.8,1.4,2.6,2.1,4.5,3.5c3.2-1.6,6.9-2.7,10.3-3.2c0.8,2,1.2,3.1,2,5.1       c-4,0.7-8.4,2-10.5,3.3c-1.6,1-2.1,2-1,2.8c3.7,2.8,14.8-7.2,22.9-1C651.8,1017.8,650.7,1021.7,646.8,1025z"/>
				</g>
				<path class="st1" d="M633.4,1002c24.5,0,44.7,10,46.7,22.7c0.1-0.7,0.2-1.4,0.2-2.1c0-13.7-21-24.8-46.9-24.8      c-25.9,0-46.9,11.1-46.9,24.8c0,0.7,0.1,1.4,0.2,2.1C588.7,1012,608.8,1002,633.4,1002z"/>
			</g>
			<polygon class="st1" points="651.7,1028.6 651.7,1032.8 647.1,1035.8 647.1,1031.6    "/>
			<polygon class="st1" points="627.8,1025.9 627.8,1030.1 630.1,1035.1 630.1,1030.9    "/>
			<polygon class="st1" points="615,1011.4 615,1007.2 618.1,1009.7    "/>
		</g>
		<g>
			<g>
				<path class="st1" d="M680.8,1005.2c-9.4-10.8-30-18.3-54-18.3s-44.6,7.5-54,18.3h-5.4v13.1c0,17.4,26.6,31.5,59.4,31.5      c32.8,0,59.4-14.1,59.4-31.5v-13.1H680.8z"/>
				<path class="st13" d="M626.8,1042.7c-32.8,0-59.4-14.1-59.4-31.5v3c0,17.4,26.6,31.5,59.4,31.5s59.4-14.1,59.4-31.5v-3      C686.2,1028.7,659.6,1042.7,626.8,1042.7z"/>
				<ellipse class="st13" cx="626.8" cy="1005.2" rx="59.4" ry="31.5"/>
				<g>
					<path class="st1" d="M640.2,1011.8c2,1.5,3,2.2,4.9,3.7c-1.9,1.2-2.8,1.8-4.6,3c-2-1.5-3-2.2-5-3.7c-3.7,1.8-8,2.9-12.1,3       c-0.9-2-1.4-3-2.3-5c4.5-0.1,9.7-1.4,12.2-3.1c1.9-1.2,2.5-2.5,1.3-3.4c-3.8-2.9-14.4,7-22.4,1.1c-3.6-2.7-3.3-6.3,0.6-9.7       c-1.8-1.4-2.7-2.1-4.5-3.5c1.9-1.2,2.8-1.8,4.8-3c1.8,1.4,2.6,2.1,4.5,3.5c3.2-1.6,6.9-2.7,10.3-3.2c0.8,2,1.2,3.1,2,5.1       c-4,0.7-8.4,2-10.5,3.3c-1.6,1-2.1,2-1,2.8c3.7,2.8,14.8-7.2,22.9-1C645.2,1004.6,644.1,1008.5,640.2,1011.8z"/>
				</g>
				<polygon class="st1" points="629.9,992.3 629.9,996.5 623.8,996.5 626.8,993     "/>
				<g>
					<path class="st13" d="M640.2,1007.6c2,1.5,3,2.2,4.9,3.7c-1.9,1.2-2.8,1.8-4.6,3c-2-1.5-3-2.2-5-3.7c-3.7,1.8-8,2.9-12.1,3       c-0.9-2-1.4-3-2.3-5c4.5-0.1,9.7-1.4,12.2-3.1c1.9-1.2,2.5-2.5,1.3-3.4c-3.8-2.9-14.4,7-22.4,1.1c-3.6-2.7-3.3-6.3,0.6-9.7       c-1.8-1.4-2.7-2.1-4.5-3.5c1.9-1.2,2.8-1.8,4.8-3c1.8,1.4,2.6,2.1,4.5,3.5c3.2-1.6,6.9-2.7,10.3-3.2c0.8,2,1.2,3.1,2,5.1       c-4,0.7-8.4,2-10.5,3.3c-1.6,1-2.1,2-1,2.8c3.7,2.8,14.8-7.2,22.9-1C645.2,1000.5,644.1,1004.4,640.2,1007.6z"/>
				</g>
				<path class="st1" d="M626.8,984.6c24.5,0,44.7,10,46.7,22.7c0.1-0.7,0.2-1.4,0.2-2.1c0-13.7-21-24.8-46.9-24.8      c-25.9,0-46.9,11.1-46.9,24.8c0,0.7,0.1,1.4,0.2,2.1C582.1,994.6,602.2,984.6,626.8,984.6z"/>
			</g>
			<polygon class="st1" points="645.2,1011.3 645.2,1015.4 640.5,1018.4 640.5,1014.3    "/>
			<polygon class="st1" points="621.2,1008.5 621.2,1012.7 623.5,1017.7 623.5,1013.6    "/>
			<polygon class="st1" points="608.4,994 608.4,989.9 611.5,992.3    "/>
		</g>
		<g>
			<g>
				<path class="st1" d="M687.3,986.1c-9.4-10.8-30-18.3-54-18.3c-23.9,0-44.6,7.5-54,18.3H574v13.1c0,17.4,26.6,31.5,59.4,31.5      c32.8,0,59.4-14.1,59.4-31.5v-13.1H687.3z"/>
				<path class="st13" d="M633.4,1023.6c-32.8,0-59.4-14.1-59.4-31.5v3c0,17.4,26.6,31.5,59.4,31.5c32.8,0,59.4-14.1,59.4-31.5v-3      C692.8,1009.6,666.2,1023.6,633.4,1023.6z"/>
				<ellipse class="st13" cx="633.4" cy="986.1" rx="59.4" ry="31.5"/>
				<g>
					<path class="st1" d="M646.8,992.7c2,1.5,3,2.2,4.9,3.7c-1.9,1.2-2.8,1.8-4.6,3c-2-1.5-3-2.2-5-3.7c-3.7,1.8-8,2.9-12.1,3       c-0.9-2-1.4-3-2.3-5c4.5-0.1,9.7-1.4,12.2-3.1c1.9-1.2,2.5-2.5,1.3-3.4c-3.8-2.9-14.4,7-22.4,1.1c-3.6-2.7-3.3-6.3,0.6-9.7       c-1.8-1.4-2.7-2.1-4.5-3.5c1.9-1.2,2.8-1.8,4.8-3c1.8,1.4,2.6,2.1,4.5,3.5c3.2-1.6,6.9-2.7,10.3-3.2c0.8,2,1.2,3.1,2,5.1       c-4,0.7-8.4,2-10.5,3.3c-1.6,1-2.1,2-1,2.8c3.7,2.8,14.8-7.2,22.9-1C651.8,985.5,650.7,989.4,646.8,992.7z"/>
				</g>
				<polygon class="st1" points="636.5,973.2 636.5,977.4 630.4,977.4 633.4,973.9     "/>
				<g>
					<path class="st13" d="M646.8,988.5c2,1.5,3,2.2,4.9,3.7c-1.9,1.2-2.8,1.8-4.6,3c-2-1.5-3-2.2-5-3.7c-3.7,1.8-8,2.9-12.1,3       c-0.9-2-1.4-3-2.3-5c4.5-0.1,9.7-1.4,12.2-3.1c1.9-1.2,2.5-2.5,1.3-3.4c-3.8-2.9-14.4,7-22.4,1.1c-3.6-2.7-3.3-6.3,0.6-9.7       c-1.8-1.4-2.7-2.1-4.5-3.5c1.9-1.2,2.8-1.8,4.8-3c1.8,1.4,2.6,2.1,4.5,3.5c3.2-1.6,6.9-2.7,10.3-3.2c0.8,2,1.2,3.1,2,5.1       c-4,0.7-8.4,2-10.5,3.3c-1.6,1-2.1,2-1,2.8c3.7,2.8,14.8-7.2,22.9-1C651.8,981.4,650.7,985.3,646.8,988.5z"/>
				</g>
				<path class="st1" d="M633.4,965.5c24.5,0,44.7,10,46.7,22.7c0.1-0.7,0.2-1.4,0.2-2.1c0-13.7-21-24.8-46.9-24.8      c-25.9,0-46.9,11.1-46.9,24.8c0,0.7,0.1,1.4,0.2,2.1C588.7,975.5,608.8,965.5,633.4,965.5z"/>
			</g>
			<polygon class="st1" points="651.7,992.2 651.7,996.3 647.1,999.3 647.1,995.2    "/>
			<polygon class="st1" points="627.8,989.4 627.8,993.6 630.1,998.6 630.1,994.5    "/>
			<polygon class="st1" points="615,974.9 615,970.8 618.1,973.2    "/>
		</g>
		<g>
			<g>
				<path class="st1" d="M680.8,968.7c-9.4-10.8-30-18.3-54-18.3s-44.6,7.5-54,18.3h-5.4v13.1c0,17.4,26.6,31.5,59.4,31.5      c32.8,0,59.4-14.1,59.4-31.5v-13.1H680.8z"/>
				<path class="st13" d="M626.8,1006.3c-32.8,0-59.4-14.1-59.4-31.5v3c0,17.4,26.6,31.5,59.4,31.5s59.4-14.1,59.4-31.5v-3      C686.2,992.2,659.6,1006.3,626.8,1006.3z"/>
				<ellipse class="st13" cx="626.8" cy="968.7" rx="59.4" ry="31.5"/>
				<g>
					<path class="st1" d="M640.2,975.3c2,1.5,3,2.2,4.9,3.7c-1.9,1.2-2.8,1.8-4.6,3c-2-1.5-3-2.2-5-3.7c-3.7,1.8-8,2.9-12.1,3       c-0.9-2-1.4-3-2.3-5c4.5-0.1,9.7-1.4,12.2-3.1c1.9-1.2,2.5-2.5,1.3-3.4c-3.8-2.9-14.4,7-22.4,1.1c-3.6-2.7-3.3-6.3,0.6-9.7       c-1.8-1.4-2.7-2.1-4.5-3.5c1.9-1.2,2.8-1.8,4.8-3c1.8,1.4,2.6,2.1,4.5,3.5c3.2-1.6,6.9-2.7,10.3-3.2c0.8,2,1.2,3.1,2,5.1       c-4,0.7-8.4,2-10.5,3.3c-1.6,1-2.1,2-1,2.8c3.7,2.8,14.8-7.2,22.9-1C645.2,968.2,644.1,972.1,640.2,975.3z"/>
				</g>
				<polygon class="st1" points="629.9,955.9 629.9,960 623.8,960 626.8,956.5     "/>
				<g>
					<path class="st13" d="M640.2,971.2c2,1.5,3,2.2,4.9,3.7c-1.9,1.2-2.8,1.8-4.6,3c-2-1.5-3-2.2-5-3.7c-3.7,1.8-8,2.9-12.1,3       c-0.9-2-1.4-3-2.3-5c4.5-0.1,9.7-1.4,12.2-3.1c1.9-1.2,2.5-2.5,1.3-3.4c-3.8-2.9-14.4,7-22.4,1.1c-3.6-2.7-3.3-6.3,0.6-9.7       c-1.8-1.4-2.7-2.1-4.5-3.5c1.9-1.2,2.8-1.8,4.8-3c1.8,1.4,2.6,2.1,4.5,3.5c3.2-1.6,6.9-2.7,10.3-3.2c0.8,2,1.2,3.1,2,5.1       c-4,0.7-8.4,2-10.5,3.3c-1.6,1-2.1,2-1,2.8c3.7,2.8,14.8-7.2,22.9-1C645.2,964,644.1,967.9,640.2,971.2z"/>
				</g>
				<path class="st1" d="M626.8,948.2c24.5,0,44.7,10,46.7,22.7c0.1-0.7,0.2-1.4,0.2-2.1c0-13.7-21-24.8-46.9-24.8      c-25.9,0-46.9,11.1-46.9,24.8c0,0.7,0.1,1.4,0.2,2.1C582.1,958.1,602.2,948.2,626.8,948.2z"/>
			</g>
			<polygon class="st1" points="645.2,974.8 645.2,979 640.5,982 640.5,977.8    "/>
			<polygon class="st1" points="621.2,972.1 621.2,976.2 623.5,981.3 623.5,977.1    "/>
			<polygon class="st1" points="608.4,957.6 608.4,953.4 611.5,955.9    "/>
		</g>
		<g>
			<defs>
				<path id="SVGID_1_" d="M503.1,979.7c46.2-27.3,93-53.8,139.5-80.5C529,834.8,416.1,769.4,303,704c-46.7,25.9-92.3,53.7-138.8,80      C277.3,849.2,390.3,914.3,503.1,979.7z"/>
			</defs>
			<clipPath id="SVGID_2_">
				<use xlink:href="#SVGID_1_" style="overflow:visible;"/>
			</clipPath>
			<path class="st14" d="M571.6,976.1c46.2-27.3,93-53.8,139.5-80.5c-113.6-64.4-226.6-129.8-339.6-195.1     c-46.7,25.9-92.3,53.7-138.8,80C345.8,845.7,458.8,910.7,571.6,976.1z"/>
		</g>
		<polygon class="st4" points="164.3,784.1 164.3,810.4 180.9,819.9 172.1,825 172.1,851.3 183.5,857.5 165.1,867.9 165.1,894.2     503.9,1089.8 503.9,1063.5 491.6,1056.5 510.9,1046.9 510.9,1020.6 495.7,1011.8 503.1,1006 503.1,979.7   "/>
		<polygon class="st4" points="164.3,784.1 164.3,810.4 181,820 172.1,825 172.1,851.3 183.1,857.8 165.1,867.9 165.1,894.2     503.9,1089.8 503.9,1063.5 492.7,1057 510.9,1046.9 510.9,1020.6 493,1010.2 503.1,1006 503.1,979.7   "/>
	</g>
</g>
<g id="Ñëîé_58">
</g>
<g id="Ñëîé_50">
</g>
</svg>