<svg xmlns="http://www.w3.org/2000/svg" xmlns:xlink="http://www.w3.org/1999/xlink" version="1.1" x="0px" y="0px" viewBox="0 0 500 500" enable-background="new 0 0 500 500" xml:space="preserve">
<g id="BACKGROUND">
</g>
<g id="OBJECTS">
	<ellipse fill="#1D2A5B" cx="250.056" cy="377.501" rx="183.5" ry="11.5"/>
	<path fill="#1D2A5B" d="M390.05,175.05H114.187c-4.079,0-7.385,3.306-7.385,7.385v174.44h290.632v-174.44   C397.435,178.356,394.129,175.05,390.05,175.05z"/>
	<rect x="120.403" y="187.935" fill="#8CBDFF" width="263.431" height="157.486"/>
	<path fill="#0A486F" d="M88.431,355.265c0,10.816,8.769,19.585,19.584,19.585h283.97c10.815,0,19.584-8.769,19.584-19.585H88.431z"/>
	<path fill="#1D2A5B" d="M274.326,360.52h-54.303c-2.823,0-5.111-2.288-5.111-5.111l0,0h64.526l0,0   C279.438,358.231,277.148,360.52,274.326,360.52z"/>
	<g>
		<rect x="120.466" y="187.333" fill="#4F67AF" width="263.368" height="14.901"/>
		<rect x="120.466" y="202.233" fill="#E9EAEE" width="263.368" height="143.79"/>
		<g>
			<rect x="182.45" y="229.388" fill="#FFFFFF" width="90.447" height="108.883"/>
			<rect x="182.519" y="229.232" fill="#FFFFFF" width="90.378" height="90.53"/>
			<g opacity="0.5">
				<path opacity="0.7" fill="#9093AA" d="M190.686,243.281c-3.029,0-5.493-2.46-5.493-5.483c0-3.023,2.464-5.482,5.493-5.482      c3.029,0,5.493,2.46,5.493,5.482C196.18,240.821,193.715,243.281,190.686,243.281z"/>
			</g>
			<text transform="matrix(1.0019 0 0 1 197.9556 236.9688)" font-family="'NotoSans-Bold'" font-size="3.3159px">Name</text>
			<rect x="182.45" y="265.047" fill="#203670" width="90.447" height="42.764"/>
			<path fill="#CCD0DB" d="M196.185,330.158h-0.977c-0.361,0-0.654,0.292-0.654,0.652v2.3c0,0.36,0.293,0.652,0.654,0.652h0.977     c0.361,0,0.654-0.292,0.654-0.652v-2.3C196.839,330.45,196.546,330.158,196.185,330.158z"/>
			<path fill="#CCD0DB" d="M200.421,330.731c0.252,0,0.457-0.204,0.457-0.456c0-0.252-0.205-0.456-0.457-0.456h-0.487h-0.74h-0.151     c0,0,0-0.147,0.038-0.393c0.151-0.812-0.094-1.548-0.832-1.661c-0.737-0.112-0.605,0.586-0.605,0.586v1.094     c0,0.11-0.036,0.218-0.103,0.306l-0.804,1.059v2.319l0.473,0.34c0,0,0.797,0,1.564,0c0.413,0,0.818,0,1.083,0h0.144     c0.253,0,0.457-0.205,0.457-0.457c0-0.252-0.205-0.456-0.457-0.456h0.192c0.253,0,0.457-0.204,0.457-0.456     c0-0.252-0.204-0.456-0.457-0.456h0.23c0.252,0,0.457-0.204,0.457-0.456C200.878,330.935,200.673,330.731,200.421,330.731z"/>
			<path fill="#CCD0DB" d="M242.437,328.426h-3.952c-0.684,0-1.237,0.553-1.237,1.234v2.026c0,0.683,0.554,1.235,1.237,1.235h0.568     v1.451l1.562-1.451h1.822c0.683,0,1.237-0.553,1.237-1.235v-2.026C243.675,328.978,243.121,328.426,242.437,328.426z"/>
			<g>
				<rect x="187.802" y="324.075" fill="#E9EAEE" width="80.991" height="0.297"/>
			</g>
			<rect x="185.822" y="316.841" fill="#E9EAEE" width="14.771" height="1.528"/>
			<rect x="205.057" y="330.597" fill="#E9EAEE" width="11.649" height="1.528"/>
			<rect x="198.012" y="239.244" fill="#E9EAEE" width="11.649" height="1.528"/>
			<rect x="252.217" y="330.597" fill="#E9EAEE" width="11.649" height="1.528"/>
			<rect x="238.462" y="316.841" fill="#E9EAEE" width="27.258" height="1.528"/>
			<rect x="186.374" y="247.65" fill="#E9EAEE" width="81.656" height="4.585"/>
			<rect x="186.374" y="255.292" fill="#E9EAEE" width="44.196" height="4.586"/>
			<rect x="198.012" y="233.895" fill="#E9EAEE" width="12.557" height="3.362"/>
		</g>
		<g>
			<g>
				<rect x="182.45" y="207.329" fill="#FFFFFF" width="90.447" height="16.287"/>
				<g opacity="0.5">
					<path opacity="0.7" fill="#9093AA" d="M190.292,220.706c-2.853,0-5.175-2.317-5.175-5.165s2.322-5.165,5.175-5.165       c2.854,0,5.175,2.317,5.175,5.165S193.146,220.706,190.292,220.706z"/>
				</g>
			</g>
			<rect x="200.109" y="213.44" fill="#E9EAEE" width="42.947" height="4.585"/>
		</g>
		<g>
			<rect x="155.152" y="191.169" fill="#FFFFFF" width="87.63" height="6.854"/>
			<path fill="#4F67AF" d="M238.821,196.488l-1.101-1.107c0.312-0.305,0.506-0.73,0.506-1.2c0-0.928-0.756-1.683-1.686-1.683     c-0.93,0-1.686,0.755-1.686,1.683c0,0.928,0.756,1.683,1.686,1.683c0.355,0,0.685-0.111,0.957-0.299l1.12,1.125L238.821,196.488z      M235.143,194.181c0-0.77,0.627-1.395,1.397-1.395c0.771,0,1.398,0.626,1.398,1.395c0,0.769-0.627,1.395-1.398,1.395     C235.769,195.576,235.143,194.95,235.143,194.181z"/>
		</g>
		<g opacity="0.5">
			<path opacity="0.7" fill="#9093AA" d="M149.42,220.181c-2.563,0-4.648-2.082-4.648-4.64c0-2.559,2.085-4.64,4.648-4.64     c2.563,0,4.648,2.081,4.648,4.64C154.068,218.1,151.983,220.181,149.42,220.181z"/>
			<path opacity="0.7" fill="#9093AA" d="M149.42,259.869c-1.414,0-2.564-1.147-2.564-2.559c0-1.411,1.15-2.558,2.564-2.558     c1.414,0,2.564,1.147,2.564,2.558C151.984,258.722,150.833,259.869,149.42,259.869z"/>
			<rect x="158.298" y="214.225" opacity="0.7" fill="#9093AA" width="18.729" height="2.908"/>
			<rect x="158.298" y="256.394" opacity="0.7" fill="#9093AA" width="13.734" height="1.834"/>
			<path opacity="0.7" fill="#9093AA" d="M149.42,269.4c-1.414,0-2.564-1.148-2.564-2.56c0-1.411,1.15-2.559,2.564-2.559     c1.414,0,2.564,1.147,2.564,2.559C151.984,268.252,150.833,269.4,149.42,269.4z"/>
			<rect x="158.298" y="265.925" opacity="0.7" fill="#9093AA" width="13.734" height="1.833"/>
			<path opacity="0.7" fill="#9093AA" d="M149.42,233.153c-1.414,0-2.564-1.148-2.564-2.559c0-1.411,1.15-2.559,2.564-2.559     c1.414,0,2.564,1.148,2.564,2.559C151.984,232.005,150.833,233.153,149.42,233.153z"/>
			<rect x="158.298" y="229.677" opacity="0.7" fill="#9093AA" width="13.734" height="1.834"/>
			<path opacity="0.7" fill="#9093AA" d="M149.42,242.684c-1.414,0-2.564-1.148-2.564-2.559s1.15-2.559,2.564-2.559     c1.414,0,2.564,1.148,2.564,2.559S150.833,242.684,149.42,242.684z"/>
			<rect x="158.298" y="239.208" opacity="0.7" fill="#9093AA" width="13.734" height="1.834"/>
			<path opacity="0.7" fill="#9093AA" d="M149.42,278.931c-1.414,0-2.564-1.147-2.564-2.559c0-1.411,1.15-2.56,2.564-2.56     c1.414,0,2.564,1.148,2.564,2.56C151.984,277.783,150.833,278.931,149.42,278.931z"/>
			<rect x="158.298" y="275.455" opacity="0.7" fill="#9093AA" width="13.734" height="1.833"/>
			<path opacity="0.7" fill="#9093AA" d="M149.42,288.462c-1.414,0-2.564-1.148-2.564-2.56c0-1.411,1.15-2.559,2.564-2.559     c1.414,0,2.564,1.147,2.564,2.559C151.984,287.314,150.833,288.462,149.42,288.462z"/>
			<rect x="158.298" y="284.985" opacity="0.7" fill="#9093AA" width="13.734" height="1.834"/>
			<path opacity="0.7" fill="#9093AA" d="M149.42,297.992c-1.414,0-2.564-1.148-2.564-2.56c0-1.41,1.15-2.559,2.564-2.559     c1.414,0,2.564,1.148,2.564,2.559C151.984,296.844,150.833,297.992,149.42,297.992z"/>
			<rect x="158.298" y="294.517" opacity="0.7" fill="#9093AA" width="13.734" height="1.833"/>
			<path opacity="0.7" fill="#9093AA" d="M149.42,307.522c-1.414,0-2.564-1.147-2.564-2.559c0-1.411,1.15-2.56,2.564-2.56     c1.414,0,2.564,1.148,2.564,2.56C151.984,306.375,150.833,307.522,149.42,307.522z"/>
			<rect x="158.298" y="304.047" opacity="0.7" fill="#9093AA" width="13.734" height="1.834"/>
			<path opacity="0.7" fill="#9093AA" d="M149.42,317.054c-1.414,0-2.564-1.148-2.564-2.56c0-1.411,1.15-2.559,2.564-2.559     c1.414,0,2.564,1.148,2.564,2.559C151.984,315.905,150.833,317.054,149.42,317.054z"/>
			<rect x="158.298" y="313.577" opacity="0.7" fill="#9093AA" width="13.734" height="1.834"/>
			<path opacity="0.7" fill="#9093AA" d="M149.42,326.584c-1.414,0-2.564-1.149-2.564-2.559c0-1.411,1.15-2.56,2.564-2.56     c1.414,0,2.564,1.148,2.564,2.56C151.984,325.435,150.833,326.584,149.42,326.584z"/>
			<rect x="158.298" y="323.108" opacity="0.7" fill="#9093AA" width="13.734" height="1.833"/>
		</g>
		<g opacity="0.5">
			<path opacity="0.7" fill="#9093AA" d="M342.535,219.973c-2.563,0-4.648-2.081-4.648-4.64c0-2.558,2.086-4.64,4.648-4.64     c2.563,0,4.648,2.082,4.648,4.64C347.184,217.892,345.099,219.973,342.535,219.973z"/>
			<path opacity="0.7" fill="#9093AA" d="M375.824,217.154c-1.136,0.217-2.118-0.763-1.901-1.897c0.12-0.63,0.637-1.145,1.268-1.266     c1.136-0.217,2.118,0.764,1.901,1.898C376.972,216.519,376.455,217.034,375.824,217.154z"/>
			<rect x="351.413" y="214.017" opacity="0.7" fill="#9093AA" width="18.729" height="2.908"/>
		</g>
		<g opacity="0.5">
			<path opacity="0.7" fill="#9093AA" d="M342.535,235.523c-2.563,0-4.648-2.081-4.648-4.64c0-2.558,2.086-4.64,4.648-4.64     c2.563,0,4.648,2.082,4.648,4.64C347.184,233.442,345.099,235.523,342.535,235.523z"/>
			<path opacity="0.7" fill="#9093AA" d="M375.824,232.705c-1.136,0.216-2.118-0.764-1.901-1.897c0.12-0.63,0.637-1.146,1.268-1.266     c1.136-0.217,2.118,0.764,1.901,1.897C376.972,232.069,376.455,232.585,375.824,232.705z"/>
			<rect x="351.413" y="229.567" opacity="0.7" fill="#9093AA" width="18.729" height="2.908"/>
		</g>
		<g opacity="0.5">
			<path opacity="0.7" fill="#9093AA" d="M342.535,251.074c-2.563,0-4.648-2.081-4.648-4.64c0-2.558,2.086-4.639,4.648-4.639     c2.563,0,4.648,2.081,4.648,4.639C347.184,248.993,345.099,251.074,342.535,251.074z"/>
			<path opacity="0.7" fill="#9093AA" d="M375.824,248.255c-1.136,0.216-2.118-0.764-1.901-1.898c0.12-0.63,0.637-1.145,1.268-1.266     c1.136-0.216,2.118,0.764,1.901,1.898C376.972,247.619,376.455,248.135,375.824,248.255z"/>
			<rect x="351.413" y="245.118" opacity="0.7" fill="#9093AA" width="18.729" height="2.908"/>
		</g>
		<g>
			<defs>
				<rect id="SVGID_1_" x="120.435" y="202.233" width="263.368" height="143.79"/>
			</defs>
			<clipPath id="SVGID_2_">
				<use xlink:href="#SVGID_1_" overflow="visible"/>
			</clipPath>
		</g>
		<rect x="275.872" y="207.329" fill="#FFFFFF" width="29.967" height="26.704"/>
		<rect x="275.872" y="237.546" fill="#203670" width="29.967" height="26.704"/>
		<rect x="275.872" y="267.781" fill="#FFFFFF" width="29.967" height="26.704"/>
		<g opacity="0.5">
			<rect x="328.86" y="208.617" fill="#9093AA" width="0.156" height="137.407"/>
		</g>
		<path fill="#FFFFFF" d="M254.775,198.164c-1.761,0-3.192-1.429-3.192-3.186c0-1.757,1.432-3.186,3.192-3.186    c1.76,0,3.191,1.429,3.191,3.186C257.967,196.735,256.535,198.164,254.775,198.164z"/>
		<rect x="260.871" y="194.075" fill="#FFFFFF" width="12.859" height="1.997"/>
		<rect x="277.727" y="194.075" fill="#FFFFFF" width="12.86" height="1.997"/>
		<path id="Blue_1_" fill="#FFFFFF" d="M153.234,198.39c0.221,0,0.4-0.179,0.4-0.399v-6.437c0-0.221-0.179-0.399-0.4-0.399h-6.449    c-0.221,0-0.4,0.179-0.4,0.399v6.437c0,0.221,0.179,0.399,0.4,0.399H153.234z"/>
		<path id="f" fill="#4F67AF" d="M151.415,198.464v-2.859h0.962l0.144-1.114h-1.105v-0.711c0-0.323,0.09-0.542,0.553-0.542    l0.591-0.001v-0.997c-0.103-0.014-0.453-0.044-0.862-0.044c-0.852,0-1.436,0.519-1.436,1.473v0.822h-0.964v1.114h0.964v2.859    H151.415z"/>
		<rect x="334.828" y="259.842" fill="#203670" width="43.734" height="34.146"/>
		<rect x="334.828" y="299.103" opacity="0.5" fill="#9093AA" width="43.734" height="34.146"/>
		<g>
			<g>
				<path fill="#FFFFFF" d="M222.142,292.466l-0.044-0.003c-0.344-0.021-0.677-0.084-0.992-0.183l-2.205,3.818      c-0.202,0.35-0.079,0.797,0.273,0.995l2.17,1.217c0.346,0.194,0.784,0.074,0.983-0.27l3.219-5.574H222.142z"/>
				<g>
					<path fill="#FFFFFF" d="M234.387,276.32l-6.55,4.01v11.548l6.558,3.896c0.483,0.287,1.096-0.061,1.096-0.623v-18.212       C235.49,276.372,234.87,276.025,234.387,276.32L234.387,276.32z"/>
					<g>
						<path fill="#FFFFFF" d="M218.271,288.47v-4.87c0-0.279,0.03-0.551,0.086-0.813h-1.054c-0.761,0-1.377,0.616-1.377,1.377v3.743        c0,0.76,0.617,1.377,1.377,1.377h1.054C218.301,289.02,218.271,288.748,218.271,288.47z"/>
						<path fill="#FFFFFF" d="M226.386,291.016h-4.2c-1.361-0.083-2.465-1.186-2.465-2.547v-4.87c0-1.361,1.104-2.464,2.465-2.382        h4.2V291.016z"/>
					</g>
				</g>
			</g>
			<g>
				<path fill="#FFFFFF" d="M238.675,291.961c-0.186,0-0.371-0.071-0.513-0.212l-1.463-1.462c-0.283-0.283-0.283-0.742,0-1.025      c0.283-0.283,0.742-0.283,1.026,0l1.463,1.462c0.283,0.283,0.283,0.742,0,1.025C239.046,291.89,238.86,291.961,238.675,291.961      L238.675,291.961z"/>
				<path fill="#FFFFFF" d="M237.212,283.262c-0.186,0-0.371-0.071-0.513-0.212c-0.283-0.283-0.283-0.742,0-1.025l1.463-1.462      c0.283-0.283,0.742-0.283,1.026,0c0.283,0.283,0.283,0.742,0,1.025l-1.463,1.462      C237.583,283.191,237.397,283.262,237.212,283.262L237.212,283.262z"/>
				<path fill="#FFFFFF" d="M239.945,286.88h-2.069c-0.4,0-0.725-0.325-0.725-0.725s0.325-0.725,0.725-0.725h2.069      c0.4,0,0.725,0.325,0.725,0.725S240.345,286.88,239.945,286.88z"/>
			</g>
		</g>
		<g>
			<g>
				<path fill="#FFFFFF" d="M287.313,254.313l-0.029-0.002c-0.228-0.014-0.448-0.056-0.657-0.121l-1.459,2.527      c-0.134,0.232-0.052,0.528,0.181,0.658l1.437,0.806c0.229,0.129,0.519,0.049,0.651-0.179l2.131-3.689H287.313z"/>
				<g>
					<path fill="#FFFFFF" d="M295.417,243.626l-4.335,2.654v7.643l4.341,2.579c0.32,0.19,0.725-0.04,0.725-0.412v-12.055       C296.148,243.66,295.737,243.43,295.417,243.626L295.417,243.626z"/>
					<g>
						<path fill="#FFFFFF" d="M284.751,251.667v-3.223c0-0.185,0.02-0.365,0.057-0.538h-0.698c-0.503,0-0.912,0.408-0.912,0.911        v2.477c0,0.503,0.408,0.911,0.912,0.911h0.698C284.77,252.031,284.751,251.851,284.751,251.667z"/>
						<path fill="#FFFFFF" d="M290.122,253.353h-2.78c-0.901-0.055-1.632-0.785-1.632-1.686v-3.223c0-0.901,0.73-1.631,1.632-1.576        h2.78V253.353z"/>
					</g>
				</g>
			</g>
			<g>
				<path fill="#FFFFFF" d="M298.256,253.978c-0.123,0-0.246-0.047-0.339-0.141l-0.968-0.968c-0.187-0.187-0.187-0.491,0-0.679      c0.187-0.187,0.491-0.187,0.679,0l0.968,0.968c0.187,0.187,0.187,0.491,0,0.679      C298.501,253.932,298.379,253.978,298.256,253.978L298.256,253.978z"/>
				<path fill="#FFFFFF" d="M297.287,248.22c-0.123,0-0.246-0.047-0.339-0.141c-0.187-0.187-0.187-0.491,0-0.679l0.968-0.968      c0.187-0.187,0.491-0.187,0.679,0c0.187,0.187,0.187,0.491,0,0.679l-0.968,0.968C297.533,248.174,297.41,248.22,297.287,248.22      L297.287,248.22z"/>
				<path fill="#FFFFFF" d="M299.096,250.615h-1.369c-0.265,0-0.48-0.215-0.48-0.48c0-0.265,0.215-0.48,0.48-0.48h1.369      c0.265,0,0.48,0.215,0.48,0.48C299.576,250.401,299.361,250.615,299.096,250.615z"/>
			</g>
		</g>
		<g>
			<g>
				<path fill="#FFFFFF" d="M351.996,281.783l-0.038-0.002c-0.298-0.018-0.585-0.073-0.858-0.159l-1.908,3.303      c-0.175,0.303-0.068,0.69,0.236,0.861l1.878,1.053c0.3,0.168,0.679,0.064,0.85-0.233l2.785-4.823H351.996z"/>
				<g>
					<path fill="#FFFFFF" d="M362.59,267.814l-5.667,3.47v9.991l5.674,3.371c0.418,0.248,0.948-0.053,0.948-0.539v-15.758       C363.545,267.858,363.008,267.558,362.59,267.814L362.59,267.814z"/>
					<g>
						<path fill="#FFFFFF" d="M348.646,278.325v-4.213c0-0.241,0.026-0.477,0.075-0.704h-0.912c-0.658,0-1.192,0.533-1.192,1.191        v3.238c0,0.658,0.533,1.191,1.192,1.191h0.912C348.672,278.801,348.646,278.566,348.646,278.325z"/>
						<path fill="#FFFFFF" d="M355.668,280.529h-3.634c-1.178-0.071-2.133-1.026-2.133-2.204v-4.213        c0-1.178,0.955-2.132,2.133-2.061h3.634V280.529z"/>
					</g>
				</g>
			</g>
			<g>
				<path fill="#FFFFFF" d="M366.3,281.347c-0.161,0-0.321-0.061-0.444-0.184l-1.266-1.265c-0.245-0.245-0.245-0.642,0-0.887      c0.245-0.245,0.642-0.245,0.887,0l1.266,1.265c0.245,0.245,0.245,0.642,0,0.887C366.621,281.285,366.461,281.347,366.3,281.347      L366.3,281.347z"/>
				<path fill="#FFFFFF" d="M365.035,273.82c-0.161,0-0.321-0.061-0.444-0.184c-0.245-0.245-0.245-0.642,0-0.887l1.266-1.265      c0.245-0.245,0.642-0.245,0.887,0s0.245,0.642,0,0.887l-1.266,1.265C365.356,273.758,365.195,273.82,365.035,273.82      L365.035,273.82z"/>
				<path fill="#FFFFFF" d="M367.399,276.95h-1.79c-0.346,0-0.627-0.281-0.627-0.627s0.281-0.627,0.627-0.627h1.79      c0.347,0,0.627,0.281,0.627,0.627S367.745,276.95,367.399,276.95z"/>
			</g>
		</g>
	</g>
	<g opacity="0.4">
		<path fill="#0A4870" d="M190.358,201.248l3.682-0.582c3.396-0.537,5.684-3.802,4.979-7.209c-0.659-3.19-3.819-5.226-7.037-4.718    l-5.063,0.8c0,0-5.531,0.874-12.066,1.906c-9.251,1.461-13.399,2.117-13.998,2.211c-0.563,0.089,0.818-3.003,2.168-5.79    c1.595-3.292,2.075-7.011,1.4-10.607c-0.701-3.727-2.026-8.361-4.52-11.716c-2.713-3.65-6.647-4.08-9.602-3.744    c-2.224,0.253-3.668,2.471-3.048,4.621l3.006,10.412c0.835,2.892,0.056,6.009-2.04,8.168l-2.81,2.895    c-2.21,2.276-3.578,5.237-3.878,8.395v0c-0.262,2.751-2.354,4.977-5.083,5.408l-7.544,1.192l-0.492-3.116l-10.808,1.708    l-0.38-2.402l-23.945,3.783l7.305,46.233l23.945-3.783l-0.379-2.402l10.808-1.708l-0.352-2.229l11.831-1.869l2.081,1.618    c2.48,1.928,5.646,2.744,8.749,2.253l23.227-3.67l0,0l1.591-0.251l0.534-0.084l2.379-0.376c2.299-0.363,4.073-2.228,4.285-4.46    c0.03-0.319,0.029-0.646-0.007-0.976c-0.311-2.823-2.909-4.782-5.682-4.344l0.819-0.129h-0.001l4.505-0.712    c3.218-0.508,5.596-3.419,5.24-6.657c-0.38-3.458-3.563-5.859-6.959-5.323l0.377-0.06c-0.001,0-0.001,0-0.001,0l4.504-0.712    c3.218-0.509,5.597-3.419,5.24-6.658C196.937,203.112,193.755,200.711,190.358,201.248z"/>
		<path fill="#0A4870" d="M388.216,211.753l-2.076-0.284l1.353-9.879c0.327-2.39-1.346-4.592-3.735-4.919l-50.804-6.953    c-2.785-0.381-5.352,1.567-5.732,4.352l-4.875,35.622c-0.382,2.785,1.567,5.352,4.352,5.732l50.805,6.953    c2.39,0.327,4.592-1.345,4.919-3.734l1.352-9.88l2.076,0.284L388.216,211.753z"/>
	</g>
	<g>
		<g>
			<path fill="#FFFFFF" d="M166.491,160.382l-0.652-0.758c0,0,0.535-0.461,1.564-1.274l0.62,0.785     C167.02,159.926,166.496,160.377,166.491,160.382z"/>
		</g>
		<g>
			<path fill="#FFFFFF" d="M171.158,156.755l-0.591-0.807c0.948-0.694,2.031-1.467,3.244-2.301l0.566,0.824     C173.175,155.299,172.099,156.066,171.158,156.755z M337.094,154.924c-0.962-0.659-2.061-1.392-3.29-2.183l0.541-0.841     c1.239,0.797,2.346,1.535,3.313,2.199L337.094,154.924z M177.661,152.278l-0.544-0.839c1.053-0.684,2.175-1.394,3.36-2.122     L181,150.17C179.822,150.894,178.708,151.599,177.661,152.278z M330.454,150.651c-1.067-0.646-2.202-1.317-3.403-2.003     l0.496-0.868c1.209,0.691,2.352,1.366,3.425,2.016L330.454,150.651z M184.392,148.146l-0.502-0.865     c1.109-0.644,2.263-1.296,3.461-1.952l0.48,0.877C186.641,146.858,185.494,147.506,184.392,148.146z M323.599,146.73     c-1.121-0.605-2.287-1.217-3.497-1.834l0.453-0.891c1.218,0.62,2.392,1.236,3.518,1.845L323.599,146.73z M191.316,144.351     l-0.459-0.889c1.15-0.594,2.335-1.189,3.552-1.78l0.436,0.9C193.637,143.169,192.46,143.76,191.316,144.351z M316.561,143.145     c-1.161-0.556-2.354-1.111-3.582-1.663l0.41-0.912c1.235,0.556,2.437,1.114,3.604,1.674L316.561,143.145z M198.418,140.9     l-0.414-0.91c1.185-0.54,2.397-1.074,3.636-1.6l0.392,0.92C200.801,139.833,199.597,140.363,198.418,140.9z M309.36,139.906     c-1.192-0.502-2.411-0.999-3.657-1.488l0.365-0.931c1.254,0.492,2.48,0.992,3.681,1.497L309.36,139.906z M205.683,137.811     l-0.367-0.93c1.216-0.481,2.454-0.952,3.713-1.412l0.343,0.94C208.122,136.866,206.891,137.334,205.683,137.811z M302.01,137.021     c-1.22-0.444-2.462-0.879-3.726-1.304l0.318-0.948c1.272,0.427,2.522,0.865,3.749,1.313L302.01,137.021z M213.098,135.106     l-0.317-0.948c1.243-0.416,2.504-0.82,3.785-1.21l0.291,0.957C215.585,134.292,214.332,134.693,213.098,135.106z      M294.526,134.509c-1.243-0.382-2.506-0.753-3.787-1.111l0.27-0.963c1.289,0.36,2.56,0.733,3.81,1.118L294.526,134.509z      M220.646,132.809l-0.265-0.965c1.267-0.347,2.549-0.679,3.848-0.995l0.236,0.972     C223.177,132.135,221.903,132.464,220.646,132.809z M286.926,132.387c-1.264-0.316-2.543-0.619-3.84-0.907l0.217-0.977     c1.305,0.29,2.594,0.595,3.865,0.914L286.926,132.387z M228.311,130.947l-0.207-0.978c1.286-0.273,2.586-0.528,3.899-0.766     l0.178,0.984C230.877,130.422,229.587,130.676,228.311,130.947z M279.222,130.678c-1.28-0.247-2.575-0.479-3.883-0.693     l0.162-0.987c1.317,0.216,2.62,0.449,3.91,0.698L279.222,130.678z M236.072,129.546l-0.148-0.989     c1.301-0.193,2.615-0.369,3.94-0.523l0.116,0.993C238.665,129.18,237.363,129.354,236.072,129.546z M271.439,129.402     c-1.293-0.174-2.599-0.331-3.917-0.47l0.105-0.994c1.326,0.14,2.642,0.298,3.944,0.473L271.439,129.402z M243.903,128.632     l-0.084-0.996c1.312-0.11,2.633-0.201,3.966-0.269l0.051,0.999C246.515,128.434,245.204,128.523,243.903,128.632z      M263.594,128.578c-1.301-0.098-2.613-0.178-3.936-0.237l0.045-0.999c1.332,0.061,2.654,0.14,3.967,0.239L263.594,128.578z      M251.775,128.229l-0.018-1c0.709-0.013,1.421-0.019,2.135-0.019l0.68,0.001c0.389,0.003,0.774,0.006,1.16,0.012l-0.016,1     c-0.382-0.006-0.766-0.01-1.149-0.012l-0.675-0.001C253.185,128.21,252.478,128.216,251.775,128.229z"/>
		</g>
		<g>
			<path fill="#FFFFFF" d="M341.851,158.391c-0.006-0.004-0.542-0.438-1.568-1.199l0.596-0.804c1.055,0.782,1.602,1.227,1.602,1.227     L341.851,158.391z"/>
		</g>
	</g>
	<g>
		<path fill="#FFDC85" d="M380.555,177.651c0,7.463-6.051,13.514-13.514,13.514c-7.464,0-13.515-6.051-13.515-13.514    c0-7.464,6.051-13.514,13.515-13.514C374.504,164.137,380.555,170.187,380.555,177.651z"/>
		<g>
			<path fill="#FFBE55" d="M378.891,177.651c0,6.544-5.306,11.85-11.85,11.85c-6.545,0-11.85-5.306-11.85-11.85     c0-6.544,5.305-11.85,11.85-11.85C373.585,165.801,378.891,171.106,378.891,177.651z"/>
		</g>
		<path fill="#D09D2D" d="M367.041,165.801c-1.97,0-3.825,0.483-5.461,1.333c1.534-0.725,3.248-1.131,5.056-1.131    c6.545,0,11.851,5.305,11.851,11.85c0,4.575-2.594,8.541-6.39,10.516c4.015-1.896,6.794-5.982,6.794-10.718    C378.891,171.106,373.585,165.801,367.041,165.801z"/>
	</g>
	<g>
		<path fill="#FFDC85" d="M266.57,129.726c0,9.151-7.419,16.57-16.57,16.57c-9.151,0-16.57-7.419-16.57-16.57    s7.418-16.57,16.57-16.57C259.151,113.156,266.57,120.574,266.57,129.726z"/>
		<g>
			<path fill="#FFBE55" d="M264.529,129.726c0,8.024-6.505,14.53-14.529,14.53c-8.024,0-14.529-6.505-14.529-14.53     s6.505-14.529,14.529-14.529C258.024,115.196,264.529,121.701,264.529,129.726z"/>
		</g>
		<path fill="#D09D2D" d="M250,115.196c-2.415,0-4.69,0.593-6.694,1.635c1.88-0.889,3.981-1.387,6.199-1.387    c8.024,0,14.53,6.505,14.53,14.529c0,5.609-3.181,10.473-7.835,12.894c4.923-2.326,8.33-7.336,8.33-13.142    C264.529,121.701,258.024,115.196,250,115.196z"/>
		<g>
			<path fill="#BC8517" d="M251.786,137.632v3.431h-2.982v-3.454c-2.108-0.292-4.149-1.167-5.651-2.4l1.593-3.207     c1.614,1.391,4.059,2.378,5.695,2.378c1.211,0,1.974-0.449,1.974-1.278c0-2.669-8.275-1.054-8.275-6.616     c0-2.489,1.794-4.216,4.665-4.687v-3.296h2.982v3.273c1.839,0.202,3.588,0.83,4.911,1.682l-1.548,3.252     c-1.659-0.942-3.768-1.682-5.067-1.682c-0.987,0-1.637,0.358-1.637,1.077c0,2.601,8.275,1.121,8.275,6.772     C256.72,135.636,254.611,137.251,251.786,137.632z"/>
		</g>
		<g>
			<path fill="#FFDC85" d="M252.326,137.632v3.431h-2.982v-3.454c-2.108-0.292-4.15-1.167-5.651-2.4l1.592-3.207     c1.614,1.391,4.059,2.378,5.695,2.378c1.211,0,1.974-0.449,1.974-1.278c0-2.669-8.275-1.054-8.275-6.616     c0-2.489,1.794-4.216,4.665-4.687v-3.296h2.982v3.273c1.839,0.202,3.588,0.83,4.911,1.682l-1.548,3.252     c-1.659-0.942-3.768-1.682-5.068-1.682c-0.987,0-1.637,0.358-1.637,1.077c0,2.601,8.275,1.121,8.275,6.772     C257.26,135.636,255.151,137.251,252.326,137.632z"/>
		</g>
	</g>
	<g>
		<g>
			<g>
				<g>
					<g>
						<path fill="#FFFFFF" d="M191.102,180.551c-0.659-3.191-3.819-5.226-7.037-4.718l-5.063,0.8c0,0-5.531,0.874-12.066,1.907        c-9.251,1.462-13.399,2.117-13.998,2.212c-0.563,0.089,0.818-3.003,2.168-5.79c1.595-3.292,2.075-7.011,1.399-10.607        c-0.7-3.727-2.026-8.361-4.52-11.715c-2.713-3.65-6.647-4.08-9.602-3.744c-2.224,0.252-3.669,2.471-3.048,4.621l3.006,10.412        c0.835,2.892,0.056,6.009-2.04,8.168l-2.81,2.895c-2.21,2.276-3.578,5.237-3.878,8.395v0.001        c-0.262,2.751-2.354,4.977-5.084,5.408l-12.053,1.904l7.064,35.87l14.978-2.366l2.081,1.618        c2.479,1.928,5.646,2.744,8.748,2.254l26.481-4.184l-1.195,0.189l2.445-0.386c2.627-0.415,4.569-2.792,4.278-5.436        c-0.311-2.822-2.909-4.782-5.682-4.344l5.324-0.841c3.218-0.508,5.596-3.419,5.24-6.657c-0.38-3.458-3.563-5.859-6.959-5.323        l4.881-0.771c3.218-0.508,5.597-3.419,5.24-6.658c-0.381-3.458-3.564-5.858-6.96-5.322l3.682-0.581        C189.519,187.224,191.807,183.958,191.102,180.551z"/>
						<g>
							<path fill="#D3D3D3" d="M175.676,213.914l-4.504,0.711c2.772-0.438,5.37,1.521,5.681,4.344         c0.291,2.644-1.65,5.02-4.277,5.435l2.059-0.325l1.195-0.189l1.251-0.197c2.627-0.416,4.569-2.792,4.278-5.436         C181.047,215.436,178.449,213.476,175.676,213.914z"/>
							<path fill="#D3D3D3" d="M179.28,201.093l-4.505,0.711c3.396-0.537,6.579,1.865,6.96,5.323         c0.356,3.238-2.022,6.149-5.24,6.657l4.505-0.711c3.218-0.508,5.596-3.419,5.24-6.657         C185.859,202.958,182.677,200.556,179.28,201.093z"/>
							<path fill="#D3D3D3" d="M191.102,180.551c-0.659-3.191-3.819-5.226-7.037-4.718l-4.505,0.712         c3.218-0.509,6.378,1.527,7.037,4.717c0.704,3.407-1.583,6.672-4.979,7.209l-3.681,0.582         c3.396-0.537,6.579,1.864,6.959,5.321c0.357,3.239-2.021,6.15-5.239,6.658l4.504-0.712c3.218-0.508,5.597-3.419,5.24-6.658         c-0.381-3.458-3.564-5.858-6.96-5.322l3.682-0.581C189.519,187.224,191.807,183.958,191.102,180.551z"/>
						</g>
						
							<rect x="110.476" y="187.658" transform="matrix(0.9877 -0.1561 0.1561 0.9877 -31.1214 20.8392)" fill="#4F67AF" width="13.373" height="41.944"/>
						
							<rect x="88.866" y="187.782" transform="matrix(0.9877 -0.1561 0.1561 0.9877 -31.7204 18.3477)" fill="#1D2A5B" width="24.242" height="46.807"/>
						<path fill="#FFFFFF" d="M121.538,221.059c0.198,1.253-0.658,2.43-1.911,2.628c-1.253,0.198-2.43-0.658-2.628-1.912        c-0.198-1.253,0.658-2.43,1.911-2.628C120.163,218.949,121.34,219.805,121.538,221.059z"/>
					</g>
				</g>
			</g>
		</g>
		<g>
			<path fill="#7490D6" d="M387.642,230.788l-54.169-7.414c-2.969-0.406-5.047-3.143-4.641-6.112l5.198-37.982     c0.406-2.969,3.143-5.047,6.112-4.64l54.169,7.413c2.548,0.349,4.33,2.697,3.982,5.245l-5.406,39.508     C392.538,229.354,390.189,231.136,387.642,230.788z"/>
			<path fill="#1D2A5B" d="M376.749,195.081c-5.392-0.738-10.328,2.792-11.024,7.884l0,0c-0.697,5.092,3.109,9.818,8.501,10.556     l22.316,3.054l2.523-18.44L376.749,195.081z"/>
			<path fill="#7490D6" d="M377.832,204.814c-0.293,2.139-2.366,3.622-4.632,3.311c-2.265-0.31-3.863-2.295-3.57-4.434     c0.292-2.139,2.366-3.622,4.631-3.312C376.525,200.689,378.125,202.674,377.832,204.814z"/>
		</g>
	</g>
</g>
<g id="DESIGNED_BY_FREEPIK">
</g>
</svg>