<svg xmlns="http://www.w3.org/2000/svg" xmlns:xlink="http://www.w3.org/1999/xlink" version="1.1" x="0px" y="0px" viewBox="0 0 800 800" enable-background="new 0 0 800 800" xml:space="preserve">
<g id="BACKGROUND">
	<rect fill="#FFFFFF" width="800" height="800"/>
</g>
<g id="OBJECT">
	<g>
		<path fill-rule="evenodd" clip-rule="evenodd" fill="#D4D4D4" d="M399.999,715.945c102.41,0,185.933-12.565,185.933-27.974    c0-15.41-83.523-27.975-185.933-27.975c-102.409,0-185.932,12.565-185.932,27.975C214.067,703.38,297.59,715.945,399.999,715.945z    "/>
		<polygon fill-rule="evenodd" clip-rule="evenodd" fill="#094971" points="253.304,145.658 282.521,145.658 282.521,688.682     282.521,693.365 282.392,693.483 282.373,693.5 282.215,693.631 282.167,693.672 282.054,693.763 281.935,693.859     281.892,693.892 281.721,694.019 281.367,694.273 281.185,694.398 281.18,694.4 281,694.518 280.909,694.575 280.809,694.639     280.632,694.75 280.615,694.759 280.414,694.874 280.344,694.917 280.21,694.992 280.05,695.083 280.002,695.107 279.791,695.217     279.746,695.241 279.575,695.33 279.439,695.402 279.358,695.437 279.135,695.545 279.115,695.555 278.907,695.65     278.792,695.703 278.679,695.756 278.457,695.854 278.445,695.856 278.205,695.957 278.114,695.996 277.966,696.056     277.767,696.134 277.721,696.151 277.474,696.247 277.41,696.271 277.223,696.338 277.048,696.403 276.969,696.432     276.71,696.518 276.679,696.53 276.449,696.606 276.303,696.651 276.184,696.688 275.92,696.771 275.918,696.771 275.647,696.852     275.53,696.886 275.374,696.932 275.134,696.997 275.099,697.006 274.819,697.081 274.735,697.102 274.535,697.152     274.327,697.205 274.253,697.224 273.961,697.291 273.913,697.301 273.671,697.354 273.493,697.394 273.379,697.418     273.082,697.478 273.07,697.483 272.782,697.538 272.641,697.564 272.483,697.593 272.205,697.641 272.179,697.646     271.872,697.698 271.767,697.715 271.565,697.749 271.321,697.782 271.257,697.792 270.942,697.837 270.873,697.847     270.624,697.878 270.42,697.904 270.308,697.919 269.989,697.954 269.963,697.957 269.668,697.991 269.501,698.005     269.345,698.019 269.034,698.046 269.022,698.048 268.691,698.074 268.565,698.084 268.363,698.098 268.09,698.115     268.03,698.117 267.697,698.139 267.611,698.141 267.13,698.161 267.029,698.166 266.689,698.175 266.646,698.175     266.349,698.182 266.157,698.185 266.009,698.187 265.666,698.187 265.446,698.187 265.225,698.185 265.175,698.185     265.005,698.185 264.785,698.18 264.686,698.175 264.569,698.172 264.351,698.166 264.203,698.161 264.134,698.161     263.915,698.149 263.721,698.141 263.702,698.141 263.486,698.132 263.271,698.117 263.242,698.115 263.058,698.103     262.844,698.089 262.768,698.084 262.631,698.072 262.421,698.055 262.296,698.046 262.209,698.04 262.001,698.022     261.831,698.005 261.79,698 261.584,697.981 261.376,697.957 261.369,697.957 261.173,697.933 260.964,697.91 260.76,697.885     260.556,697.859 260.459,697.847 260.356,697.833 260.152,697.804 260.008,697.782 259.953,697.775 259.752,697.744     259.565,697.715 259.554,697.713 259.357,697.681 259.158,697.646 259.124,697.641 258.964,697.612 258.765,697.578     258.691,697.564 258.571,697.54 258.38,697.502 258.26,697.483 258.188,697.466 257.996,697.425 257.807,697.387 257.62,697.346     257.434,697.303 257.247,697.26 257.06,697.214 257.005,697.205 256.877,697.171 256.693,697.126 256.598,697.102     256.512,697.081 256.332,697.032 256.152,696.984 255.975,696.934 255.803,696.886 255.8,696.884 255.62,696.831 255.448,696.781     255.275,696.728 255.103,696.673 254.43,696.453 254.286,696.403 254.267,696.393 254.102,696.335 253.939,696.275     253.776,696.215 253.62,696.154 253.459,696.094 253.304,696.029 253.304,688.457   "/>
		<polygon fill-rule="evenodd" clip-rule="evenodd" fill="#0E538D" points="267.913,145.658 253.306,145.658 253.306,688.682     253.306,693.365 253.436,693.483 253.443,693.485 253.58,693.605 253.661,693.672 253.723,693.723 253.867,693.839     253.893,693.859 254.02,693.955 254.174,694.067 254.331,694.182 254.489,694.295 254.648,694.4 254.655,694.403 254.82,694.515     254.919,694.575 254.993,694.621 255.165,694.728 255.196,694.75 255.345,694.834 255.484,694.917 255.525,694.939     255.709,695.042 255.778,695.083 255.896,695.143 256.08,695.241 256.085,695.244 256.282,695.346 256.389,695.402     256.475,695.442 256.674,695.535 256.713,695.555 256.877,695.631 257.035,695.703 257.081,695.724 257.292,695.818     257.371,695.854 257.503,695.907 257.711,695.996 257.718,695.997 257.934,696.084 258.061,696.134 258.152,696.171     258.375,696.254 258.418,696.271 258.6,696.338 258.78,696.403 258.83,696.417 259.06,696.498 259.149,696.53 259.292,696.577     259.525,696.651 259.527,696.654 259.767,696.728 259.908,696.771 260.008,696.8 260.251,696.872 260.298,696.886     260.495,696.941 260.694,696.997 260.743,697.011 260.995,697.078 261.093,697.102 261.25,697.141 261.5,697.205 261.503,697.205     261.759,697.267 261.913,697.301 262.02,697.325 262.281,697.382 262.334,697.394 262.545,697.44 262.758,697.483     262.811,697.492 263.079,697.543 263.184,697.564 263.35,697.593 263.623,697.641 263.896,697.689 264.061,697.715     264.169,697.732 264.447,697.775 264.504,697.782 264.729,697.816 264.955,697.847 265.007,697.854 265.29,697.888     265.578,697.924 265.865,697.957 265.865,697.957 266.152,697.988 266.439,698.017 266.732,698.043 266.794,698.046     267.024,698.065 267.263,698.084 267.321,698.089 267.616,698.108 267.738,698.115 267.913,698.125 267.913,688.567   "/>
		<path fill-rule="evenodd" clip-rule="evenodd" fill="#094971" d="M267.913,103.161c13.205,0.003,23.904,10.702,23.904,23.905    c0,13.2-10.699,23.905-23.904,23.905c-13.198,0-23.902-10.703-23.902-23.905C244.011,113.863,254.71,103.161,267.913,103.161z"/>
		<path fill-rule="evenodd" clip-rule="evenodd" fill="#0E538D" d="M255.929,147.749c-11.421-6.618-15.318-21.239-8.698-32.667    c6.614-11.423,21.239-15.317,32.667-8.699L255.929,147.749z"/>
		<path fill-rule="evenodd" clip-rule="evenodd" fill="#FFC97B" d="M253.306,150.969c4.956,2.287,9.741,3.696,14.611,3.696    c4.692,0,9.734-0.707,14.604-3.696h278.755l-21.962,149.06l21.962,69.736h-278.76c-4.515,2.199-9.736,3.696-14.606,3.696    s-10.439-1.85-14.604-3.696C253.306,323.275,253.306,197.458,253.306,150.969z"/>
		<path fill-rule="evenodd" clip-rule="evenodd" fill="#FFBF56" d="M267.913,154.665h0.004c4.692,0,9.734-0.707,14.604-3.696    v218.796h-0.005c-4.515,2.199-9.734,3.696-14.603,3.696V154.665z"/>
		<polygon fill-rule="evenodd" clip-rule="evenodd" fill="#FFBF56" points="397.796,150.969 561.276,150.969 561.276,369.765     332.286,369.765   "/>
	</g>
</g>
<g id="DESIGNED_BY_FREEPIK">
</g>
</svg>