<svg xmlns="http://www.w3.org/2000/svg" xmlns:xlink="http://www.w3.org/1999/xlink" version="1.1" id="Layer_1" x="0px" y="0px" viewBox="0 0 642.738 642.738" enable-background="new 0 0 642.738 642.738" xml:space="preserve">
<g>
	<path fill="#0E538C" d="M364.183,414.61h-28.983h-27.65h-28.982c0,0,6.907,121.493-35.644,121.493h64.627h27.65h64.627   C357.264,536.103,364.183,414.61,364.183,414.61z"/>
	<path fill="#0B4870" d="M593.449,103.596H49.277c-8.636,0-15.648,6.988-15.648,15.636V439.9v3.225v24.869   c0,7.527,6.112,13.65,13.65,13.65h548.204c7.503,0,13.627-6.123,13.627-13.65v-24.869V439.9V119.232   C609.109,110.584,602.121,103.596,593.449,103.596z"/>
	<rect x="52.304" y="121.663" fill="#F2F2F2" width="538.153" height="288.926"/>
	<rect x="52.093" y="408.206" fill="#D3D3D3" width="538.551" height="16.828"/>
	<path fill="#0E538C" d="M335.516,452.661c0,7.807-6.322,14.117-14.141,14.117c-7.807,0-14.141-6.311-14.141-14.117   c0-7.854,6.334-14.164,14.141-14.164C329.193,438.497,335.516,444.808,335.516,452.661z"/>
	<rect x="241.298" y="533.719" fill="#0B4870" width="160.141" height="5.423"/>
	<g>
		<polyline fill="none" stroke="#34A853" stroke-width="2" stroke-miterlimit="10" points="283.327,259.779 322.332,224.287     329.555,231.382 346.168,222.87 357.729,202.284 385.895,184.534 406.122,190.933 430.674,175.308 461.005,146.211     515.902,180.991 539.015,186.668 564.298,183.125   "/>
		<polyline fill="none" stroke="#2A94F4" stroke-width="2" stroke-miterlimit="10" points="284.776,277.513 299.22,283.899     314.384,273.252 346.89,269.709 394.56,248.415 424.9,221.453 474.74,223.578 481.232,244.872 507.967,264.74 540.459,263.323     562.855,280.356   "/>
		<polyline fill="none" stroke="#BA72ED" stroke-width="2" stroke-miterlimit="10" points="284.776,303.88 304.276,302.463     328.116,293.96 358.451,258.467 387.339,279.76 419.121,282.604 432.844,279.052 479.788,293.96 500.741,281.887 533.25,286.855     569.346,269.114   "/>
		<polyline fill="none" stroke="#EF3A3A" stroke-width="2" stroke-miterlimit="10" points="284.049,338.559 299.941,327.904     320.889,333.59 357.003,317.266 384.447,315.131 404.674,305.193 440.07,312.297 469.675,276.095 508.684,298.806     513.015,317.983 533.25,335.708 554.912,338.559 567.186,338.559   "/>
		<polyline fill="none" stroke="#FFBE55" stroke-width="2" stroke-miterlimit="10" points="284.049,355.584 301.385,364.823     323.059,357.719 344.728,357.719 375.778,335.007 411.178,338.559 454.505,365.539 486.297,373.343 509.411,364.823     545.524,329.321 564.298,324.369   "/>
		<polyline fill="none" stroke="#D3D3D1" stroke-width="2" stroke-miterlimit="10" points="283.984,136.985 283.984,388.583     567.264,388.583   "/>
	</g>
	<g>
		<path fill="#FFBE55" d="M125.03,281.861l30.366-52.614l26.315,15.201l-30.357,52.605L125.03,281.861z"/>
		<path fill="#2A94F4" d="M212.34,281.672l-30.392-52.622c-3.919-7.419-13.114-10.257-20.528-6.33    c-7.423,3.919-10.257,13.11-6.338,20.533c0.175,0.324,0.358,0.643,0.551,0.959l30.392,52.631    c4.103,7.317,13.359,9.933,20.689,5.835c7.323-4.103,9.939-13.359,5.827-20.69c-0.07-0.11-0.122-0.228-0.201-0.337V281.672    L212.34,281.672z"/>
		<path fill="#34A853" d="M138.332,274.145c8.395,0,15.201,6.801,15.201,15.2c0,8.386-6.806,15.192-15.201,15.192    c-8.39,0-15.192-6.806-15.192-15.192C123.14,280.946,129.942,274.145,138.332,274.145z"/>
	</g>
</g>
</svg>