<svg xmlns="http://www.w3.org/2000/svg" xmlns:xlink="http://www.w3.org/1999/xlink" version="1.1" id="Movie" x="0px" y="0px" viewBox="0 0 2000 2000" style="enable-background:new 0 0 2000 2000;" xml:space="preserve">
<style type="text/css">
	.st0{fill:#F2F2F2;}
	.st1{fill:#D3D3D3;}
	.st2{fill:#0B4870;}
	.st3{opacity:0.35;fill:#2A94F4;}
	.st4{fill:#2A94F4;}
	.st5{fill:#0E538C;}
	.st6{fill:#F7F7F7;}
	.st7{opacity:0.25;fill:#0B4870;}
	.st8{fill:#FFBE55;}
</style>
<g>
	<g id="BG">
		<path class="st0" d="M686.08,1621.96c-123.04-30.58-240.5-81.66-343.32-155.5c-40.34-28.98-79.26-62.47-102.2-106.53    c-39.63-76.11-23.9-171.56,18.61-246.1c47.17-82.72,124.43-154.99,200.98-210.62C561,829.92,683.1,789.08,768.26,694.39    c42.17-46.89,72.23-104.1,95.35-162.44c20.3-51.23,26.66-115.13,68.82-154.54c28.38-26.54,69.31-36.21,108.13-34.44    c153.98,7.02,294.24,112.22,372.92,239.94c54.24,88.06,82.52,187.11,127.03,279.5c45.64,94.74,100.02,184.75,161.85,269.8    c33.61,46.22,70.47,93.93,77.75,150.61c30.53,237.82-272.57,293.37-439.34,331.57c-135.13,30.95-274.06,47.38-412.77,41.73    C846.65,1652.81,765.21,1641.63,686.08,1621.96z"/>
		<ellipse class="st1" cx="1028.63" cy="1573.28" rx="723" ry="62.5"/>
	</g>
	<path class="st2" d="M1570.52,1333.39c0,0-214.89-17.62-237.89,4.38s-21,68-1,58s28-34,43-36s212,19,212,19L1570.52,1333.39z"/>
	<g id="Clapperboard">
		<polygon class="st3" points="912.74,1155.45 510.03,1365.75 399.3,1193.93 808.95,980.02   "/>
		<polygon class="st4" points="513.03,1134.54 445.01,1170.06 412.55,1116.29 478.7,1077.68   "/>
		<polygon class="st4" points="459.9,1046.55 388.31,1076.17 355.82,1022.34 425.23,989.13   "/>
		<polygon class="st4" points="649.44,1063.3 581.42,1098.82 545.21,1038.84 611.36,1000.23   "/>
		<polygon class="st4" points="808.95,980.02 717.85,1027.58 717.84,1027.59 677.88,961.4 707.21,944.27 675.46,957.4     634.27,889.16 730.97,842.92   "/>
		<polygon class="st4" points="603.48,987.17 531.89,1016.78 495.04,955.75 564.47,922.55   "/>
		<polygon class="st5" points="388.31,1076.17 316.32,1105.93 315.93,1105.28 291.82,1052.94 355.82,1022.34   "/>
		<polygon class="st5" points="445.01,1170.06 399.3,1193.93 366.58,1143.13 412.55,1116.29   "/>
		<polygon class="st5" points="531.89,1016.78 459.9,1046.55 425.23,989.13 495.04,955.75   "/>
		<polygon class="st5" points="581.42,1098.82 513.03,1134.54 478.7,1077.68 545.21,1038.84   "/>
		<polygon class="st5" points="717.84,1027.59 649.44,1063.3 611.36,1000.23 677.88,961.4   "/>
		<polygon class="st5" points="675.46,957.4 603.48,987.17 564.47,922.55 634.27,889.16   "/>
	</g>
	<g id="Film_Strip">
		<g>
			<path class="st2" d="M359.63,1487.12c168.14-51.53,435.78-156.96,703.99-378.09c220.62-181.89,361.11-375.69,445.36-513.79     c57.22,36.34,114.43,72.68,171.65,109.02c-85.34,146.23-235.77,362.85-482.47,562.5c-291.29,235.72-582.4,339.01-756.18,386.21     C414.52,1597.69,387.07,1542.4,359.63,1487.12z"/>
		</g>
		<g>
			<path class="st6" d="M374.17,1509.36c1.92-0.89,3.98-3.33,3.98-6.58h-15c0-5.34,3.97-6.84,8.99-8.73c2.73-1.03,6.77-2.51,12-4.42     c13.18-4.83,33.1-12.12,58.91-21.99l5.36,14.01c-25.91,9.91-45.89,17.23-59.11,22.07     C381.78,1506.46,375.29,1508.84,374.17,1509.36z M467.14,1474.42l-5.43-13.98c24.83-9.65,49.8-19.67,74.21-29.79l5.74,13.86     C517.14,1454.67,492.06,1464.73,467.14,1474.42z M560.17,1436.79l-5.82-13.83c24.71-10.4,49.38-21.11,73.31-31.83l6.13,13.69     C609.76,1415.59,584.99,1426.35,560.17,1436.79z M652.08,1396.55l-6.22-13.65c24.53-11.18,48.85-22.63,72.27-34.04l6.57,13.48     C701.17,1373.81,676.73,1385.32,652.08,1396.55z M742.71,1353.49l-6.66-13.44c24.28-12.04,48.17-24.33,71-36.53l7.07,13.23     C791.15,1329.02,767.13,1341.38,742.71,1353.49z M831.79,1307.23l-7.18-13.17c23.9-13.02,47.24-26.28,69.39-39.41l7.65,12.9     C879.35,1280.77,855.84,1294.12,831.79,1307.23z M918.9,1257.2l-7.78-12.82c23.37-14.18,45.98-28.61,67.21-42.86l8.36,12.45     C965.28,1228.35,942.47,1242.89,918.9,1257.2z M1003.31,1202.64l-8.53-12.34c22.62-15.63,44.2-31.49,64.13-47.13l9.26,11.8     C1048,1170.8,1026.18,1186.84,1003.31,1202.64z M1083.91,1142.4l-9.47-11.63c1.77-1.44,3.53-2.88,5.28-4.33     c18.66-15.39,37.29-31.32,55.37-47.34l9.95,11.22c-18.21,16.14-36.98,32.19-55.78,47.69     C1087.48,1139.48,1085.7,1140.94,1083.91,1142.4z M1160,1076.93l-10.06-11.13c19.61-17.74,39.14-36.11,58.05-54.61l10.49,10.72     C1199.43,1040.55,1179.75,1059.06,1160,1076.93z M1232.76,1007.81l-10.59-10.62c18.7-18.66,37.31-37.97,55.31-57.39l11,10.2     C1270.35,969.56,1251.6,989.01,1232.76,1007.81z M1302.05,935.21l-11.1-10.09c17.78-19.57,35.43-39.76,52.44-60.03l11.49,9.65     C1337.74,895.15,1319.96,915.49,1302.05,935.21z M1367.71,859.3l-11.58-9.53c16.8-20.41,33.44-41.44,49.46-62.51l11.94,9.08     C1401.4,817.56,1384.64,838.74,1367.71,859.3z M1429.6,780.29l-12.03-8.96c15.79-21.21,31.39-43.02,46.36-64.84l12.37,8.48     C1461.22,736.95,1445.51,758.93,1429.6,780.29z M1487.57,698.36l-12.45-8.36c14.75-21.96,29.27-44.51,43.15-67.02l12.77,7.87     C1517.05,653.53,1502.43,676.24,1487.57,698.36z"/>
		</g>
		<g>
			<path class="st6" d="M442.43,1642.16l-4.4-14.34c24.97-7.65,50.5-15.95,75.88-24.67l4.87,14.19     C493.25,1626.11,467.56,1634.46,442.43,1642.16z M537.74,1610.75l-4.98-14.15c24.95-8.79,50.12-18.12,74.83-27.71l5.43,13.98     C588.16,1592.53,562.84,1601.91,537.74,1610.75z M631.69,1575.53l-5.54-13.94c24.7-9.82,49.48-20.14,73.66-30.66l5.99,13.75     C681.47,1555.27,656.53,1565.65,631.69,1575.53z M724.16,1536.6l-6.1-13.7c24.34-10.83,48.68-22.15,72.33-33.64l6.55,13.49     C773.14,1514.31,748.65,1525.7,724.16,1536.6z M814.96,1493.91l-6.67-13.44c23.91-11.86,47.74-24.21,70.81-36.69l7.14,13.19     C863.01,1469.54,839.03,1481.97,814.96,1493.91z M903.85,1447.35l-7.26-13.13c23.37-12.92,46.6-26.33,69.05-39.87l7.75,12.85     C950.78,1420.83,927.39,1434.34,903.85,1447.35z M990.53,1396.75l-7.87-12.77c22.75-14.02,45.29-28.55,67-43.18l8.38,12.44     C1036.17,1367.98,1013.46,1382.62,990.53,1396.75z M1074.63,1341.92l-8.52-12.35c22.01-15.17,43.74-30.87,64.59-46.64l9.05,11.96     C1118.73,1310.8,1096.82,1326.62,1074.63,1341.92z M1155.71,1282.68l-9.19-11.86c13.51-10.47,26.94-21.2,39.9-31.89     c7.3-6.02,14.67-12.21,21.91-18.4l9.75,11.4c-7.31,6.25-14.75,12.5-22.12,18.57C1182.89,1261.3,1169.34,1272.12,1155.71,1282.68z      M1233.31,1218.76l-9.88-11.28c19.57-17.14,39.32-35.27,58.7-53.86l10.38,10.82C1272.97,1183.19,1253.06,1201.47,1233.31,1218.76     z M1306.93,1150.46l-10.5-10.71c18.62-18.26,37.38-37.42,55.76-56.96l10.93,10.28C1344.6,1112.75,1325.7,1132.06,1306.93,1150.46     z M1376.8,1078.37l-11.03-10.17c17.71-19.2,35.53-39.26,52.96-59.61l11.39,9.76C1412.58,1038.84,1394.63,1059.03,1376.8,1078.37z      M1443.12,1003.05l-11.48-9.66c16.87-20.05,33.79-40.87,50.31-61.9l11.8,9.26C1477.13,961.91,1460.09,982.87,1443.12,1003.05z      M1506.07,924.91l-11.87-9.17c16.08-20.83,32.15-42.34,47.74-63.92l12.16,8.79C1538.41,882.32,1522.25,903.96,1506.07,924.91z      M1565.79,844.3l-12.23-8.69c15.33-21.56,30.54-43.68,45.22-65.75l12.49,8.31C1596.51,800.36,1581.2,822.61,1565.79,844.3z      M1622.32,761.42l-12.55-8.21c14.39-22,28.47-44.27,41.84-66.19l12.8,7.81C1650.96,716.88,1636.8,739.28,1622.32,761.42z"/>
		</g>
		<g>
			
				<rect x="408.5" y="1484.67" transform="matrix(0.9277 -0.3734 0.3734 0.9277 -535.8991 300.2564)" class="st6" width="197.04" height="97.26"/>
		</g>
		<g>
			
				<rect x="619.58" y="1397.68" transform="matrix(0.9022 -0.4314 0.4314 0.9022 -553.6876 451.3036)" class="st6" width="197.04" height="97.26"/>
		</g>
		<g>
			
				<rect x="817.91" y="1293.3" transform="matrix(0.866 -0.5 0.5 0.866 -548.1885 637.9977)" class="st6" width="197.04" height="97.26"/>
		</g>
		<g>
			
				<rect x="1003.47" y="1170.36" transform="matrix(0.7983 -0.6022 0.6022 0.7983 -511.8606 909.4553)" class="st6" width="197.04" height="97.26"/>
		</g>
		<g>
			
				<rect x="1170.48" y="1025.39" transform="matrix(0.7071 -0.7071 0.7071 0.7071 -387.7657 1211.8931)" class="st6" width="197.04" height="97.26"/>
		</g>
		<g>
			
				<rect x="1452.31" y="679.77" transform="matrix(0.561 -0.8278 0.8278 0.561 77.8038 1603.5269)" class="st6" width="197.04" height="97.26"/>
		</g>
		<g>
			
				<rect x="1313.14" y="863.02" transform="matrix(0.633 -0.7741 0.7741 0.633 -187.695 1427.3601)" class="st6" width="197.04" height="97.26"/>
		</g>
	</g>
	<g id="Camera">
		<g>
			<circle class="st4" cx="869.7" cy="960" r="122.59"/>
			<path class="st1" d="M869.7,757.39c-109.08,0-197.5,88.42-197.5,197.5s88.42,197.5,197.5,197.5s197.5-88.42,197.5-197.5     S978.78,757.39,869.7,757.39z M750.52,1012.78c-32.44,0-58.74-26.3-58.74-58.74s26.3-58.74,58.74-58.74     c32.44,0,58.74,26.3,58.74,58.74S782.96,1012.78,750.52,1012.78z M869.7,1131.96c-32.44,0-58.74-26.3-58.74-58.74     s26.3-58.74,58.74-58.74c32.44,0,58.74,26.3,58.74,58.74S902.14,1131.96,869.7,1131.96z M839.91,954.89     c0-16.46,13.34-29.8,29.8-29.8s29.8,13.34,29.8,29.8c0,16.46-13.34,29.8-29.8,29.8S839.91,971.35,839.91,954.89z M869.7,893.6     c-32.44,0-58.74-26.3-58.74-58.74s26.3-58.74,58.74-58.74c32.44,0,58.74,26.3,58.74,58.74S902.14,893.6,869.7,893.6z      M988.88,1012.78c-32.44,0-58.74-26.3-58.74-58.74s26.3-58.74,58.74-58.74c32.44,0,58.74,26.3,58.74,58.74     S1021.32,1012.78,988.88,1012.78z"/>
		</g>
		<g>
			<circle class="st4" cx="1252.97" cy="969.99" r="122.59"/>
			<path class="st1" d="M1252.97,767.39c-109.08,0-197.5,88.42-197.5,197.5s88.42,197.5,197.5,197.5s197.5-88.42,197.5-197.5     S1362.05,767.39,1252.97,767.39z M1133.79,1022.77c-32.44,0-58.74-26.3-58.74-58.74c0-32.44,26.3-58.74,58.74-58.74     s58.74,26.3,58.74,58.74C1192.53,996.48,1166.23,1022.77,1133.79,1022.77z M1252.97,1141.95c-32.44,0-58.74-26.3-58.74-58.74     s26.3-58.74,58.74-58.74s58.74,26.3,58.74,58.74S1285.41,1141.95,1252.97,1141.95z M1223.18,964.89c0-16.46,13.34-29.8,29.8-29.8     c16.46,0,29.8,13.34,29.8,29.8c0,16.46-13.34,29.8-29.8,29.8C1236.52,994.68,1223.18,981.34,1223.18,964.89z M1252.97,903.59     c-32.44,0-58.74-26.3-58.74-58.74c0-32.44,26.3-58.74,58.74-58.74s58.74,26.3,58.74,58.74     C1311.71,877.3,1285.41,903.59,1252.97,903.59z M1372.15,1022.77c-32.44,0-58.74-26.3-58.74-58.74     c0-32.44,26.3-58.74,58.74-58.74s58.74,26.3,58.74,58.74C1430.89,996.48,1404.6,1022.77,1372.15,1022.77z"/>
		</g>
		<rect x="705.63" y="1147.78" class="st2" width="728" height="408"/>
		<path class="st4" d="M668.49,1249.8l-103.86-28.02v271l92.29-16.81c61.3-11.17,105.07-59.91,104.18-116.04v0    C760.3,1309.02,722.82,1264.45,668.49,1249.8z"/>
		<path class="st4" d="M1433.63,1147.78h-420.67c32.27,121.63,65.77,239.61,99.63,357h321.04V1147.78z"/>
		<path class="st7" d="M1433.63,1147.78h-420.67c32.27,121.63,65.77,239.61,99.63,357h321.04V1147.78z"/>
		<path class="st4" d="M705.63,1147.78v357h406.96c-33.86-117.39-67.36-235.37-99.63-357H705.63z"/>
		<path class="st7" d="M1026.63,1439.78h-242c-6.6,0-12-5.4-12-12v-96c0-6.6,5.4-12,12-12h242c6.6,0,12,5.4,12,12v96    C1038.63,1434.38,1033.23,1439.78,1026.63,1439.78z"/>
		<circle class="st7" cx="761.13" cy="1218.28" r="15.5"/>
		<circle class="st7" cx="811.13" cy="1218.28" r="15.5"/>
		<circle class="st7" cx="861.13" cy="1218.28" r="15.5"/>
		<path class="st4" d="M966.97,1185.42l-18.72,9.79c-5.85,3.06-13.14,0.78-16.2-5.07l-39.44-75.38c-3.06-5.85-0.78-13.14,5.07-16.2    l18.72-9.79c5.85-3.06,13.14-0.78,16.2,5.07l39.44,75.38C975.1,1175.07,972.82,1182.36,966.97,1185.42z"/>
	</g>
	<g id="Popcorn">
		<g>
			<circle class="st8" cx="1080.63" cy="1021.78" r="42"/>
			<circle class="st8" cx="1120.63" cy="978.78" r="42"/>
			<circle class="st8" cx="1134.63" cy="1030.78" r="42"/>
			<circle class="st8" cx="1189.63" cy="1048.78" r="42"/>
			<circle class="st8" cx="1278.63" cy="1079.78" r="42"/>
			<circle class="st8" cx="1437.13" cy="1043.28" r="18.5"/>
			<circle class="st8" cx="1217.63" cy="955.78" r="42"/>
			<circle class="st8" cx="1199.63" cy="920.78" r="26"/>
			<circle class="st8" cx="1248.63" cy="987.78" r="42"/>
			<circle class="st8" cx="1337.63" cy="1057.78" r="42"/>
			<circle class="st8" cx="1398.63" cy="1059.78" r="42"/>
			<circle class="st8" cx="1126.63" cy="1077.78" r="42"/>
			<circle class="st8" cx="1172.63" cy="987.78" r="42"/>
			<circle class="st8" cx="1303.63" cy="1015.78" r="42"/>
			<circle class="st8" cx="1315.63" cy="955.78" r="42"/>
			<circle class="st8" cx="1310.13" cy="919.28" r="20.5"/>
			<circle class="st8" cx="1370.13" cy="956.28" r="20.5"/>
			<circle class="st8" cx="1378.63" cy="1004.78" r="42"/>
			<circle class="st8" cx="1420.63" cy="1004.78" r="27.5"/>
			<circle class="st8" cx="1238.63" cy="1036.78" r="42"/>
		</g>
		<g>
			<polygon class="st4" points="1119.63,1053.41 1119.63,1554.78 1111.63,1554.78 1051.84,1054.18    "/>
			<polygon class="st4" points="1226.63,1052.2 1226.63,1554.78 1175.63,1554.78 1175.63,1052.78    "/>
			<polygon class="st4" points="1333.63,1050.98 1333.63,1554.78 1282.63,1554.78 1282.63,1051.56    "/>
			<polygon class="st4" points="1456.27,1049.59 1400.63,1554.78 1389.63,1554.78 1389.63,1050.35    "/>
		</g>
		<g>
			<polygon class="st6" points="1175.63,1052.78 1175.63,1554.78 1119.63,1554.78 1119.63,1053.41    "/>
			<polygon class="st6" points="1282.63,1051.56 1282.63,1554.78 1226.63,1554.78 1226.63,1052.2    "/>
			<polygon class="st6" points="1389.63,1050.35 1389.63,1554.78 1333.63,1554.78 1333.63,1050.98    "/>
		</g>
	</g>
	<g id="_x33_D_Glasses">
		<polygon class="st5" points="1247.63,1541.78 1571.63,1329.78 1615.63,1441.78 1522.63,1521.78 1472.63,1488.78 1482.63,1545.78     1336.63,1628.78   "/>
		<polygon class="st8" points="1298.63,1539.78 1339.63,1590.78 1448.63,1539.78 1427.63,1462.78   "/>
		<polygon class="st3" points="1468.63,1436.78 1525.63,1488.78 1587.63,1436.78 1563.63,1361.78   "/>
		<path class="st5" d="M1247.52,1541.39c0,0-214.89-17.62-237.89,4.38c-23,22-21,68-1,58c20-10,28-34,43-36s245,17,245,17    L1247.52,1541.39z"/>
	</g>
	<g id="Ticket">
		<path class="st8" d="M1028.29,664.8c0,0,109.34-32.02,138.34-83.02l23,28c0,0-18,25-2,27s26-10,26-10l29,18c0,0-111,82-175,98    l-15-21c0,0,33-41-16.34-28.98L1028.29,664.8z"/>
		<path class="st8" d="M747.89,1457.28c0,0,99.96,54.67,156.53,39.12l-3.54,36.06c0,0-30.41,4.95-20.51,17.68    c9.9,12.73,25.46,11.31,25.46,11.31l7.78,33.23c0,0-136.47-20.51-193.04-54.45l4.24-25.46c0,0,52.33-5.66,8.94-32.05    L747.89,1457.28z"/>
	</g>
</g>
</svg>