<svg xmlns="http://www.w3.org/2000/svg" xmlns:xlink="http://www.w3.org/1999/xlink" version="1.1" id="Layer_1" x="0px" y="0px" viewBox="0 0 1080 1080" style="enable-background:new 0 0 1080 1080;" xml:space="preserve">
<style type="text/css">
	.st0{fill:none;stroke:#D3D3D3;stroke-miterlimit:10;stroke-dasharray:12.0598,12.0598;}
	.st1{fill:#F7F7F7;}
	.st2{fill:#F2F2F2;}
	.st3{fill:#1371B7;}
	.st4{fill:#0B4870;}
	.st5{fill:#1E88D8;}
	.st6{fill:#2A94F4;}
	.st7{fill:#FFBE55;}
	.st8{fill:#FFD4B0;}
	.st9{fill:#FFC99C;}
	.st10{fill:#FFE3CA;}
	.st11{fill:#48B1FF;}
	.st12{fill:none;stroke:#FFA42C;stroke-miterlimit:10;}
	.st13{fill:none;stroke:#FFBE55;stroke-miterlimit:10;}
	.st14{fill:none;stroke:#CCE9FF;stroke-miterlimit:10;}
	.st15{fill:#CCE9FF;}
	.st16{fill:#FFFFFF;}
	.st17{fill:#A7DBFC;}
	.st18{fill:#1A87D8;}
	.st19{fill:#B0E1FF;}
</style>
<g>
	<circle class="st0" cx="179" cy="393.8" r="80.6"/>
</g>
<g>
	<path class="st1" d="M257.5,303.9c-32.4,14.6-65.4,30.8-88.2,58.1c-7.6,9.1-14.1,20.2-13.5,32c1.2,22.1,26.5,35.2,48.6,35.2   s43.6-8.2,65.7-8.2c11.4,0,25.7,5.6,25.5,17c-0.1,6.8-5.6,12.2-10.7,16.7c-39,34.8-78,69.7-117,104.5c-13,11.6-26.4,23.8-33.1,39.8   c-6.8,16.1-4.8,37.2,9.2,47.6c9.2,6.9,21.4,7.7,32.9,8c52.1,0.9,104-7.1,155.3-16.5c181.3-33.4,359.2-85,530.2-153.7   c31.3-12.6,64.9-28.1,79.8-58.3c17.2-35-1.2-82.8-37.4-97.3c-21.6-8.6-46-6.2-68.9-10.4c-22.9-4.2-47.5-19.9-47.7-43.3   c-0.4-38.6,62-53.2,63.8-91.7c1-20.4-17.6-37.6-37.5-42s-40.6,0.9-60.1,7C754.5,148.4,401.2,239.3,257.5,303.9z"/>
</g>
<path class="st2" d="M1026.5,997.5h-964c-6.6,0-12-5.4-12-12v-59c0-6.6,5.4-12,12-12h964c6.6,0,12,5.4,12,12v59  C1038.5,992.1,1033.1,997.5,1026.5,997.5z"/>
<g>
	<path class="st3" d="M828.1,917c-0.6,14.6-20.8,45.2-17.4,51s38.2,15,45.6,0c7.3-15-6.7-40.3-6.7-51S828.1,917,828.1,917z"/>
	<path class="st3" d="M764.4,916.3c-8.8,15.3-49.3,40.9-52.5,48.8s75.3-0.3,92-20.4c-6-18.1-10.7-32.5-10.7-32.5L764.4,916.3z"/>
	<path class="st4" d="M803.6,532.7c10.4,7.5,37.9,70.6,28.8,222.9c25.2,90.6,18.3,168.8,18.3,168.8h-25.8c0,0-22.6-149.8-27.9-161.1   C791.7,752,738.2,591.4,758,533C777.9,474.6,803.6,532.7,803.6,532.7z"/>
	<path class="st4" d="M773.1,514.5c10.4,7.5,15.9,82,6.8,234.4c25.2,90.6,17.3,175.6,17.3,175.6h-39.4c0,0-8-156.6-13.2-167.9   c-5.3-11.3-58.8-165.1-38.9-223.5C725.5,474.6,773.1,514.5,773.1,514.5z"/>
	<path class="st5" d="M739.1,366.7c0,0-32,7.3-39.5,30.1c-7.5,22.8-18.2,85.8-14.6,91c3.6,5.2,11.6,13.1,16.6,6.4   C706.6,487.5,739.1,366.7,739.1,366.7z"/>
	<path class="st6" d="M825.8,366.3C819.1,356.8,777,346,777,346s-47.8,21.5-50.8,29.9s-10.6,48.9-16.7,59   c-6.1,10.1,5.2,43.5,5.2,43.5L698,563.1c0,0,81.7,2.1,120.3-7.6c1.2,2.1,4.1,6.4,9.6,11.5C941.8,492.9,832.5,375.9,825.8,366.3z    M824.7,544.6c-2.4-17.7-14.8-40-16.3-62.5c-1.8-27.7,11.2-55.3,18.3-59.5c0.1,0.1,0.2,0.3,0.3,0.4C865,471.8,847,534,824.7,544.6z   "/>
	<polygon class="st7" points="756.2,415.2 731.7,425.5 713.7,372.4 738.1,362.1  "/>
	<path class="st8" d="M714.5,405.9c0,0,9.1-20.2,15.2-18.5c6.1,1.7,24.3,5.1,24.3,10.1c0,5.1-25.8,13.5-25.8,13.5h-9.1L714.5,405.9z   "/>
	<path class="st8" d="M818.8,583.5c9.7-4.6,21.5-29.7-3.3-29.8c-11.4,0-12.4,24.4-12.4,24.4L818.8,583.5z"/>
	<path class="st3" d="M743.7,270.7c-4.7-15.7,0-38.5,17.8-39.9c17.8-1.4,41.6,15.6,40.2,29.8c-1.4,14.2-24.9,26.6-24.9,26.6   L743.7,270.7z"/>
	<path class="st3" d="M704.6,293.2c0,26.9,16.6,44.5,39.8,44.5s44-1.8,44-28.7s-17.9-54.5-41.1-54.5S704.6,266.3,704.6,293.2z"/>
	<g>
		<path class="st9" d="M760,319.4c4.6,8.4,16.7,27,16.7,27l-17.1,50.5l-10.2-34.5l-1.5-26.1L760,319.4z"/>
		<path class="st10" d="M760.7,299.7c9.1,16.7,2.1,44.8-11.5,54s-28.2-1.4-35.2-21.2c-9.1-16.7-8.1-37.2,5.5-46.4    S751.6,283,760.7,299.7z"/>
		<ellipse class="st10" cx="762.3" cy="306.8" rx="5.3" ry="10.1"/>
	</g>
	<path class="st11" d="M711.2,403.2c-17.3,25.4-48.7,87.7-13.1,94.6c8.5,1.6,26-79.5,27.4-86.5C721.3,405.1,711.2,403.2,711.2,403.2   z"/>
	<path class="st3" d="M716.6,280.3c11,17.1,37,35.3,51,28C775.6,287,741.6,258.4,716.6,280.3z"/>
	<path class="st3" d="M722.6,284c-2.4,17-8.9,30.8-19.8,32.9C699.5,294.1,701.8,280,722.6,284z"/>
	<ellipse class="st12" cx="767.3" cy="326.9" rx="4.6" ry="16.9"/>
</g>
<g>
	<path class="st7" d="M819.2,301.7c1.1-4.9,3.7-8.7,7.7-11.6c4.1-2.8,8.7-3.7,13.9-2.5s9.3,4,12.1,8.4c2.9,4.4,3.7,9.1,2.6,13.9   c-1.1,4.9-3.9,8.8-8.4,11.6c-4.5,2.8-9.4,3.6-14.6,2.4s-9-4-11.4-8.3C818.7,311.3,818.1,306.6,819.2,301.7z M862.1,184.2l5.2,1.2   c8.4,1.9,13.5,10.4,11.2,18.7l-17,60.9c-2.2,7.7-10,12.4-17.9,10.6h0c-7.9-1.8-13-9.5-11.5-17.5l11.8-62   C845.6,187.7,853.8,182.3,862.1,184.2z"/>
</g>
<g>
	<path class="st13" d="M825.8,310.7c1.1-4.9,3.7-8.7,7.7-11.6c4.1-2.8,8.7-3.7,13.9-2.5c5.2,1.2,9.3,4,12.1,8.4   c2.9,4.4,3.7,9.1,2.6,13.9c-1.1,4.9-3.9,8.8-8.4,11.6c-4.5,2.8-9.4,3.6-14.6,2.4s-9-4-11.4-8.3   C825.3,320.3,824.7,315.6,825.8,310.7z M868.7,193.2l5.2,1.2c8.4,1.9,13.5,10.4,11.2,18.7l-17,60.9c-2.2,7.7-10,12.4-17.9,10.6v0   c-7.9-1.8-13-9.5-11.5-17.5l11.8-62C852.2,196.7,860.4,191.3,868.7,193.2z"/>
</g>
<g>
	<path class="st14" d="M633.2,376.1H229.4c-6.6,0-12-5.4-12-12V248.9c0-6.6,5.4-12,12-12h403.8c6.6,0,12,5.4,12,12v115.2   C645.2,370.7,639.8,376.1,633.2,376.1z"/>
	<path class="st15" d="M619.2,362.1H215.4c-6.6,0-12-5.4-12-12V234.9c0-6.6,5.4-12,12-12h403.8c6.6,0,12,5.4,12,12v115.2   C631.2,356.7,625.8,362.1,619.2,362.1z"/>
	<circle class="st16" cx="266.2" cy="292.5" r="42.2"/>
	<path class="st17" d="M594,263.7H338c-3.7,0-6.7-3-6.7-6.7l0,0c0-3.7,3-6.7,6.7-6.7h256c3.7,0,6.7,3,6.7,6.7l0,0   C600.7,260.7,597.7,263.7,594,263.7z"/>
	<path class="st17" d="M594,297.5H338c-3.7,0-6.7-3-6.7-6.7v0c0-3.7,3-6.7,6.7-6.7h256c3.7,0,6.7,3,6.7,6.7v0   C600.7,294.5,597.7,297.5,594,297.5z"/>
	<path class="st17" d="M517.8,331.2H338c-3.7,0-6.7-3-6.7-6.7l0,0c0-3.7,3-6.7,6.7-6.7h179.9c3.7,0,6.7,3,6.7,6.7l0,0   C524.6,328.2,521.5,331.2,517.8,331.2z"/>
</g>
<g>
	<path class="st14" d="M633.2,560.2H229.4c-6.6,0-12-5.4-12-12V433c0-6.6,5.4-12,12-12h403.8c6.6,0,12,5.4,12,12v115.2   C645.2,554.8,639.8,560.2,633.2,560.2z"/>
	<path class="st15" d="M619.2,546.2H215.4c-6.6,0-12-5.4-12-12V419c0-6.6,5.4-12,12-12h403.8c6.6,0,12,5.4,12,12v115.2   C631.2,540.8,625.8,546.2,619.2,546.2z"/>
	<path class="st17" d="M594,447.8H235.4c-3.7,0-6.7-3-6.7-6.7v0c0-3.7,3-6.7,6.7-6.7H594c3.7,0,6.7,3,6.7,6.7v0   C600.7,444.8,597.7,447.8,594,447.8z"/>
	<path class="st17" d="M594,481.6H235.4c-3.7,0-6.7-3-6.7-6.7l0,0c0-3.7,3-6.7,6.7-6.7H594c3.7,0,6.7,3,6.7,6.7l0,0   C600.7,478.6,597.7,481.6,594,481.6z"/>
	<path class="st17" d="M488.8,515.3H235.4c-3.7,0-6.7-3-6.7-6.7v0c0-3.7,3-6.7,6.7-6.7h253.5c3.7,0,6.7,3,6.7,6.7v0   C495.6,512.3,492.5,515.3,488.8,515.3z"/>
</g>
<g>
	<path class="st14" d="M633.2,744.3H229.4c-6.6,0-12-5.4-12-12V617.1c0-6.6,5.4-12,12-12h403.8c6.6,0,12,5.4,12,12v115.2   C645.2,738.9,639.8,744.3,633.2,744.3z"/>
	<path class="st15" d="M619.2,730.3H215.4c-6.6,0-12-5.4-12-12V603.1c0-6.6,5.4-12,12-12h403.8c6.6,0,12,5.4,12,12v115.2   C631.2,724.9,625.8,730.3,619.2,730.3z"/>
	<path class="st17" d="M594,631.9H235.4c-3.7,0-6.7-3-6.7-6.7l0,0c0-3.7,3-6.7,6.7-6.7H594c3.7,0,6.7,3,6.7,6.7l0,0   C600.7,628.9,597.7,631.9,594,631.9z"/>
	<path class="st17" d="M594,665.7H235.4c-3.7,0-6.7-3-6.7-6.7l0,0c0-3.7,3-6.7,6.7-6.7H594c3.7,0,6.7,3,6.7,6.7l0,0   C600.7,662.6,597.7,665.7,594,665.7z"/>
	<path class="st17" d="M488.8,699.4H235.4c-3.7,0-6.7-3-6.7-6.7l0,0c0-3.7,3-6.7,6.7-6.7h253.5c3.7,0,6.7,3,6.7,6.7l0,0   C495.6,696.4,492.5,699.4,488.8,699.4z"/>
</g>
<g>
	<g>
		<g>
			<path class="st17" d="M286.8,309.6l-3.6-5.9c-1.6-2.7-2.5-5.9-2.5-9.1v-5.2c0-6.6-4.4-12.1-10.4-13.9v-3.7c0-2.3-1.9-4.2-4.2-4.2     s-4.2,1.9-4.2,4.2v3.7c-6,1.8-10.4,7.4-10.4,13.9v5.2c0,3.2-0.9,6.3-2.5,9.1l-3.6,5.9c-0.2,0.3-0.2,0.7,0,1     c0.2,0.3,0.5,0.5,0.9,0.5h39.4c0.4,0,0.7-0.2,0.9-0.5C287,310.4,287,310,286.8,309.6z"/>
		</g>
	</g>
	<g>
		<g>
			<path class="st17" d="M259.7,313.3c1.2,2.4,3.7,4.2,6.5,4.2s5.4-1.7,6.5-4.2H259.7z"/>
		</g>
	</g>
</g>
<g>
	<circle class="st7" cx="630.1" cy="229.9" r="49.5"/>
	<g>
		<path class="st16" d="M630.1,210c2.8,0,5.2,0.6,7.3,1.9c2.1,1.3,3.8,2.9,4.9,5c1.2,2.1,1.7,4.4,1.7,6.9c0,2.6-0.8,5.5-2.3,8.8    c-1.5,3.3-3.3,6.4-5.5,9.3c-2.2,2.9-4.3,5.4-6.4,7.4c-0.4,0.4-1,0.8-1.8,1.3c-0.4,0.3-1,0.4-1.7,0.4c-0.8,0-1.7-0.4-2.6-1.3    c-0.9-0.9-1.4-1.8-1.4-2.7c0-0.3,0.1-0.7,0.3-1c0.2-0.3,0.5-0.8,0.9-1.3c0.6-0.7,1.8-2.1,3.8-4.2c1.9-2.1,3.3-3.7,4-4.7l-0.1-0.1    c-1,0.5-2.2,0.7-3.5,0.7c-2.2,0-4.1-0.6-5.9-1.7c-1.8-1.2-3.2-2.7-4.2-4.6c-1-1.9-1.5-4-1.5-6.1c0-2.4,0.6-4.7,1.8-6.8    s2.9-3.8,5-5.1C625.1,210.6,627.5,210,630.1,210z M630.1,229.6c1.6,0,2.8-0.5,3.8-1.6c1-1.1,1.5-2.5,1.5-4.2c0-1.6-0.5-3-1.4-4.1    c-0.9-1.1-2.2-1.7-3.9-1.7c-1.6,0-2.9,0.6-3.8,1.7c-1,1.1-1.5,2.5-1.5,4.1c0,1.6,0.5,2.9,1.4,4.1    C627.1,229,628.4,229.6,630.1,229.6z"/>
	</g>
</g>
<g>
	<g>
		<g>
			<path class="st18" d="M970.8,853.9c-8.2-38.4-33.6-72.8-67.8-92c18.3,34.6,40.3,67.3,65.3,97.4L970.8,853.9z"/>
		</g>
		<g>
			<path class="st6" d="M980,868.4c-32.6-45.6-49-102.7-45.5-158.7c21.1,51.7,37.1,105.5,47.6,160.3L980,868.4z"/>
		</g>
		<g>
			<path class="st18" d="M970.7,869.9c-1-28.1-2-56.4,2.4-84.1c4.4-27.7,14.6-55.2,33.5-76.1c2.9,57.5-11,115.7-39.6,165.7     L970.7,869.9z"/>
		</g>
		<g>
			<path class="st19" d="M972,872.4c-18.4-53.1-15.4-113.2,8.2-164.2C995,761.5,982,818,968.9,871.7L972,872.4z"/>
		</g>
		<g>
			<path class="st6" d="M974.5,852.8c5.1-46.6,36.1-89.4,78.8-108.7c-17.3,46.5-46.9,88.3-85,120.1L974.5,852.8z"/>
		</g>
	</g>
	<path class="st15" d="M1018.4,844.6l-5.3,90.4c0,4.4-3.6,7.9-7.9,7.9h-62.7c-4.4,0-7.9-3.6-7.9-7.9l-1.2-20.4l-4.1-70   c0-4.4,3.6-7.9,7.9-7.9h73.3c2.9,0,5.4,1.5,6.8,3.8v0C1018,841.7,1018.4,843.1,1018.4,844.6z"/>
	<g>
		<path class="st15" d="M1018.4,844.6l-5.3,90.4c0,4.4-3.6,7.9-7.9,7.9h-62.7c-4.4,0-7.9-3.6-7.9-7.9l-1.2-20.4    c29.2-8.4,59.4-44.5,83.9-74.1C1018,841.7,1018.4,843.1,1018.4,844.6z"/>
	</g>
</g>
<g>
	<g>
		<g>
			<path class="st18" d="M111,869.5c-6.8-31.7-27.7-60-56-75.9c15.1,28.6,33.2,55.5,53.9,80.3L111,869.5z"/>
		</g>
		<g>
			<path class="st6" d="M118.6,881.4C91.6,843.8,78.1,796.7,81,750.5c17.4,42.6,30.6,87,39.3,132.3L118.6,881.4z"/>
		</g>
		<g>
			<path class="st18" d="M110.9,882.7c-0.8-23.2-1.6-46.5,2-69.4c3.6-22.9,12-45.6,27.6-62.7c2.4,47.4-9.1,95.4-32.6,136.7     L110.9,882.7z"/>
		</g>
		<g>
			<path class="st19" d="M112,884.8c-15.2-43.8-12.7-93.4,6.8-135.5c12.2,43.9,1.4,90.6-9.4,134.9L112,884.8z"/>
		</g>
		<g>
			<path class="st6" d="M114,868.5c4.2-38.4,29.8-73.8,65-89.7c-14.3,38.3-38.7,72.8-70.1,99.1L114,868.5z"/>
		</g>
	</g>
	<path class="st15" d="M150.2,861.8l-4.4,74.6c0,3.6-2.9,6.5-6.5,6.5H87.6c-3.6,0-6.5-2.9-6.5-6.5l-1-16.9l-3.4-57.7   c0-3.6,2.9-6.5,6.5-6.5h60.5c2.4,0,4.4,1.3,5.6,3.2v0C149.9,859.4,150.2,860.6,150.2,861.8z"/>
	<g>
		<path class="st15" d="M150.2,861.8l-4.4,74.6c0,3.6-2.9,6.5-6.5,6.5H87.6c-3.6,0-6.5-2.9-6.5-6.5l-1-16.9    c24.1-6.9,49-36.7,69.2-61.1C149.9,859.4,150.2,860.6,150.2,861.8z"/>
	</g>
</g>
</svg>