<svg xmlns="http://www.w3.org/2000/svg" xmlns:xlink="http://www.w3.org/1999/xlink" version="1.1" id="Layer_1" x="0px" y="0px" viewBox="0 0 1200 1200" enable-background="new 0 0 1200 1200" xml:space="preserve">
<g>
	<g>
		<path fill="#CCE9FF" d="M441.88,395.109c2.857,4.82,1.014,10.728-4.294,12.927l-85.115,35.271    c-5.216,2.161-10.878-0.636-12.271-6.063l-36.06-134.118c-1.302-5.468,1.715-11.647,7.114-13.885l46.495-19.267    c5.307-2.199,11.991-0.04,14.85,4.783L441.88,395.109z"/>
		<path fill="#CCE9FF" d="M303.168,473.388c5.576,1.552,8.462,7.22,6.134,12.477l-35.249,84.951    c-2.069,5.365-7.988,7.387-12.934,4.5l-120.072-69.272c-4.945-2.884-7.22-9.661-5.063-15.062l19.282-46.379    c2.157-5.401,8.507-8.458,14.078-6.909L303.168,473.388z"/>
		<path fill="#CCE9FF" d="M260.652,626.985c5.173-2.784,10.901-0.875,13.102,4.437l35.271,85.115    c2.199,5.308-0.422,10.897-6.124,12.404l-133.915,35.761c-5.52,1.427-11.793-1.547-13.993-6.854l-19.343-46.678    c-2.199-5.308,0.038-11.813,5.043-14.743L260.652,626.985z"/>
		<path fill="#CCE9FF" d="M339.289,765.763c1.47-5.762,6.902-8.438,12.338-6.188l85.085,35.305    c5.176,2.143,7.252,7.932,4.412,12.971l-69.28,120.075c-2.918,4.852-9.661,7.22-14.838,5.074l-46.691-19.256    c-5.177-2.147-8.457-8.503-6.983-14.267L339.289,765.763z"/>
		<path fill="#CCE9FF" d="M492.896,808.056c-3.041-4.744-1.015-10.731,4.384-12.969l85.02-35.231    c5.216-2.161,10.883,0.638,12.273,6.066l35.967,134.153c1.578,5.354-1.621,11.613-7.021,13.85l-46.582,19.303    c-5.216,2.161-11.901-0.001-14.76-4.825L492.896,808.056z"/>
		<path fill="#CCE9FF" d="M631.419,729.851c-5.57-1.549-8.273-7.293-5.949-12.549l35.177-85.135c2.142-5.18,8.06-7.202,13.097-4.356    l119.982,69.314c4.949,2.882,7.312,9.623,4.987,14.878l-19.202,46.561c-2.159,5.397-8.509,8.454-14.083,6.907L631.419,729.851z"/>
		<path fill="#CCE9FF" d="M673.941,576.256c-4.993,2.71-10.719,0.795-12.919-4.513l-35.271-85.115    c-2.199-5.308,0.418-10.895,5.94-12.328l134.099-35.837c5.52-1.427,11.793,1.547,13.993,6.854l19.341,46.674    c2.125,5.128-0.128,11.855-5.041,14.746L673.941,576.256z"/>
		<path fill="#CCE9FF" d="M595.487,437.402c-1.475,5.76-6.982,8.256-12.338,6.188l-85.089-35.303    c-5.356-2.069-7.252-7.932-4.408-12.972l69.276-120.073c2.92-4.857,9.661-7.22,14.839-5.073l46.691,19.256    c5.18,2.142,8.277,8.578,6.91,14.081L595.487,437.402z"/>
		<path fill="#CCE9FF" d="M355.298,329.541c-150.186,62.235-221.467,234.396-159.27,384.49    c62.197,150.094,234.358,221.376,384.544,159.14c150.094-62.197,221.192-234.282,158.995-384.376    C677.369,338.701,505.392,267.344,355.298,329.541z M539.538,774.149c-95.455,39.555-205.058-5.752-244.576-101.115    c-39.519-95.367,5.914-204.915,101.369-244.47c95.091-39.405,204.785,5.861,244.304,101.227    C680.153,625.154,634.63,734.744,539.538,774.149z"/>
	</g>
</g>
<g>
	<g>
		<path fill="#CCE9FF" d="M848.858,846.818c1.171,2.065,0.381,4.521-1.887,5.461l-36.578,15.157    c-2.268,0.94-4.651-0.201-5.284-2.489l-15.47-57.607c-0.615-2.513,0.627-5.156,2.986-6.134l19.969-8.275    c2.268-0.94,5.197-0.025,6.449,2.224L848.858,846.818z"/>
		<path fill="#CCE9FF" d="M789.208,880.467c2.418,0.7,3.579,2.987,2.617,5.296l-15.18,36.495c-0.871,2.272-3.412,3.324-5.521,2.074    l-51.619-29.867c-2.118-1.251-3.066-4.052-2.178-6.544l8.273-19.806c0.959-2.308,3.697-3.656,6.11-2.959L789.208,880.467z"/>
		<path fill="#CCE9FF" d="M770.957,946.52c2.12-1.305,4.61-0.422,5.589,1.941l15.118,36.483c0.977,2.359-0.158,4.744-2.58,5.321    l-57.644,15.382c-2.256,0.721-5.063-0.67-5.967-2.85l-8.347-20.143c-0.904-2.18,0.006-5.112,2.202-6.235L770.957,946.52z"/>
		<path fill="#CCE9FF" d="M804.7,1006.127c0.697-2.413,2.984-3.574,5.294-2.621l36.548,15.06c2.31,0.953,3.182,3.573,1.892,5.596    l-29.738,51.672c-1.216,2.201-4.181,3.003-6.32,2.192l-20.118-8.254c-2.22-0.995-3.622-3.604-2.997-6.205L804.7,1006.127z"/>
		<path fill="#CCE9FF" d="M870.715,1024.287c-1.266-2.026-0.388-4.518,1.97-5.496l36.487-15.12c2.268-0.94,4.659,0.198,5.288,2.488    l15.466,57.609c0.708,2.47-0.627,5.156-2.985,6.134l-20.056,8.311c-2.18,0.904-5.111-0.015-6.362-2.26L870.715,1024.287z"/>
		<path fill="#CCE9FF" d="M930.27,990.677c-2.42-0.704-3.488-3.024-2.53-5.332l15.108-36.679c0.943-2.088,3.483-3.141,5.596-1.893    l51.619,29.867c2.114,1.252,3.151,4.012,2.103,6.362l-8.197,19.988c-0.963,2.309-3.701,3.657-6.114,2.96L930.27,990.677z"/>
		<path fill="#CCE9FF" d="M948.521,924.623c-2.029,1.268-4.523,0.386-5.502-1.976l-15.118-36.483    c-0.979-2.362,0.162-4.746,2.493-5.285l57.734-15.42c2.252-0.72,5.058,0.668,5.961,2.848l8.349,20.147    c0.904,2.181-0.096,5.15-2.199,6.23L948.521,924.623z"/>
		<path fill="#CCE9FF" d="M914.87,864.98c-0.701,2.414-2.984,3.574-5.296,2.617l-36.547-15.056    c-2.312-0.957-3.182-3.573-1.892-5.596l29.738-51.672c1.212-2.2,4.175-3.005,6.324-2.194l20.115,8.256    c2.219,0.991,3.529,3.638,2.918,6.025L914.87,864.98z"/>
		<path fill="#CCE9FF" d="M811.653,818.634c-64.62,26.778-95.235,100.718-68.532,165.157    c26.778,64.62,100.718,95.235,165.339,68.457c64.529-26.74,95.052-100.643,68.275-165.263    C950.031,822.546,876.182,791.894,811.653,818.634z M890.858,1009.772c-41.114,17.037-88.264-2.561-105.263-43.583    c-16.924-40.841,2.545-88.044,43.658-105.081c40.844-16.925,88.081,2.636,105.005,43.477    C951.258,945.607,931.702,992.847,890.858,1009.772z"/>
	</g>
</g>
<g>
	<path fill="#FFBE55" d="M540.787,293.661c0,0.058,0,0.105,0,0.152V438.2c0,16.034,6.521,30.583,17.039,41.066   c10.518,10.541,25.032,17.051,41.09,17.051c32.103,0,58.164-26.049,58.164-58.117V293.813c0-0.047,0-0.094,0-0.152H540.787z"/>
	<rect x="546.443" y="430.592" fill="#FFBE55" width="98.576" height="82.483"/>
	<path fill="#0B4870" d="M598.94,408.271c-23.771,0-43.1-19.341-43.1-43.1c0-23.771,19.329-43.088,43.1-43.088   c23.747,0,43.088,19.318,43.088,43.088C642.027,388.929,622.687,408.271,598.94,408.271z"/>
	<polygon fill="#0B4870" points="568.157,513.075 568.157,430.592 540.787,430.592 501.801,547.796  "/>
	<polygon fill="#0B4870" points="629.85,513.075 629.85,430.592 657.221,430.592 696.207,547.796  "/>
	<polygon fill="#0B4870" points="598.94,164.84 598.94,164.84 540.787,293.813 657.08,293.813  "/>
	<g>
		<path fill="#2A94F4" d="M620.887,343.609c4.43,4.534,7.188,10.074,8.285,15.894c1.801,9.735-1.098,20.206-8.683,27.639    c-12.131,11.897-31.647,11.698-43.544-0.421c-7.433-7.596-10.144-18.091-8.157-27.802c1.215-5.796,4.067-11.289,8.578-15.718    C589.473,331.315,609.014,331.501,620.887,343.609z"/>
	</g>
	<g>
		<path fill="#CCE9FF" d="M620.887,343.609c4.43,4.534,7.188,10.074,8.285,15.894c-1.215,5.773-4.066,11.277-8.566,15.718    c-12.13,11.885-31.67,11.698-43.543-0.409c-4.441-4.534-7.175-10.074-8.274-15.894c1.215-5.796,4.067-11.289,8.578-15.718    C589.473,331.315,609.014,331.501,620.887,343.609z"/>
	</g>
	<g>
		<path fill="#FFFFFF" d="M615.979,351.731c-0.654,0.607-1.66,0.596-2.268-0.035c-8.087-8.216-21.339-8.344-29.543-0.292    c-0.654,0.631-1.636,0.619-2.267-0.012c-0.608-0.62-0.584-1.613,0.023-2.244c9.489-9.302,24.775-9.139,34.055,0.327    C616.609,350.106,616.586,351.1,615.979,351.731z"/>
	</g>
	<path fill="#FFFFFF" d="M598.846,342.732c0.654,0.654,0.631,1.694-0.023,2.337c-0.654,0.643-1.683,0.643-2.337-0.012   c-0.631-0.654-0.631-1.706,0.023-2.349C597.186,342.066,598.215,342.078,598.846,342.732z"/>
	<path fill="#FFFFFF" d="M602.889,344.147c0.375,0.362,0.352,0.981-0.023,1.332c-0.373,0.374-0.98,0.362-1.332-0.012   c-0.373-0.374-0.373-0.97,0.023-1.332C601.908,343.772,602.516,343.772,602.889,344.147z"/>
	<rect x="568.157" y="513.075" fill="#D3D3D3" width="61.015" height="265.261"/>
</g>
<g>
	<path fill="#0E538C" d="M641.817,910.628h-28.983h-27.65h-28.982c0,0,6.907,121.493-35.644,121.493h64.626h27.65h64.627   C634.898,1032.121,641.817,910.628,641.817,910.628z"/>
	<path fill="#0B4870" d="M871.084,599.614H326.912c-8.636,0-15.648,6.988-15.648,15.636v320.668v3.225v24.869   c0,7.527,6.112,13.65,13.65,13.65h548.204c7.503,0,13.627-6.123,13.627-13.65v-24.869v-3.225V615.25   C886.744,606.602,879.756,599.614,871.084,599.614z"/>
	<rect x="329.939" y="617.682" fill="#F2F2F2" width="538.153" height="288.926"/>
	<rect x="329.728" y="904.225" fill="#D3D3D3" width="538.551" height="16.828"/>
	<path fill="#0E538C" d="M613.15,948.68c0,7.807-6.322,14.117-14.141,14.117c-7.807,0-14.141-6.311-14.141-14.117   c0-7.854,6.334-14.164,14.141-14.164C606.828,934.516,613.15,940.826,613.15,948.68z"/>
	<rect x="518.933" y="1029.737" fill="#0B4870" width="160.141" height="5.423"/>
</g>
<g>
	<rect x="453.488" y="681.338" fill="#FFFFFF" width="304.143" height="188.995"/>
	<rect x="453.488" y="666.332" fill="#2A94F4" width="304.143" height="15.006"/>
	<polygon fill="#FFBE55" points="513.651,735.844 546.42,735.844 530.047,725.84 513.651,715.884 497.254,725.84 480.87,735.844     "/>
	<polygon fill="#FFBE55" points="587.019,735.844 636.301,735.844 611.654,718.688 587.019,701.532 562.372,718.688    537.725,735.844  "/>
	<polygon fill="#FFBE55" points="666.896,735.844 735.496,735.844 701.185,728.225 666.896,720.652 632.562,728.225    598.285,735.844  "/>
	<rect x="474.98" y="802.317" fill="#CCE9FF" width="7.818" height="40.856"/>
	<rect x="489.097" y="822.745" fill="#CCE9FF" width="7.807" height="20.429"/>
	<rect x="503.203" y="791.473" fill="#CCE9FF" width="7.818" height="51.701"/>
	<rect x="680.43" y="801.148" fill="#CCE9FF" width="11.803" height="40.856"/>
	<rect x="701.746" y="821.576" fill="#CCE9FF" width="11.803" height="20.429"/>
	<rect x="723.063" y="790.303" fill="#CCE9FF" width="11.803" height="51.702"/>
	<rect x="517.32" y="783.338" fill="#CCE9FF" width="7.818" height="59.836"/>
	<rect x="563.19" y="783.338" fill="#2A94F4" width="94.988" height="59.836"/>
	<polygon fill="#FFFFFF" points="563.19,843.174 584.039,820.127 602.586,832.982 631.533,798.391 658.178,843.174  "/>
</g>
</svg>