<svg xmlns="http://www.w3.org/2000/svg" xmlns:xlink="http://www.w3.org/1999/xlink" version="1.1" id="Layer_1" x="0px" y="0px" width="300px" height="300px" viewBox="0 0 300 300" enable-background="new 0 0 300 300" xml:space="preserve">
<g>
	<path fill="#F2F2F2" d="M112.83,102.06h-0.26c-9.6,0-17.98,8.159-18.2,17.84c-0.25,10.26,8.1,18.91,18.25,18.91   c9.7,0,18.07-8.24,18.34-18.061C131.24,111.009,122.72,102.209,112.83,102.06z M112.83,102.06h-0.26c-9.6,0-17.98,8.159-18.2,17.84   c-0.25,10.26,8.1,18.91,18.25,18.91c9.7,0,18.07-8.24,18.34-18.061C131.24,111.009,122.72,102.209,112.83,102.06z M112.83,102.06   h-0.26c-9.6,0-17.98,8.159-18.2,17.84c-0.25,10.26,8.1,18.91,18.25,18.91c9.7,0,18.07-8.24,18.34-18.061   C131.24,111.009,122.72,102.209,112.83,102.06z M112.83,102.06h-0.26c-9.6,0-17.98,8.159-18.2,17.84   c-0.25,10.26,8.1,18.91,18.25,18.91c9.7,0,18.07-8.24,18.34-18.061C131.24,111.009,122.72,102.209,112.83,102.06z M246.74,68.489   h-21.42c-0.67,2.99-2.03,5.72-3.88,8.03c-3.66,4.54-9.26,7.449-15.52,7.449h-0.09c-6.24-0.029-11.77-2.93-15.36-7.449   c-1.83-2.311-3.16-5.04-3.82-8.03h-21.33c0.01,0.22,0.03,0.44,0.05,0.66c0.08,0.93,1.36,2.24,2.34,2.53   c2.42,0.72,4.99,0.92,7.48,1.359c2.78,0.5,4.17,1.7,4.08,3.48c-0.03,0.87-0.42,1.88-1.18,3.02c-1.46,2.21-2.97,4.391-4.55,6.5   c-1.02,1.32-1.05,2.351,0.21,3.57c2.37,2.25,4.53,4.74,7.04,6.85c0.43,0.37,1.23,0.561,2,0.561c0.54,0,1.07-0.101,1.43-0.29   c2.23-1.181,4.19-2.851,6.27-4.29c1.42-0.99,2.59-1.49,3.55-1.49c1.64,0,2.64,1.45,3.15,4.4c0.42,2.409,0.62,4.859,1.34,7.17   c0.31,0.979,1.64,2.21,2.6,2.3c1.32,0.13,2.65,0.16,3.97,0.16c1.4,0,2.79-0.03,4.18-0.03c0.46,0,0.92,0,1.38,0.01h0.1   c1.75,0,2.6-0.81,2.84-2.56c0.36-2.61,0.77-5.22,1.28-7.82c0.48-2.46,1.61-3.729,3.23-3.729c0.85,0,1.84,0.359,2.94,1.08   c2.31,1.51,4.57,3.09,6.76,4.739c0.66,0.5,1.25,0.75,1.82,0.75c0.69,0,1.34-0.359,2.03-1.09c2.17-2.31,4.61-4.399,6.63-6.82   c0.62-0.76,0.73-2.619,0.24-3.489c-1.42-2.45-3.35-4.62-4.94-6.99c-0.59-0.89-0.9-1.74-0.94-2.51c-0.07-1.641,1.12-2.88,3.38-3.351   c2.68-0.569,5.4-1.029,8.12-1.39c1.78-0.23,2.63-0.96,2.6-2.85C246.75,68.779,246.74,68.64,246.74,68.489z M165.35,109.949   c-3.61-0.46-7.22-1.1-10.79-1.78c-5.12-0.97-6.56-4.189-3.76-8.52c1.74-2.681,3.68-5.25,5.5-7.891c0.82-1.17,1.54-2.42,2.32-3.659   c-0.45-0.841-0.68-1.57-1.16-2.051c-3.15-3.229-6.24-6.54-9.58-9.529c-0.33-0.301-0.67-0.601-1.01-0.891   c-0.37-0.33-1.05-0.479-1.8-0.479c-0.96,0-2.02,0.24-2.68,0.62c-0.41,0.239-0.81,0.489-1.2,0.75c-2.53,1.64-4.86,3.62-7.33,5.359   c-1.59,1.12-3.05,1.66-4.31,1.66c-2.27,0-3.9-1.77-4.53-5.18c-0.11-0.61-0.23-1.23-0.34-1.84c-0.5-2.67-0.99-5.34-1.3-8.03h-21.34   c-0.32,2.69-0.81,5.36-1.32,8.03c-0.1,0.54-0.2,1.09-0.3,1.63c-0.66,3.53-2.26,5.359-4.56,5.359c-1.21,0-2.62-0.51-4.19-1.529   c-2.66-1.75-5.29-3.55-7.83-5.46c-0.37-0.271-0.74-0.551-1.11-0.83c-0.95-0.721-1.78-1.101-2.59-1.101   c-0.89,0-1.75,0.471-2.68,1.46c-0.15,0.16-0.3,0.311-0.45,0.471c-2.86,3.029-5.8,5.97-8.82,8.81c-1.86,1.771-1.89,3.32-0.37,5.311   c2.32,3.01,4.55,6.069,6.64,9.229c2.77,4.14,1.46,7.38-3.37,8.36c-3.71,0.75-7.55,1.02-11.18,2.029   c-1.36,0.391-3.13,2.261-3.24,3.57c-0.41,4.48-0.39,9.05,0,13.54c0.11,1.29,1.88,3.1,3.24,3.5c3.34,0.98,6.88,1.26,10.31,1.88   c5.71,1.01,7.14,4.19,4,8.95c-2.02,3.05-4.1,6.04-6.29,8.96c-1.39,1.83-1.44,3.25,0.3,4.91c3.27,3.12,6.26,6.54,9.7,9.46   c0.6,0.5,1.72,0.76,2.79,0.76c0.74,0,1.46-0.12,1.96-0.39c3.06-1.63,5.76-3.92,8.64-5.92c1.94-1.36,3.56-2.05,4.88-2.05   c2.25,0,3.64,2,4.35,6.079c0.58,3.301,0.84,6.69,1.84,9.86c0.42,1.36,2.27,3.07,3.6,3.18c1.85,0.17,3.71,0.221,5.58,0.221   c1.82,0,3.65-0.04,5.47-0.04c0.69,0,1.37,0,2.06,0.02h0.15c2.42,0,3.59-1.12,3.91-3.52c0.5-3.62,1.08-7.221,1.77-10.79   c0.66-3.391,2.22-5.141,4.45-5.141c1.18,0,2.55,0.49,4.07,1.49c3.16,2.08,6.27,4.26,9.31,6.53c0.92,0.68,1.73,1.02,2.51,1.02   c0.95,0,1.85-0.5,2.8-1.489c2.99-3.181,6.35-6.061,9.13-9.41c0.85-1.03,1.02-3.601,0.33-4.8c-1.95-3.391-4.62-6.37-6.79-9.641   c-2.59-3.88-1.23-7.12,3.34-8.09c3.69-0.77,7.44-1.42,11.19-1.9c2.46-0.319,3.65-1.34,3.58-3.92c-0.09-4.37-0.09-8.76,0-13.13   C168.91,111.439,167.84,110.279,165.35,109.949z M112.62,147.81h-0.15c-15.06-0.08-27.09-12.21-27.11-27.341   c-0.01-15.25,12.12-27.409,27.28-27.409h0.16c15,0.1,27.18,12.319,27.2,27.33C140.03,135.499,127.72,147.81,112.62,147.81z    M112.83,102.06h-0.26c-9.6,0-17.98,8.159-18.2,17.84c-0.25,10.26,8.1,18.91,18.25,18.91c9.7,0,18.07-8.24,18.34-18.061   C131.24,111.009,122.72,102.209,112.83,102.06z M112.83,102.06h-0.26c-9.6,0-17.98,8.159-18.2,17.84   c-0.25,10.26,8.1,18.91,18.25,18.91c9.7,0,18.07-8.24,18.34-18.061C131.24,111.009,122.72,102.209,112.83,102.06z M112.83,102.06   h-0.26c-9.6,0-17.98,8.159-18.2,17.84c-0.25,10.26,8.1,18.91,18.25,18.91c9.7,0,18.07-8.24,18.34-18.061   C131.24,111.009,122.72,102.209,112.83,102.06z"/>
	<path fill="#F2F2F2" d="M272.09,78.369v137.28c0,5.46-4.42,9.88-9.88,9.88H40.91c-5.45,0-9.88-4.42-9.88-9.88V78.369   c0-5.46,4.43-9.88,9.88-9.88h36.55c-1.7,0.53-3.29,1.57-4.74,3.11c-1.55,1.649-3.15,3.3-4.78,4.92H43.52   c-1.82,0-3.29,1.47-3.29,3.29v108.729c0,1.811,1.47,3.29,3.29,3.29h215.81c1.81,0,3.29-1.479,3.29-3.29V79.81   c0-1.82-1.48-3.29-3.29-3.29h-9.73c2.37-1.641,3.71-4.351,3.65-7.7v-0.061c0-0.09,0-0.18-0.01-0.27h8.97   C267.67,68.489,272.09,72.909,272.09,78.369z"/>
	<path fill="#57A4FF" d="M262.62,79.81v108.729c0,1.811-1.48,3.29-3.29,3.29H43.52c-1.82,0-3.29-1.479-3.29-3.29V79.81   c0-1.82,1.47-3.29,3.29-3.29h24.42c-1.38,1.38-2.79,2.739-4.21,4.08c-4.22,4.01-4.62,9.359-1.07,13.989   c2.04,2.65,3.85,5.13,5.51,7.57c-0.79,0.13-1.61,0.25-2.45,0.38c-2.44,0.36-4.96,0.74-7.56,1.46l-0.03,0.01l-0.02,0.011   c-3.51,1.01-7.53,4.84-7.91,9.25c-0.44,4.75-0.44,9.689,0,14.66c0.38,4.369,4.4,8.159,7.9,9.18c2.66,0.78,5.26,1.16,7.78,1.53   c0.8,0.119,1.58,0.229,2.33,0.359c-1.91,2.86-3.71,5.41-5.47,7.75c-3.46,4.561-3.09,9.62,1,13.521c1.15,1.1,2.27,2.239,3.45,3.449   c2.05,2.091,4.16,4.25,6.54,6.271c2.39,2,5.4,2.3,6.99,2.3c1.28,0,3.17-0.189,4.96-1.12l0.03-0.01l0.03-0.02   c2.51-1.351,4.67-2.94,6.75-4.48c0.61-0.45,1.2-0.89,1.78-1.31c0.1,0.659,0.2,1.34,0.3,2.04c0.37,2.56,0.76,5.199,1.61,7.93   c1.07,3.41,4.9,7.31,9.22,7.7c1.8,0.17,3.71,0.25,6.17,0.25c0.94,0,1.87-0.011,2.81-0.021c0.89-0.01,1.78-0.02,2.66-0.02   c0.64,0,1.27,0,1.91,0.02h0.3c5.64,0,9.6-3.51,10.35-9.17c0.46-3.28,0.94-6.28,1.46-9.08c2.66,1.78,5.29,3.641,7.81,5.53   c2.06,1.53,4.21,2.31,6.4,2.31c2.76,0,5.28-1.18,7.5-3.5c1.09-1.159,2.22-2.26,3.41-3.43c2.01-1.96,4.1-4,6.03-6.32   c2.59-3.149,3.01-8.6,0.96-12.189c-1.36-2.351-2.91-4.4-4.4-6.391c-0.55-0.72-1.07-1.409-1.57-2.1c3.1-0.6,6.08-1.09,8.89-1.45   c5.96-0.79,9.41-4.729,9.26-10.54c-0.09-4.239-0.09-8.56,0-12.819c0.12-5.78-3.39-9.841-9.15-10.591   c-3.26-0.42-6.5-0.989-9.17-1.489c0.78-1.16,1.61-2.311,2.47-3.521c0.72-1.01,1.45-2.02,2.15-3.05c0.65-0.92,1.21-1.85,1.76-2.74   c0.24-0.38,0.47-0.76,0.71-1.14l2.05-3.24l-1.85-3.36c-0.08-0.159-0.15-0.31-0.22-0.449c-0.37-0.771-0.92-1.931-2.01-3.03   c-0.64-0.66-1.29-1.33-1.93-1.99c-0.95-0.99-1.92-1.979-2.9-2.979h5.84c0.88,0.64,1.82,1.12,2.73,1.39   c1.68,0.49,3.31,0.78,4.83,1.01c-0.8,1.15-1.56,2.21-2.31,3.19c-3.02,3.97-2.67,8.75,0.89,12.18c0.85,0.8,1.65,1.63,2.51,2.5   c1.5,1.54,3.06,3.13,4.84,4.641c2.16,1.819,4.81,2.09,6.2,2.09c1.15,0,2.86-0.19,4.5-1.061c1.47-0.779,2.81-1.7,4.02-2.58   c0.23,1.45,0.52,3,1.01,4.58c0.97,3.03,4.15,6.431,8.16,6.83c1.4,0.13,2.81,0.19,4.62,0.19c0.73,0,1.45-0.011,2.17-0.021   c0.67-0.01,1.34-0.01,2.01-0.01c0.41,0,0.83,0,1.24,0.01h0.24c4.96,0,8.6-3.21,9.28-8.17c0.19-1.37,0.38-2.63,0.57-3.81   c1.11,0.779,2.21,1.569,3.29,2.39c1.81,1.36,3.74,2.05,5.73,2.05c1.73,0,4.3-0.54,6.74-3.109c0.77-0.82,1.58-1.61,2.44-2.45   c1.49-1.45,3.03-2.96,4.48-4.7c2.34-2.84,2.74-7.59,0.9-10.84l-0.02-0.03l-0.01-0.03c-0.86-1.47-1.79-2.77-2.72-4   c1.18-0.199,2.36-0.38,3.56-0.54c1.79-0.229,3.34-0.81,4.6-1.699h9.73C261.14,76.52,262.62,77.989,262.62,79.81z"/>
	<path fill="#999999" d="M186.36,262.319h-69.6l1.44-2.47c6.09-10.46,9.55-22.23,10.09-34.32h46.54c0.54,12.09,4,23.86,10.08,34.32   L186.36,262.319z"/>
	<path fill="#F2F2F2" d="M194.523,278.523h-85.929c-4.471,0-8.1-3.628-8.1-8.102s3.628-8.102,8.1-8.102h85.929   c4.474,0,8.102,3.628,8.102,8.102S198.997,278.523,194.523,278.523z"/>
</g>
<g>
	<g>
		<g>
			<path fill-rule="evenodd" clip-rule="evenodd" fill="#FFBE55" d="M168.85,113.959c0.06-2.52-1.01-3.68-3.5-4.01     c-3.61-0.46-7.22-1.1-10.79-1.78c-5.12-0.97-6.56-4.189-3.76-8.52c1.74-2.681,3.68-5.25,5.5-7.891     c0.82-1.17,1.54-2.42,2.32-3.659c-0.45-0.841-0.68-1.57-1.16-2.051c-3.15-3.229-6.24-6.54-9.58-9.529     c-0.33-0.301-0.67-0.601-1.01-0.891c-0.37-0.33-1.05-0.479-1.8-0.479c-0.96,0-2.02,0.24-2.68,0.62     c-0.41,0.239-0.81,0.489-1.2,0.75c-2.53,1.64-4.86,3.62-7.33,5.359c-1.59,1.12-3.05,1.66-4.31,1.66c-2.27,0-3.9-1.77-4.53-5.18     c-0.11-0.61-0.23-1.23-0.34-1.84c-0.5-2.67-0.99-5.34-1.3-8.03c-0.02-0.16-0.04-0.33-0.06-0.49c-0.32-2.84-1.68-3.88-4.31-3.88     h-0.31c-2.04,0.061-4.08,0.09-6.12,0.09c-2.05,0-4.09-0.029-6.13-0.069c-0.09-0.011-0.18-0.011-0.26-0.011     c-2.46,0-3.78,0.931-4.07,3.66c-0.02,0.23-0.05,0.47-0.08,0.7c-0.32,2.69-0.81,5.36-1.32,8.03c-0.1,0.54-0.2,1.09-0.3,1.63     c-0.66,3.53-2.26,5.359-4.56,5.359c-1.21,0-2.62-0.51-4.19-1.529c-2.66-1.75-5.29-3.55-7.83-5.46     c-0.37-0.271-0.74-0.551-1.11-0.83c-0.95-0.721-1.78-1.101-2.59-1.101c-0.89,0-1.75,0.471-2.68,1.46     c-0.15,0.16-0.3,0.311-0.45,0.471c-2.86,3.029-5.8,5.97-8.82,8.81c-1.86,1.771-1.89,3.32-0.37,5.311     c2.32,3.01,4.55,6.069,6.64,9.229c2.77,4.14,1.46,7.38-3.37,8.36c-3.71,0.75-7.55,1.02-11.18,2.029     c-1.36,0.391-3.13,2.261-3.24,3.57c-0.41,4.48-0.39,9.05,0,13.54c0.11,1.29,1.88,3.1,3.24,3.5c3.34,0.98,6.88,1.26,10.31,1.88     c5.71,1.01,7.14,4.19,4,8.95c-2.02,3.05-4.1,6.04-6.29,8.96c-1.39,1.83-1.44,3.25,0.3,4.91c3.27,3.12,6.26,6.54,9.7,9.46     c0.6,0.5,1.72,0.76,2.79,0.76c0.74,0,1.46-0.12,1.96-0.39c3.06-1.63,5.76-3.92,8.64-5.92c1.94-1.36,3.56-2.05,4.88-2.05     c2.25,0,3.64,2,4.35,6.079c0.58,3.301,0.84,6.69,1.84,9.86c0.42,1.36,2.27,3.07,3.6,3.18c1.85,0.17,3.71,0.221,5.58,0.221     c1.82,0,3.65-0.04,5.47-0.04c0.69,0,1.37,0,2.06,0.02h0.15c2.42,0,3.59-1.12,3.91-3.52c0.5-3.62,1.08-7.221,1.77-10.79     c0.66-3.391,2.22-5.141,4.45-5.141c1.18,0,2.55,0.49,4.07,1.49c3.16,2.08,6.27,4.26,9.31,6.53c0.92,0.68,1.73,1.02,2.51,1.02     c0.95,0,1.85-0.5,2.8-1.489c2.99-3.181,6.35-6.061,9.13-9.41c0.85-1.03,1.02-3.601,0.33-4.8c-1.95-3.391-4.62-6.37-6.79-9.641     c-2.59-3.88-1.23-7.12,3.34-8.09c3.69-0.77,7.44-1.42,11.19-1.9c2.46-0.319,3.65-1.34,3.58-3.92     C168.76,122.719,168.76,118.329,168.85,113.959z M112.62,147.81h-0.15c-15.06-0.08-27.09-12.21-27.11-27.341     c-0.01-15.25,12.12-27.409,27.28-27.409h0.16c15,0.1,27.18,12.319,27.2,27.33C140.03,135.499,127.72,147.81,112.62,147.81z"/>
			<path fill="#FFBE55" d="M112.83,102.06h-0.26c-9.6,0-17.98,8.159-18.2,17.84c-0.25,10.26,8.1,18.91,18.25,18.91     c9.7,0,18.07-8.24,18.34-18.061C131.24,111.009,122.72,102.209,112.83,102.06z M112.83,102.06h-0.26     c-9.6,0-17.98,8.159-18.2,17.84c-0.25,10.26,8.1,18.91,18.25,18.91c9.7,0,18.07-8.24,18.34-18.061     C131.24,111.009,122.72,102.209,112.83,102.06z M168.85,113.959c0.06-2.52-1.01-3.68-3.5-4.01c-3.61-0.46-7.22-1.1-10.79-1.78     c-5.12-0.97-6.56-4.189-3.76-8.52c1.74-2.681,3.68-5.25,5.5-7.891c0.82-1.17,1.54-2.42,2.32-3.659     c-0.45-0.841-0.68-1.57-1.16-2.051c-3.15-3.229-6.24-6.54-9.58-9.529c-0.33-0.301-0.67-0.601-1.01-0.891     c-0.37-0.33-1.05-0.479-1.8-0.479c-0.96,0-2.02,0.24-2.68,0.62c-0.41,0.239-0.81,0.489-1.2,0.75c-2.53,1.64-4.86,3.62-7.33,5.359     c-1.59,1.12-3.05,1.66-4.31,1.66c-2.27,0-3.9-1.77-4.53-5.18c-0.11-0.61-0.23-1.23-0.34-1.84c-0.5-2.67-0.99-5.34-1.3-8.03     c-0.02-0.16-0.04-0.33-0.06-0.49c-0.32-2.84-1.68-3.88-4.31-3.88h-0.31c-2.04,0.061-4.08,0.09-6.12,0.09     c-2.05,0-4.09-0.029-6.13-0.069c-0.09-0.011-0.18-0.011-0.26-0.011c-2.46,0-3.78,0.931-4.07,3.66c-0.02,0.23-0.05,0.47-0.08,0.7     c-0.32,2.69-0.81,5.36-1.32,8.03c-0.1,0.54-0.2,1.09-0.3,1.63c-0.66,3.53-2.26,5.359-4.56,5.359c-1.21,0-2.62-0.51-4.19-1.529     c-2.66-1.75-5.29-3.55-7.83-5.46c-0.37-0.271-0.74-0.551-1.11-0.83c-0.95-0.721-1.78-1.101-2.59-1.101     c-0.89,0-1.75,0.471-2.68,1.46c-0.15,0.16-0.3,0.311-0.45,0.471c-2.86,3.029-5.8,5.97-8.82,8.81     c-1.86,1.771-1.89,3.32-0.37,5.311c2.32,3.01,4.55,6.069,6.64,9.229c2.77,4.14,1.46,7.38-3.37,8.36     c-3.71,0.75-7.55,1.02-11.18,2.029c-1.36,0.391-3.13,2.261-3.24,3.57c-0.41,4.48-0.39,9.05,0,13.54c0.11,1.29,1.88,3.1,3.24,3.5     c3.34,0.98,6.88,1.26,10.31,1.88c5.71,1.01,7.14,4.19,4,8.95c-2.02,3.05-4.1,6.04-6.29,8.96c-1.39,1.83-1.44,3.25,0.3,4.91     c3.27,3.12,6.26,6.54,9.7,9.46c0.6,0.5,1.72,0.76,2.79,0.76c0.74,0,1.46-0.12,1.96-0.39c3.06-1.63,5.76-3.92,8.64-5.92     c1.94-1.36,3.56-2.05,4.88-2.05c2.25,0,3.64,2,4.35,6.079c0.58,3.301,0.84,6.69,1.84,9.86c0.42,1.36,2.27,3.07,3.6,3.18     c1.85,0.17,3.71,0.221,5.58,0.221c1.82,0,3.65-0.04,5.47-0.04c0.69,0,1.37,0,2.06,0.02h0.15c2.42,0,3.59-1.12,3.91-3.52     c0.5-3.62,1.08-7.221,1.77-10.79c0.66-3.391,2.22-5.141,4.45-5.141c1.18,0,2.55,0.49,4.07,1.49c3.16,2.08,6.27,4.26,9.31,6.53     c0.92,0.68,1.73,1.02,2.51,1.02c0.95,0,1.85-0.5,2.8-1.489c2.99-3.181,6.35-6.061,9.13-9.41c0.85-1.03,1.02-3.601,0.33-4.8     c-1.95-3.391-4.62-6.37-6.79-9.641c-2.59-3.88-1.23-7.12,3.34-8.09c3.69-0.77,7.44-1.42,11.19-1.9     c2.46-0.319,3.65-1.34,3.58-3.92C168.76,122.719,168.76,118.329,168.85,113.959z M112.62,147.81h-0.15     c-15.06-0.08-27.09-12.21-27.11-27.341c-0.01-15.25,12.12-27.409,27.28-27.409h0.16c15,0.1,27.18,12.319,27.2,27.33     C140.03,135.499,127.72,147.81,112.62,147.81z M112.83,102.06h-0.26c-9.6,0-17.98,8.159-18.2,17.84     c-0.25,10.26,8.1,18.91,18.25,18.91c9.7,0,18.07-8.24,18.34-18.061C131.24,111.009,122.72,102.209,112.83,102.06z"/>
		</g>
		<g>
			<path fill-rule="evenodd" clip-rule="evenodd" fill="#FFBE55" d="M130.96,120.749c-0.27,9.82-8.64,18.061-18.34,18.061     c-10.15,0-18.5-8.65-18.25-18.91c0.22-9.681,8.6-17.84,18.2-17.84h0.26C122.72,102.209,131.24,111.009,130.96,120.749z"/>
		</g>
	</g>
</g>
<g>
	<g>
		<g>
			<path fill="#FFBE55" d="M246.75,59.419c0.03-1.83-0.74-2.68-2.55-2.91c-2.62-0.34-5.23-0.8-7.83-1.3     c-3.71-0.7-4.74-3.04-2.73-6.17c1.26-1.96,2.68-3.81,3.99-5.72c0.59-0.87,1.12-1.75,1.69-2.66c-0.33-0.62-0.49-1.14-0.84-1.5     c-2.52-2.57-4.97-5.22-7.69-7.56c-0.26-0.24-0.75-0.341-1.28-0.341c-0.7,0-1.48,0.181-1.96,0.45c-2.18,1.28-4.11,2.96-6.19,4.42     c-1.16,0.811-2.22,1.21-3.13,1.21c-1.65,0-2.82-1.29-3.28-3.76c-0.48-2.49-0.97-4.979-1.25-7.5c-0.22-2.07-1.2-2.82-3.09-2.82     h-0.25c-1.34,0.051-2.68,0.07-4.03,0.07c-1.62,0-3.23-0.03-4.85-0.07h-0.14c-1.81,0-2.8,0.66-3.01,2.66     c-0.26,2.521-0.77,5.011-1.22,7.511c-0.49,2.569-1.64,3.899-3.31,3.899c-0.88,0-1.9-0.37-3.04-1.12     c-2.21-1.46-4.41-2.939-6.5-4.56c-0.68-0.521-1.29-0.8-1.87-0.8c-0.65,0-1.27,0.34-1.95,1.06c-2.17,2.32-4.42,4.57-6.72,6.74     c-1.35,1.28-1.38,2.41-0.27,3.85c1.67,2.17,3.3,4.4,4.82,6.69c2.01,3.01,1.06,5.359-2.44,6.08c-2.7,0.54-5.48,0.72-8.1,1.47     c-1,0.28-2.28,1.62-2.36,2.58c-0.28,3.04-0.3,6.12-0.05,9.17c0.01,0.22,0.03,0.44,0.05,0.66c0.08,0.93,1.36,2.24,2.34,2.53     c2.42,0.72,4.99,0.92,7.48,1.359c2.78,0.5,4.17,1.7,4.08,3.48c-0.03,0.87-0.42,1.88-1.18,3.02c-1.46,2.21-2.97,4.391-4.55,6.5     c-1.02,1.32-1.05,2.351,0.21,3.57c2.37,2.25,4.53,4.74,7.04,6.85c0.43,0.37,1.23,0.561,2,0.561c0.54,0,1.07-0.101,1.43-0.29     c2.23-1.181,4.19-2.851,6.27-4.29c1.42-0.99,2.59-1.49,3.55-1.49c1.64,0,2.64,1.45,3.15,4.4c0.42,2.409,0.62,4.859,1.34,7.17     c0.31,0.979,1.64,2.21,2.6,2.3c1.32,0.13,2.65,0.16,3.97,0.16c1.4,0,2.79-0.03,4.18-0.03c0.46,0,0.92,0,1.38,0.01h0.1     c1.75,0,2.6-0.81,2.84-2.56c0.36-2.61,0.77-5.22,1.28-7.82c0.48-2.46,1.61-3.729,3.23-3.729c0.85,0,1.84,0.359,2.94,1.08     c2.31,1.51,4.57,3.09,6.76,4.739c0.66,0.5,1.25,0.75,1.82,0.75c0.69,0,1.34-0.359,2.03-1.09c2.17-2.31,4.61-4.399,6.63-6.82     c0.62-0.76,0.73-2.619,0.24-3.489c-1.42-2.45-3.35-4.62-4.94-6.99c-0.59-0.89-0.9-1.74-0.94-2.51     c-0.07-1.641,1.12-2.88,3.38-3.351c2.68-0.569,5.4-1.029,8.12-1.39c1.78-0.23,2.63-0.96,2.6-2.85c0-0.15-0.01-0.29-0.01-0.44     C246.67,65.469,246.67,62.43,246.75,59.419z M221.44,76.52c-3.66,4.54-9.26,7.449-15.52,7.449h-0.09     c-6.24-0.029-11.77-2.93-15.36-7.449c-1.83-2.311-3.16-5.04-3.82-8.03c-0.31-1.4-0.48-2.85-0.48-4.35     c-0.01-11.061,8.79-19.891,19.78-19.891h0.13c10.88,0.061,19.72,8.94,19.74,19.82c0,1.52-0.17,3-0.5,4.42     C224.65,71.479,223.29,74.209,221.44,76.52z"/>
			<path fill="#FFBE55" d="M246.75,59.419c0.03-1.83-0.74-2.68-2.55-2.91c-2.62-0.34-5.23-0.8-7.83-1.3     c-3.71-0.7-4.74-3.04-2.73-6.17c1.26-1.96,2.68-3.81,3.99-5.72c0.59-0.87,1.12-1.75,1.69-2.66c-0.33-0.62-0.49-1.14-0.84-1.5     c-2.52-2.57-4.97-5.22-7.69-7.56c-0.26-0.24-0.75-0.341-1.28-0.341c-0.7,0-1.48,0.181-1.96,0.45c-2.18,1.28-4.11,2.96-6.19,4.42     c-1.16,0.811-2.22,1.21-3.13,1.21c-1.65,0-2.82-1.29-3.28-3.76c-0.48-2.49-0.97-4.979-1.25-7.5c-0.22-2.07-1.2-2.82-3.09-2.82     h-0.25c-1.34,0.051-2.68,0.07-4.03,0.07c-1.62,0-3.23-0.03-4.85-0.07h-0.14c-1.81,0-2.8,0.66-3.01,2.66     c-0.26,2.521-0.77,5.011-1.22,7.511c-0.49,2.569-1.64,3.899-3.31,3.899c-0.88,0-1.9-0.37-3.04-1.12     c-2.21-1.46-4.41-2.939-6.5-4.56c-0.68-0.521-1.29-0.8-1.87-0.8c-0.65,0-1.27,0.34-1.95,1.06c-2.17,2.32-4.42,4.57-6.72,6.74     c-1.35,1.28-1.38,2.41-0.27,3.85c1.67,2.17,3.3,4.4,4.82,6.69c2.01,3.01,1.06,5.359-2.44,6.08c-2.7,0.54-5.48,0.72-8.1,1.47     c-1,0.28-2.28,1.62-2.36,2.58c-0.28,3.04-0.3,6.12-0.05,9.17c0.01,0.22,0.03,0.44,0.05,0.66c0.08,0.93,1.36,2.24,2.34,2.53     c2.42,0.72,4.99,0.92,7.48,1.359c2.78,0.5,4.17,1.7,4.08,3.48c-0.03,0.87-0.42,1.88-1.18,3.02c-1.46,2.21-2.97,4.391-4.55,6.5     c-1.02,1.32-1.05,2.351,0.21,3.57c2.37,2.25,4.53,4.74,7.04,6.85c0.43,0.37,1.23,0.561,2,0.561c0.54,0,1.07-0.101,1.43-0.29     c2.23-1.181,4.19-2.851,6.27-4.29c1.42-0.99,2.59-1.49,3.55-1.49c1.64,0,2.64,1.45,3.15,4.4c0.42,2.409,0.62,4.859,1.34,7.17     c0.31,0.979,1.64,2.21,2.6,2.3c1.32,0.13,2.65,0.16,3.97,0.16c1.4,0,2.79-0.03,4.18-0.03c0.46,0,0.92,0,1.38,0.01h0.1     c1.75,0,2.6-0.81,2.84-2.56c0.36-2.61,0.77-5.22,1.28-7.82c0.48-2.46,1.61-3.729,3.23-3.729c0.85,0,1.84,0.359,2.94,1.08     c2.31,1.51,4.57,3.09,6.76,4.739c0.66,0.5,1.25,0.75,1.82,0.75c0.69,0,1.34-0.359,2.03-1.09c2.17-2.31,4.61-4.399,6.63-6.82     c0.62-0.76,0.73-2.619,0.24-3.489c-1.42-2.45-3.35-4.62-4.94-6.99c-0.59-0.89-0.9-1.74-0.94-2.51     c-0.07-1.641,1.12-2.88,3.38-3.351c2.68-0.569,5.4-1.029,8.12-1.39c1.78-0.23,2.63-0.96,2.6-2.85c0-0.15-0.01-0.29-0.01-0.44     C246.67,65.469,246.67,62.43,246.75,59.419z M221.44,76.52c-3.66,4.54-9.26,7.449-15.52,7.449h-0.09     c-6.24-0.029-11.77-2.93-15.36-7.449c-1.83-2.311-3.16-5.04-3.82-8.03c-0.31-1.4-0.48-2.85-0.48-4.35     c-0.01-11.061,8.79-19.891,19.78-19.891h0.13c10.88,0.061,19.72,8.94,19.74,19.82c0,1.52-0.17,3-0.5,4.42     C224.65,71.479,223.29,74.209,221.44,76.52z"/>
		</g>
		<g>
			<path fill="#FFBE55" d="M219.25,64.35c-0.04,1.439-0.32,2.83-0.8,4.14c-1.89,5.15-6.89,8.94-12.51,8.94     c-5.7,0-10.62-3.771-12.46-8.94c-0.54-1.49-0.82-3.11-0.78-4.78c0.18-7,6.24-12.93,13.21-12.93h0.2     C213.28,50.899,219.45,57.279,219.25,64.35z"/>
		</g>
	</g>
</g>
</svg>