<svg xmlns="http://www.w3.org/2000/svg" xmlns:xlink="http://www.w3.org/1999/xlink" version="1.1" id="Layer_1" x="0px" y="0px" width="300px" height="300px" viewBox="0 0 300 300" enable-background="new 0 0 300 300" xml:space="preserve">
<g>
	<g>
		<g>
			<g>
				<path fill-rule="evenodd" clip-rule="evenodd" fill="#FFBE55" d="M239.931,164.26c-3.26,7.549-6.36,15.199-9.27,22.879      c-1.72,4.561-4.52,5.49-9.03,4.32c-3.01-0.799-6.04-1.529-9.08-2.209l-19.86-19.861c1.48-8.129-0.31-16.52-4.9-23.309      c4.83-23.701-7.69-48.301-30.83-57.852c-26.51-10.908-56.41,1.721-67.19,28.422c-10.65,26.379,1.75,56.02,27.95,66.799      c7.57,3.109,15.46,4.279,23.12,3.74c5.73,5.109,13.21,7.98,20.94,7.98c1.9,0,3.79-0.17,5.65-0.51l26.84,26.84      c-0.29,2.539-2.08,5.82-3.95,6.84c-7.23,3.879-15.11,6.539-22.57,9.949c-4.31,1.951-7.14,1.131-9.59-2.91      c-3.69-6.119-7.58-12.109-11.62-17.969c-5.61-8.121-12.01-7.99-17.44,0.34c-3.72,5.74-7.26,11.609-10.7,17.559      c-2.31,4.051-5.21,5.131-9.57,3.271c-7.55-3.26-15.44-5.83-22.71-9.611c-2.23-1.129-4.25-5.398-4.04-8.08      c0.5-6.238,2.44-12.33,3.78-18.5c2.6-12.068-1.49-16.25-13.25-13.539c-6.44,1.449-12.76,3.539-19.25,4.23      c-2.6,0.25-6.85-1.811-8.01-4.01c-3.94-7.512-6.74-15.592-10.24-23.352c-1.86-4.109-0.77-6.549,2.95-8.77      c5.88-3.529,11.62-7.279,17.28-11.17c8.85-6.08,8.61-12.619-0.64-18.43c-5.55-3.51-11.52-6.49-16.64-10.561      c-2.09-1.65-3.89-6.061-3.18-8.4c2.48-8.09,5.68-16.068,9.56-23.6c1.13-2.199,5.53-4.199,8.17-3.93      c7.05,0.801,13.92,3.051,20.92,4.359c9.12,1.701,13.69-3.02,11.79-12.199c-1.42-6.99-3.14-13.9-5.06-20.791      c-1.26-4.52-0.1-7.209,4.4-8.979c7.65-2.98,15.23-6.18,22.7-9.631c4.41-2.029,7.04-0.969,9.45,3.09      c3.46,5.891,7.24,11.641,11.14,17.27c5.85,8.422,12.39,8.211,17.97-0.488c3.54-5.541,7.18-11.08,10.28-16.861      c2.51-4.699,5.6-5.27,10.12-3.309c7.06,3.059,14.15,5.969,21.38,8.629c5,1.859,6.82,4.65,5.31,10.02      c-1.8,6.32-3.04,12.82-4.35,19.271c-2.04,9.939,2.92,14.67,12.92,12.379c6.42-1.49,12.71-3.66,19.18-4.619      c2.54-0.371,6.97,0.99,7.92,2.9c4.23,8.26,7.56,17.02,11.1,25.658c0.49,1.17,0.37,2.611,0.58,4.391      c-2.25,1.609-4.38,3.27-6.64,4.75c-5.03,3.311-10.24,6.42-15.16,9.871c-7.93,5.559-7.7,12.189,0.55,17.5      c5.73,3.719,11.56,7.369,17.54,10.719C240.761,157.119,241.801,159.9,239.931,164.26z"/>
				<path fill-rule="evenodd" clip-rule="evenodd" fill="#FFBE55" d="M171.611,133.85c-3.16-1.051-6.49-1.59-9.89-1.59      c-4.22,0-8.34,0.83-12.23,2.48l-0.07,0.029l-0.07,0.029c-2.85,1.281-4.95,3.861-5.6,6.92l-0.02,0.111l-0.02,0.1      c-0.23,1.279-0.21,2.561,0.06,3.799c-0.67-0.148-1.36-0.219-2.05-0.219c-0.59,0-1.17,0.049-1.74,0.16l-0.11,0.02l-0.11,0.02      c-3.06,0.65-5.65,2.75-6.92,5.6l-0.03,0.07l-0.03,0.07c-2.48,5.881-3.06,12.25-1.87,18.291c-0.28-0.051-0.56-0.102-0.83-0.16      c-0.84-0.16-1.66-0.361-2.49-0.602c-0.27-0.078-0.55-0.158-0.82-0.25c-0.82-0.25-1.63-0.539-2.44-0.869      c-17.69-7.17-26.14-28.141-18.46-45.859c7.3-16.871,27.97-25.17,44.79-18.061c0.85,0.359,1.68,0.76,2.49,1.189      c0.34,0.17,0.67,0.35,0.99,0.551c0.29,0.15,0.57,0.32,0.85,0.5c0.27,0.16,0.53,0.33,0.79,0.51c0.81,0.52,1.6,1.09,2.36,1.689      c0.22,0.17,0.43,0.34,0.64,0.531c0.08,0.049,0.16,0.119,0.23,0.18c0.24,0.199,0.48,0.41,0.71,0.619      c0.06,0.051,0.13,0.111,0.19,0.18c0.24,0.211,0.47,0.42,0.7,0.65c0.07,0.061,0.14,0.131,0.21,0.201      c0.22,0.209,0.43,0.42,0.64,0.639c0.36,0.361,0.7,0.73,1.03,1.111c0.22,0.238,0.43,0.488,0.64,0.738      c0.24,0.281,0.47,0.561,0.69,0.842c0.27,0.33,0.53,0.67,0.78,1.02c1.2,1.629,2.27,3.369,3.18,5.18c0.13,0.25,0.25,0.5,0.37,0.75      c0.31,0.641,0.59,1.301,0.86,1.959c0.12,0.281,0.23,0.561,0.34,0.852c0.19,0.49,0.36,0.99,0.53,1.49      c0.13,0.379,0.25,0.77,0.36,1.158c0.12,0.41,0.24,0.82,0.34,1.23c0.08,0.32,0.16,0.641,0.23,0.971c0.12,0.5,0.23,1.01,0.32,1.51      c0.08,0.42,0.14,0.84,0.21,1.26C171.451,132.25,171.541,133.049,171.611,133.85z"/>
			</g>
		</g>
	</g>
	<g>
		<path fill="#57A4FF" d="M260.131,234.82c-3.77-3.762-8.7-5.641-13.63-5.641c-1.2,0-2.4,0.109-3.59,0.33l-57.98-57.98    c3.07-9.119,0.5-19.199-6.56-25.74c-4.61-4.279-10.59-6.529-16.65-6.529c-3.21,0-6.44,0.629-9.51,1.93    c-0.83,0.369-1.43,1.109-1.62,1.99c-0.16,0.891,0.13,1.799,0.75,2.439l16.17,16.17l-7.68,7.689l-16.17-16.17    c-0.52-0.52-1.22-0.799-1.94-0.799c-0.17,0-0.33,0.02-0.5,0.049c-0.88,0.191-1.62,0.781-1.99,1.611    c-3.74,8.869-1.95,19.109,4.6,26.16c4.71,5.09,11.25,7.84,17.95,7.84c2.61,0,5.23-0.42,7.79-1.281l57.98,57.98    c-1.14,6.051,0.63,12.541,5.31,17.221c3.63,3.619,8.33,5.5,13.09,5.639c0.18,0,0.36,0.012,0.54,0.012c3.4,0,6.79-0.891,9.8-2.67    c1.37-0.811,2.66-1.801,3.84-2.98C267.661,254.559,267.661,242.35,260.131,234.82z M252.021,253.979    c-1.59,1.592-3.68,2.381-5.76,2.381c-2.09,0-4.18-0.789-5.77-2.381c-3.18-3.18-3.18-8.34,0-11.529c1.6-1.58,3.68-2.369,5.77-2.369    c2.08,0,4.16,0.789,5.76,2.369C255.201,245.639,255.201,250.799,252.021,253.979z"/>
	</g>
</g>
</svg>