<svg xmlns="http://www.w3.org/2000/svg" xmlns:xlink="http://www.w3.org/1999/xlink" version="1.1" x="0px" y="0px" width="500px" height="421px" viewBox="0 0 500 421" enable-background="new 0 0 500 421" xml:space="preserve">
<g id="BACKGROUND">
</g>
<g id="OBJECTS">
</g>
<g id="DESIGNED_BY_FREEPIK">
	<g>
		<g>
			<rect x="133.514" y="62.778" fill="#F2F2F2" width="67.666" height="17.951"/>
			<rect x="222.525" y="62.778" fill="#F2F2F2" width="67.668" height="17.951"/>
			<rect x="311.539" y="62.778" fill="#F2F2F2" width="67.668" height="17.951"/>
			<rect x="133.514" y="100.642" fill="#F2F2F2" width="67.666" height="117.148"/>
			<rect x="222.525" y="100.642" fill="#F2F2F2" width="67.668" height="117.148"/>
			<rect x="311.539" y="100.642" fill="#F2F2F2" width="67.668" height="117.148"/>
		</g>
		<ellipse fill="#0E538C" cx="314.683" cy="225.587" rx="3.948" ry="4.24"/>
		<g>
			<path fill="#0B4870" d="M383.571,348.513c0,0,1.062,1.984,1.758,2.771c0.695,0.789,3.357,2.197,3.373,4.537     c0.014,2.539-4.488,1.832-6.251,1.74c-1.761-0.092-1.894-1.447-2.637-2.883c-0.738-1.438-1.489-1.195-1.626-2.354     c-0.139-1.158,0.719-3.812,0.719-3.812H383.571z"/>
			<g>
				<path fill="#0B4870" d="M356.761,348.28c0,0-2.171,2.424-4.373,2.932c-2.204,0.508-3.745,1.154-3.764,2.545      c-0.015,1.393,6.342,2.309,8.864,0.906c3.763-2.094,4.144-1.463,4.562-2.508c0.417-1.045-0.501-3.842-0.476-4.174      C361.608,347.569,356.761,348.28,356.761,348.28z"/>
			</g>
			<g>
				<path fill="#81807E" d="M357.005,347.122c0,0-0.287,1.135-0.244,1.158c0.043,0.025,4.964,0.611,4.814-0.299      c-0.119-0.74-0.292-1.543-0.292-1.543L357.005,347.122z"/>
			</g>
			<g>
				<path fill="#81807E" d="M378.968,347.747c0,0-0.207,1.082-0.166,1.109c0.039,0.025,4.99,0.91,4.962,0.01      c-0.021-0.715-0.455-1.547-0.455-1.547L378.968,347.747z"/>
			</g>
			<g>
				<path fill="#2A94F4" d="M361.479,279.171c0,0-1.789,17.385-2.721,23.336c-1.09,6.957-1.457,12.707-1.762,16.309      c-0.382,4.529-0.455,26.814-0.724,28.139c-0.267,1.324,5.931,0.365,5.931,0.365s3.048-29.115,4.186-33.939      c1.059-4.492,4.988-23.834,5.955-22.605c0.965,1.227,2.164,22.568,2.881,26.111c0.715,3.543,2.891,31.281,2.891,31.281      s4.932,0.98,6.244-0.129c0,0,0.596-23.902,0.141-30.545c-0.173-2.533,2.967-30.354-1.06-41.553      C381.313,270.022,361.479,279.171,361.479,279.171z"/>
			</g>
		</g>
		<g>
			<path fill="#F2F2F2" d="M362.647,246.772c0,0-1.032,6.135-1.863,10.186l0,0c-0.338,1.643-0.641,2.943-0.831,3.352     c-0.236,0.518-2.173,2.596-4.542,5.035c-4.158,4.279-9.652,9.672-9.652,9.672l-2.146-4.078c0,0,4.88-5.719,8.187-9.537     c1.532-1.764,2.726-3.123,2.944-3.318c0.692-0.619,1.495-6.715,2.622-11.738c1.129-5.021,3.39-7.797,3.39-7.797L362.647,246.772z     "/>
		</g>
		<g>
			<path fill="#BB9365" d="M355.411,265.345c-4.158,4.279-9.652,9.672-9.652,9.672l-2.146-4.078c0,0,4.88-5.719,8.187-9.537     C352.813,261.901,354.675,263.085,355.411,265.345z"/>
		</g>
		<g>
			<path fill="#F2F2F2" d="M360.787,255.528l0.07,1.781c-0.36-1.67-0.66-3.15-0.761-4.061c-0.26-2.381-0.92-13.07,0.66-14.701     c0.41-0.43,1.09-0.859,1.88-1.27L360.787,255.528z"/>
			<path fill="#0B4870" d="M365.977,235.849l-3.34,1.43C363.687,236.739,364.927,236.239,365.977,235.849z"/>
			<path fill="#F2F2F2" d="M379.137,236.038l-2.83,9.691h-11.279l0.949-9.881c1.32-0.48,2.351-0.789,2.351-0.789l8.64,0.318     C376.967,235.378,378.157,235.618,379.137,236.038z"/>
			<path fill="#F2F2F2" d="M381.387,253.878c0,0-0.01,0.342-0.029,0.9c0,0.07-0.011,0.141-0.011,0.211     c-0.02,0.92-0.06,2.32-0.1,3.83v0.08l-0.73-5l0.17-3.391l0.431-8.891l0.229-4.639c2.11,0.949,5.15,2.568,5.83,4.59     c0.01,0.01,0.01,0.029,0.021,0.039C388.146,244.519,381.387,253.878,381.387,253.878z"/>
			<path fill="#0B4870" d="M381.437,268.599c-0.569,0.211-1.159,0.439-1.75,0.67c-1.939,0.75-3.979,1.48-5.85,2.15     c-1.13,0.391-2.21,0.76-3.16,1.09c-0.04,0.01-0.08,0.02-0.13,0.039c-0.24,0.08-0.479,0.16-0.71,0.24     c-0.18,0.061-0.36,0.121-0.53,0.182c-0.26,0.078-0.5,0.17-0.72,0.238c-0.11,0.041-0.22,0.07-0.32,0.111     c-0.31,0.1-0.569,0.189-0.79,0.26c-0.149,0.049-0.27,0.09-0.369,0.119c-0.021,0.01-0.04,0.01-0.061,0.021     c-0.01,0-0.02,0.01-0.03,0.01c-0.14,0.049-0.22,0.068-0.22,0.068l-1.31-3.34c0,0,7.029-3.83,11.79-6.51     c1.8-1.01,3.27-1.869,3.909-2.289c-0.01,1.039-0.02,2.039-0.02,2.869C381.167,265.778,381.277,267.22,381.437,268.599z"/>
		</g>
		<g>
			<path fill="#BB9365" d="M370.695,216.286c0,0-7.497-1.689-5.785,7.746c1.713,9.436,3.516,10.176,8.041,8.225     c4.521-1.955,4.117-7.998,4.344-10.963C377.523,218.329,373.087,216.39,370.695,216.286z"/>
		</g>
		<g>
			<path fill="#BB9365" d="M368.712,237.476c0,0,3.32,3.52,8.568,0.32c0,0-1.175-7.627-0.558-11.346     c0.618-3.717-6.847,5.76-6.847,5.76c0.099,0.051,0.164,0.404,0.178,0.91c0.015,0.426-0.008,0.963-0.078,1.514     C369.821,235.868,369.438,237.171,368.712,237.476z"/>
		</g>
		<g>
			<path fill="#0E538C" d="M376.931,226.134c0,0-0.193-2.973-1.28-3.066c-1.087-0.092-1.252,1.105-1.252,1.105l-1.097,0.207     c0,0,0.347-2.605-0.739-3.061c-1.083-0.453-7.024,1.434-7.896,0.67c-0.87-0.766-2.662-7.305-0.938-7.141     c6.945,0.664,7.974-1.977,11.159,0.18c0,0,2.482-0.285,2.85,1.719C378.106,218.753,377.605,224.646,376.931,226.134z"/>
		</g>
		<g>
			<path fill="#A77860" d="M369.976,234.634c5.415-1.672,5.822-4.932,5.828-4.982c-1.783,3.062-5.75,3.469-5.75,3.469     C370.068,233.546,370.046,234.083,369.976,234.634z"/>
		</g>
		<g>
			<path fill="#F2F2F2" d="M379.496,236.187c0,0-3.965,7.893-10.37,7.383c-6.405-0.508-1.092-8.443-0.801-8.516     C368.646,234.972,372.738,234.634,379.496,236.187z"/>
		</g>
		<g>
			<path fill="#0B4870" d="M350.808,273.786c0,0,19.626,2.42,31.517,0.398l-22.721-2.836     C359.604,271.349,359.47,271.927,350.808,273.786z"/>
		</g>
		<g>
			<path fill="#EEA886" d="M365.487,270.454l-1.463,0.742c0,0,0.334,2.322,1.133,3.023l1.641-0.418     C366.798,273.802,366.456,271.255,365.487,270.454z"/>
		</g>
		<g>
			<path fill="#F2F2F2" d="M381.352,254.989L381.352,254.989c-0.026,0.918-0.064,2.316-0.1,3.832     c-2.665-6.531-1.126-11.742-1.099-11.83C379.864,248.765,381.331,254.901,381.352,254.989z"/>
		</g>
		<g>
			<path fill="#F2F2F2" d="M360.784,256.958L360.784,256.958c-0.338,1.643-0.641,2.943-0.831,3.352     c-0.907-4.402-0.091-10.041-0.091-10.041C359.987,252.964,360.784,256.958,360.784,256.958z"/>
		</g>
		<g>
			<path fill="#A77860" d="M374.421,222.913c0.099-0.832,1.744-1.135,1.877,0.111c0.132,1.248-0.747,3.438-1.372,3.223     C374.302,226.034,374.284,224.062,374.421,222.913z"/>
		</g>
		<g>
			<g>
				<path fill="#FFBE55" d="M365.137,221.896c0,0,8.819-1.219,13.086-5.096c0,0-1.072-8.986-10.127-6.137      c0,0-7.169,2.297-5.402,9.32c0,0-3.449,1.652-3.493,2.279C359.157,222.892,362.149,222.692,365.137,221.896z"/>
			</g>
		</g>
		<path fill="#2A94F4" d="M362.427,266.938c-0.109,0.311-0.52,0.811-1.12,1.4l-0.449-11.029    C361.677,261.108,362.777,265.878,362.427,266.938z"/>
		<path fill="#2A94F4" d="M380.457,236.589c-0.48-0.199-0.86-0.35-1.05-0.439c-0.09-0.041-0.17-0.08-0.271-0.111l0.01-0.039    L380.457,236.589z"/>
		<path fill="#2A94F4" d="M384.967,284.448h-23.68l0.07-9.029l0.01-1.109l0.029-3.611c1.2,0.281,2.94,0.551,2.94,0.551    c1.11-0.451,1.34,2.811,1.34,2.811s-0.38,0.119-0.93,0.289c8.04,0.1,17.67,0.15,17.58-0.16c-0.11-0.359-0.58-2.859-0.891-5.59    c-0.569,0.211-1.159,0.439-1.75,0.67c-1.939,0.75-3.979,1.48-5.85,2.15c-1.13,0.391-2.21,0.76-3.16,1.09    c-0.04,0.01-0.08,0.02-0.13,0.039c-0.24,0.08-0.479,0.16-0.71,0.24c-0.18,0.061-0.36,0.121-0.53,0.182    c-0.26,0.078-0.5,0.17-0.72,0.238c-0.11,0.041-0.22,0.07-0.32,0.111c-0.31,0.1-0.569,0.189-0.79,0.26    c-0.149,0.049-0.27,0.09-0.369,0.119c-0.021,0.01-0.04,0.01-0.061,0.021c-0.01,0-0.02,0.01-0.03,0.01    c-0.14,0.049-0.22,0.068-0.22,0.068l-1.31-3.34c0,0,7.029-3.83,11.79-6.51c1.8-1.01,3.27-1.869,3.909-2.289    c0.021-0.91,0.04-1.85,0.061-2.76l0.35,2.43l0.99,6.811L384.967,284.448z"/>
		<path fill="#2A94F4" d="M382.327,274.188c0.09,0.311-9.54,0.26-17.58,0.16c0.55-0.17,0.93-0.289,0.93-0.289    s-0.229-3.262-1.34-2.811c0,0-1.74-0.27-2.94-0.551l-0.09-2.359c0.601-0.59,1.011-1.09,1.12-1.4    c0.351-1.061-0.75-5.83-1.569-9.629l-0.07-1.781l1.85-18.25l3.34-1.43l-0.949,9.881h11.279l2.83-9.691    c0.101,0.031,0.181,0.07,0.271,0.111c0.189,0.09,0.569,0.24,1.05,0.439c0.07,0.029,0.14,0.061,0.21,0.09l0.68,0.301l-0.229,4.639    l-0.431,8.891l-0.17,3.391l0.73,5c-0.021,0.91-0.04,1.85-0.061,2.76c-0.64,0.42-2.109,1.279-3.909,2.289    c-4.761,2.68-11.79,6.51-11.79,6.51l1.31,3.34c0,0,0.08-0.02,0.22-0.068c0.011,0,0.021-0.01,0.03-0.01    c0.021-0.012,0.04-0.012,0.061-0.021c0.1-0.029,0.22-0.07,0.369-0.119c0.221-0.07,0.48-0.16,0.79-0.26    c0.101-0.041,0.21-0.07,0.32-0.111c0.22-0.068,0.46-0.148,0.72-0.238c0.17-0.061,0.351-0.121,0.53-0.182    c0.23-0.068,0.46-0.148,0.71-0.24c0.05-0.02,0.09-0.029,0.13-0.039c0.95-0.33,2.03-0.699,3.16-1.09c1.87-0.67,3.91-1.4,5.85-2.15    c0.591-0.23,1.181-0.459,1.75-0.67C381.747,271.329,382.217,273.829,382.327,274.188z"/>
		<g>
			<path fill="#F1B99E" d="M379.687,269.269c-1.939,0.75-3.979,1.48-5.85,2.15c-1.13,0.391-2.21,0.76-3.16,1.09     c-0.04,0.01-0.08,0.02-0.13,0.039c-0.24,0.08-0.479,0.16-0.71,0.24c-0.18,0.061-0.36,0.121-0.53,0.182     c-0.26,0.078-0.5,0.17-0.72,0.238c-0.11,0.041-0.22,0.07-0.32,0.111c-0.31,0.1-0.569,0.189-0.79,0.26     c-0.149,0.049-0.27,0.09-0.369,0.119c-0.021,0.01-0.04,0.01-0.061,0.021c-0.01,0-0.02,0.01-0.03,0.01     c-0.14,0.049-2.27,0.619-2.27,0.619l-1.31-3.34c0,0,9.079-4.381,13.84-7.061C377.277,263.948,379.007,264.798,379.687,269.269z"/>
		</g>
		<g>
			<g>
				<path fill="#F1B99E" d="M357.979,271.101c0,0-1.118,0.541-1.413,0.781c-0.291,0.242-1.476,1.129-1.763,1.338      c-0.285,0.209,0.434,0.801,2.551-0.119C359.472,272.185,357.979,271.101,357.979,271.101z"/>
			</g>
		</g>
		<g>
			<path fill="#0B4870" d="M374.241,221.271l-0.313,0.086c0.068,0.09,0.123,0.195,0.15,0.312l0.449,1.924l4.095-2.578v-0.936     L374.241,221.271z"/>
			<path fill="#0B4870" d="M361.989,223.683c-0.459,0.105-0.745,0.564-0.636,1.023l0.563,2.377c0.309,1.316,1.641,2.172,2.958,1.83     c0.046-0.014,0.091-0.023,0.127-0.035c0.605-0.201,1.15-0.973,1.836-1c0.682-0.027,1.482,0.576,2.341,0.385     c0.168-0.035,0.382-0.08,0.623-0.135c0.004,0,0.014-0.006,0.022-0.006c0.05-0.014,0.1-0.025,0.146-0.041     c1.235-0.371,1.985-1.648,1.686-2.922l-0.627-2.682c-0.104-0.453-0.559-0.74-1.014-0.635l-4.198,0.963l-0.541,0.123     L361.989,223.683z"/>
			<path fill="#F2F2F2" d="M373.06,221.038l-3.045,0.805c0.455-0.105,0.909,0.182,1.014,0.635l0.627,2.682     c0.3,1.273-0.45,2.551-1.686,2.922c0.618-0.158,2.672-0.717,2.876-0.762c1.336-0.301,2.173-1.633,1.859-2.969l-0.101-0.422     l-0.077-0.336l-0.449-1.924c-0.027-0.117-0.082-0.223-0.15-0.312C373.732,221.097,373.396,220.96,373.06,221.038z"/>
		</g>
		<g>
			<path fill="#0B4870" d="M319.307,348.513c0,0,1.062,1.984,1.758,2.771c0.695,0.789,3.357,2.197,3.373,4.537     c0.014,2.539-4.488,1.832-6.251,1.74c-1.761-0.092-1.894-1.447-2.637-2.883c-0.738-1.438-1.489-1.195-1.626-2.354     c-0.139-1.158,0.719-3.812,0.719-3.812H319.307z"/>
			<g>
				<path fill="#0B4870" d="M292.496,348.28c0,0-2.171,2.424-4.373,2.932c-2.204,0.508-3.745,1.154-3.764,2.545      c-0.015,1.393,6.342,2.309,8.864,0.906c3.763-2.094,4.144-1.463,4.562-2.508c0.417-1.045-0.501-3.842-0.476-4.174      C297.344,347.569,292.496,348.28,292.496,348.28z"/>
			</g>
			<g>
				<path fill="#81807E" d="M292.74,347.122c0,0-0.287,1.135-0.244,1.158c0.043,0.025,4.964,0.611,4.814-0.299      c-0.119-0.74-0.292-1.543-0.292-1.543L292.74,347.122z"/>
			</g>
			<g>
				<path fill="#81807E" d="M314.703,347.747c0,0-0.207,1.082-0.166,1.109c0.039,0.025,4.99,0.91,4.962,0.01      c-0.021-0.715-0.455-1.547-0.455-1.547L314.703,347.747z"/>
			</g>
			<g>
				<path fill="#2A94F4" d="M297.215,279.171c0,0-1.789,17.385-2.721,23.336c-1.09,6.957-1.457,12.707-1.762,16.309      c-0.382,4.529-0.455,26.814-0.724,28.139c-0.267,1.324,5.931,0.365,5.931,0.365s3.048-29.115,4.186-33.939      c1.059-4.492,4.988-23.834,5.955-22.605c0.965,1.227,2.164,22.568,2.881,26.111c0.715,3.543,2.891,31.281,2.891,31.281      s4.932,0.98,6.244-0.129c0,0,0.596-23.902,0.141-30.545c-0.173-2.533,2.967-30.354-1.06-41.553      C317.049,270.022,297.215,279.171,297.215,279.171z"/>
			</g>
		</g>
		<g>
			<path fill="#F2F2F2" d="M298.383,246.772c0,0-1.032,6.135-1.863,10.186l0,0c-0.338,1.643-0.641,2.943-0.831,3.352     c-0.236,0.518-2.173,2.596-4.542,5.035c-4.158,4.279-9.652,9.672-9.652,9.672l-2.146-4.078c0,0,4.88-5.719,8.187-9.537     c1.532-1.764,2.726-3.123,2.944-3.318c0.692-0.619,1.495-6.715,2.622-11.738c1.129-5.021,3.39-7.797,3.39-7.797L298.383,246.772z     "/>
		</g>
		<g>
			<path fill="#F1D2C3" d="M291.146,265.345c-4.158,4.279-9.652,9.672-9.652,9.672l-2.146-4.078c0,0,4.88-5.719,8.187-9.537     C288.549,261.901,290.41,263.085,291.146,265.345z"/>
		</g>
		<g>
			<path fill="#F2F2F2" d="M296.522,255.528l0.07,1.781c-0.36-1.67-0.66-3.15-0.761-4.061c-0.26-2.381-0.92-13.07,0.66-14.701     c0.41-0.43,1.09-0.859,1.88-1.27L296.522,255.528z"/>
			<path fill="#0B4870" d="M301.712,235.849l-3.34,1.43C299.422,236.739,300.662,236.239,301.712,235.849z"/>
			<path fill="#F2F2F2" d="M314.872,236.038l-2.83,9.691h-11.279l0.949-9.881c1.32-0.48,2.351-0.789,2.351-0.789l8.64,0.318     C312.702,235.378,313.893,235.618,314.872,236.038z"/>
			<path fill="#F2F2F2" d="M317.122,253.878c0,0-0.01,0.342-0.029,0.9c0,0.07-0.011,0.141-0.011,0.211     c-0.02,0.92-0.06,2.32-0.1,3.83v0.08l-0.73-5l0.17-3.391l0.431-8.891l0.229-4.639c2.11,0.949,5.15,2.568,5.83,4.59     c0.01,0.01,0.01,0.029,0.021,0.039C323.882,244.519,317.122,253.878,317.122,253.878z"/>
			<path fill="#0B4870" d="M317.172,268.599c-0.569,0.211-1.159,0.439-1.75,0.67c-1.939,0.75-3.979,1.48-5.85,2.15     c-1.13,0.391-2.21,0.76-3.16,1.09c-0.04,0.01-0.08,0.02-0.13,0.039c-0.24,0.08-0.479,0.16-0.71,0.24     c-0.18,0.061-0.36,0.121-0.53,0.182c-0.26,0.078-0.5,0.17-0.72,0.238c-0.11,0.041-0.22,0.07-0.32,0.111     c-0.31,0.1-0.569,0.189-0.79,0.26c-0.149,0.049-0.27,0.09-0.369,0.119c-0.021,0.01-0.04,0.01-0.061,0.021     c-0.01,0-0.02,0.01-0.03,0.01c-0.14,0.049-0.22,0.068-0.22,0.068l-1.31-3.34c0,0,7.029-3.83,11.79-6.51     c1.8-1.01,3.27-1.869,3.909-2.289c-0.01,1.039-0.02,2.039-0.02,2.869C316.902,265.778,317.013,267.22,317.172,268.599z"/>
		</g>
		<g>
			<path fill="#F1D2C3" d="M306.431,216.286c0,0-7.497-1.689-5.785,7.746c1.713,9.436,3.516,10.176,8.041,8.225     c4.521-1.955,4.117-7.998,4.344-10.963C313.259,218.329,308.822,216.39,306.431,216.286z"/>
		</g>
		<g>
			<path fill="#F1D2C3" d="M304.447,237.476c0,0,3.32,3.52,8.568,0.32c0,0-1.175-7.627-0.558-11.346     c0.618-3.717-6.847,5.76-6.847,5.76c0.099,0.051,0.164,0.404,0.178,0.91c0.015,0.426-0.008,0.963-0.078,1.514     C305.557,235.868,305.174,237.171,304.447,237.476z"/>
		</g>
		<g>
			<path fill="#0E538C" d="M312.666,226.134c0,0-0.193-2.973-1.28-3.066c-1.087-0.092-1.252,1.105-1.252,1.105l-1.097,0.207     c0,0,0.347-2.605-0.739-3.061c-1.083-0.453-7.024,1.434-7.896,0.67c-0.87-0.766-2.662-7.305-0.938-7.141     c6.945,0.664,7.974-1.977,11.159,0.18c0,0,2.482-0.285,2.85,1.719C313.842,218.753,316.254,224.226,312.666,226.134z"/>
		</g>
		<g>
			<path fill="#A77860" d="M305.711,234.634c5.415-1.672,5.822-4.932,5.828-4.982c-1.783,3.062-5.75,3.469-5.75,3.469     C305.804,233.546,305.781,234.083,305.711,234.634z"/>
		</g>
		<g>
			<path fill="#F2F2F2" d="M315.231,236.187c0,0-3.965,7.893-10.37,7.383c-6.405-0.508-1.092-8.443-0.801-8.516     C304.381,234.972,308.474,234.634,315.231,236.187z"/>
		</g>
		<g>
			<path fill="#0B4870" d="M286.543,273.786c0,0,19.626,2.42,31.517,0.398l-22.721-2.836     C295.339,271.349,295.205,271.927,286.543,273.786z"/>
		</g>
		<g>
			<path fill="#EEA886" d="M301.223,270.454l-1.463,0.742c0,0,0.334,2.322,1.133,3.023l1.641-0.418     C302.533,273.802,302.191,271.255,301.223,270.454z"/>
		</g>
		<g>
			<path fill="#F2F2F2" d="M317.087,254.989L317.087,254.989c-0.026,0.918-0.064,2.316-0.1,3.832     c-2.665-6.531-1.126-11.742-1.099-11.83C315.6,248.765,317.066,254.901,317.087,254.989z"/>
		</g>
		<g>
			<path fill="#F2F2F2" d="M296.52,256.958L296.52,256.958c-0.338,1.643-0.641,2.943-0.831,3.352     c-0.907-4.402-0.091-10.041-0.091-10.041C295.723,252.964,296.52,256.958,296.52,256.958z"/>
		</g>
		<g>
			<path fill="#F1D2C3" d="M310.156,222.913c0.099-0.832,1.744-1.135,1.877,0.111c0.132,1.248-0.747,3.438-1.372,3.223     C310.037,226.034,310.02,224.062,310.156,222.913z"/>
		</g>
		<g>
			<g>
				<path fill="#FFBE55" d="M300.872,221.896c0,0,8.819-1.219,13.086-5.096c0,0-1.072-8.986-10.127-6.137      c0,0-7.169,2.297-5.402,9.32c0,0-3.449,1.652-3.493,2.279C294.893,222.892,297.885,222.692,300.872,221.896z"/>
			</g>
		</g>
		<path fill="#2A94F4" d="M298.162,266.938c-0.109,0.311-0.52,0.811-1.12,1.4l-0.449-11.029    C297.412,261.108,298.513,265.878,298.162,266.938z"/>
		<path fill="#2A94F4" d="M316.192,236.589c-0.48-0.199-0.86-0.35-1.05-0.439c-0.09-0.041-0.17-0.08-0.271-0.111l0.01-0.039    L316.192,236.589z"/>
		<path fill="#2A94F4" d="M320.702,284.448h-23.68l0.07-9.029l0.01-1.109l0.029-3.611c1.2,0.281,2.94,0.551,2.94,0.551    c1.11-0.451,1.34,2.811,1.34,2.811s-0.38,0.119-0.93,0.289c8.04,0.1,17.67,0.15,17.58-0.16c-0.11-0.359-0.58-2.859-0.891-5.59    c-0.569,0.211-1.159,0.439-1.75,0.67c-1.939,0.75-3.979,1.48-5.85,2.15c-1.13,0.391-2.21,0.76-3.16,1.09    c-0.04,0.01-0.08,0.02-0.13,0.039c-0.24,0.08-0.479,0.16-0.71,0.24c-0.18,0.061-0.36,0.121-0.53,0.182    c-0.26,0.078-0.5,0.17-0.72,0.238c-0.11,0.041-0.22,0.07-0.32,0.111c-0.31,0.1-0.569,0.189-0.79,0.26    c-0.149,0.049-0.27,0.09-0.369,0.119c-0.021,0.01-0.04,0.01-0.061,0.021c-0.01,0-0.02,0.01-0.03,0.01    c-0.14,0.049-0.22,0.068-0.22,0.068l-1.31-3.34c0,0,7.029-3.83,11.79-6.51c1.8-1.01,3.27-1.869,3.909-2.289    c0.021-0.91,0.04-1.85,0.061-2.76l0.35,2.43l0.99,6.811L320.702,284.448z"/>
		<path fill="#2A94F4" d="M318.062,274.188c0.09,0.311-9.54,0.26-17.58,0.16c0.55-0.17,0.93-0.289,0.93-0.289    s-0.229-3.262-1.34-2.811c0,0-1.74-0.27-2.94-0.551l-0.09-2.359c0.601-0.59,1.011-1.09,1.12-1.4    c0.351-1.061-0.75-5.83-1.569-9.629c0,0-1.643-3.371-1.657-4.404c-0.057-4.041,3.437-15.627,3.437-15.627l3.34-1.43l-0.949,9.881    h11.279l2.83-9.691c0.101,0.031,0.181,0.07,0.271,0.111c0.189,0.09,0.569,0.24,1.05,0.439c0.07,0.029,0.14,0.061,0.21,0.09    l0.68,0.301l-0.229,4.639l-0.431,8.891l-0.17,3.391l0.73,5c-0.021,0.91-0.04,1.85-0.061,2.76c-0.64,0.42-2.109,1.279-3.909,2.289    c-4.761,2.68-11.79,6.51-11.79,6.51l1.31,3.34c0,0,0.08-0.02,0.22-0.068c0.011,0,0.021-0.01,0.03-0.01    c0.021-0.012,0.04-0.012,0.061-0.021c0.1-0.029,0.22-0.07,0.369-0.119c0.221-0.07,0.48-0.16,0.79-0.26    c0.101-0.041,0.21-0.07,0.32-0.111c0.22-0.068,0.46-0.148,0.72-0.238c0.17-0.061,0.351-0.121,0.53-0.182    c0.23-0.068,0.46-0.148,0.71-0.24c0.05-0.02,0.09-0.029,0.13-0.039c0.95-0.33,2.03-0.699,3.16-1.09c1.87-0.67,3.91-1.4,5.85-2.15    c0.591-0.23,1.181-0.459,1.75-0.67C317.482,271.329,317.952,273.829,318.062,274.188z"/>
		<g>
			<g>
				<path fill="#F1B99E" d="M293.714,271.101c0,0-1.118,0.541-1.413,0.781c-0.291,0.242-1.476,1.129-1.763,1.338      c-0.285,0.209,0.434,0.801,2.551-0.119C295.207,272.185,293.714,271.101,293.714,271.101z"/>
			</g>
		</g>
		<g>
			<path fill="#0B4870" d="M309.977,221.271l-0.313,0.086c0.068,0.09,0.123,0.195,0.15,0.312l0.449,1.924l4.095-2.578v-0.936     L309.977,221.271z"/>
			<path fill="#0B4870" d="M297.725,223.683c-0.459,0.105-0.745,0.564-0.636,1.023l0.563,2.377c0.309,1.316,1.641,2.172,2.958,1.83     c0.046-0.014,0.091-0.023,0.127-0.035c0.605-0.201,1.15-0.973,1.836-1c0.682-0.027,1.482,0.576,2.341,0.385     c0.168-0.035,0.382-0.08,0.623-0.135c0.004,0,0.014-0.006,0.022-0.006c0.05-0.014,0.1-0.025,0.146-0.041     c1.235-0.371,1.985-1.648,1.686-2.922l-0.627-2.682c-0.104-0.453-0.559-0.74-1.014-0.635l-4.198,0.963l-0.541,0.123     L297.725,223.683z"/>
			<path fill="#F2F2F2" d="M308.795,221.038l-3.045,0.805c0.455-0.105,0.909,0.182,1.014,0.635l0.627,2.682     c0.3,1.273-0.45,2.551-1.686,2.922c0.618-0.158,2.672-0.717,2.876-0.762c1.336-0.301,2.173-1.633,1.859-2.969l-0.101-0.422     l-0.077-0.336l-0.449-1.924c-0.027-0.117-0.082-0.223-0.15-0.312C309.468,221.097,309.132,220.96,308.795,221.038z"/>
		</g>
		<g>
			<path fill="#0B4870" d="M267.247,348.513c0,0,1.062,1.984,1.758,2.771c0.695,0.789,3.357,2.197,3.373,4.537     c0.014,2.539-4.488,1.832-6.251,1.74c-1.761-0.092-1.894-1.447-2.637-2.883c-0.738-1.438-1.489-1.195-1.626-2.354     c-0.139-1.158,0.719-3.812,0.719-3.812H267.247z"/>
			<g>
				<path fill="#0B4870" d="M240.437,348.28c0,0-2.171,2.424-4.373,2.932c-2.204,0.508-3.745,1.154-3.764,2.545      c-0.015,1.393,6.342,2.309,8.864,0.906c3.763-2.094,4.144-1.463,4.562-2.508c0.417-1.045-0.501-3.842-0.476-4.174      C245.284,347.569,240.437,348.28,240.437,348.28z"/>
			</g>
			<g>
				<path fill="#81807E" d="M240.681,347.122c0,0-0.287,1.135-0.244,1.158c0.043,0.025,4.964,0.611,4.814-0.299      c-0.119-0.74-0.292-1.543-0.292-1.543L240.681,347.122z"/>
			</g>
			<g>
				<path fill="#81807E" d="M262.644,347.747c0,0-0.207,1.082-0.166,1.109c0.039,0.025,4.99,0.91,4.962,0.01      c-0.021-0.715-0.455-1.547-0.455-1.547L262.644,347.747z"/>
			</g>
			<g>
				<path fill="#2A94F4" d="M245.155,279.171c0,0-1.789,17.385-2.721,23.336c-1.09,6.957-1.457,12.707-1.762,16.309      c-0.382,4.529-0.455,26.814-0.724,28.139c-0.267,1.324,5.931,0.365,5.931,0.365s3.048-29.115,4.186-33.939      c1.059-4.492,4.988-23.834,5.955-22.605c0.965,1.227,2.164,22.568,2.881,26.111c0.715,3.543,2.891,31.281,2.891,31.281      s4.932,0.98,6.244-0.129c0,0,0.596-23.902,0.141-30.545c-0.173-2.533,2.967-30.354-1.06-41.553      C264.989,270.022,245.155,279.171,245.155,279.171z"/>
			</g>
		</g>
		<g>
			<path fill="#F2F2F2" d="M246.323,246.772c0,0-1.032,6.135-1.863,10.186l0,0c-0.338,1.643-0.641,2.943-0.831,3.352     c-0.236,0.518-2.173,2.596-4.542,5.035c-4.158,4.279-9.652,9.672-9.652,9.672l-2.146-4.078c0,0,4.88-5.719,8.187-9.537     c1.532-1.764,2.726-3.123,2.944-3.318c0.692-0.619,1.495-6.715,2.622-11.738c1.129-5.021,3.39-7.797,3.39-7.797L246.323,246.772z     "/>
		</g>
		<g>
			<path fill="#F1B99E" d="M239.087,265.345c-4.158,4.279-9.652,9.672-9.652,9.672l-2.146-4.078c0,0,4.88-5.719,8.187-9.537     C236.489,261.901,238.351,263.085,239.087,265.345z"/>
		</g>
		<g>
			<path fill="#F2F2F2" d="M244.463,255.528l0.07,1.781c-0.36-1.67-0.66-3.15-0.761-4.061c-0.26-2.381-0.92-13.07,0.66-14.701     c0.41-0.43,1.09-0.859,1.88-1.27L244.463,255.528z"/>
			<path fill="#0B4870" d="M249.652,235.849l-3.34,1.43C247.362,236.739,248.603,236.239,249.652,235.849z"/>
			<path fill="#F2F2F2" d="M262.812,236.038l-2.83,9.691h-11.279l0.949-9.881c1.32-0.48,2.351-0.789,2.351-0.789l8.64,0.318     C260.643,235.378,261.833,235.618,262.812,236.038z"/>
			<path fill="#F2F2F2" d="M265.062,253.878c0,0-0.01,0.342-0.029,0.9c0,0.07-0.011,0.141-0.011,0.211     c-0.02,0.92-0.06,2.32-0.1,3.83v0.08l-0.73-5l0.17-3.391l0.431-8.891l0.229-4.639c2.11,0.949,5.15,2.568,5.83,4.59     c0.01,0.01,0.01,0.029,0.021,0.039C271.822,244.519,265.062,253.878,265.062,253.878z"/>
			<path fill="#0B4870" d="M265.112,268.599c-0.569,0.211-1.159,0.439-1.75,0.67c-1.939,0.75-3.979,1.48-5.85,2.15     c-1.13,0.391-2.21,0.76-3.16,1.09c-0.04,0.01-0.08,0.02-0.13,0.039c-0.24,0.08-0.479,0.16-0.71,0.24     c-0.18,0.061-0.36,0.121-0.53,0.182c-0.26,0.078-0.5,0.17-0.72,0.238c-0.11,0.041-0.22,0.07-0.32,0.111     c-0.31,0.1-0.569,0.189-0.79,0.26c-0.149,0.049-0.27,0.09-0.369,0.119c-0.021,0.01-0.04,0.01-0.061,0.021     c-0.01,0-0.02,0.01-0.03,0.01c-0.14,0.049-0.22,0.068-0.22,0.068l-1.31-3.34c0,0,7.029-3.83,11.79-6.51     c1.8-1.01,3.27-1.869,3.909-2.289c-0.01,1.039-0.02,2.039-0.02,2.869C264.843,265.778,264.953,267.22,265.112,268.599z"/>
		</g>
		<g>
			<path fill="#F1B99E" d="M254.371,216.286c0,0-7.497-1.689-5.785,7.746c1.713,9.436,3.516,10.176,8.041,8.225     c4.521-1.955,4.117-7.998,4.344-10.963C261.199,218.329,256.763,216.39,254.371,216.286z"/>
		</g>
		<g>
			<path fill="#F1B99E" d="M252.388,237.476c0,0,3.32,3.52,8.568,0.32c0,0-1.175-7.627-0.558-11.346     c0.618-3.717-6.847,5.76-6.847,5.76c0.099,0.051,0.164,0.404,0.178,0.91c0.015,0.426-0.008,0.963-0.078,1.514     C253.497,235.868,253.114,237.171,252.388,237.476z"/>
		</g>
		<g>
			<path fill="#0E538C" d="M260.606,226.134c0,0-0.193-2.973-1.28-3.066c-1.087-0.092-1.252,1.105-1.252,1.105l-1.097,0.207     c0,0,0.347-2.605-0.739-3.061c-1.083-0.453-7.024,1.434-7.896,0.67c-0.87-0.766-2.662-7.305-0.938-7.141     c6.945,0.664,7.974-1.977,11.159,0.18c0,0,2.482-0.285,2.85,1.719C261.782,218.753,261.281,224.646,260.606,226.134z"/>
		</g>
		<g>
			<path fill="#A77860" d="M253.651,234.634c5.415-1.672,5.822-4.932,5.828-4.982c-1.783,3.062-5.75,3.469-5.75,3.469     C253.744,233.546,253.722,234.083,253.651,234.634z"/>
		</g>
		<g>
			<path fill="#F2F2F2" d="M263.172,236.187c0,0-3.965,7.893-10.37,7.383c-6.405-0.508-1.092-8.443-0.801-8.516     C252.321,234.972,256.414,234.634,263.172,236.187z"/>
		</g>
		<g>
			<path fill="#0B4870" d="M234.483,273.786c0,0,19.626,2.42,31.517,0.398l-22.721-2.836     C243.279,271.349,243.146,271.927,234.483,273.786z"/>
		</g>
		<g>
			<path fill="#EEA886" d="M249.163,270.454l-1.463,0.742c0,0,0.334,2.322,1.133,3.023l1.641-0.418     C250.474,273.802,250.132,271.255,249.163,270.454z"/>
		</g>
		<g>
			<path fill="#F2F2F2" d="M265.027,254.989L265.027,254.989c-0.026,0.918-0.064,2.316-0.1,3.832     c-2.665-6.531-1.126-11.742-1.099-11.83C263.54,248.765,265.007,254.901,265.027,254.989z"/>
		</g>
		<g>
			<path fill="#F2F2F2" d="M244.46,256.958L244.46,256.958c-0.338,1.643-0.641,2.943-0.831,3.352     c-0.907-4.402-0.091-10.041-0.091-10.041C243.663,252.964,244.46,256.958,244.46,256.958z"/>
		</g>
		<g>
			<path fill="#EEA886" d="M258.097,222.913c0.099-0.832,1.744-1.135,1.877,0.111c0.132,1.248-0.747,3.438-1.372,3.223     C257.978,226.034,257.96,224.062,258.097,222.913z"/>
		</g>
		<g>
			<path fill="#323657" d="M165.953,251.872h-0.011C165.987,251.892,165.994,251.894,165.953,251.872z"/>
		</g>
		<g>
			<path fill="#F2F2F2" d="M181.941,294.276c-6.613,0-11.98,7.348-11.98,13.947s5.367,13.947,11.98,13.947h210.715v-27.895H181.941     L181.941,294.276z"/>
		</g>
		<g>
			<g>
				<g>
					<g>
						<path fill="#FFFFFF" d="M366.157,300.069c0,0.871,0.713,1.58,1.589,1.58c0.877,0,1.584-0.709,1.584-1.58        c0-0.877-0.707-1.584-1.584-1.584C366.87,298.485,366.157,299.192,366.157,300.069z"/>
						<path fill="#FFFFFF" d="M366.157,314.419c0,0.875,0.713,1.586,1.589,1.586c0.877,0,1.584-0.711,1.584-1.586        c0-0.873-0.707-1.582-1.584-1.582C366.87,312.837,366.157,313.546,366.157,314.419z"/>
					</g>
					<g>
						<path fill="#FFFFFF" d="M342.256,300.069c0,0.871,0.714,1.58,1.589,1.58c0.878,0,1.587-0.709,1.587-1.58        c0-0.877-0.709-1.584-1.587-1.584C342.97,298.485,342.256,299.192,342.256,300.069z"/>
						<path fill="#FFFFFF" d="M342.256,314.419c0,0.875,0.714,1.586,1.589,1.586c0.878,0,1.587-0.711,1.587-1.586        c0-0.873-0.709-1.582-1.587-1.582C342.97,312.837,342.256,313.546,342.256,314.419z"/>
					</g>
					<g>
						<path fill="#FFFFFF" d="M318.355,300.069c0,0.871,0.713,1.58,1.589,1.58c0.878,0,1.586-0.709,1.586-1.58        c0-0.877-0.708-1.584-1.586-1.584C319.068,298.485,318.355,299.192,318.355,300.069z"/>
						<path fill="#FFFFFF" d="M318.355,314.419c0,0.875,0.713,1.586,1.589,1.586c0.878,0,1.586-0.711,1.586-1.586        c0-0.873-0.708-1.582-1.586-1.582C319.068,312.837,318.355,313.546,318.355,314.419z"/>
					</g>
					<g>
						<path fill="#FFFFFF" d="M294.459,300.069c0,0.871,0.709,1.58,1.584,1.58c0.878,0,1.587-0.709,1.587-1.58        c0-0.877-0.709-1.584-1.587-1.584C295.168,298.485,294.459,299.192,294.459,300.069z"/>
						<path fill="#FFFFFF" d="M294.459,314.419c0,0.875,0.709,1.586,1.584,1.586c0.878,0,1.587-0.711,1.587-1.586        c0-0.873-0.709-1.582-1.587-1.582C295.168,312.837,294.459,313.546,294.459,314.419z"/>
					</g>
					<g>
						<path fill="#FFFFFF" d="M270.557,300.069c0,0.871,0.711,1.58,1.588,1.58c0.876,0,1.589-0.709,1.589-1.58        c0-0.877-0.713-1.584-1.589-1.584C271.268,298.485,270.557,299.192,270.557,300.069z"/>
						<path fill="#FFFFFF" d="M270.557,314.419c0,0.875,0.711,1.586,1.588,1.586c0.876,0,1.589-0.711,1.589-1.586        c0-0.873-0.713-1.582-1.589-1.582C271.268,312.837,270.557,313.546,270.557,314.419z"/>
					</g>
					<g>
						<path fill="#FFFFFF" d="M246.656,300.069c0,0.871,0.711,1.58,1.588,1.58c0.875,0,1.589-0.709,1.589-1.58        c0-0.877-0.714-1.584-1.589-1.584C247.367,298.485,246.656,299.192,246.656,300.069z"/>
						<path fill="#FFFFFF" d="M246.656,314.419c0,0.875,0.711,1.586,1.588,1.586c0.875,0,1.589-0.711,1.589-1.586        c0-0.873-0.714-1.582-1.589-1.582C247.367,312.837,246.656,313.546,246.656,314.419z"/>
					</g>
					<g>
						<path fill="#FFFFFF" d="M222.756,300.069c0,0.871,0.711,1.58,1.59,1.58c0.873,0,1.586-0.709,1.586-1.58        c0-0.877-0.713-1.584-1.586-1.584C223.467,298.485,222.756,299.192,222.756,300.069z"/>
						<path fill="#FFFFFF" d="M222.756,314.419c0,0.875,0.711,1.586,1.59,1.586c0.873,0,1.586-0.711,1.586-1.586        c0-0.873-0.713-1.582-1.586-1.582C223.467,312.837,222.756,313.546,222.756,314.419z"/>
					</g>
					<g>
						<path fill="#FFFFFF" d="M198.857,300.069c0,0.871,0.713,1.58,1.585,1.58c0.876,0,1.585-0.709,1.585-1.58        c0-0.877-0.709-1.584-1.585-1.584C199.57,298.485,198.857,299.192,198.857,300.069z"/>
						<path fill="#FFFFFF" d="M198.857,314.419c0,0.875,0.713,1.586,1.585,1.586c0.876,0,1.585-0.711,1.585-1.586        c0-0.873-0.709-1.582-1.585-1.582C199.57,312.837,198.857,313.546,198.857,314.419z"/>
					</g>
				</g>
				<g>
					<path fill="#FFFFFF" d="M372.717,306.929c0,3.963,3.215,7.176,7.189,7.176c3.971,0,7.19-3.213,7.19-7.176       s-3.22-7.172-7.19-7.172C375.932,299.757,372.717,302.966,372.717,306.929z"/>
					<path fill="#FFFFFF" d="M349.025,306.929c0,3.963,3.22,7.176,7.193,7.176c3.972,0,7.186-3.213,7.186-7.176       s-3.214-7.172-7.186-7.172C352.245,299.757,349.025,302.966,349.025,306.929z"/>
					<path fill="#FFFFFF" d="M325.334,306.929c0,3.963,3.219,7.176,7.192,7.176c3.972,0,7.187-3.213,7.187-7.176       s-3.215-7.172-7.187-7.172C328.553,299.757,325.334,302.966,325.334,306.929z"/>
					<path fill="#FFFFFF" d="M301.646,306.929c0,3.963,3.22,7.176,7.188,7.176c3.977,0,7.193-3.213,7.193-7.176       s-3.217-7.172-7.193-7.172C304.866,299.757,301.646,302.966,301.646,306.929z"/>
					<ellipse fill="#FFFFFF" cx="285.15" cy="306.929" rx="7.19" ry="7.176"/>
					<ellipse fill="#FFFFFF" cx="261.458" cy="306.929" rx="7.189" ry="7.176"/>
					<ellipse fill="#FFFFFF" cx="237.769" cy="306.929" rx="7.192" ry="7.176"/>
					<path fill="#FFFFFF" d="M206.891,306.929c0,3.963,3.219,7.176,7.188,7.176c3.977,0,7.191-3.213,7.191-7.176       s-3.215-7.172-7.191-7.172C210.109,299.757,206.891,302.966,206.891,306.929z"/>
					<path fill="#FFFFFF" d="M183.198,306.929c0,3.963,3.222,7.176,7.196,7.176c3.969,0,7.188-3.213,7.188-7.176       s-3.219-7.172-7.188-7.172C186.42,299.757,183.198,302.966,183.198,306.929z"/>
				</g>
			</g>
		</g>
		<rect x="334.395" y="262.747" fill="#FFBE55" width="27.653" height="31.781"/>
		<rect x="347.184" y="262.649" fill="#FFBE55" width="27.656" height="31.779"/>
		<rect x="274.238" y="262.747" fill="#FFBE55" width="27.654" height="31.781"/>
		<rect x="287.024" y="262.649" fill="#FFBE55" width="27.658" height="31.779"/>
		<g>
			<rect x="201.478" y="262.747" fill="#FFBE55" width="27.658" height="31.781"/>
			<rect x="214.271" y="262.649" fill="#FFBE55" width="27.65" height="31.779"/>
		</g>
		<g>
			<g>
				<path fill="#FFBE55" d="M248.812,221.896c0,0,8.819-1.219,13.086-5.096c0,0-1.072-8.986-10.127-6.137      c0,0-7.169,2.297-5.402,9.32c0,0-3.449,1.652-3.493,2.279C242.833,222.892,245.825,222.692,248.812,221.896z"/>
			</g>
		</g>
		<g>
			<g>
				<path fill="#D3D3D3" d="M155.772,260.03c-0.437,0.662-1.326,0.846-1.992,0.412l-15.047-9.906      c-0.664-0.438-0.848-1.33-0.412-1.992l13.95-21.195c0.437-0.664,1.329-0.846,1.993-0.41l15.047,9.904      c0.664,0.438,0.851,1.33,0.412,1.992L155.772,260.03z"/>
				<path fill="#CCE9FF" d="M168.071,238.913l-11.85,18.006c-0.381,0.578-1.158,0.74-1.736,0.359l-13.126-8.641      c-0.578-0.377-0.739-1.156-0.356-1.736l11.848-18.002c0.38-0.582,1.16-0.74,1.738-0.359l13.124,8.637      C168.292,237.56,168.452,238.337,168.071,238.913z"/>
			</g>
			<g>
				<g>
					<g>
						<path fill="#424773" d="M109.958,346.819c0,0-0.428,2.979-0.48,3.426c-0.055,0.445-4.773-0.264-4.773-0.264l-0.382-3.545        C104.322,346.437,109.369,346.399,109.958,346.819z"/>
					</g>
				</g>
				<g>
					<g>
						<path fill="#0E538C" d="M109.526,349.866c0,0,1.494,1.793,2.94,2.576c1.446,0.781,3.72,1.092,4.574,1.9        c0.617,0.586,2.248,3.102-3.759,3.051c-6.005-0.051-8.899,0.354-9.543-0.609c-0.643-0.965,0.93-7.121,0.93-7.121        S106.092,350.175,109.526,349.866z"/>
					</g>
				</g>
				<g>
					<g>
						<path fill="#424773" d="M141.813,346.819c0,0-0.43,2.979-0.483,3.426c-0.054,0.445-4.772-0.264-4.772-0.264l-0.382-3.545        C136.176,346.437,141.222,346.399,141.813,346.819z"/>
					</g>
				</g>
				<g>
					<g>
						<path fill="#0E538C" d="M141.38,349.866c0,0,1.495,1.793,2.941,2.576c1.446,0.781,6.768,1.424,7.621,2.234        c0.618,0.584,1.645,2.936-6.805,2.717c-6.004-0.158-8.901,0.354-9.544-0.609c-0.645-0.965,0.931-7.121,0.931-7.121        S137.864,350.212,141.38,349.866z"/>
					</g>
				</g>
				<g>
					<g>
						<path fill="#0B4870" d="M104.073,349.261l6.082,0.139c0,0,5.103-30.688,6.432-33.824c0.939-2.24,4.557-14.264,6.628-21.869        c0.831-3.039,1.408-5.377,1.477-6.09c0.098-1.096-1.976-4.555-4.321-8.094c-1.691-0.029-3.411-0.117-5.102-0.275        c-1.613-0.145-3.462-0.154-4.967-0.459c-0.391,1.605-0.626,3.285-0.538,4.928c0.332,6.375-1.612,13.324-2.278,19.971        c-0.742,7.422-3.772,24.979-3.89,28.947C103.487,336.593,104.073,349.261,104.073,349.261z"/>
					</g>
				</g>
				<g>
					<g>
						<path fill="#0B4870" d="M115.269,279.247c1.817,4.088,4.056,5.494,6.031,9.934c0.596,1.32,1.25,2.844,1.915,4.525        c2.708,6.785,5.671,16.043,5.671,24.166c0,10.127,5.972,31.527,5.972,31.527h7.772c-0.587-3.695-2.424-33.053-2.641-35.496        c-0.224-2.436-0.517-17.391-0.957-21.291c-0.244-2.211-1.428-8.76-2.404-14.029c0,0-7.802,1.115-16.258,0.939        C118.679,279.493,116.959,279.405,115.269,279.247z"/>
						<path fill="#292C47" d="M127.193,274.165c0.166,0.02,0.362,0.039,0.597,0.059c0.029,0,2.825,0.332,2.854,0.332h0.205        c-0.392-0.049-2.873-0.332-2.903-0.332C127.644,274.194,127.39,274.175,127.193,274.165z"/>
						<path fill="#292C47" d="M126.46,274.087c0.108,0.02,0.217,0.029,0.362,0.039C126.677,274.106,126.568,274.097,126.46,274.087z        "/>
					</g>
				</g>
				<path fill="#2A94F4" d="M110.302,278.788c1.505,0.305,3.354,0.314,4.967,0.459c1.69,0.158,3.41,0.246,5.102,0.275      c8.456,0.176,16.258-0.939,16.258-0.939v-0.018l-0.127-2.025l-0.157-2.512c-0.107,0.049-0.224,0.078-0.332,0.117      c-0.431,0.156-2.366,0.566-4.517,0.4c-0.088,0.01-0.176,0.01-0.264,0l-0.333,0.01c0,0-0.019,0-0.049,0h-0.205      c-0.029,0-2.825-0.332-2.854-0.332c-0.234-0.02-0.431-0.039-0.597-0.059c-0.068,0-0.127-0.01-0.185-0.02      c-0.021,0.01-0.03,0-0.039,0c-0.049-0.01-0.108-0.01-0.147-0.02c-0.146-0.01-0.254-0.02-0.362-0.039h-0.038      c-0.089-0.02-0.167-0.02-0.255-0.029c-0.117-0.01-0.225-0.029-0.361-0.039c-0.02,0-0.049,0-0.078-0.01      c-0.195-0.02-0.43-0.039-0.753-0.068c-0.097,0-0.205-0.01-0.312-0.02h-0.02c-1.231-0.049-2.356-0.107-3.372-0.176      c-0.215-0.02-0.422-0.029-0.616-0.039c-0.479-0.029-0.929-0.068-1.359-0.098c-0.176-0.01-0.342-0.029-0.508-0.039      c-1.174-0.088-2.171-0.188-3.002-0.283c-1.358-0.168-2.277-0.334-2.776-0.5c-0.137-0.039-0.234-0.078-0.303-0.117      c-0.098-0.059-0.332-0.127-0.479-0.225c-0.519,1.301-1.017,3.021-1.34,4.301c-0.156,0.49-0.312,0.988-0.449,1.496      c0,0.029-0.011,0.049-0.02,0.078C110.331,278.593,110.272,278.778,110.302,278.788z"/>
				<path fill="#E59A67" d="M127.193,274.165c0.166,0.02,0.362,0.039,0.597,0.059c0.029,0,2.825,0.332,2.854,0.332h0.205      c-0.392-0.049-2.873-0.332-2.903-0.332C127.644,274.194,127.39,274.175,127.193,274.165z"/>
				<path fill="#E59A67" d="M126.46,274.087c0.108,0.02,0.217,0.029,0.362,0.039C126.677,274.106,126.568,274.097,126.46,274.087z"/>
				<g>
					<g>
						<path fill="#F1B99E" d="M121.778,230.722c0.557,0.234,1.173,0.537,1.779,0.881c0.371,0.205,0.587,0.703,0.771,1.211        c0.206,0.566,0.383,1.145,0.715,1.35c0.859,0.557,3.89,3.559,3.89,3.559l-0.439-4.811l-0.361-0.469l-0.694-0.908l0.068-0.822        c0.137,0.059,0.293,0.146,0.43,0.244c-0.02-0.254-0.029-0.537-0.038-0.83c-0.558-0.186-1.065-0.391-1.526-0.596        c-0.215,0.967-0.351,2.121-0.351,2.121L121.778,230.722z"/>
						<path fill="#F1B99E" d="M120.811,230.517v0.029c0.02-0.01,0.028-0.02,0.038-0.029H120.811z"/>
						<path fill="#F1B99E" d="M120.811,230.546c0.049,0.664,0.059,0.998,0.059,0.998c0.195,0.146,0.41,0.273,0.625,0.381        c0.871,0.479,1.877,0.752,2.835,0.889c0.499,0.068,0.979,0.098,1.428,0.098c-0.635-0.4-1.418-0.879-2.199-1.309        c-0.606-0.344-1.223-0.646-1.779-0.881h-0.02c-0.283-0.117-0.537-0.205-0.782-0.273c0,0-0.04,0.02-0.128,0.068        C120.839,230.526,120.83,230.536,120.811,230.546z"/>
						<path fill="#F1B99E" d="M118.317,229.97l2.493,0.547h0.038c0.088-0.049,0.128-0.068,0.128-0.068        c0.245,0.068,0.499,0.156,0.782,0.273h0.02l4.243,0.93c0,0,0.136-1.154,0.351-2.121c0.118-0.568,0.264-1.076,0.43-1.252        c0.021-0.02,0.041-0.039,0.069-0.049c0.009-0.01,0.02-0.02,0.029-0.02c0.303,0.107,0.558,0.195,0.733,0.264        c0.177,0.059,0.273,0.088,0.273,0.088c0.969,0.283,1.76,0.439,2.15,0.4c1.3-0.127,2.308-4.477,2.641-4.828        c0.332-0.352,1.915-0.754,1.7-1.301s-1.856-3.9-1.095-4.34c0.509-0.303,0.166-1.486-0.235-2.482        c-0.01,0.01-0.01,0.018-0.01,0.018c-0.392,0.256-0.752,0.461-1.074,0.627c-0.44,0.225-0.821,0.381-1.163,0.488        c0.107,0.646,0.176,1.35,0.234,2.141c0.136,1.967-0.294,3.266-0.655,3.08c-0.265-0.137-0.312-1.975-0.421-2.992        c-0.117-1.025-0.762-1.389-1.495-0.312c-0.743,1.076-0.342,1.672-0.489,3.598c-0.127,1.77-1.466,2.807-2.512,3.324        c-0.088,0.049-0.176,0.088-0.254,0.127c-0.421,0.186-1.516,0.225-2.698,0.205h-0.01c-0.088,0.01-0.156,0-0.244,0        c-0.695-0.01-1.398-0.049-2.015-0.078c-0.548-0.039-1.026-0.068-1.349-0.098C118.875,228.063,118.317,229.97,118.317,229.97z"/>
						<path fill="#F1B99E" d="M127.898,229.716c-0.01-0.4,0-0.803,0.009-1.154c0,0-0.097-0.029-0.273-0.088        c-0.176-0.068-0.431-0.156-0.733-0.264c-0.01,0-0.021,0.01-0.029,0.02c-0.028,0.01-0.049,0.029-0.069,0.049        c-0.166,0.176-0.312,0.684-0.43,1.252c0.461,0.205,0.969,0.41,1.526,0.596V229.716z"/>
						<path fill="#F1B99E" d="M128.233,232.173c0.107,0.234-0.265,0.459-0.91,0.596l0.119-1.23l0.067-0.822        c0.136,0.059,0.293,0.146,0.431,0.244c0.01,0.068,0.01,0.137,0.019,0.195c0.01,0.139,0.05,0.312,0.108,0.479        C128.125,231.86,128.204,232.085,128.233,232.173z"/>
					</g>
					<g>
						<path fill="#F1B99E" d="M126.871,228.229c0.265,0.088,0.519,0.166,0.763,0.244c-0.176-0.068-0.431-0.156-0.733-0.264        C126.891,228.21,126.88,228.22,126.871,228.229z"/>
						<path fill="#F1B99E" d="M123.479,217.712c0.01,0.027,0.02,0.049,0.039,0.078c0.117-0.021,0.225-0.051,0.332-0.068        c0.068-0.01,0.439-0.08,1.017-0.176C124.378,217.622,123.919,217.673,123.479,217.712z"/>
					</g>
					<g>
						<path fill="#0E538C" d="M117.624,218.708c0.283,2.219,0.957,4.459,1.202,5.924c0.088,0.479,0.107,0.998,0.088,1.506        c0.322,0.029,0.801,0.059,1.349,0.098c0.616,0.029,1.319,0.068,2.015,0.078c0.088,0,0.156,0.01,0.244,0h0.01        c1.183,0.02,2.277-0.02,2.698-0.205c0.078-0.039,0.166-0.078,0.254-0.127c1.046-0.518,2.385-1.555,2.512-3.324        c0.147-1.926-0.254-2.521,0.489-3.598c0.733-1.076,1.378-0.713,1.495,0.312c0.108,1.018,0.156,2.855,0.421,2.992        c0.361,0.186,0.791-1.113,0.655-3.08c-0.059-0.791-0.127-1.494-0.234-2.141c0.342-0.107,0.723-0.264,1.163-0.488        c0.322-0.166,0.683-0.371,1.074-0.627c0,0,0-0.008,0.01-0.018c0-0.01-0.01-0.01-0.01-0.021        c-0.371,0.1-0.771,0.188-1.192,0.275c-1.173,0.244-2.482,0.498-3.686,0.713c-0.713,0.137-1.397,0.254-1.993,0.352        c-0.04,0-0.069,0.01-0.108,0.01c-0.186,0.029-0.361,0.068-0.537,0.098c-0.234,0.039-0.451,0.078-0.675,0.109        c-0.577,0.096-0.948,0.166-1.017,0.176c-0.107,0.018-0.215,0.047-0.332,0.068c-0.42,0.088-0.841,0.176-1.271,0.254        c-0.088,0.018-0.186,0.039-0.273,0.049c-0.352,0.068-0.703,0.127-1.056,0.186c-0.577,0.098-1.153,0.176-1.739,0.254        c-0.373,0.049-0.744,0.088-1.115,0.137C117.916,218.679,117.771,218.688,117.624,218.708z"/>
						<path fill="#0B4870" d="M123.479,217.712c0.01,0.027,0.02,0.049,0.039,0.078c0.117-0.021,0.225-0.051,0.332-0.068        c0.068-0.01,0.439-0.08,1.017-0.176C124.378,217.622,123.919,217.673,123.479,217.712z"/>
						<path fill="#0B4870" d="M133.059,215.989c0,0.012,0.01,0.012,0.01,0.021c0-0.01,0-0.01,0.011-0.021        C133.079,215.989,133.068,215.989,133.059,215.989z"/>
					</g>
				</g>
				<path fill="#2A94F4" d="M107.479,251.163c0,0,0.996,12.648,1.991,14.141c0.993,1.492,5.896-0.498,5.896-0.498l-2.559-15.205"/>
				<path fill="#2A94F4" d="M107.713,253.894c0.962,0.111,0.899-1.537,1.599-1.537c1.594,0,2.498-0.178,2.498-0.178      s0.911,0.811,2.156,1.9c-0.066-0.588-0.152-1.338-0.246-2.225c-0.025-0.215-0.052-0.443-0.077-0.674      c-0.009-0.043-0.009-0.094-0.017-0.137c-0.018-0.162-0.034-0.322-0.052-0.494c-0.017-0.213-0.043-0.426-0.067-0.656      c-0.061-0.572-0.129-1.178-0.197-1.809c-0.067-0.639-0.136-1.303-0.213-1.994c-0.043-0.385-0.086-0.768-0.119-1.16      c-0.077-0.664-0.153-1.338-0.223-2.012c-0.034-0.35-0.076-0.707-0.11-1.066c-0.008-0.025-0.008-0.043-0.008-0.059      c-0.026-0.213-0.043-0.418-0.068-0.623c-0.325-3.104-0.64-6.096-0.861-8.229c-1.381,0.836-4.127,3.096-4.433,8.221      c-0.027,0.279-0.043,0.588-0.053,0.92C107.077,244.606,107.203,250.208,107.713,253.894z"/>
				<path fill="#F1B99E" d="M120.849,230.517l0.91,0.205c-0.283-0.117-0.537-0.205-0.782-0.273      C120.977,230.448,120.937,230.468,120.849,230.517z"/>
				<path fill="#F1B99E" d="M123.479,217.712c0.01,0.027,0.02,0.049,0.039,0.078c0.117-0.021,0.225-0.051,0.332-0.068      c0.068-0.01,0.439-0.08,1.017-0.176C124.378,217.622,123.919,217.673,123.479,217.712z"/>
				<path fill="#2A94F4" d="M116.395,232.388c0,0,0.227-1.789,0.905-2.422c0.68-0.635,5.208-0.635,6.566-0.465      c1.359,0.17,4.708,1.732,5.15,2.062c0.443,0.328-0.432,2.049-0.432,2.049L116.395,232.388z"/>
				<path fill="#FFBE55" d="M112.198,271.321c-0.069,0.381-0.166,0.684-0.098,0.967c0.01,0.059,0.059,0.117,0.127,0.156      c0.146,0.098,0.381,0.166,0.479,0.225c0.068,0.039,0.166,0.078,0.303,0.117c0.499,0.166,1.418,0.332,2.776,0.5      c0.831,0.096,1.828,0.195,3.002,0.283c0.166,0.01,0.332,0.029,0.508,0.039c0.431,0.029,0.88,0.068,1.359,0.098      c0.194,0.01,0.401,0.02,0.616,0.039c1.016,0.068,2.141,0.127,3.372,0.176h0.02c0.107,0.01,0.216,0.02,0.312,0.02      c0.323,0.029,0.558,0.049,0.753,0.068c0.029,0.01,0.059,0.01,0.078,0.01c0.137,0.01,0.244,0.029,0.361,0.039      c0.088,0.01,0.166,0.01,0.255,0.029h0.038c0.108,0.01,0.217,0.02,0.362,0.039c0.039,0.01,0.099,0.01,0.147,0.02      c0.009,0,0.019,0.01,0.039,0c0.058,0.01,0.116,0.02,0.185,0.02c0.196,0.01,0.45,0.029,0.753,0.059      c0.03,0,2.512,0.283,2.903,0.332c0.03,0,0.049,0,0.049,0l0.333-0.01h0.264c2.15,0.166,4.086-0.244,4.517-0.4      c0.108-0.039,0.225-0.068,0.332-0.117c0.127-0.049,0.234-0.127,0.284-0.273c0.185-0.43-0.587-2.766-0.637-3.451      c-0.049-0.871-0.194-1.818-0.282-2.6c-0.118-1.77-0.235-3.648,0-5.455c0.059-0.49,0.116-0.988,0.176-1.496      c-0.528,0.557-1.652,1.066-3.628,1.447c-4.564,0.898-9.844,1.094-14.096,1.047c-2.522-0.021-4.691-0.129-6.12-0.227      c0.226,1.271,0.401,2.404,0.528,3.402c0.177,1.299-0.049,2.6-0.205,3.881C112.335,270.606,112.237,271.028,112.198,271.321z"/>
				<path fill="#FFBE55" d="M107.789,239.94v0.059c0.098,1.555,0.352,3.373,0.675,5.338c7.625,0.83,20.246-0.439,20.246-0.439      s11.289,4.76,1.485,6.676c-7.401,1.447-16.628,1.076-20.372,0.803c0.244,1.211,0.508,2.404,0.752,3.578v0.01      c7.654,0.83,20.196-0.441,20.196-0.441s4.263,1.799,5.279,3.627c0.646-6.148,1.124-13.432,0.85-18.104      c-0.028-0.432-0.067-0.842-0.116-1.213c-0.479-3.656-3.49-6.48-9.493-7.635c-2.717-0.537-6.041-0.713-10.029-0.479      C117.262,231.72,107.213,230.858,107.789,239.94z"/>
				<path fill="#FCD2B1" d="M108.464,245.337c0.087,0.547,0.186,1.113,0.293,1.682c0.215,1.164,0.439,2.355,0.693,3.549      c0.119,0.605,0.244,1.201,0.373,1.809c3.744,0.273,12.971,0.645,20.372-0.803c9.804-1.916-1.485-6.676-1.485-6.676      S116.089,246.167,108.464,245.337z"/>
				<path fill="#FCD2B1" d="M110.575,255.964c0.128,0.576,0.254,1.143,0.372,1.701c0.312,1.426,0.586,2.785,0.831,4.008      c0.088,0.469,0.176,0.918,0.263,1.348c3.832,0.266,12.934,0.607,20.216-0.82c1.976-0.381,3.1-0.891,3.628-1.447      c0.058-0.518,0.116-1.045,0.166-1.594c0,0,0,0,0-0.01c-1.017-1.828-5.279-3.627-5.279-3.627S118.229,256.794,110.575,255.964z"/>
				<path fill="#FCD2B1" d="M136.051,259.159c-0.05,0.549-0.108,1.076-0.166,1.594C136.364,260.255,136.354,259.708,136.051,259.159      z"/>
				<g id="XMLID_2_">
					<path id="XMLID_7_" fill="#2A94F4" d="M129.827,249.388c0,0,4.448,16.398,8.051,17.545c2.066,0.656,18.013-9.475,18.013-9.475       l-3.582-2.297l-11.515,3.502l-2.733-11.264L129.827,249.388z"/>
					<g>
						<g>
							<path fill="#F1B99E" d="M162.004,254.101c0.088-0.238,0.149-0.486,0.265-0.713c0.254-0.492,0.745-0.822,1.031-1.297         c0.225-0.373,0.309-0.809,0.469-1.213c0.18-0.459,0.716-1.156,0.353-1.334c0.17-0.273,0.396-0.57,0.554-0.852         c0.121-0.211,0.246-0.652-0.026-0.699c-0.405-0.07-1.001,0.312-1.327,0.477c-0.436,0.217-1.211,0.9-1.617,1.162         c-0.917,0.596-1.801,0.684-1.801,0.684s0.291-0.271,0.203-0.484c-0.134-0.326-0.995-0.092-1.812-0.23         c-0.422-0.072-1.795,0.828-2.233,1.07c-0.439,0.244-1.433,2.289-1.664,2.705c-0.608,1.086-2.497,1.949-2.497,1.949         s2.822,2.717,2.837,2.73c0.069,0.062,0.591-0.305,0.657-0.346c0.28-0.168,0.623-0.344,0.955-0.373         c1.357-0.684,3.053-0.688,4.316-1.58c0.578-0.41,1.073-0.961,1.327-1.623C161.996,254.122,162,254.11,162.004,254.101z"/>
						</g>
						<g id="XMLID_3_">
							<g>
								<path id="XMLID_16_" fill="#F2A19C" d="M159.903,250.315c-0.7,0.367-1.195,0.309-1.74,0.408          c-0.427,0.076-0.499,0.258-0.957,0.324c0.538,0.295,0.646-0.064,1.62-0.111c0.451-0.023,0.926-0.057,1.231-0.395          C160.161,250.427,160.054,250.255,159.903,250.315L159.903,250.315z"/>
							</g>
						</g>
					</g>
				</g>
				<path fill="#2A94F4" d="M130.905,253.024c3.225,0,6.527-0.574,8.198-1.324c-0.868-8.961-3.104-14.309-4.688-16.082      c-0.992-1.111-2.516-1.654-3.964-1.318c-1.705,0.396-3.75,1.875-3.75,6.703C126.7,243.847,130.281,251.974,130.905,253.024z"/>
				<g>
					<path fill="#FFBE55" d="M116.333,218.503c0.078,0.391,0.674,0.322,0.674,0.322c0.461-0.029,0.939-0.059,1.398-0.107       c0.059,0,0.128-0.01,0.196-0.01c0.146-0.02,0.292-0.029,0.439-0.039c0.371-0.049,0.742-0.088,1.114-0.137       c0.587-0.078,1.163-0.156,1.74-0.254c0.352-0.059,0.704-0.117,1.056-0.186c0.088-0.01,0.185-0.031,0.274-0.049       c0.43-0.078,0.85-0.166,1.27-0.254c-0.019-0.029-0.028-0.051-0.039-0.078c0.44-0.039,0.9-0.09,1.389-0.166       c0.225-0.031,0.439-0.07,0.675-0.109c0.176-0.029,0.352-0.068,0.538-0.098c0.039,0,0.067-0.01,0.107-0.01       c0.596-0.098,1.28-0.215,1.993-0.352c1.203-0.215,2.513-0.469,3.687-0.713c0.42-0.088,0.82-0.176,1.191-0.275       c0.01,0,0.021,0,0.021,0c1.339-0.311,2.346-0.615,2.571-0.84c0.605-0.635-1.223-1.045-2.103-1.193       c-0.273-0.059-0.45-0.076-0.45-0.076l-0.009,0.01c-0.108-1.193-0.44-3.07-1.516-4.703c-1.329-2.033-3.773-3.695-8.28-3.227       c-0.567,0.068-1.094,0.146-1.593,0.254l-0.011,0.012c-7.81,1.641-6.734,8.729-6.001,11.486       C116.666,217.712,116.206,217.927,116.333,218.503z"/>
					<path fill="#FFB41D" d="M124.456,217.712c0.011,0.027,0.021,0.049,0.039,0.078c0.118-0.021,0.226-0.051,0.333-0.068       c0.068-0.01,0.44-0.08,1.017-0.176C125.356,217.622,124.896,217.673,124.456,217.712z"/>
				</g>
				<path fill="#FFBE55" d="M127.193,274.165c0.166,0.02,0.362,0.039,0.597,0.059c0.029,0,2.825,0.332,2.854,0.332h0.205      c-0.392-0.049-2.873-0.332-2.903-0.332C127.644,274.194,127.39,274.175,127.193,274.165z"/>
				<path fill="#FFBE55" d="M126.46,274.087c0.108,0.02,0.217,0.029,0.362,0.039C126.677,274.106,126.568,274.097,126.46,274.087z"/>
			</g>
		</g>
		<path fill="#2A94F4" d="M246.103,266.938c-0.109,0.311-0.52,0.811-1.12,1.4l-0.449-11.029    C245.353,261.108,246.453,265.878,246.103,266.938z"/>
		<path fill="#2A94F4" d="M264.133,236.589c-0.48-0.199-0.86-0.35-1.05-0.439c-0.09-0.041-0.17-0.08-0.271-0.111l0.01-0.039    L264.133,236.589z"/>
		<path fill="#2A94F4" d="M268.643,284.448h-23.68l0.07-9.029l0.01-1.109l0.029-3.611c1.2,0.281,2.94,0.551,2.94,0.551    c1.11-0.451,1.34,2.811,1.34,2.811s-0.38,0.119-0.93,0.289c8.04,0.1,17.67,0.15,17.58-0.16c-0.11-0.359-0.58-2.859-0.891-5.59    c-0.569,0.211-1.159,0.439-1.75,0.67c-1.939,0.75-3.979,1.48-5.85,2.15c-1.13,0.391-2.21,0.76-3.16,1.09    c-0.04,0.01-0.08,0.02-0.13,0.039c-0.24,0.08-0.479,0.16-0.71,0.24c-0.18,0.061-0.36,0.121-0.53,0.182    c-0.26,0.078-0.5,0.17-0.72,0.238c-0.11,0.041-0.22,0.07-0.32,0.111c-0.31,0.1-0.569,0.189-0.79,0.26    c-0.149,0.049-0.27,0.09-0.369,0.119c-0.021,0.01-0.04,0.01-0.061,0.021c-0.01,0-0.02,0.01-0.03,0.01    c-0.14,0.049-0.22,0.068-0.22,0.068l-1.31-3.34c0,0,7.029-3.83,11.79-6.51c1.8-1.01,3.27-1.869,3.909-2.289    c0.021-0.91,0.04-1.85,0.061-2.76l0.35,2.43l0.99,6.811L268.643,284.448z"/>
		<g>
			<g>
				<path fill="#2A94F4" d="M266.003,274.188c0.09,0.311-9.54,0.26-17.58,0.16c0.55-0.17,0.93-0.289,0.93-0.289      s-0.229-3.262-1.34-2.811c0,0-1.74-0.27-2.94-0.551l-0.09-2.359c0.601-0.59,1.011-1.09,1.12-1.4      c0.351-1.061-0.75-5.83-1.569-9.629l-0.07-1.781l1.85-18.25l3.34-1.43l-0.949,9.881h11.279l2.83-9.691      c0.101,0.031,0.181,0.07,0.271,0.111c0.189,0.09,0.569,0.24,1.05,0.439c0.07,0.029,0.14,0.061,0.21,0.09l0.68,0.301      l-0.229,4.639l-0.431,8.891l-0.17,3.391l0.73,5c-0.021,0.91-0.04,1.85-0.061,2.76c-0.64,0.42-2.109,1.279-3.909,2.289      c-4.761,2.68-11.79,6.51-11.79,6.51l1.31,3.34c0,0,0.08-0.02,0.22-0.068c0.011,0,0.021-0.01,0.03-0.01      c0.021-0.012,0.04-0.012,0.061-0.021c0.1-0.029,0.22-0.07,0.369-0.119c0.221-0.07,0.48-0.16,0.79-0.26      c0.101-0.041,0.21-0.07,0.32-0.111c0.22-0.068,0.46-0.148,0.72-0.238c0.17-0.061,0.351-0.121,0.53-0.182      c0.23-0.068,0.46-0.148,0.71-0.24c0.05-0.02,0.09-0.029,0.13-0.039c0.95-0.33,2.03-0.699,3.16-1.09      c1.87-0.67,3.91-1.4,5.85-2.15c0.591-0.23,1.181-0.459,1.75-0.67C265.423,271.329,265.893,273.829,266.003,274.188z"/>
				<path fill="#F2F2F2" d="M271.873,265.698c-0.221,0.26-2.561,1.24-5.61,2.441c-0.37,0.148-0.76,0.299-1.15,0.459      c-0.569,0.211-1.159,0.439-1.75,0.67c-1.939,0.75-3.979,1.48-5.85,2.15c-1.13,0.391-2.21,0.76-3.16,1.09      c-0.04,0.01-0.08,0.02-0.13,0.039c-0.24,0.08-0.479,0.16-0.71,0.24c-0.18,0.061-0.36,0.121-0.53,0.182      c-0.26,0.078-0.5,0.17-0.72,0.238c-0.11,0.041-0.22,0.07-0.32,0.111c-0.31,0.1-0.569,0.189-0.79,0.26      c-0.149,0.049-0.27,0.09-0.369,0.119c-0.021,0.01-0.04,0.01-0.061,0.021c-0.01,0-0.02,0.01-0.03,0.01l-1.529-3.271      c0,0,7.029-3.83,11.79-6.51c1.8-1.01,3.27-1.869,3.909-2.289c0.16-0.1,0.261-0.17,0.311-0.221c0.04-0.029,0.07-0.07,0.1-0.109      c0.69-0.73,0.84-1.881,0.3-3.82c-0.14-0.52-0.329-1.52-0.539-2.73c-0.221-1.279-0.461-2.799-0.671-4.27l0.431-8.891      c0.46-0.41,1.069-0.699,1.88-0.74c2.72-0.148,4.11,0.621,4.11,0.621s0.02,0.01,0.069,0.07c0.01,0.01,0.01,0.029,0.021,0.039      c0.21,0.34,0.71,1.66,1.109,6.801C272.493,255.038,272.562,264.899,271.873,265.698z"/>
			</g>
			<g>
				<path fill="#F1B99E" d="M263.362,269.269c-1.939,0.75-3.979,1.48-5.85,2.15c-1.13,0.391-2.21,0.76-3.16,1.09      c-0.04,0.01-0.08,0.02-0.13,0.039c-0.24,0.08-0.479,0.16-0.71,0.24c-0.18,0.061-0.36,0.121-0.53,0.182      c-0.26,0.078-0.5,0.17-0.72,0.238c-0.11,0.041-0.22,0.07-0.32,0.111c-0.31,0.1-0.569,0.189-0.79,0.26      c-0.149,0.049-0.27,0.09-0.369,0.119c-0.021,0.01-0.04,0.01-0.061,0.021c-0.01,0-0.02,0.01-0.03,0.01      c-0.14,0.049-2.27,0.619-2.27,0.619l-1.31-3.34c0,0,9.079-4.381,13.84-7.061C260.953,263.948,262.683,264.798,263.362,269.269z"/>
			</g>
			<g>
				<g>
					<path fill="#F1B99E" d="M249.353,274.06c0,0-0.38,0.119-0.93,0.289h-0.01c-0.971,0.301-2.46,0.77-3.38,1.07       c-0.33,0.1-0.58,0.18-0.721,0.23c-0.74,0.26-1.7,1.75-3.12,2.43c-1.409,0.689-1.979-1.141-1.979-1.141       c-0.62,0.301-1.16-0.289-0.8-0.549c0.159-0.121,0.659-1.092,1.21-2.16c0.13-0.25,0.26-0.51,0.39-0.771       c0.36-0.68,0.7-1.318,0.96-1.719c0.1-0.16,0.19-0.291,0.26-0.361c0.101-0.1,0.24-0.189,0.41-0.27c0,0,0.01,0,0.021,0       c0.06-0.039,0.13-0.07,0.21-0.09c0.939-0.35,2.479-0.49,3.199-0.32c1.2,0.281,2.94,0.551,2.94,0.551       C249.123,270.798,249.353,274.06,249.353,274.06z"/>
				</g>
			</g>
			<g>
				<g>
					<path fill="#F1B99E" d="M241.654,271.101c0,0-1.118,0.541-1.413,0.781c-0.291,0.242-1.476,1.129-1.763,1.338       c-0.285,0.209,0.434,0.801,2.551-0.119C243.147,272.185,241.654,271.101,241.654,271.101z"/>
				</g>
			</g>
		</g>
		<g>
			<path fill="#0B4870" d="M257.917,221.271l-0.313,0.086c0.068,0.09,0.123,0.195,0.15,0.312l0.449,1.924l4.095-2.578v-0.936     L257.917,221.271z"/>
			<path fill="#0B4870" d="M245.665,223.683c-0.459,0.105-0.745,0.564-0.636,1.023l0.563,2.377c0.309,1.316,1.641,2.172,2.958,1.83     c0.046-0.014,0.091-0.023,0.127-0.035c0.605-0.201,1.15-0.973,1.836-1c0.682-0.027,1.482,0.576,2.341,0.385     c0.168-0.035,0.382-0.08,0.623-0.135c0.004,0,0.014-0.006,0.022-0.006c0.05-0.014,0.1-0.025,0.146-0.041     c1.235-0.371,1.985-1.648,1.686-2.922l-0.627-2.682c-0.104-0.453-0.559-0.74-1.014-0.635l-4.198,0.963l-0.541,0.123     L245.665,223.683z"/>
			<path fill="#F2F2F2" d="M256.735,221.038l-3.045,0.805c0.455-0.105,0.909,0.182,1.014,0.635l0.627,2.682     c0.3,1.273-0.45,2.551-1.686,2.922c0.618-0.158,2.672-0.717,2.876-0.762c1.336-0.301,2.173-1.633,1.859-2.969l-0.101-0.422     l-0.077-0.336l-0.449-1.924c-0.027-0.117-0.082-0.223-0.15-0.312C257.408,221.097,257.072,220.96,256.735,221.038z"/>
		</g>
		<path fill="#F2F2F2" d="M323.933,265.698c-0.22,0.26-2.56,1.24-5.61,2.441c-0.369,0.148-0.76,0.299-1.149,0.459    c-0.57,0.211-1.16,0.439-1.75,0.67c-0.68-4.471-2.41-5.32-2.41-5.32c1.8-1.01,3.271-1.869,3.91-2.289    c0.16-0.1,0.26-0.17,0.31-0.221c0.04-0.029,0.07-0.07,0.101-0.109c0.689-0.73,0.84-1.881,0.3-3.82c-0.14-0.52-0.33-1.52-0.54-2.73    c-0.22-1.279-0.46-2.799-0.67-4.27l0.43-8.891c0.46-0.41,1.07-0.699,1.88-0.74c2.721-0.148,4.11,0.621,4.11,0.621    s0.02,0.01,0.07,0.07c0.01,0.01,0.01,0.029,0.02,0.039c0.21,0.34,0.71,1.66,1.11,6.801    C324.553,255.038,324.623,264.899,323.933,265.698z"/>
		<g>
			<path fill="#F1D2C3" d="M315.423,269.269c-1.94,0.75-3.98,1.48-5.851,2.15c-1.13,0.391-2.21,0.76-3.159,1.09     c-0.04,0.01-0.08,0.02-0.13,0.039c-0.24,0.08-0.48,0.16-0.711,0.24c-0.18,0.061-0.359,0.121-0.529,0.182     c-0.26,0.078-0.5,0.17-0.721,0.238c-0.109,0.041-0.22,0.07-0.319,0.111c-0.311,0.1-0.57,0.189-0.79,0.26     c-0.15,0.049-0.271,0.09-0.37,0.119c-0.021,0.01-0.04,0.01-0.06,0.021c-0.011,0-0.021,0.01-0.03,0.01     c-0.141,0.049-2.271,0.619-2.271,0.619l-1.31-3.34c0,0,7.979-3.85,12.899-6.539c0.33-0.182,0.641-0.352,0.94-0.521     C313.013,263.948,314.743,264.798,315.423,269.269z"/>
		</g>
		<g>
			<g>
				<path fill="#F1D2C3" d="M301.412,274.06c0,0-0.38,0.119-0.93,0.289h-0.01c-0.971,0.301-2.46,0.77-3.38,1.07      c-0.33,0.1-0.58,0.18-0.721,0.23c-0.74,0.26-1.7,1.75-3.12,2.43c-1.409,0.689-1.979-1.141-1.979-1.141      c-0.62,0.301-1.16-0.289-0.8-0.549c0.159-0.121,0.659-1.092,1.21-2.16c0.13-0.25,0.26-0.51,0.39-0.771      c0.36-0.68,0.7-1.318,0.96-1.719c0.1-0.16,0.19-0.291,0.26-0.361c0.101-0.1,0.24-0.189,0.41-0.27c0,0,0.01,0,0.021,0      c0.06-0.039,0.13-0.07,0.21-0.09c0.939-0.35,2.479-0.49,3.199-0.32c1.2,0.281,2.94,0.551,2.94,0.551      C301.183,270.798,301.412,274.06,301.412,274.06z"/>
			</g>
		</g>
		<path fill="#F2F2F2" d="M388.192,265.698c-0.22,0.26-2.56,1.24-5.609,2.441c-0.37,0.148-0.761,0.299-1.15,0.459    c-0.57,0.211-1.16,0.439-1.75,0.67c-1.939,0.75-3.979,1.48-5.85,2.15c-1.13,0.391-2.21,0.76-3.16,1.09    c-0.04,0.01-0.08,0.02-0.13,0.039c-0.24,0.08-0.48,0.16-0.71,0.24c-0.181,0.061-0.36,0.121-0.53,0.182    c-0.26,0.078-0.5,0.17-0.72,0.238c-0.11,0.041-0.221,0.07-0.32,0.111c-0.31,0.1-0.57,0.189-0.79,0.26    c-0.15,0.049-0.27,0.09-0.37,0.119c-0.02,0.01-0.04,0.01-0.06,0.021c-0.01,0-2.24,1.09-2.25,1.09l-0.2-0.42l-1.33-2.852    c0,0,0.24-0.129,0.67-0.359c2.21-1.17,9.351-4.98,13.34-7.23c1.8-1.01,3.271-1.869,3.91-2.289c0.16-0.1,0.26-0.17,0.311-0.221    c0.04-0.029,0.069-0.07,0.1-0.109c0.69-0.73,0.84-1.881,0.3-3.82c-0.14-0.52-0.33-1.52-0.54-2.73    c-0.22-1.279-0.46-2.799-0.67-4.27l0.43-8.891c0.46-0.41,1.07-0.699,1.881-0.74c2.72-0.148,4.109,0.621,4.109,0.621    s0.021,0.01,0.07,0.07c0.01,0.01,0.01,0.029,0.02,0.039c0.21,0.34,0.71,1.66,1.11,6.801    C388.812,255.038,388.883,264.899,388.192,265.698z"/>
		<g>
			<g>
				<path fill="#BB9365" d="M364.593,274.39c-0.97,0.299-2.36,0.738-3.24,1.029c-0.33,0.1-0.58,0.18-0.72,0.23      c-0.74,0.26-1.7,1.75-3.12,2.43c-1.41,0.689-1.979-1.141-1.979-1.141c-0.62,0.301-1.16-0.289-0.801-0.549      c0.16-0.121,0.66-1.092,1.21-2.16c0.13-0.25,0.261-0.51,0.391-0.771c0.359-0.68,0.7-1.318,0.96-1.719      c0.1-0.16,0.189-0.291,0.26-0.361c0.1-0.1,0.24-0.189,0.41-0.27c0,0,0.01,0,0.02,0c0.061-0.039,0.13-0.07,0.21-0.09      c0.94-0.35,2.48-0.49,3.2-0.32c0.851,0.201,1.96,0.391,2.54,0.48c-0.43,0.23-0.67,0.359-0.67,0.359L364.593,274.39z"/>
			</g>
		</g>
		<path fill="#F2F2F2" d="M180.803,354.767c0,1.908-1.455,3.455-3.25,3.455l0,0c-1.795,0-3.25-1.547-3.25-3.455v-35.141    c0-1.908,1.455-3.455,3.25-3.455l0,0c1.795,0,3.25,1.547,3.25,3.455V354.767z"/>
		<path fill="#F2F2F2" d="M166.455,358.22c-1.154,0-2.091-1.455-2.091-3.25l0,0c0-1.795,0.937-3.25,2.091-3.25h21.257    c1.154,0,2.09,1.455,2.09,3.25l0,0c0,1.795-0.936,3.25-2.09,3.25H166.455z"/>
		<path fill="#F2F2F2" d="M373.07,358.22c-1.154,0-2.091-1.455-2.091-3.25l0,0c0-1.795,0.937-3.25,2.091-3.25h21.257    c1.154,0,2.09,1.455,2.09,3.25l0,0c0,1.795-0.936,3.25-2.09,3.25H373.07z"/>
		<path fill="#F2F2F2" d="M386.948,354.767c0,1.908-1.455,3.455-3.25,3.455l0,0c-1.795,0-3.25-1.547-3.25-3.455v-35.141    c0-1.908,1.455-3.455,3.25-3.455l0,0c1.795,0,3.25,1.547,3.25,3.455V354.767z"/>
	</g>
</g>
</svg>