<svg xmlns="http://www.w3.org/2000/svg" xmlns:xlink="http://www.w3.org/1999/xlink" version="1.1" x="0px" y="0px" viewBox="0 0 1080 1080" style="enable-background:new 0 0 1080 1080;" xml:space="preserve">
<style type="text/css">
	.st0{opacity:0.5;fill:#D3D3D3;}
	.st1{fill:#F7F7F7;}
	.st2{fill:none;stroke:#D3D3D3;stroke-width:6;stroke-miterlimit:10;}
	.st3{fill:#0E538C;}
	.st4{fill:#0B4870;}
	.st5{fill:none;}
	.st6{fill:#FFBE55;}
	.st7{fill:#2A94F4;}
	.st8{fill:none;stroke:#FFBE55;stroke-width:4;stroke-miterlimit:10;}
</style>
<g id="Layer_3">
	
		<ellipse transform="matrix(0.6434 -0.7656 0.7656 0.6434 -223.4794 544.102)" class="st0" cx="472.3" cy="511.9" rx="219.8" ry="219.8"/>
	
		<ellipse transform="matrix(0.6434 -0.7656 0.7656 0.6434 -184.4178 607.7371)" class="st1" cx="560.1" cy="501.8" rx="244.7" ry="244.7"/>
	
		<ellipse transform="matrix(0.6434 -0.7656 0.7656 0.6434 -182.9028 607.2756)" class="st2" cx="560.3" cy="500" rx="262.1" ry="262.1"/>
</g>
<g id="back">
	<g>
		<path class="st3" d="M772,324.7L810,569c1.9,9.5-4.2,18.7-13.7,20.6l-370.9,48.3c-9.5,1.9-18.7-4.2-20.6-13.7l-46-228.4L772,324.7    z"/>
		<path class="st4" d="M766.2,287.7l5.8,37l-413.1,71.1l-6.1-30.2c-1.9-9.4,4.2-18.7,13.7-20.6l379.2-71    C755.1,272.2,764.3,278.3,766.2,287.7z"/>
		<line class="st5" x1="773.6" y1="324.4" x2="772" y2="324.7"/>
		<g>
			
				<rect x="767.2" y="322.3" transform="matrix(0.9839 -0.1786 0.1786 0.9839 -45.5963 142.5766)" class="st6" width="4" height="4.7"/>
			<path class="st6" d="M759.8,328.6l-7.8,1.4l-0.8-4.6l7.8-1.4L759.8,328.6z M744.2,331.5l-7.8,1.4l-0.8-4.6l7.8-1.4L744.2,331.5z      M728.5,334.3l-7.8,1.4l-0.8-4.6l7.8-1.4L728.5,334.3z M712.8,337.2l-7.8,1.4l-0.8-4.6l7.8-1.4L712.8,337.2z M697.2,340l-7.8,1.4     l-0.8-4.6l7.8-1.4L697.2,340z M681.5,342.9l-7.8,1.4l-0.8-4.6l7.8-1.4L681.5,342.9z M665.8,345.7l-7.8,1.4l-0.8-4.6l7.8-1.4     L665.8,345.7z M650.2,348.6l-7.8,1.4l-0.8-4.6l7.8-1.4L650.2,348.6z M634.5,351.4l-7.8,1.4l-0.8-4.6l7.8-1.4L634.5,351.4z      M618.8,354.2l-7.8,1.4l-0.8-4.6l7.8-1.4L618.8,354.2z M603.1,357.1l-7.8,1.4l-0.8-4.6l7.8-1.4L603.1,357.1z M587.5,359.9     l-7.8,1.4l-0.8-4.6l7.8-1.4L587.5,359.9z M571.8,362.8l-7.8,1.4l-0.8-4.6l7.8-1.4L571.8,362.8z M556.1,365.6l-7.8,1.4l-0.8-4.6     l7.8-1.4L556.1,365.6z M540.5,368.5l-7.8,1.4l-0.8-4.6l7.8-1.4L540.5,368.5z M524.8,371.3l-7.8,1.4l-0.8-4.6l7.8-1.4L524.8,371.3     z M509.1,374.2l-7.8,1.4l-0.8-4.6l7.8-1.4L509.1,374.2z M493.4,377l-7.8,1.4l-0.8-4.6l7.8-1.4L493.4,377z M477.8,379.8l-7.8,1.4     l-0.8-4.6l7.8-1.4L477.8,379.8z M462.1,382.7l-7.8,1.4l-0.8-4.6l7.8-1.4L462.1,382.7z M446.4,385.5l-7.8,1.4l-0.8-4.6l7.8-1.4     L446.4,385.5z M430.8,388.4l-7.8,1.4l-0.8-4.6l7.8-1.4L430.8,388.4z M415.1,391.2l-7.8,1.4l-0.8-4.6l7.8-1.4L415.1,391.2z      M399.4,394.1l-7.8,1.4l-0.8-4.6l7.8-1.4L399.4,394.1z M383.8,396.9l-7.8,1.4l-0.8-4.6l7.8-1.4L383.8,396.9z"/>
			
				<rect x="363.7" y="395.5" transform="matrix(0.9839 -0.1786 0.1786 0.9839 -65.1864 71.7309)" class="st6" width="4" height="4.7"/>
		</g>
		<g>
			
				<rect x="776.4" y="375.4" transform="matrix(0.9882 -0.1529 0.1529 0.9882 -48.5922 123.4354)" class="st6" width="4" height="4.7"/>
			<path class="st6" d="M768.9,381.5l-7.9,1.2l-0.7-4.6l7.9-1.2L768.9,381.5z M753.2,384l-7.9,1.2l-0.7-4.6l7.9-1.2L753.2,384z      M737.4,386.4l-7.9,1.2l-0.7-4.6l7.9-1.2L737.4,386.4z M721.7,388.8l-7.9,1.2l-0.7-4.6l7.9-1.2L721.7,388.8z M706,391.3l-7.9,1.2     l-0.7-4.6l7.9-1.2L706,391.3z M690.2,393.7l-7.9,1.2l-0.7-4.6l7.9-1.2L690.2,393.7z M674.5,396.1l-7.9,1.2l-0.7-4.6l7.9-1.2     L674.5,396.1z M658.7,398.6l-7.9,1.2l-0.7-4.6l7.9-1.2L658.7,398.6z M643,401l-7.9,1.2l-0.7-4.6l7.9-1.2L643,401z M627.3,403.4     l-7.9,1.2l-0.7-4.6l7.9-1.2L627.3,403.4z M611.5,405.9l-7.9,1.2l-0.7-4.6l7.9-1.2L611.5,405.9z M595.8,408.3l-7.9,1.2l-0.7-4.6     l7.9-1.2L595.8,408.3z M580,410.8l-7.9,1.2l-0.7-4.6l7.9-1.2L580,410.8z M564.3,413.2l-7.9,1.2l-0.7-4.6l7.9-1.2L564.3,413.2z      M548.6,415.6l-7.9,1.2l-0.7-4.6l7.9-1.2L548.6,415.6z M532.8,418.1l-7.9,1.2l-0.7-4.6l7.9-1.2L532.8,418.1z M517.1,420.5     l-7.9,1.2l-0.7-4.6l7.9-1.2L517.1,420.5z M501.3,422.9l-7.9,1.2l-0.7-4.6l7.9-1.2L501.3,422.9z M485.6,425.4l-7.9,1.2L477,422     l7.9-1.2L485.6,425.4z M469.9,427.8L462,429l-0.7-4.6l7.9-1.2L469.9,427.8z M454.1,430.2l-7.9,1.2l-0.7-4.6l7.9-1.2L454.1,430.2z      M438.4,432.7l-7.9,1.2l-0.7-4.6l7.9-1.2L438.4,432.7z M422.6,435.1l-7.9,1.2l-0.7-4.6l7.9-1.2L422.6,435.1z M406.9,437.5     l-7.9,1.2l-0.7-4.6l7.9-1.2L406.9,437.5z M391.2,440l-7.9,1.2l-0.7-4.6l7.9-1.2L391.2,440z"/>
			
				<rect x="371.1" y="438.1" transform="matrix(0.9882 -0.153 0.153 0.9882 -62.9717 62.2482)" class="st6" width="4" height="4.7"/>
		</g>
	</g>
</g>
<g id="front">
	<g>
		<path class="st7" d="M709.7,662.5L428,648.2c-10-0.8-19.2-4.3-21.2-14.1l-54-268.1c-2-9.7,4.3-19.2,14.1-21.2l270.6-41    c9.7-2,19.2,4.3,21.2,14.1l65.1,323.2C725.8,651,719.5,660.5,709.7,662.5z"/>
		<path class="st6" d="M553.2,610.6c-20.5,4.1-42.4-5.6-61.5-27.5c-18.5-21.1-32.4-51.3-39.2-84.9s-5.6-66.8,3.3-93.4    c9.2-27.5,25.6-45,46.1-49.1s42.4,5.6,61.5,27.5c18.5,21.1,32.4,51.3,39.2,84.9c6.8,33.6,5.6,66.8-3.3,93.4    C590.1,589,573.7,606.4,553.2,610.6z M503.7,364.9c-17.1,3.4-30.9,18.7-39,42.9c-8.4,25.1-9.4,56.6-3,88.6s19.6,60.6,37,80.5    c16.8,19.2,35.5,27.9,52.6,24.4c17.1-3.4,30.9-18.7,39-42.9c8.4-25.1,9.4-56.6,3-88.6s-19.6-60.6-37-80.5    C539.4,370.2,520.8,361.5,503.7,364.9z"/>
		<g>
			<path class="st6" d="M533.5,564.9l-3.8-19.1c-11.1,2-23.1,0.9-30.8-2.5l2-13.6c7.8,3.2,18.4,4.8,29,2.6     c13.5-2.7,21.1-12.3,18.9-23.1c-2.1-10.4-10.8-15.3-26-18.2c-20.9-3.7-34.6-9.9-37.9-26.4c-3.2-15.7,5.7-29.9,22.6-36.2     l-3.8-19.1l11.8-2.4l3.7,18.3c11.5-1.9,19.9-0.5,26,1.6l-2.2,13.4c-4.4-1.5-13.1-4.1-25.2-1.6c-14.6,2.9-18.4,12.8-16.9,20.3     c2,9.8,10,13.3,27.9,16.8c21.2,4,33,11.8,36.4,28.7c3,14.9-4.6,31-23.6,38.2l4,19.7L533.5,564.9z"/>
		</g>
		<path class="st8" d="M690.4,637.2L439,628.2c-9.2-0.9-17.2-3.9-18.9-12.6l-48.1-239c-1.8-8.7,3.9-17.2,12.6-18.9l242.1-36.6    c8.7-1.8,17.2,3.9,18.9,12.6l57.3,284.6C704.7,627,699.1,635.4,690.4,637.2z"/>
	</g>
</g>
</svg>